<svg width="186" height="188" viewBox="0 0 186 188" fill="none" xmlns="http://www.w3.org/2000/svg"><mask id="a" style="mask-type:alpha" maskUnits="userSpaceOnUse" x="1" y="4" width="184" height="184"><rect x="1" y="4" width="184" height="184" rx="92" fill="#C4C4C4"/></mask><g clip-path="url(#clip0)"><path d="M164.166 149.849c-.063.125-.188.25-.251.313.063-.125.125-.251.251-.313zM164.416 149.473c-.063.125-.125.188-.25.313.125-.125.187-.251.25-.313zM177.429 56.068s0 .0626.063.0626c-.063 0-.063 0-.063-.0626z" fill="#161212"/><path d="M39.5002 154.5c-20.8-11.2-3-21 8.5-24.5C52.5001 133.333 62.5 140.3 66.5 141.5c4 1.2 19.6667-.5 27-1.5 13.5-.667 40.8-2.6 42-5 1.2-2.4-1.5-16-1.5-16s16.977-1.5 23.5 7c16.5 21.5-91.9998 42.5-117.9998 28.5z" fill="#D6E3E2"/><path d="M76.7656 185.995c-5.6307-.502-11.3865-.627-16.5792-3.195-2.002-.877-3.8164-2.005-5.6307-3.258-.4379-.063-.8759-.125-1.3138-.251-3.1282-1.002-5.0676-3.508-7.9455-4.823-2.3774-1.316-5.1302-1.566-7.3825-3.007-3.1281-2.256-5.5055-5.45-8.6337-7.643-3.7538-2.631-6.7568-6.954-9.5721-10.274-2.5026-2.694-4.1918-5.889-5.443-9.334-3.1907-5.576-5.50557-11.527-7.38246-17.666-.5005-1.692-1.00101-3.383-1.50151-5.075-.18769-.689-.43794-1.44-.62563-2.13 0-.062-.06257-.188-.06257-.25-2.56508-9.084-4.879915-18.355-4.629663-27.7522C.12583 83.1302 1.50222 74.9862 4.0673 67.2808c2.25227-6.202 5.69324-11.9654 9.3845-17.4156 6.2563-11.0256 14.7649-20.6104 24.8375-28.1906 3.003-2.4431 6.1312-4.6357 9.5096-6.5151 1.1261-.5638 2.2523-1.065 3.3784-1.5662 4.8174-2.5058 9.9475-4.63575 15.2028-6.26454C74.3256 4.13382 82.2086.750948 90.7797.12449c9.7603-.939687 19.1443 2.12996 28.3413 4.94902.187.06264.375.12529.563.18793.125 0 .313.06265.438.06265 3.691 1.00233 7.195 2.69377 10.636 4.32256 4.442 2.12995 8.758 4.57315 12.888 7.32955.125-.0626.25-.0626.375.0627.813.5638 1.564 1.1276 2.315 1.754.187.188.438.3759.688.5012.813.5638 1.564 1.1276 2.377 1.6914.251.1253.501.3133.689.5012v.1879c3.065 2.2553 6.131 4.5105 8.696 7.3296 1.626 1.8167 3.128 3.7587 4.504 5.7634.125.1253.251.2506.376.3759 0 0 0 .0626.062.0626.125.188.313.3759.438.5012l.063.0626c.313.3759.625.7518.938 1.1277.125.1879.25.3132.438.5011l.063.0627.062.0626c.063.0627.063.1253.125.188V37.8373c.188.2505.438.5011.626.7517.375.4385.751.877 1.126 1.3156.25.3132.501.5638.751.877.25.3132.5.5638.751.877.125.1253.25.3133.375.4386.313.4385.626.877.876 1.3155.188.3133.438.6891.626 1.0024.062.1253.125.2505.187.3132.313.5012.626 1.0023 1.001 1.5035.313.5012.626 1.0023.939 1.5035.5.8144.938 1.6914 1.439 2.5058.125.2506.25.4385.375.6891.501 1.0024 1.001 2.0047 1.502 3.007.312.6891.688 1.3782 1.001 2.0673.062.1253.125.2506.187.3759.063.1253.125.3132.188.4385.063.188.125.3759.25.5638.063.1253.125.2506.125.3759.125.2506.188.4385.251.6891.312.7518.625 1.4409.875 2.1926 0 .0627.063.1253.063.188.063.1879.125.3132.125.5011.063.1253.063.2506.125.3133.063.1879.125.4385.188.6264.125.3759.188.6891.313 1.065.313.877.625 1.6914.813 2.5685.25.9396.501 1.8793.813 2.819.126.4385.251.8771.438 1.2529.126.4386.251.8771.376 1.3156 0 .1253.062.2506.062.3759.063.3759.188.7517.251 1.1276.062.2506.125.5012.187.7517.063.2506.188.5012.251.7518.062.1253.125.3132.187.4385.063.1253.125.2506.188.4385.062.1253.062.188.125.3133.125.2506.188.4385.313.6891.062.5011.125 1.0649.188 1.5661 1.063 5.5755 1.626 11.3389 1.626 17.2903v1.5661c.25 5.137-.25 10.337-1.189 15.474-1.063 5.324-2.69 10.336-4.692 15.285-.751 2.067-1.626 4.135-2.565 6.139 0 0 0 .063-.062.063-.126.251-.188.439-.313.689-2.753 7.392-6.82 14.158-12.513 19.671-6.444 8.394-14.952 15.849-24.274 20.924-4.129 2.38-7.758 5.638-12.075 7.705-4.317 2.13-8.759 4.009-13.514 4.761-6.506.814-13.2.251-19.5819.752-6.2563-.376-12.3249-.815-18.3935-2.067zM3.44167 83.5687c-.37538 2.1299-.56306 4.3225-.62563 6.5151-.06256 1.5662-.06256 3.1323-.06256 4.6985 0 .6891.06256 1.4408.12513 2.1299 0 .3759.06256.6891.12512 1.065 0 .1253 0 .2506.06256.3759 0 .2506.06257.4385.06257.6891.06256.4385.12512.9397.18769 1.3778v.188c.18769 1.88.25025 3.759.5005 5.576.31282 2.443.87588 4.761 1.62664 7.079.31282 1.065.6882 2.067 1.00101 3.132.06256.125.12513.251.12513.439 0 0 0 .062.06256.062.06256.126.12513.251.12513.376v.063c.06256.062.06256.188.12512.25 0 .063.06257.126.06257.188 0 .063.06256.126.06256.188 0 .063.06256.126.06256.188.06256.125.06256.188.12513.313 0 .063.06256.063.06256.126 0 .062 0 .062.06256.125.06257.188.18769.438.25026.626.18768.439.37537.877.56306 1.316.18769.439.37538.877.56307 1.253.25025.501.43794 1.002.68819 1.503.37538.752.68824 1.504 1.06354 2.193.1252.251.2503.501.3754.752.0626.125.1251.25.1877.376.1251.25.2503.438.3754.689.0625.125.1251.25.1877.376.1251.25.1877.438.3128.689.1251.25.1877.438.3128.689 0 .062.0626.125.0626.188.1877.501.4379 1.065.6256 1.566.0626.188.1251.376.1877.501.0625.188.1251.376.2502.501.8134 1.88 1.7518 3.634 2.6277 5.45.4379 1.003.8133 2.005 1.2512 3.007.0626.188.1252.314.1877.502.0626.188.1252.313.2503.501.3128.626.6256 1.315.9384 1.942.1252.188.1877.438.3129.626.4379.877.8758 1.692 1.3763 2.506.5631.94 1.1262 1.879 1.7518 2.819.0626.125.1877.251.2503.376.4379.564.8133 1.19 1.2512 1.754 0 .063.0626.063.1251.125.1877.251.3754.502.5631.752.0626.063.0626.125.1251.125.1877.251.3754.502.5631.689.1251.126.2503.314.3128.439.7508 1.065 1.5015 2.193 2.3149 3.195.6256.814 1.2512 1.629 1.9394 2.381.0626.125.1877.187.3128.313.1252.125.1877.188.3128.313.1252.125.1877.188.3129.313.1251.063.1876.188.3128.251.1251.062.1877.188.3128.25.1877.188.3754.376.6256.564.1251.063.1877.188.3128.251.1252.125.3129.313.5005.438.5631.501 1.0636 1.003 1.6267 1.504.563.501 1.0636 1.002 1.6266 1.503.3128.251.6256.564.9385.815.3128.25.6256.563 1.001.814.6882.501 1.3764 1.002 2.1271 1.441.1877.125.3754.25.5631.376.1251.062.3128.188.4379.25.0626 0 .1252.063.1252.063s.0625 0 .0625.063c.1877.125.3754.188.5005.313.1877.125.3754.188.6257.313.1876.125.3753.188.563.313.6256.314 1.2513.564 1.8769.815.0626.062.1877.062.2503.125.0625.063.1877.063.2502.125.1877.063.3754.126.5005.188h.0626c1.0636.376 2.0646.815 3.1281 1.253.1877.063.3129.125.5005.251.1877.062.3129.125.5005.25.6257.314 1.2513.627 1.8769.94 0 0 .0626 0 .0626.063.3128.188.6256.313.9384.501.6257.313 1.1887.626 1.8144.94 1.8769.939 3.7538 1.754 5.6932 2.568.5005.188.9385.439 1.439.626.3128.126.6882.314 1.001.439.3128.125.6882.313 1.001.438.1251.063.2502.126.3754.126.1251.062.3128.125.4379.188h.0626c.1877.062.3128.125.5005.188.0625.062.1877.062.2502.125.0626 0 .1252.063.1877.063h.0626c.1251.062.2502.125.3754.125.0625 0 .1251.063.1876.063.1252.062.2503.062.3754.125.1877.062.3754.125.5631.188.1251.062.3128.125.4379.125.1877.063.3128.125.5005.125 1.5641.439 3.1282.689 4.7548.877 1.001.126 1.9395.188 2.9405.314 1.7518.25 3.5035.689 5.2553 1.002 1.6266.313 3.2533.752 4.8799 1.002 2.1272.314 4.3169.627 6.444.627H93.3448c.2503 0 .5005-.063.7508-.063.1251 0 .2502-.063.3753-.063.1252 0 .1877 0 .3129-.062.3128-.063.563-.063.8758-.125.5631-.063 1.1262-.188 1.6893-.251 3.3161-.376 6.6321-.439 9.9471-.501 1.439 0 2.816-.063 4.255-.313.125 0 .25-.063.438-.063h.062c.125 0 .25-.063.313-.063h.125c.063 0 .125 0 .188-.062.062 0 .125 0 .187-.063.126 0 .251-.063.438-.125H113.991c1.751 0 3.378-.063 5.067-.564 1.252-.376 2.44-.877 3.691-1.441 1.314-.626 2.691-1.19 4.067-1.817 1.001-.501 1.877-1.065 2.815-1.629.751-.438 1.564-.939 2.315-1.378.188-.125.376-.25.563-.313.313-.188.563-.376.876-.501.313-.188.563-.313.876-.501.25-.126.438-.251.688-.376.501-.251.939-.501 1.377-.752 1.126-.626 2.189-1.315 3.315-1.942 1.064-.564 2.065-1.253 3.066-1.879 1.126-.752 2.19-1.504 3.253-2.256.188-.125.376-.25.501-.438.313-.251.688-.564 1.001-.814.188-.126.313-.314.5-.439.251-.251.501-.439.751-.689.813-.752 1.627-1.504 2.503-2.193.876-.689 1.751-1.378 2.627-2.067 1.126-.94 2.315-1.879 3.379-2.882.187-.188.375-.376.5-.501s.313-.376.501-.564c.625-.689 1.314-1.315 1.939-2.004.626-.689 1.126-1.316 1.627-2.068.125-.25.313-.438.438-.689.25-.313.438-.564.688-.877l.063-.062.062-.063c.375-.439.751-.94 1.126-1.441-.062.125-.125.188-.25.313.063-.125.188-.25.25-.313l.063-.063v-.062c0-.063 0 0 0 0l.062-.063v-.063s0-.062.063-.062c.626-.752 1.251-1.566 1.814-2.381.063-.062.125-.188.188-.313.188-.313.375-.564.563-.877.188-.313.375-.626.563-.877.063-.125.125-.188.188-.313.876-1.253 1.939-2.443 2.753-3.759 1.001-1.691 2.064-3.32 2.502-5.262 0-.063.063-.126.063-.251.375-.626.688-1.253 1.001-1.879.876-1.817 1.626-3.634 2.314-5.513.689-1.879 1.314-3.759 1.877-5.638 0-.063.063-.125.063-.188v-.063c.188-.626.375-1.19.5-1.816.063-.314.188-.627.251-.94.062-.313.187-.627.25-.94.313-1.253.626-2.443.938-3.696.563-2.13 1.064-4.323 1.502-6.515.313-1.566.626-3.132.813-4.699.188-1.942.313-3.8209.376-5.7003 0-2.6938-.251-5.3876-.689-8.0187-.438-2.7564-.938-5.4502-1.689-8.1439-.563-1.8794-1.001-3.7588-1.439-5.6381v-.0627c-.5-2.1926-.938-4.3852-1.439-6.5778.063.4385.188.877.251 1.3156-.188-.8144-.376-1.5662-.501-2.3806v-.0626c-.563-2.3806-1.189-4.7611-1.752-7.079 0 .1253.063.2506.063.3759-.063-.1253-.063-.3133-.125-.4385-.063-.188-.125-.4386-.188-.6265.063.2506.125.5638.188.8144-.688-2.8817-1.502-5.7634-2.691-8.5198-.5-1.1903-1.063-2.3179-1.626-3.4456-1.877-2.4431-3.754-4.8863-5.631-7.3922-2.44-3.6334-5.005-7.2042-8.258-10.2739-5.631-5.4501-12.012-9.9606-18.894-13.7194-6.507-3.884-13.389-7.2669-20.583-9.71009-.689-.18793-1.377-.37587-2.065-.56381-1.939-.50117-3.879-.93969-5.818-1.44085-.751-.25058-1.564-.43852-2.315-.62646-2.127-.50117-4.192-.93969-6.319-1.37821-2.1273-.37587-4.317-.62646-6.5067-.6891-3.2533-.31323-6.5691-.31323-9.8224 0-.8759.18794-1.7517.31323-2.5651.31323-.5005.12529-.9384.25058-1.4389.37587-.1251 0-.1877.06265-.3128.06265-.1252 0-.1877.06264-.3128.06264-.3129.06265-.6257.18794-.9385.25059-.5005.12529-1.001.31323-1.4389.50116-.3129.1253-.6257.25059-.9385.37588-.5005.18794-.9384.37587-1.4389.50117-.6882.25058-1.3139.43852-1.9395.6891-.3128.12529-.6256.25058-1.001.37587-.3128.12529-.6256.25059-.9385.37588-.8133.12529-1.6892.31323-2.5025.56381-3.3158.87704-6.444 2.44317-9.5096 4.00937-1.564.8144-3.1281 1.5661-4.6296 2.3805s-2.9405 1.8167-4.3794 2.6938c-1.439.9397-2.9405 1.8167-4.5046 2.6311-.3128.1879-.6256.3132-.9384.5012-.0626.0626-.1877.0626-.2503.1253-.0625 0-.0625.0626-.1251.0626-.1251.0626-.2503.1253-.3128.1879-.1251.0627-.1877.1253-.3128.188l-.0626.0626c-.0626.0627-.1877.1253-.2503.188-.3128.1879-.6256.3758-.8758.6264-.1877.1253-.3754.2506-.5631.4385-.3128.188-.5631.4386-.8759.6891-1.3764 1.1277-2.7528 2.3179-4.0666 3.5708-.1251.1253-.3128.2506-.4379.4386-.1252.1253-.3128.3132-.438.4385-.1251.1253-.2502.2506-.3128.3759 0 .0626-.0626.0626-.0626.1253-.1251.1252-.2502.2505-.3753.4385-.0626.0626-.1877.1879-.2503.2506-.0625.0626-.1251.1252-.1251.1879-.0626.0626-.0626.0626-.1251.1253-1.0636.8144-2.1272 1.7541-3.1282 2.6311-.5005.4385-.9384.8144-1.3764 1.2529-.1251.1253-.2502.188-.3754.3133-.0625.0626-.0625.0626-.1251.0626-.0625 0-.0625.0626-.1251.0626-.1251.1253-.3128.188-.4379.3133-.1877.1253-.3129.2506-.5006.3758-.0625 0-.0625.0627-.1251.0627-.1251.0626-.2502.1879-.3754.2506-.1251.1253-.3128.2506-.4379.3132 0 0-.0626 0-.0626.0627-.1251.1252-.2502.1879-.3753.3132-.1252.1253-.3129.2506-.438.3759-1.1261 1.0023-2.1897 2.0046-3.2533 3.0696-.563.5638-1.1261 1.1276-1.6892 1.6288-.1877.1879-.3753.3759-.563.5638-.0626.0626-.1252.1253-.1877.1879-.2503.2506-.5005.5012-.7508.8144-.0625.0627-.1251.1253-.1251.188-.1877.1879-.3754.4385-.5005.6264-.1877.188-.3754.4385-.5005.6265-.0626.1253-.1877.1879-.2503.3132 0 .0627-.0625.0627-.0625.1253l-.0626.0626c-.0626.1253-.1251.188-.2502.3133-.0626.0626-.1252.1253-.1877.2506l-.0626.0626c-.1251.1253-.2502.3132-.3128.4385-.1251.1253-.2503.3133-.3128.4385-.0626.0627-.1252.188-.1877.2506l-.0626.0627c-.1251.1879-.3128.3759-.4379.5638-.0626.1253-.1251.1879-.2503.3132-.1251.188-.2502.3759-.3754.5012-.0625.0626-.0625.1253-.1251.1879-.0625.0627-.1251.1253-.1251.188-.1251.1879-.3128.3758-.4379.6264-.0626.1253-.1877.2506-.2503.4385-.6256 1.0024-1.3138 2.0047-1.9395 3.007-.7507 1.1277-1.5015 2.1926-2.1271 3.3829-.3128.5638-.6256 1.1903-.9384 1.8167-.2503.4386-.438.9397-.6882 1.3782-.0626.1253-.1252.2506-.1252.3133 0 0 0 .0626-.0625.0626-.0626.1253-.1252.3132-.1877.4385-.43796.9397-.8759 1.8794-1.18871 2.8191-.37538 1.1276-.6882 2.2552-1.06358 3.3829-.06256.1253-.06256.3132-.12512.4385-.18769.6265-.31282 1.2529-.50051 1.942-.06256.1253-.06256.2506-.06256.3759v.0626c0 .1253-.06256.2506-.06256.3759-.06257.1253-.06257.3132-.06257.4385-.06256.1253-.06256.3133-.06256.4385 0 .1253-.06256.3133-.06256.4386 0 .1253-.06256.3132-.06256.5011 0 .1253-.06257.3133-.06257.4386-.06256.3132-.12512.6264-.12512 1.0023 0 .1879-.06257.3132-.06257.5012v.4385c0 .1879-.06256.3759-.06256.6264-.06256.188-.12513.3133-.18769.5012-.68819 1.942-1.1887 3.9467-1.75177 5.8887-.06256.1879-.06256.3132-.12512.5012-.06256.1879-.12513.4385-.12513.6264-.06256.188-.06256.3759-.12512.5638v.0627c-.12513.5638-.25026 1.065-.37538 1.6288 0 .0626 0 .1253-.06257.1879 0 .1253-.06256.2506-.06256.3759V82.7543c-.06256.1253-.06256.3132-.06256.4385-.31282.1879-.31282.3132-.31282.3759zM147.274 21.5494c.313.2505.688.4385 1.001.6264-.5-.4385-.938-.8144-1.439-1.1903.125.188.313.3759.438.5639zM111.238 5.26144c1.001.18794 2.064.43853 3.065.68911-.875-.31323-1.814-.50117-2.69-.8144-.688-.12529-1.439-.25058-2.127-.37587.563.18794 1.189.31323 1.752.50116z" fill="#171212"/><path d="M175.74 61.1423c0 .1253.062.1879.062.3132 0-.0626 0-.1879-.062-.3132zM4.75476 75.1749c-1.31383-3.6334 1.001-7.2669 2.00201-10.6497.87589-2.4432 1.75177-4.8864 2.81534-7.2669 1.62669-3.4456 3.75379-6.7031 5.81839-9.8981 3.0656-4.1346 6.2563-8.2066 9.6347-12.1533 3.3158-4.4478 7.1322-8.5198 11.6367-11.84 1.001-.6265 2.1897-1.0024 3.3784-1.1276-.6256 1.5661-1.6266 2.9443-3.003 3.9466-2.1897 1.8794-4.3169 3.7588-6.3189 5.8887-1.6266 1.9421-3.0656 3.9467-4.7548 5.8887-.1877.1253-.3128.3133-.5005.4386-.3754.3132-.6882.6891-1.0635 1.0649-.5005.5639-.9385 1.1277-1.3764 1.7541-.0626.1253-.1877.2506-.2503.3759l-.0625.0627c-.1877.2505-.438.5638-.6257.8143-.2502.3759-.563.8144-.8133 1.1903 0 0 0 .0627-.0626.0627-2.7527 3.5081-5.3178 7.0789-7.5075 10.9003-2.8779 4.6985-4.50457 9.9607-6.3189 15.0977-.43794 2.0046-1.18869 3.9466-2.62764 5.4501zM70.2584 142.269c-6.9445-.815-4.6922-4.386-4.6922-9.46-.1877-5.701.1251-11.464.5005-17.102.0625-2.694-.1877-5.388-.1877-8.082 0-5.512.5005-11.0252.3754-16.5381.0625-4.5105.1877-9.0836.5005-13.5941.0625-1.065.3754-2.0673 1.001-2.8817.2502.5012.3754 1.065.4379 1.6914-.1877 6.1393-.563 12.216-.563 18.3552-.0626 3.6335-.3129 7.2673-.3754 10.9003-.1252 3.571.2502 7.142.1877 10.713-.3754 5.324-.6257 10.587-.5005 15.912.1876 2.255-.3129 4.573-.2503 6.828.5631 2.819 11.0111 1.629 13.3259 1.253 3.6287-.125 7.1322-1.253 10.7609-1.629 5.5681-.188 11.0739-.752 16.5789-1.128 3.441-.25 6.82-.187 10.261-.125 3.378.063 6.819.125 10.135-.125h1.501c1.564-.063 3.191-.063 4.567.752-1.188.939-2.752 1.065-4.191.939-3.316.126-6.632.063-9.948.063-5.255 0-10.51-.063-15.703.376-4.6298.564-9.322.626-14.0142 1.002-3.0031.501-6.0061 1.316-9.0717 1.504-2.5025.376-5.0676.626-7.6327.626-1.001-.125-2.002-.188-3.003-.25z" fill="#171212"/><path d="M66.2542 142.394c-.1877 0-.3128-.063-.5005-.063-.7507-.062-1.4389-.376-2.0645-.752-.5006-.25-1.0011-.626-1.439-.877-.2503-.187-.5631-.313-.8133-.501-.5631-.313-1.1262-.626-1.6892-.939-.8759-.439-1.7518-.94-2.6277-1.379-2.1897-1.127-6.1937-3.821-9.0091-6.703.1877-.125.3754-.313.5631-.438-.3128-.251-.6882-.251-1.0636-.126-.9384-1.065-1.7517-2.192-2.2522-3.194-.3128-.752-.5005-1.441-.5005-2.13.0625-1.128.1877-2.256.3753-3.383.6882-3.884 1.9395-7.643 2.6903-11.464 1.6892-5.451 3.8163-10.7755 5.5681-16.1631.3128-1.0023.6256-2.0673.9384-3.0696 1.1262-3.6961 2.2523-7.4549 3.2533-11.151.3754-1.2529.6882-2.5685 1.0636-3.8214.6882-2.5058 1.3764-5.0116 2.2522-7.4548.1877-.5012.438-1.065.7508-1.5035.2502-.3132.5631-.6265.8759-.8771h.1251c.2503 1.7541-.6256 3.5082-1.1261 5.1996-.5005 1.6288-.9385 3.2576-1.439 4.8864-2.9404 10.963-6.2563 21.8007-10.1352 32.4505-1.2513 3.696-1.6892 7.58-2.8779 11.339-.3754 1.942-.8759 3.947-.6882 5.889 1.001 2.819 3.6287 4.698 5.7558 6.64 2.6277 2.381 5.9435 3.821 9.0091 5.513 1.3138.877 2.8153 1.566 4.004 2.506.2503.188.5005.438.7508.689.1251.125.2502.313.3128.438.1251.188.2503.376.3128.564-.0625-.125-.2502-.125-.3754-.125z" fill="#171212"/><path d="M67.2555 69.6621c.0625-2.3806.1877-4.7611.3753-7.079.1252-1.8167.1252-3.6961-.6881-5.3249-1.8144 3.5082-2.8154 7.3922-4.3795 10.9004-.1877.3132-.4379.6891-.6882.9397-.1876-.8144-.2502-1.6288-.1251-2.4432.9385-3.007 1.9395-6.014 3.2533-8.8331 1.8769-5.0743 3.2533-2.0046 4.0666 1.3782.3754 3.4456-.3128 6.9537-.3128 10.3992-.1251 2.6938.0625 5.8261-1.5641 8.144-1.001-2.6311.3128-5.3875.0626-8.0813zM134.51 137.257c0-.313-.062-.564-.125-.877 0-.125-.062-.188-.062-.313-.188-1.128.187-2.193.25-3.321.125-1.754-.188-3.445-.438-5.199-.063-.501-.125-1.003-.188-1.504-.75-5.262-.688-10.649-1.376-15.912-1.001-4.009-1.564-8.144-1.251-12.2783-.063-3.3829-.438-6.891-.563-10.2113-.063-1.1276-.125-2.2552-.251-3.3828-.187-2.8191-.438-5.5755-.563-8.3946-.25-3.5708-.813-7.1416-.938-10.7124-.063-2.3179-.813-4.5105-.876-6.8284-.063-.5011-.125-1.0023-.063-1.5035.063-.2506.126-.5011.126-.7517.062-.3759.25-.7518.5-1.1276 0-.0627.063-.1253.063-.1253.25.1253.375.4385.5.6891 0 .0626.063.0626.063.1253.5 1.1276.688 2.2552.75 3.5081.126 1.6915.564 3.3829.689 5.0743.813 10.0234 1.564 20.2346 2.064 30.2579.125 2.0047.063 4.0094.063 5.9512 0 1.88.062 3.759.438 5.638 0 .126.062.251.062.376 1.314 4.824 1.064 9.836 1.564 14.785.063.563.063 1.065.125 1.628-.187.188-.125.564.063.877.25 2.444.688 4.824.938 7.205 0 .188.063.438.063.626-.063 1.754.063 4.887-1.439 5.889-.062.062-.062.062-.125.062-.063-.125-.063-.187-.063-.25z" fill="#171212"/><path d="M68.5065 57.0703H68.1312c-.2503 0-.5631-.0626-.5005-.3758.5005-.6892 1.5015-.8771 2.3148-.9397h.4379c-.3128.3132-.5005.7517-.5005 1.2529v.1879c-.4379-.0626-.9384-.0626-1.3764-.1253zM61.7497 66.5298c.1877.3133 0 .7518-.3128.8771-.1252-.3132 0-.7518.3128-.8771zM55.3684 121.596c.3128-1.567.6256-3.133.8759-4.762.4379-2.505.7507-4.949 1.1261-7.454.1877-1.379.4379-2.819 1.3764-3.884.5631 1.566.1877 3.32-.0626 4.949-.1877 1.566-.3753 3.132-.6256 4.635-.3754 2.506-.8133 5.012-1.3138 7.518-.2503 1.503-.5631 3.069-1.6892 4.197-.5005-1.754-.0626-3.445.3128-5.199zM66.9425 142.77h-.2502c-1.001-.126-1.9395-.501-2.8154-1.003h-.1877c-.0625-.125.0626-.25.1877-.375.2503-.251.5631-.376.8759-.502 1.1887-.501 2.7528-.062 4.0041-.062 3.1281.062 6.1937.125 9.3219-.126 8.9465-1.44 17.893-3.382 27.0272-3.32 4.505-.062 9.009-.752 13.514-1.065 2.127-.125 4.316 0 6.444-.125 2.127-.125 4.191-.501 6.256-.376 1.314.063 2.565.627 3.378 1.629-.312.313-.75.438-1.188.564-1.001.313-2.065.313-3.129.188-7.757.438-15.077.626-22.835 1.44-5.005 0-9.9476.439-14.8275 1.065-4.7548.502-9.3845 1.629-14.0767 2.256-1.6266.125-3.2533.188-4.8799.188-2.2523-.063-4.5671-.188-6.8194-.376z" fill="#171212"/><path fill-rule="evenodd" clip-rule="evenodd" d="M86.8392 125.239c.03.127.0472.2.0571.233.0069.022.0282.062.0563.114.0992.183.2827.523.217.838-.0804.375-.2025.541-.2427.596-.0022.003-.0041.005-.0058.008 0 0-.3993.193-.4922.25-.0057.004-.0116.008-.0177.012-.1016.067-.2609.172-.6993.267-.4648.102-1.4035.296-1.4035.296s-.1934-.217-.2877-.891c.0022-.002.1079-.047.2627-.113.4312-.185 1.2435-.532 1.2608-.571.0094-.021-.0876-.151-.2174-.325-.1933-.259-.4593-.615-.5544-.855-.1591-.401-.2656-.796-.2656-.796s-.1107.049-.1386.19c-.0278.14-.1669.669-.3276.938-.1694.27-.2172.359-.2241.394-.0028.014-.0026.087-.0023.193.0004.165.001.41-.0085.643-.0031.113.0033.243.0275.381-.0416.037-.3759.315-.5391.358-.0536.01-.1042.016-.1579.022-.1188.013-.2531.028-.4709.104-.147.052-.2834.165-.4176.277-.1548.128-.3066.254-.4684.281-.3911.06-.9687.021-1.3489-.005-.1905-.013-.3315-.022-.3746-.015-.1467.025-.0873.17-.0873.17.2793.195 1.2755.459 1.5207.49.341.036 1.189-.059 1.6708-.343.2007-.117.3296-.21.4295-.283.1696-.123.256-.186.469-.197.1026.317.1928.556.1928.556s-1.9421.488-3.1962 1.342c-.0029-.002-.0146-.008-.0344-.019-.2234-.121-1.4712-.798-2.5991-.982.0083-.009.2174-.707.2232-1.116.0003-.045.001-.096.0018-.151.0047-.326.0116-.807-.061-1.221.0218-.021.0585-.056.1049-.101.2191-.213.6542-.636.7517-.698.0435-.027.1082-.03.1907-.033.1733-.005.4254-.014.7254-.265.1571-.131.2477-.256.3271-.365.1443-.198.2514-.346.6536-.388.2169-.023.4602-.04.687-.055.4158-.029.7764-.054.8188-.107.0656-.081.1047-.17-.0637-.231-.177-.061-1.2769-.311-1.664-.222-.3871.088-.8419.215-1.2309.443-.1873.114-.329.251-.4599.376-.1406.135-.2687.259-.4274.329-.1269.056-.2832.125-.4245.188-.1811.08-.3375.149-.3758.165-.0159-.025-.0307-.048-.0447-.07-.061-.095-.1056-.164-.1461-.268-.1391-.35-.2319-.467-.2319-.467s-.0572.603-.0824.795c-.0249.202-.0383.281-.0383.281l.3646-.192s.1565.175.2766.491c.12.316.1307.533.1307.533s-.4467.465-.9753.683c-.5283.226-1.1506.483-1.4101.513-.2591.039-.6587-.124-.7183-.625-.0405-.341.0918-.754.1884-1.056.0456-.142.0833-.26.0908-.333.0012-.012.0031-.033.0056-.063.0471-.555.3393-3.998 1.3871-4.669.3623-.299.6398-.345.8673-.383.0612-.01.1188-.02.1735-.034.2491-.064.5672-.141.5672-.141s.9062-.323 1.0625-.505.2132-.263.1738-.357c-.0047-.011-.0304-.048-.0716-.107-.3092-.445-1.4914-2.147-1.2253-3.596.3011-1.65 1.862-1.753 2.0269-1.762.1736-.008 1.6307.076 2.0096 1.58.3872 1.495-.5493 3.49-.7135 3.689.006.122.0242.312.1582.384.1345.08 1.3901.488 1.9069.558.051.008.1031.015.1561.021.493.064 1.0589.137 1.4871 1.012.1726.322.5003.967.8442 2.289.2344.902.3569 1.421.421 1.693zm-5.3537 2.18c.0429-.011.6592-.216.702-.757.0253-.426-.0927-.587-.2054-.74-.0352-.048-.07-.096-.0996-.15-.1162-.238.066-.247.066-.247s-.2803-.038-.3012.241c-.0013.018-.0025.035-.0037.051-.0181.253-.0307.429-.2504.44-.2344.012-.1717-.304-.0606-.345.1111-.04.2393-.438.0455-.663-.1852-.226-.4269-.362-.4269-.362s.1692.253.0918.448c-.0789.172-.2356.308-.3946.446-.2365.206-.478.416-.4769.754.0019.566.391.868.6804.915 0 0-.3826-.347-.2109-.747.1716-.4.221-.28.221-.28s-.0795.152.0154.312c.1041.169.3007.098.4201.049.1193-.049.3319.027.3348.262.002.21-.122.345-.1449.37-.0008.001-.0014.002-.0019.003zm-.5798 2.699c-1.9488-.878-4.641-1.484-5.3279-1.476-.687.008-1.0673.409-1.1907.729-.1067.276-.0622.453-.0193.624.0067.027.0134.054.0194.08.0446.198.4932 1.177 3.5509 1.782 3.058.614 5.7843-.025 5.7843-.025s-.8592-.836-2.8167-1.714zm7.5187-.842c-.2282-1.125-2.0168-.817-2.7732-.687-.0831.014-.1537.026-.2085.034-.5442.079-2.4941.585-3.9408 1.413 0 0 .4612.178 1.4008.705.9392.519 1.3062.901 1.3062.901s.8206-.118 2.0041-.464l.1684-.049c1.1336-.328 2.2925-.663 2.043-1.853z" fill="url(#paint0_radial)"/><path d="M132.446 137.758c-.063 0-.188-.063-.313-.063-.25-.125-.438-.25-.5-.501-.188-.376-.188-.939.062-1.378.063-.125.125-.251.25-.313.564-.564 1.439-.627 2.19-.94.25-2.318.188-4.636 0-7.016-.188-2.757-.5-5.513-.438-8.269.188-4.448 0-8.959-.5-13.344-.063-.564-.125-1.128-.188-1.691-.063-1.316-.125-2.632-.25-3.947-.376-5.3876-1.126-10.7125-2.253-15.9748-.062-.1879-.062-.4385-.125-.6264-1.063-6.014-.876-12.216-1.689-18.2926-.375-2.6311-.438-5.3249-1.001-7.8934.063-.0626.125-.1879.188-.2506.313-.5011.375-1.0023.25-1.5661v-.1253c0-.3132-.125-.6265-.313-.877.313 0 .563.0626.814.2505l.062.0627c.188.1879.376.3759.501.5638.625.9397.688 2.3179.938 3.3829.876 5.8887 1.439 11.84 1.564 17.7914.125 5.0743 1.314 10.0233 2.002 14.9723.626 4.949.751 10.0236 1.251 14.9726.626 5.199.313 10.524.438 15.787-.25 0-.375.062-.5.187-.188.188-.125.564.062.877.063.063.126.188.251.251.062.063.125.125.187.125.063.877.063 1.754.188 2.631.125 1.379.25 2.82.313 4.198v2.318c-.063.877 0 1.816-.438 2.631-.25.376-.751.438-1.189.626-.187.126-.375.188-.563.251-.375.125-.688.188-.938.501h.313c0 .125-.063.251-.126.376-.125.188-.312.25-.5.25.063.063.063.063 0 .063zM65.441 142.018c-.5005-.063-1.0636-.251-1.6267-.626-.5005-.251-1.001-.502-1.4389-.815-.9385.376-1.6892-.626-2.3774-1.065-.6256-.438-1.2513-.94-1.8769-1.441-1.9395-1.628-3.9415-3.195-5.8809-4.761-1.8769-1.503-3.5661-3.132-5.3805-4.636-1.5015-1.127-2.8153-2.192-2.1271-4.259 1.7518-8.896 4.6922-17.416 7.5701-25.9985 1.2513-3.4455 1.6892-7.079 2.6277-10.5871 1.1261-4.072 2.8779-7.956 4.1291-12.028 1.6892-5.0117 2.6902-10.2113 5.1302-14.9097.7508-1.4409 1.1261-3.1949 2.6902-4.0093.1877-.8771 1.1887-1.7541 2.1272-1.1903.4379.3132.7507.8144.9384 1.3782 0 .2506.0626.4385.1251.6265.2503 1.8167-.2502 4.1346-.3753 5.5128-.8134 6.014-1.1887 11.9653-1.1262 18.042.5631 7.7681.9385 15.5988 0 23.3664-.3128 3.884-.1251 7.831-.6256 11.653-.3754 3.069-.0626 6.201.1251 9.271.3128 3.07-.2502 6.077-.3128 9.146 0 1.817-.1877 3.571-.6256 5.388-.0626 1.378-.6257 1.879-1.439 1.879-.0625.063-.1251.063-.2502.063zm2.2522-84.885c.3129 1.754-.5005 3.3202-1.2512 4.8237-.8759 1.6914-1.5641 3.3829-2.2523 5.1369-1.0636 2.9444-1.6266 6.014-2.7528 8.9584-1.1887 3.9467-2.8779 7.7054-4.0666 11.5894-.9384 3.0697-1.3138 6.202-2.1897 9.2716-2.9404 9.209-6.3814 18.293-8.446 27.815 3.003 2.443 6.3814 4.26 9.0717 7.079 1.1261 1.065 2.3148 2.13 3.4409 3.195 1.8144 1.691 3.3784 3.821 5.7558 4.698.8759-3.759.6257-7.455 1.001-11.213.0626-3.07-.3753-6.077-.3753-9.147.1251-4.009.7507-7.956.6256-11.965.1877-4.072.8133-8.0814.6882-12.0908.0625-7.2042-1.0636-14.3458-.438-21.4875.1252-2.1926.1877-4.3852.438-6.5778.2502-2.1299.6256-4.2599.9384-6.4525.1252-1.1903.3754-2.4432.1252-3.5708h-.1877c0-.0626-.0626-.0626-.1252-.0626z" fill="#171212"/><path d="M69.5702 56.3812h-.1251c-.6882-.188-1.2513-.5638-1.8143-1.0024h-.1251c-.0626-.1252.0625-.3132.1876-.4385 1.1262-1.065 2.8779-.6891 4.2543-.877 5.0051-.6265 9.9476-.9397 14.9526-.9397-.1251.1879-.1877.4385-.2502.6891-.8759 0-1.7518 0-2.6277.0626-.7508 0-1.4389.0627-2.1897.1253-.7508.0627-1.439.1253-2.1897.2506-1.2513.188-2.5025.5012-3.7538.6891h.2503c-.438.0627-.9385.1253-1.3764.188-.2503 0-.5005 0-.7508.0626-.1877 0-.3754.0627-.5631.0627h-.6256.0626-.2503c-.1877 0-.3754-.0627-.6256-.0627-.8759-.0626-1.6892.5638-1.9395 1.3782-.2502-.1253-.3753-.1253-.5005-.1879zM128.129 55.7558v-.0637l.064.0637h-.064zM68.2564 70.038c-.1877 0-.3754-.0626-.5631-.0626 0 0-.0625-.0627 0-.0627.8134-1.0023 2.1272-1.3156 3.3159-1.5035 3.3784-.6264 6.7568-1.065 10.1978-1.5035 5.1301-.7517 10.1977-1.5035 15.3905-1.7541 7.8205-.7517 15.7035-1.4408 23.5235-1.8793 1.126 0 2.19 0 3.316-.1253 1.627-.2506 3.378-.6265 4.943.1879-1.94 1.4409-4.38 1.4409-6.757 1.4409-.939 0-1.877 0-2.753.0626-6.006.3759-12.012.877-18.018 1.3782-3.3786.3759-6.6945.5638-10.0729.877-3.3784.3759-6.7568 1.0024-10.1352 1.4409-3.3784.4385-6.6943.877-10.0727 1.5035-.3128.0627-.6256.0627-.8758.0627-.5631.0626-1.0011 0-1.439-.0627z" fill="#171212"/><path d="M67.6307 71.8547c-.2503 0-.5631-.0626-.8133-.1879 1.2512-1.2529 3.0656-1.6288 4.7548-2.0047 1.8143-.3759 3.6912-.7517 5.5681-1.065 8.6337-1.4408 17.2674-2.3805 25.9637-2.9443 4.942-.2506 9.697-1.3782 14.577-1.8794 3.691-.2506 7.383-.1879 11.074-.1879-.063-.1253-.063-.3759 0-.5012.062.0626.188.1879.313.1879.75.188 1.939.6265 1.689 1.6288-.376.8144-1.251.6265-2.065.5012-.375-.0627-.688-.1253-1.001-.1253h-2.252c-.813 0-1.627.0626-2.503 0-4.754-.1879-9.509.7517-14.201 1.4408-5.381.6892-10.8863.7518-16.2042 1.3783-5.5681.6264-11.0737 1.3155-16.5792 2.1926-1.8143.3132-3.5661.6264-5.3804 1.0023-.8759.2506-1.6892.4385-2.5026.4385-.1251.188-.2502.188-.4379.1253zM67.881 57.3835c-.2503 0-.438-.0626-.6882-.1879-1.0636-.1879-1.001-1.1276-.6882-1.8794v.0627c.2503-.5012 0-1.1903.5631-1.4409 1.001-.3132 2.1271-.2506 3.1907-.3132 3.3784-.0627 6.6942-.5012 10.0101-.8771 1.9394-.2505 4.0666 0 5.8183-.7517-.8758-2.3805-1.9394-4.949-1.3138-7.5175.3128-.6265 1.0636-.8144 1.6892-.9397 1.5641-.3132 3.1282-.5638 4.6922-.877 2.5651-.5638 5.0676-1.1903 7.6953-1.3156 2.3153-.0626 4.8173-1.0023 7.0073.0627 3.816 2.3178 2.002 7.7054 4.379 10.9003 1.064.0627 2.127.0627 3.191-.1253 1.001-.1253 2.002-.0626 2.94-.0626.751 0 1.564.0626 2.315 0 2.127-.3132 4.254-.4385 6.382-.188 1.188 0 2.377.1253 3.441.5012.625.6265.625 1.5662.938 2.3179.25.877-.188 1.3782-1.064 1.3156h-.25v-.188-.1253c0-.3132-.125-.6264-.313-.9396.126 0 .251 0 .376-.0627-.125-.3759-.25-.8144-.376-1.1903h-.312c-.501.1253-.939.188-1.439.188h-.188c-.375-.1253-.688-.1253-1.064-.1253-.5-.0627-.938-.1253-1.439-.1253-1.751.2506-3.441.1879-5.13.1253-1.063-.0627-2.127-.0627-3.19-.0627-.689 0-1.439 0-2.065.0627-1.064.1253-2.252.6264-3.191.0626-2.002.5012-2.878 0-3.065-2.1299-.563-2.4432-.563-5.137-1.377-7.4549-2.44-1.065-5.005-.877-7.6324-.6891-3.441 0-6.882.5638-10.1978 1.3156-.6256 1.5661-.5631 3.2576-.5005 4.8864 0 .9396.3754 2.0046.2502 2.9443-.0625.0627-.1251.1253-.1877.1879-.2502.3133-.4379.6265-.563 1.0024-.2503.0626-.5631.0626-.8133 0-.6882-.0627-1.2513 0-1.9395.0626-.3128.0627-.6256.1253-.8759.188-.3754 0-.7507.0626-1.1887.0626-.7507.0627-1.4389.1253-2.1897.2506-1.2512.1879-2.5025.5012-3.7538.6891h.2503c-.5005.0626-1.001.1253-1.439.1879h.1877c-.2502.0627-.563.0627-.8133.0627-.1877 0-.3754.0626-.5631.0626H72.5732c-.1877 0-.3754-.0626-.6256-.0626-.5631-.0627-1.1262.2506-1.5015.6264-.8133.1253-2.8154.3759-2.3774-.1253.563-.5011 1.2512-.6891 2.002-.7517-.7508 0-1.439.0626-2.1272.1253h-.0625c0 .3759-.1877.8144-.3128 1.1903.2502.0626.4379.1252.6882.1252.6256-.1252 1.2512-.1252 1.9394-.1252-.1251.2505-.1877.5011-.1877.8143v.3133h-.8133c-.3128.0626-.6256.1253-.9384.1253-.1877-.188-.3129-.188-.3754-.188zm35.536-15.2229c.938.3132 2.19.3759 2.878 1.1903 1.126 2.3179 1.001 5.0743 1.564 7.5175.187.5011 0 1.3155.5 1.5661h.501c-1.94-2.819-.438-9.7727-4.567-10.2739h-.876zm-17.5179 2.8191c-.0625.8144-.0625 1.6914.0626 2.4431.0626-.877.1251-1.754.3754-2.6311-.1877.0627-.3128.1253-.438.188z" fill="#171212"/><path d="M91.0292 52.9984c-.3754.2506-.6257-.188-.7508-.5012-.5005-.9397-.5005-2.1299-.5631-3.1323 0-.7517-.5005-1.8167.3129-2.3179.1251-.5638.7507-.7517 1.1887-.8144 1.7517-.3132 3.4409-.5011 5.1927-.6891 2.2523-.2506 5.3174-.6891 6.1314 2.0673.5 1.3156 1.314 2.6312 1.251 4.1347-.125 1.0649-1.627.7517-2.377 1.0023-2.0649.4385-4.1921.3759-6.3192.3132-1.3139 0-2.5651-.0626-3.8789.0627 0 0-.1252-.0627-.1877-.1253zm6.444-5.9514c-2.1897.4385-4.442.3133-6.5692.8771.1877 1.1902.3754 2.4432.6257 3.6334v.4385c3.6286.3133 7.2573-.3132 10.8233-.4385.063-1.4408-.5-2.819-1.126-4.1346-.313-.3759-.751-.5638-1.2513-.6265h-.3754c-.6882 0-1.4389.188-2.1271.2506z" fill="#171212"/><path d="M68.6941 56.1306c.1252.1253.2503.2506.3129.3759.0625-.0626.1876-.1253.2502-.1253-.1251-.0626-.1877-.1253-.1251-.1253 1.6266-.9396 3.5661-.6264 5.3178-1.0649 4.88-.8771 9.885-1.1277 14.8275-1.6915 8.5711-1.065 17.2046-1.1903 25.7756-.877 4.317.1879 8.634 0 12.951.3759.375 0 .688.4385.5.8144-.187.3758-.625.4385-1.001.5011-1.439.0627-2.877-.0626-4.316-.1253-1.127-.0626-2.253-.1879-3.316-.1879-7.195.1253-14.39.5638-21.6471.7517-6.1937.0627-12.3875.6265-18.5812 1.3156-3.6287.4385-7.3199 1.1903-10.9486 1.3156-.3128-.3133-.1251-.8771 0-1.253zM48.7991 49.7407c-.1877-.0626-.3754-.1253-.5005-.2505.1251 0 .2502-.0627.3128-.0627.8133-.1253 1.6266-.2506 2.3774-.5012.8133-.2505 1.6266-.5638 2.44-.8143.1876-.0627.3128-.1253.5005-.188-1.3139.8771-2.7528 1.942-4.2543 1.942-.3128-.0626-.6257-.0626-.8759-.1253zM58.3715 44.6038c-.2503.3132-.5631.5638-.8759.8144.2503-.2506.5631-.5012.8759-.8144zM63.8142 36.961c.1876-.3132.3753-.5638.563-.877.2503-.3759.438-.7518.6257-1.1903.7507-.3759 1.3764-.877 2.002-1.3782-.1251.1879-.1877.3759-.2503.5638l-.0625.0627c-.1252.1253-.2503.3132-.3754.4385-.1251.1879-.1877.3132-.2503.5011-.1877.3133-.3128.5639-.5005.8771-.1251.1879-.3128.4385-.2502.6891-.5631.2506-1.1262.4385-1.6892.6891.0625-.1253.1251-.2506.1877-.3759zM69.0071 31.5735c1.0636-1.065 2.1897-1.8794 2.9405-3.1323.563-1.4409 1.3764-3.007 1.1261-4.6358.1877-.6891.2503-1.3156.3128-2.0047.2503.0627.438.1253.6257.3132v1.1277c0 .2506-.0626.4385-.0626.6891-.0626.1879-.0626.3759-.1251.5638-.0626.1879-.0626.3132-.1252.5012-.1251.5638-.3128 1.1902-.5005 1.754-.0625.3133-.1876.6265-.2502 1.0024-.1251.1879-.1877.3132-.3128.5011-.1877.3133-.3754.6891-.5631 1.0024-.2502.4385-.5005.8144-.8133 1.1902l-.1877.188-.0626.0626c-.1877.1253-.3753.3133-.563.4385-.1877.1253-.3754.2506-.6257.3759-.2502.1253-.5005.3132-.7507.5012-.2503.1253-.438.3132-.6882.5012-.1877.1252-.438.2505-.6256.3758.4379-.4385.8758-.877 1.2512-1.3155zM64.1898 26.0606c-.1252 0-.1877 0-.3128-.0626.1876-.1253.3753-.2506.563-.3132.1877-.1253.438-.188.6882-.3133-.2502.2506-.5005.4385-.7507.6891h-.1877z" fill="#171212"/><path d="M43.7943 33.7661c.3128-.3132.6882-.6265 1.001-.9397.1877-.1879.3128-.3132.5005-.5012.1251-.1252.2502-.2505.3128-.4385.2502-.2506.5005-.5011.7507-.7517 1.5016-1.4409 3.0031-2.8817 4.3795-4.4479 1.1887-1.4408 2.3148-2.9443 3.6912-4.1972 1.0636-.8771 2.3774-1.6288 3.5661-2.13 1.6266-.9397 3.3784-1.7541 5.1927-2.2553 3.5661-1.3782 7.0071-2.9443 10.448-4.5104 2.1272-.8771 4.3169-1.5662 6.444-2.5059.6882-.3132 1.439-.6264 2.1272-.877.8133-.31325 1.8143-.93971 2.6276-.31325.5631.43855.438 1.25295.3754 1.87935-.0626 2.6938-2.5025 5.2623-4.5671 6.7658-1.3138.8144-2.6276 1.5661-4.004 2.2552-.1877.1253-.438.2506-.6257.3759-.0625-.3132-.1876-.6265-.3128-.9397-.0625-.1879-.1251-.3132-.1877-.5012 1.2513-.6891 2.6277-1.2529 3.7538-2.0673 2.2523-1.3155 4.442-3.6961 4.5046-6.4525-3.3784 1.6288-6.9445 2.7564-10.4481 4.1973-2.1271.877-4.1917 2.0673-6.3814 2.819-1.9395.9397-4.0666 1.5035-6.0061 2.3179-.1251.0627-.2502.1253-.3753.188-.3128.0626-.6882.1879-1.001.2506-.5006.1879-1.0636.3132-1.5641.5638-.2503.1253-.5005.3132-.7508.4385-.2502.1879-.4379.3759-.6256.5638-.2503.2506-.4379.4385-.6882.6891-.2503.1879-.4379.3759-.6882.5638-.5005.4385-.9384.9397-1.3764 1.4409-.1251.1253-.3128.2506-.4379.4385-.3754.3759-.8133.6891-1.1887 1.065-.3128.4385-.6257.8144-.9385 1.1276-.5005.4385-1.0635.877-1.564 1.3156-.5006.3758-.8759.7517-1.3139 1.1902-.3753.4385-.8133.8771-1.1887 1.3782-.3753.5012-.8133.9397-1.1887 1.3156-.0625.0626-.1251.1879-.2502.2506-.1877.1253-.438.2506-.6257.3758-.1876.0627-.3753.188-.5005.2506-.0625 0-.1251 0-.1876.0627-.3129.0626-.6882.1253-1.0011.1253.0626-.1253.1877-.2506.3129-.3759z" fill="#171212"/><path d="M73.3865 21.6754v-.1879c.1877-.2506.3753-.4385.563-.6265 0 .2506.0626.5638.0626.8144h-.2503c-.1251.0627-.2502.0627-.3753 0zM75.3885 35.7081c-2.1272-.1253-4.442.1879-6.3189-1.0024.0625-.0626.1251-.1253.1877-.1879.8133-.5012 1.8769-.5638 2.8153-.5012 1.5015.0627 3.1907.188 4.6922.1253 3.2533-.1879 6.5692-.5638 9.8224-.877 1.3139-.188 2.5026 0 3.5661-.7518-.7507-.8144-1.7517-1.2529-2.3774-2.1299.8759-.188 1.9395-.188 2.7528.3132 1.439.9397 2.2523 2.3805.3128 3.3202-1.6266.8771-3.6286.6891-5.3804 1.0024-3.003.3132-6.006.6891-9.0716.6891h-1.001zM77.2655 31.1976c-.8759 0-1.7518-.3132-2.5026-.7517 1.001-.6265 2.1897-.8771 3.3784-.8144 3.3785-.2506 6.7569-.8771 10.1353-1.1903 2.6276-.4385 5.6307-2.0047 6.3814-4.6984-4.442.4385-8.884 1.2529-13.3885 1.1276-1.3138 0-2.7528-.2506-3.7538-1.1276 1.3764-.7518 2.9405-.6265 4.5046-.5012.6256.0626 1.2512.1253 1.8769.0626 2.7527-.2505 5.5681-.5011 8.3208-.9396 2.6903-.6265 5.0051-.3759 3.6287 3.007-1.8769 3.5708-6.1312 4.5731-9.8224 4.8863-2.8153.3133-5.5056.8771-8.3209.8771-.0626.0626-.2502.0626-.4379.0626z" fill="#171212"/><path d="M80.0181 24.7451c-.6882-.1253-1.439-.1253-2.1272-.1253-.6882 0-1.3764 0-2.002-.0626.1877-.5012.3128-1.0023.3128-1.5035.6882 0 1.3139 0 2.002.0626.2503 0 .5005 0 .7508-.0626.8759-.0627 1.8143-.1253 2.2523.5638.3128.6891-.3128 1.1276-.9385 1.1276h-.2502zM73.6994 23.8681c-.0626-.0627-.1877-.0627-.1877-.1253.1251-.1253.3128-.188.5005-.2506 0 .1253 0 .3132-.0625.4385v.0627c-.0626-.0627-.1877-.1253-.2503-.1253zM73.2612 23.0536c.0626-.5012.1252-1.0023.1252-1.5035 0-.3132-.0626-.6264-.1252-.9397.2503-.0626.438-.1253.6882-.1879.0626.3759.0626.7517.0626 1.1276l-.1251.1253c.0625.6265-.0626 1.1903-.3129 1.7541-.1251-.0627-.2502-.2506-.3128-.3759z" fill="#171212"/><path d="M65.441 34.0167c.1251-.3132.3128-.5638.438-.8771.1877-.1252.3753-.1879.5005-.3132 2.1271-1.942 4.3168-3.884 5.7558-6.3899.4379-.877.6256-2.0046.6256-2.9443 0-.8771.0626-1.7541-.3128-2.5058-.7508 0-1.2513.877-1.7518 1.3155-.9384.8771-1.6266 1.8794-2.6276 2.7564-1.9395 1.5662-4.0041 3.0697-5.9435 4.6358-1.001.7518-2.3149 1.4409-3.6287 1.065-.0625 0 .0626-.0626.0626-.0626.2502-.3133.5005-.6891.8133-.9397l.0626-.0627c.2502-.2506.5005-.4385.8133-.6891.1877-.1879.3754-.3132.6256-.5011.1251-.0627.2503-.1253.3754-.2506.8133-.7518 1.6892-1.4409 2.5651-2.13.0625 0 .0625-.0626.1251-.0626.1877-.1253.3754-.2506.5631-.3133.2502-.1253.4379-.1879.6882-.3132.2502-.1253.4379-.2506.6882-.3759.4379-.3132.8758-.6264 1.3138-.9397.3754-.3758.8133-.7517 1.1261-1.1276.1877-.1879.3754-.4385.5005-.6264.1877-.188.3128-.4386.5005-.6265.1252-.1253.2503-.3132.3754-.4385.1251-.1253.2503-.2506.3754-.3132.1877-.188.3754-.4386.5631-.6265.0625-.0626.1251-.1879.1876-.2506.0626-.0626.0626-.1253.1252-.1879v-.1253c.9384-.6265 1.9394-.8144 2.8779-.0627v.0627c.0625.1253.0625.2506.1251.3759v.0626c.0626.6265.1251 1.1903.1251 1.8167V23.3043c0 .2505-.0625.4385-.0625.6891-.0626.1879-.0626.3758-.1252.5638-.0625.1879-.0625.3132-.1251.5011v0c-.1877.6265-.3128 1.1903-.5005 1.8168-.0626.3132-.1877.6264-.2502 1.0023-.1252.1879-.1877.3132-.3129.5012-.1877.3132-.3753.6891-.563 1.0023-.2503.4385-.5005.8144-.8133 1.1903-.0626.0626-.1252.1253-.1877.1879l-.0626.0626c-.1877.1253-.3754.3133-.5631.4386-.1877.1253-.3753.2506-.6256.3758-.2503.1253-.5005.3133-.7508.5012-.2502.1253-.4379.3132-.6881.5012-.2503.1253-.438.3132-.6882.4385-.1877.1253-.438.2506-.5631.4385-.1251.188-.3128.4385-.3128.7518l-.0626.0626c-.1251.1253-.2502.3132-.3754.4385-.1251.188-.1877.3133-.2502.5012-.5005.2506-1.001.5012-1.5641.6891.2503-.7517.5005-1.3156.8133-1.942zM44.7326 49.9913c-.1251-.0627-.3128-.1253-.4379-.2506.1877 0 .4379.0627.6256.0627h.5005c.3128 0 .5631 0 .8759-.0627.8133-.0626 1.5641-.2506 2.3148-.3759.8133-.1253 1.6267-.2506 2.3774-.5011.8133-.2506 1.6267-.5638 2.44-.8144 1.1887-.3759 2.2523-1.065 3.1907-1.8794.6882-.5638 1.3138-1.1903 2.002-1.8167-.0625.0626-.1251.1253-.1877.1879.8759-.8144 1.7518-1.6288 2.5026-2.5685.3128-.3758.3753-.8144.3753-1.2529.0626-.0626.1877-.1879.2503-.2506.1877-.1879.3754-.4385.5631-.6891.1876-.2506.3753-.5638.563-.8144.1877-.3132.3754-.5638.5631-.877.1877-.3759.4379-.6891.6256-1.065.1877-.3132.3754-.5638.5631-.877 0 0 0-.0627.0625-.0627.3129-.1253.6257-.2506 1.0011-.3132 0 .0626-.0626.1879-.0626.2506-.1877.9397-.5631 2.0046-1.1261 2.7564-1.3764 2.0673-2.6277 4.3226-4.442 6.0766-3.9415 3.3203-9.5722 4.8238-14.7649 5.3249-.2503-.1253-.3128-.1879-.3754-.1879z" fill="#171212"/><path d="M44.7326 49.9286c-.0626 0-.0626 0 0 0-.2503-.1253-.5005-.2505-.7508-.3758-.1251-.0627-.1876-.1253-.3128-.1253-.0625-.0627-.1251-.1253-.2502-.188-.0626 0-.0626-.0626-.1252-.0626 0 0-.0625 0-.0625-.0627-.0626 0-.1251-.0626-.1251-.0626.2502-.1253.563-.2506.8133-.3759.2502-.1253.5005-.2506.6882-.3759.0625.0627.0625.0627.1251.1253.0626.0627.1251.0627.1251.1253 0 0-.0625 0-.0625-.0626 0 0 .0625 0 .0625.0626l.0626.0627-.0626-.0627c.1251.1253.3128.188.438.3133.1877.0626.4379.1253.6256.1879.2502.0626.5005.0626.6882.0626h.3754c.3128-.0626.6882-.1253 1.001-.1879.1877-.0626.3754-.0626.563-.1253.5631-.1253 1.1887-.2506 1.7518-.4385.7508-.3132 1.439-.7518 2.0646-1.1903.6256-.4385 1.2513-.8144 1.9394-1.1276.1877-.0626.3754-.1253.6257-.2506.3128-.1253.563-.2506.8759-.3759.5005-.2505.9384-.5011 1.3763-.8144.5006-.3758.8759-.7517 1.3139-1.1276.3754-.3759.7507-.8144 1.1261-1.1902.3128-.3133.6256-.6265.9385-.9397.2502-.2506.563-.5012.8133-.8144.1877-.188.3754-.4386.563-.6891.1877-.2506.3754-.5638.5631-.8144.1877-.3133.3754-.5638.5631-.8771.1877-.3758.4379-.6891.6256-1.0649.1877-.3133.3754-.5639.5631-.8771.3754-.6264.6882-1.3782 1.001-2.0673.3128-.6265.6882-1.2529.8759-1.8794v-.0626c1.564-1.1276 3.1907-2.2553 5.1301-2.13-.0625.188-.1251.3759-.1876.5638-.0626.0627-.0626.0627-.1252.1253l-.0625.0627c-.1877.1253-.3754.3132-.5631.4385-.1877.1253-.3754.2506-.6256.3759-.2503.1253-.5005.3132-.7508.5011-.2502.1253-.4379.3133-.6882.5012-.2502.1253-.4379.3132-.6882.4385-.1877.1253-.4379.2506-.563.4385-.1252.188-.3129.4386-.3129.7518l-.0625.0626c-.1252.1253-.2503.3133-.3754.4386-.1251.1879-.1877.3132-.2503.5011-.0625.1253-.1251.188-.1876.3133-1.8769 2.0673-2.8779 4.761-4.88 6.7657-3.7538 4.1346-9.2593 7.8934-15.0151 7.8934-.3128-.2506-.7508-.2506-1.1887-.3133z" fill="#171212"/><path d="M59.7479 42.2233c-.0626 0-.0626.0626-.0626.0626s.0626 0 .0626-.0626zM43.7943 33.7661c.1876-.188.3753-.3133.563-.5012.3128.0626.6257.1879 1.001.3132-.0625 0-.1251.0627-.1877.0627-.1876.0626-.3753.1879-.5005.2505-.0625 0-.1251.0001-.1876.0627-.3129.0626-.6882.1253-1.0011.1253.0626-.0627.1877-.1879.3129-.3132zM35.3482 27.7521c.3754-.3132.7507-.1879 1.1261.0626-.4379.3133-.8133.6265-1.2512.9397-.1252-.4385-.1252-.7517.1251-1.0023z" fill="#171212"/><path d="M41.6672 36.1466c-.0626-.0627-.1251-.0627-.1251-.1253 0-.0627 0-.1253-.0626-.188.1251-.1252.2502-.2505.4379-.3758.1877-.188.438-.4386.6257-.6265.0625-.0626.1251-.0626.1877-.1253.3753-.2506.6881-.5638 1.0635-.877.3128-.3132.6882-.6265 1.001-.9397.1877-.1879.3129-.3132.5005-.5012.1877-.1879.3754-.4385.438-.6891.0625 0 .0625-.0626.1251-.0626.438-.3133.8759-.5638 1.2513-.8771.5005-.3132.9384-.7517 1.4389-1.0023.1877-.0626.3128-.0626.5005 0-.1877.1879-.3754.3759-.563.5638-.3754.4385-.8134.8771-1.1887 1.3782-.3754.5012-.8134.9397-1.1887 1.3156-.438.4385-.8134.877-1.2513 1.3155-.3128.3133-.6256.5639-.9384.8771-.3129.2506-.5631.5012-.8759.8144-.0626 0-.0626.0626-.1252.0626-.2502.1253-.5005.188-.7507.2506-.2503-.0626-.3754-.1253-.5005-.1879zM24.5249 39.091c.1251-.1253.2503-.188.3754-.188-.1251.1253-.3128.3132-.438.4385-.0625.0627-.1251.1253-.1876.188.0625-.1253.1251-.3133.2502-.4385zM66.6296 39.3415c-1.1887-.0626-3.003.1879-3.6286-1.0023.0625-.1253.1251-.2506.1877-.3133.0625-.1252.1251-.2505.1877-.3758h.1876c3.8164.2505 7.6953-.188 11.4491-.5638 2.3774-.1253 4.7548-.6891 7.0696-.9397.438-.0627.9385-.188 1.3764-.3759 0 .3132-.0626.6264-.2502.9397-1.1262 1.942-6.3189 1.6288-8.3835 1.942-2.5651.2506-5.0676.6265-7.6327.6265-.1251.0626-.3128.0626-.5631.0626zM46.3592 50.4925h-.3128c-.1877-.0627-.3754-.1253-.563-.2506-.1252-.0627-.3129-.1253-.438-.1879-.1251-.0627-.1877-.0627-.3128-.1253-.2503-.1253-.5005-.2506-.7508-.3759-.1251-.0627-.1876-.1253-.3128-.1253-.0625-.0626-.1251-.1253-.2502-.1879-.0626 0-.0626-.0627-.1252-.0627 0 0-.0625 0-.0625-.0626-.0626-.0627-.1251-.0627-.1251-.1253.2502-.1253.563-.2506.8133-.3759.2502-.1253.5005-.2506.6882-.3759.0625.0627.0625.0627.1251.1253.0626.0627.1251.0627.1251.1253l-.0625-.0626.0625.0626.0626.0627-.0626-.0627c.1251.1253.3128.188.438.3132.1877.0627.4379.1253.6256.188.2502.0626.5005.0626.6882.0626h.3754c.3128-.0626.6882-.1253 1.001-.1879.1877-.0627.3754-.0627.563-.1253.5631-.1253 1.1887-.2506 1.7518-.4385.7508-.3133 1.439-.7518 2.0646-1.1903.0626-.0626.1251-.1253.2502-.1253-.9384 2.3179-3.6286 3.5708-6.0686 3.5708 0-.0626-.0625-.0626-.1877-.0626z" fill="#171212"/><path d="M41.6672 36.1466c-.0626-.0626-.1251-.0626-.1251-.1253 0-.0626 0-.1252-.0626-.1879.1251-.1253.2502-.2506.4379-.3759.1877-.1879.438-.4385.6257-.6264.0625-.0627.1251-.0627.1877-.1253.3753-.2506.6881-.5638 1.0635-.8771.3128-.3132.6882-.6264 1.001-.9396.1252-.1253.2503-.2506.3754-.3759.5005.9397-.6882 1.3782-1.2512 2.0673-.438.5012-.8759 1.065-1.2513 1.6914-.0626 0-.1251.0627-.1877.0627-.0626.0626-.1877.0626-.2503.0626-.0625 0-.1251 0-.1876.0627-.1252-.1253-.2503-.2506-.3754-.3133zM15.1404 54.6898c-.0626 0-.1251.0627-.1251.0627v.0626c-.3129-2.3805 8.446-2.2552 10.1977-2.5058.9385 0 1.8769-.1253 2.8154-.3132 1.8769-.3133 3.7538-.5639 5.443.2505-1.1262 1.253-2.8779 1.3782-4.442 1.5662-1.7518.2506-3.5661.3759-5.3179.4385-2.3148 0-4.5671.4385-6.8819.6265-.6256.0626-1.1262-.0627-1.6892-.188zM25.8384 36.4599c-.1251-.0627.1877-.1879.1877-.1879.9384-.5639 2.002-.5639 3.0656-.5639h1.4389c1.5015-.1879 3.003-.3132 4.5046.188v.3132c-1.3764 1.4409-3.6913 1.2529-5.5682 1.3156h-.3753c-1.1887 0-2.3149-.4386-3.2533-1.065z" fill="#171212"/><path d="M41.6672 36.1466c-.0626-.0627-.1251-.0627-.1251-.1253 0-.0627 0-.1253-.0626-.188.1251-.1253.2502-.2506.4379-.3758.1877-.188.3754-.3759.5005-.5012.5005-.0627 1.001-.0627 1.439 0-.0626.1253-.1251.3132-.1877.4385-.2503.2506-.5005.4385-.7508.6891-.0625.0627-.1251.1253-.2502.1253-.0626.0626-.1251.0627-.1877.0627-.0626.0626-.1877.0626-.2503.0626-.0625 0-.1251 0-.1876.0626-.1252-.0626-.2503-.1879-.3754-.2505zM45.0455 50.054c-.1251-.0627-.1877-.0627-.3128-.1253-.2503-.1253-.5005-.2506-.7508-.3759-.1251-.0626-.1877-.1253-.3128-.1253-.0626-.0626-.1251-.1253-.2503-.1879-.0625 0-.0625-.0627-.1251-.0627 0 0-.0625 0-.0625-.0626l-.5631-.3759c-.5005-.3132-.9385-.6264-1.439-.9397-.2502-.3132-.5005-.6891-.6882-1.065-.1251-.6264.6257-1.0649 1.1262-.6891.6882.5639 1.2512 1.3156 2.1271 1.6288.0626 0 .1252.0627.2503.0627l.1251.1253c.1877.1879.3754.3758.5631.5011.0625.0627.1251.1253.1251.1253l-.0626-.0626.0626.0626.0626.0627-.0626-.0627c.1251.1253.3128.188.4379.3133.1877.0626.438.1252.6257.1879.2502.0626.5005.0626.6882.0626h.3753c.1252 0 .3129-.0626.438-.0626 0 .1879-.0626.3759-.2503.5638-.563.3132-1.2512.5638-1.9394.6891 0-.0626-.1251-.1253-.1877-.1879z" fill="#171212"/><path d="M40.4782 36.6478c-1.6267-.4385-.1252-1.2529.8133-.8144.2502.0626.563.1253.7507.3132-.2502.3759-.6882.6265-1.1887.6265-.1251-.0627-.2502-.0627-.3753-.1253z" fill="#D6E3E2"/><path d="M32.9081 37.4622c-1.0636.1252-1.6266-.8144-.6256-1.4409.4379-.3759.9384-.3132 1.4389-.3132h.5631c2.1897-.0627 4.3794-.1253 6.6317 0 .7507-.2506 1.6266-.3759 2.1271-.9397.9385-1.1276 2.002-2.1926 3.0656-3.1949 1.7518-2.2553 3.8164-4.26 5.7558-6.3273 1.439-1.5661 2.8779-3.3202 4.7548-4.3225.8759-.4385 1.8143-.6265 2.7528-.188-.3754.4386-.9385.8144-1.439 1.065-1.0635.2506-1.8143 1.065-2.5651 1.7541-1.8143 1.7541-3.3784 3.7587-5.1301 5.5128-1.7518 1.7541-3.1907 3.8214-4.9425 5.5129-.7508.8143-1.3764 1.754-2.44 2.0673-.1877.3132-.5005.3132-.8133.3132-.5631.2506-1.1887.1879-1.8143.1879-.3128 0-.6257-.0626-.9385 0-.3128-.0626-.563.1253-.8758.188-.438.1253-.8759.1253-1.3764.1879-.8134.0627-1.6267.1253-2.44.1253-.6256-.0627-1.1887-.1253-1.6892-.1879zM27.2148 53.061c.3129-.5012 1.1262-.6891 1.7518-.6891 2.1272-.5012 4.2543-.6891 6.3814-1.1276 2.44-.188 4.6297-1.8168 7.0697-1.5662.0625 0 .1877 0 .1251.0627-.5631 1.4408-2.1272 1.754-3.441 2.2552-3.1281 1.065-6.3814 1.5035-9.6347 1.6914-.8759-.1252-1.5015-.3132-2.2523-.6264zM43.5438 49.0516c-1.1261-.3132-2.4399-1.0649-2.565-2.3805.6882-.0626 1.4389.2506 2.1271.5638 1.6266.3759 3.1282 1.6288 4.8799 1.5662 3.5661-.7518 7.0697-2.3179 10.0101-4.5105 1.1262-1.1903 2.3774-2.3179 3.1907-3.7588 1.3764-2.1299 2.6277-4.1346 3.7538-6.3272.2503-.5638.6256-1.1276 1.1887-1.4409.0626-.0626.1877-.0626.2503-.1879.2502.4385.2502 1.0023.1877 1.5035-.2503 1.1276-1.001 2.0047-1.5016 3.007-.5005 1.1276-1.1887 2.1926-1.8143 3.1323-.4379.6891-.7507 1.5035-1.1887 2.1299-.5005.6891-1.1887 1.1903-1.7517 1.8794-2.44 3.0697-8.6338 5.7008-12.4501 6.1393-1.5641.0626-2.9405-.7517-4.3169-1.3156z" fill="#171212"/><path d="M16.2664 53.4995c-1.0636-.2505-.8759-1.2529-.0626-1.754 1.6267-1.3783 3.1908-2.8818 4.88-4.1973.8133-.4385 1.9394-1.942 2.8153-1.065.8133-.5638 1.5641-1.2529 2.5025-1.6914.2503-.1253.5631-.1253.8134.0626.5005-.3759 1.3138-.3759 1.6266.2506.3128-.1253.5631-.1879.8759 0 .0625 0 .1251.0626.1877.1253.563-.4385 1.5015-.5638 1.8143.2506.6256-.5638 1.7518-.5638 1.9394.4385.3129-.2506.6257-.5012 1.0011-.6265.3753-.1252.6882.0627.8758.3133.3129-.188.6882-.3759 1.0636-.3759.3754 0 .6882.1253.8759.4385.5005-.1879 1.0636 0 1.2513.5012.4379-.0627.8758.1879 1.001.6264.1251.2506 0 .5012.0625.8144.1252.2506.438.3133.6257.5638.8758.9397.1251 2.13-1.0636 2.1926-1.5015.188-2.9405.5012-4.442.6891-1.1887.9397-2.8779.9397-4.3168.7518-1.5016.3132-3.0031.3759-4.5046.3759-3.0656-.1253-5.9435 1.1276-8.9465 1.1902-.2503.1253-.5005.2506-.8133.2506 0-.1253 0-.1253-.0626-.1253zM47.7357 48.3625c-1.5641-.0626-3.3159-.3759-4.5046-1.4408-.2502-.2506-.3754-.6265-.6256-.8771-.5005-.3132-1.0636-.9397-.7508-1.5661.6882-.9397 2.1897-.6265 3.1908-1.1903 2.5025-1.0023 4.9424-2.3179 7.3824-3.3829 2.1271-.877 4.2543-1.8167 6.0686-3.3828 1.3764-1.1277 2.5651-2.3806 3.8164-3.5708.3128-.2506.563-.5639 1.001-.6265 1.5015 0 .9384 1.5661.563 2.4432-.7507 1.6914-1.5015 3.3829-2.565 4.8864-1.8769 2.4431-4.0666 4.5731-6.8194 5.8887-1.9395 1.3782-4.0666 2.7564-6.5066 2.7564-.0625.0626-.1877.0626-.2502.0626zm7.3198-6.3272h.1252c.2502-.1879.5005-.3759.7507-.5638.0626-.0627.1252-.0627.1252-.1253-.3129.2506-.6257.4385-1.0011.6891zm5.9435-5.3249l-.1876.1879c.0625.0627.1251.1253.1876.188.1252-.2506.2503-.5012.3754-.6891-.1877.1253-.2502.1879-.3754.3132z" fill="#D6E3E2"/><path d="M46.0464 48.2999c-1.5015-.2506-3.1907-1.1276-3.6287-2.6938 1.5015.3133 2.6902 1.7541 4.3794 1.6915 5.1928.4385 7.883-1.5662 11.2614-5.1996 1.2513-1.5662 2.6902-2.9444 3.7538-4.6358.7507-1.3156 1.5015-2.6938 2.1897-4.072-.6256.5012-1.1887 1.1903-1.8143 1.6914-.0626-.4385-.1252-.877 0-1.3155.6881-1.5662 2.6276-2.2553 3.9414-3.2576 1.6892-1.065 3.0656-2.4432 4.1917-4.072.3129-.4385.5006-1.6288 1.2513-1.1902.6256.5011-.2502 1.5034-.5005 2.0673-.6256 1.0023-1.1887 2.1926-2.1271 2.9443-1.0011.8771-2.0021 1.7541-3.0656 2.5685-.1877.1253-.3754.3132-.5005.5012-.438.5011-.8134.9396-.9385 1.5661-.9384 1.8167-1.8769 3.6961-3.3158 5.1996-3.5036 4.4479-7.445 8.2692-13.1383 8.2692-.6256.0627-1.2512.0627-1.9394-.0626z" fill="#D6E3E2"/><path d="M85.1488 124.729c0-.064-.0635-.064 0 0-.0635-.064 0 0 0 0z" fill="#171212"/><path d="M78.8921 120.844s-.0626.062 0 0c-.0626.062 0 0 0 0zM81.895 129.05c.0626 0 .0626-.062.0626-.062 0 .062-.0626.062-.0626.062zM128.254 63.2096c-.375-.0626-.688-.2505-1.063-.2505 0-.1253.125-.188.187-.3133 0 0 0-.0626-.062-.0626-.375.1253-.751-.188-.813-.5012h-.126c-.125.6265-1.001.8144-1.251.188-.563-1.6915-.938-3.5082-1.189-5.2623-1.751-.0626-3.44.4385-5.192.4385-.125.2506-.376.3132-.626.3132-2.815 0-5.568.1253-8.383.188-3.879.0626-7.821-.0627-11.6996.1253-1.2513.0626-2.44.2506-3.6912.3759-.1252 0-.3129 0-.3754-.1253-3.7538.2505-7.5076.5638-11.2614 1.1902-3.5035.3133-7.5701 1.9421-10.7608-.2506-.5005-.0626-1.1887.2506-1.439-.3758-.2502-.6265.3754-.9397.9385-.9397.3128-.5012 1.001-.5012 1.4389-.6891 1.439-.3759 2.9405-.6891 4.442-.9397 3.1907-.6265 6.444-.7517 9.6973-.6265-.1877-.3132-.1251-.7517.1877-.9396.0625-1.1903-1.6267-6.5779-.3128-6.7658 0-.5012-.5005-1.1276 0-1.4408-.3129-.2506-.3754-.8771.0625-1.0024.2503-.0626.438-.1253.6882-.1253-.4379-.1879-.5005-.9397 0-1.0649 1.2513-.1253 2.5651-.188 3.7538-.2506 2.002.0626 12.8253-1.4409 12.9503.7517 1.064-1.3782 1.439 1.6288 1.627 2.2553.438 2.1926.813 4.3852 1.314 6.5151 4.379-.3132 8.696 0 13.013.188 1.752-.0627 3.441-.3133 5.193-.3759 1.501-.1253 2.314.3132 2.314 1.942.751.188 1.001 1.3156.063 1.5035.063 1.6288 3.441 5.6381.563 6.3272.063-.0626-.063 0-.188 0zM90.0283 49.0517c.438 1.6288.6882 3.2576 1.0636 4.8864 4.0666-.5012 8.1957-1.1903 12.2621-.9397-.813-2.1926-1.251-4.5732-1.689-6.8284-4.1291-.3759-8.2583.7517-12.3874.7517.3128.6265.5005 1.4409.7507 2.13zm-2.6902 1.6288c-.0626-.6265-.0626-1.1903-.1877-1.7541-.0625.5638.0626 1.1276.1877 1.7541zm.1877-4.072c.1251.1879.2502.3759.3128.5638v-.4385-.1879c-.1251 0-.1877.0626-.3128.0626z" fill="#FDBE54"/></g><defs><radialGradient id="paint0_radial" cx="0" cy="0" r="1" gradientUnits="userSpaceOnUse" gradientTransform="matrix(.28295 5.71587 -4.45784 .22068 81.2291 126.389)"><stop stop-color="#FFE0AC"/><stop offset="1" stop-color="#FDBE54"/></radialGradient><clipPath id="clip0"><path fill="#fff" d="M0 0h186v188H0z"/></clipPath></defs></svg>