<svg width="186" height="188" viewBox="0 0 186 188" fill="none" xmlns="http://www.w3.org/2000/svg"><mask id="a" style="mask-type:alpha" maskUnits="userSpaceOnUse" x="1" y="4" width="184" height="184"><rect x="1" y="4" width="184" height="184" rx="92" fill="#C4C4C4"/></mask><g clip-path="url(#clip0)"><path d="M164.166 149.849s0-.063 0 0c-.063.062-.188.188-.251.313.063-.125.125-.251.251-.313zM164.416 149.473c-.063.125-.125.188-.25.313.125-.125.187-.251.25-.313zM177.429 56.068s0 .0626.063.0626c-.063 0-.063 0-.063-.0626zM178.493 121.909v.126c-.063-.063-.063-.063 0-.126z" fill="#161212"/><path d="M111.237 5.26302c1.001.18794 2.065.43852 3.066.68911-.876-.31323-1.814-.50117-2.69-.8144-.688-.12529-1.439-.25058-2.127-.37587.563.18793 1.188.31322 1.751.50116zm36.037 16.28788c.313.2506.688.4386 1.001.6265-.501-.4385-.939-.8144-1.439-1.1903.125.188.313.3759.438.5638zm35.473 81.9411c.188-1.942.313-3.8218.375-5.7011 0-2.6938-.25-5.3876-.688-8.0187-.438-2.7564-.938-5.4502-1.689-8.144-.563-1.8793-1.001-3.7587-1.439-5.6381v-.0626c-.501-2.1926-.938-4.3852-1.439-6.5778.063.4385.188.877.25 1.3155-.187-.8144-.375-1.5661-.5-2.3805v-.0627c-.563-2.3805-1.189-4.761-1.752-7.0789 0 .1253.063.2506.063.3758-.063-.1252-.063-.3132-.126-.4385-.062-.1879-.125-.4385-.187-.6264.062.3758.187.7517.25 1.1276-.751-3.007-1.564-5.9514-2.753-8.8331-.5-1.1902-1.063-2.3179-1.626-3.4455-1.877-2.4432-3.754-4.8864-5.631-7.3922-2.44-3.6334-5.005-7.2043-8.258-10.2739-5.631-5.4502-12.013-9.9607-18.894-13.7194-6.507-3.8841-13.389-7.2669-20.584-9.71013-.688-.18793-1.376-.37587-2.064-.56381-1.94-.50116-3.879-.93969-5.819-1.44085-.75-.25058-1.564-.43852-2.314-.62646-2.128-.50117-4.192-.93969-6.319-1.37821-2.1275-.37587-4.3172-.62645-6.5069-.6891-3.2533-.31323-6.5691-.31323-9.8224 0-.8759.18794-1.7518.31323-2.5651.31323-.5005.12529-.9385.25058-1.439.37587-.1251 0-.1876.06265-.3128.06265-.1251 0-.1877.06264-.3128.06264-.3128.06265-.6256.18794-.9384.25059-.5005.12529-1.001.31323-1.439.50116-.3128.1253-.6256.25059-.9384.37588-.5005.18794-.9385.37587-1.439.50117-.6882.25058-1.3138.43852-1.9394.6891-.3129.12529-.6257.25058-1.001.37587-.3129.1253-.6257.25059-.9385.37588-.8133.12529-1.6892.31323-2.5025.56381-3.3159.87704-6.444 2.44321-9.5096 4.00931-1.5641.8144-3.1282 1.5662-4.6297 2.3806-1.5015.8144-2.9404 1.8167-4.3794 2.6937-1.4389.9397-2.9404 1.8168-4.5045 2.6312-.3128.1879-.6257.3132-.9385.5011-.0625.0627-.1877.0627-.2502.1253-.0626 0-.0626.0627-.1252.0627-.1251.0626-.2502.1252-.3128.1879-.1251.0626-.1877.1253-.3128.1879l-.0625.0627c-.0626.0626-.1877.1253-.2503.1879-.3128.188-.6256.3759-.8759.6265-.1877.1253-.3754.2506-.563.4385-.3129.1879-.5631.4385-.8759.6891-1.3764 1.1276-2.7528 2.3179-4.0666 3.5708-.1252.1253-.3128.2506-.438.4385l-.4379.4386c-.1251.1252-.2503.2505-.3128.3758 0 .0627-.0626.0627-.0626.1253-.1251.1253-.2502.2506-.3754.4385-.0625.0627-.1877.188-.2502.2506-.0626.0627-.1251.1253-.1251.188-.0626.0626-.1877.1879-.2503.2505-.1877.188-.3754.3759-.5005.5639-.1877.1879-.3128.3758-.5005.5638-.0626.0626-.1251.1253-.1877.1879-.0626.0626-.1251.1253-.1251.1879-.1251.0627-.2503.188-.3128.2506-.7508.5638-1.5015 1.1276-2.2523 1.6915h-.0626c-.1251.1252-.3128.1879-.4379.3132-.1251.0626-.2503.1879-.3128.2506-.0626 0-.0626.0626-.1252.0626-.1251.1253-.3128.188-.4379.3132-.1877.1253-.3128.2506-.5005.3759-.0626 0-.0626.0627-.1251.0627-.1251.0626-.2503.1879-.3754.2505-.1251.1253-.3128.2506-.4379.3133 0 0-.0626 0-.0626.0626-.1251.1253-.2503.188-.3754.3133-.1251.1252-.3128.2505-.4379.3758-1.1262 1.0024-2.1897 2.0047-3.2533 3.0697-.5631.5638-1.1261 1.1276-1.6892 1.6288-.1877.1879-.3754.3758-.5631.5638-.0625.0626-.1251.1253-.1877.1879-.2502.2506-.5005.5012-.7507.8144-.0626.0627-.1251.1253-.1251.1879-.1877.188-.3754.4386-.5006.6265-.1876.1879-.3753.4385-.5005.6265-.0625.1252-.1876.1879-.2502.3132 0 .0626-.0626.0626-.0626.1253l-.0625.0626c-.0626.1253-.1252.188-.2503.3133-.0626.0626-.1251.1252-.1877.2505l-.0625.0627c-.1252.1253-.2503.3132-.3129.4385-.1251.1253-.2502.3132-.3128.4385-.0625.0627-.1251.188-.1877.2506l-.0625.0627c-.1252.1879-.3128.3758-.438.5638-.0625.1253-.1251.1879-.2502.3132-.1251.1879-.2503.3759-.3754.5012-.0626.0626-.0626.1253-.1251.1879-.0626.0626-.1252.1253-.1252.1879-.1251.188-.3128.3759-.4379.6265-.0626.1253-.1877.2506-.2502.4385-.6257 1.0023-1.3139 2.0047-1.9395 3.007-.7508 1.1276-1.5015 2.1926-2.1271 3.3829-.3129.5638-.6257 1.1903-.9385 1.8167-.2502.4385-.4379.9397-.6882 1.3782-.0625.1253-.1251.2506-.1251.3133 0 0 0 .0626-.0626.0626-.0625.1253-.1251.3132-.1877.4385-.4379.9397-.87585 1.8794-1.18866 2.8191-.37538 1.1276-.68819 2.2552-1.06357 3.3829-.06257.1252-.06257.3132-.12513.4385-.18769.6264-.31281 1.2529-.5005 1.942-.06257.1253-.06257.2506-.06257.3759v.0626c0 .1253-.06256.2506-.06256.3759-.06256.1253-.06256.3132-.06256.4385-.06257.1253-.06257.3132-.06257.4385 0 .1253-.06256.3133-.06256.4385 0 .1253-.06256.3133-.06256.5012 0 .1253-.06257.3132-.06257.4385-.06256.3133-.12512.6265-.12512 1.0024 0 .1879-.06256.3132-.06256.5011v.4386c0 .1879-.06257.3758-.06257.6264-.06256.1879-.12512.3132-.18769.5012-.68819 1.942-1.1887 3.9467-1.75176 5.8887-.06257.1879-.06257.3132-.12513.5011-.06256.188-.12512.4386-.12512.6265-.06257.1879-.06257.3759-.12513.5638v.0627c-.12513.5638-.25025 1.0649-.37538 1.6288 0 .0626 0 .1252-.06256.1879 0 .1253-.06257.2506-.06257.3759V82.8812c-.06256.1253-.06256.3132-.06256.4385 0 .0626 0 .1253-.06256.2506-.37538 2.1299-.56307 4.3225-.62563 6.5151-.06257 1.5662-.06257 3.1323-.06257 4.6985 0 .6891.06257 1.4408.12513 2.1299 0 .3759.06256.6891.12513 1.065 0 .1253 0 .2506.06256.3759 0 .2506.06256.4385.06256.6891.06257.4385.12513.9397.18769 1.3782v.188c.18769 1.879.25025 3.759.50051 5.575.31281 2.444.87588 4.761 1.62664 7.079.31281 1.065.68819 2.068 1.00101 3.133.06256.125.12512.25.12512.438 0 0 0 .063.06256.063.06257.125.12513.25.12513.376v.062c.06256.063.06256.188.12513.251 0 .063.06256.125.06256.188s.06256.125.06256.188c0 .062.06257.125.06257.188.06256.125.06256.188.12512.313 0 .063.06257.063.06257.125 0 .063 0 .063.06256.126.06256.187.18769.438.25025.626.18769.439.37538.877.56307 1.316.18769.438.37538.877.56307 1.252.25025.502.43794 1.003.68822 1.504.3753.752.6882 1.503 1.0635 2.193.1252.25.2503.501.3754.751.0626.126.1251.251.1877.376.1251.251.2503.439.3754.689.0626.126.1251.251.1877.376.1251.251.1877.439.3128.689.1251.251.1877.439.3128.689 0 .063.0626.126.0626.188.1877.502.4379 1.065.6256 1.566.0626.188.1251.376.1877.502.0626.188.1251.376.2502.501.8134 1.879 1.7518 3.633 2.6277 5.45.4379 1.002.8133 2.005 1.2513 3.007.0625.188.1251.313.1876.501.0626.188.1252.313.2503.501.3128.627.6256 1.316.9384 1.942.1252.188.1877.439.3129.627.4379.877.8758 1.691 1.3763 2.506.5631.939 1.1262 1.879 1.7518 2.819.0626.125.1877.25.2503.376.4379.563.8133 1.19 1.2512 1.754 0 .062.0626.062.1252.125.1876.251.3753.501.563.752.0626.062.0626.125.1251.125.1877.251.3754.501.5631.689.1251.125.2503.313.3128.439.7508 1.065 1.5015 2.192 2.3149 3.195.6256.814 1.2512 1.628 1.9394 2.38.0626.125.1877.188.3128.313.1252.126.1877.188.3128.314.1252.125.1877.187.3129.313.1251.062.1877.188.3128.25.1251.063.1877.188.3128.251.1877.188.3754.376.6256.564.1252.062.1877.188.3128.25.1252.126.3129.314.5005.439.5631.501 1.0636 1.002 1.6267 1.503.5631.502 1.0636 1.003 1.6266 1.504.3128.25.6257.564.9385.814.3128.251.6256.564 1.001.815.6882.501 1.3764 1.002 2.1271 1.44.1877.126.3754.251.5631.376.1251.063.3128.188.4379.251.0626 0 .1252.063.1252.063s.0625 0 .0625.062c.1877.126.3754.188.5005.313.1877.126.3754.188.6257.314.1876.125.3753.188.563.313.6257.313 1.2513.564 1.8769.814.0626.063.1877.063.2503.126.0625.062.1877.062.2502.125.1877.063.3754.125.5005.188h.0626c1.0636.376 2.0646.814 3.1281 1.253.1877.062.3129.125.5005.25.1877.063.3129.126.5006.251.6256.313 1.2512.626 1.8768.94 0 0 .0626 0 .0626.062.3128.188.6256.313.9385.501.6256.314 1.1886.627 1.8143.94 1.8769.94 3.7538 1.754 5.6932 2.569.5005.188.9385.438 1.439.626.3128.125.6882.313 1.001.439.3128.125.6882.313 1.001.438.1251.063.2502.125.3754.125.1251.063.3128.126.4379.188h.0626c.1877.063.3128.126.5005.188.0625.063.1877.063.2502.126.0626 0 .1252.062.1877.062h.0626c.1251.063.2502.125.3754.125.0625 0 .1251.063.1877.063.1251.063.2502.063.3753.125.1877.063.3754.126.5631.188.1251.063.3128.126.4379.126.1877.062.3129.125.5005.125 1.5641.438 3.1282.689 4.7548.877 1.001.125 1.9395.188 2.9405.313 1.7518.251 3.5035.689 5.2553 1.003 1.6266.313 3.2533.751 4.8799 1.002 2.1272.313 4.3169.626 6.444.626H94.0325c.2503 0 .5005-.062.7508-.062.1251 0 .2502-.063.3754-.063.1251 0 .1876 0 .3128-.063.3128-.062.563-.062.8759-.125.563-.063 1.1261-.188 1.6892-.25 3.3154-.376 6.6314-.439 9.9474-.502 1.439 0 2.815-.062 4.254-.313.125 0 .251-.063.438-.063h.063c.125 0 .25-.062.313-.062h.125c.062 0 .125 0 .188-.063.062 0 .125 0 .187-.062.125 0 .25-.063.438-.126h.688c1.752 0 3.379-.062 5.068-.564 1.251-.375 2.44-.877 3.691-1.44 1.314-.627 2.69-1.191 4.067-1.817 1.001-.501 1.877-1.065 2.815-1.629.751-.438 1.564-.94 2.315-1.378.188-.125.375-.251.563-.313.313-.188.563-.376.876-.502.313-.187.563-.313.876-.501.25-.125.438-.25.688-.376.5-.25.938-.501 1.376-.751 1.126-.627 2.19-1.316 3.316-1.942 1.064-.564 2.065-1.253 3.066-1.88 1.126-.751 2.189-1.503 3.253-2.255.188-.125.375-.251.501-.438.312-.251.688-.564 1.001-.815.187-.125.312-.313.5-.438.25-.251.501-.439.751-.689.813-.752 1.626-1.504 2.502-2.193l2.628-2.067c1.126-.94 2.315-1.88 3.378-2.882l.501-.501c.125-.126.313-.376.5-.564.626-.689 1.314-1.316 1.94-2.005.626-.689 1.126-1.315 1.627-2.067.125-.251.312-.439.437-.689.251-.313.438-.564.689-.877l.062-.063.063-.063c.375-.438.751-.939 1.126-1.44-.063.125-.125.188-.25.313.062-.125.187-.251.25-.313l.062-.063v-.063c0-.062 0 0 0 0l.063-.062v-.063s0-.063.063-.063c.625-.751 1.251-1.566 1.814-2.38.063-.063.125-.188.188-.313.187-.314.375-.564.563-.877.187-.314.375-.627.563-.877.062-.126.125-.188.187-.314.876-1.253 1.94-2.443 2.753-3.758 1.001-1.692 2.065-3.321 2.503-5.263 0-.062.062-.125.062-.25.376-.627.689-1.253 1.001-1.88.876-1.816 1.627-3.633 2.315-5.512.688-1.88 1.314-3.759 1.877-5.639 0-.062.063-.125.063-.188v-.062c.187-.627.375-1.19.5-1.817.063-.313.188-.626.25-.94.063-.313.188-.626.251-.939.312-1.253.625-2.443.938-3.696.563-2.13 1.064-4.323 1.502-6.516-.126-1.315.187-2.881.375-4.447zm3.191-6.8288c.25 5.1368-.251 10.3368-1.189 15.4738-1.064 5.325-2.69 10.336-4.692 15.285-.751 2.068-1.627 4.135-2.565 6.14 0 0 0 .062-.063.062-.125.251-.188.439-.313.689-2.752 7.393-6.819 14.158-12.512 19.671-6.444 8.395-14.953 15.85-24.275 20.924-4.129 2.38-7.758 5.638-12.074 7.705-4.317 2.13-8.759 4.01-13.514 4.761-6.507.815-13.201.251-19.5823.752-6.2563-.25-12.2624-.752-18.3936-1.942-5.6307-.501-11.3865-.626-16.5792-3.195-2.002-.877-3.8164-2.005-5.6307-3.257-.4379-.063-.8759-.126-1.3138-.251-3.1282-1.002-5.0676-3.508-7.9455-4.824-2.3774-1.315-5.1302-1.566-7.3825-3.007-3.1281-2.255-5.5055-5.45-8.6337-7.643-3.7538-2.631-6.7568-6.953-9.5721-10.273-2.5025-2.694-4.1917-5.889-5.443-9.335-3.1907-5.575-5.50555-11.527-7.38245-17.666-.5005-1.691-1.00101-3.383-1.50151-5.074-.18769-.689-.43794-1.441-.62563-2.13 0-.063-.06256-.188-.06256-.251-2.56509-9.083-4.879924-18.355-4.629671-27.7517.062563-8.2066 1.438951-16.3506 4.004041-24.056 2.25227-6.2019 5.69323-11.9654 9.38448-17.4155 6.2563-11.0257 14.7649-20.6105 24.8375-28.1906 3.003-2.4432 6.1312-4.6358 9.5096-6.5152 1.1261-.5638 2.2523-1.065 3.3784-1.5661 4.8174-2.5059 9.9475-4.63584 15.2028-6.26463C74.3251 4.32333 82.2081.940462 90.7792.314004 100.539-.625683 109.924 2.44396 119.12 5.26302c.188.06265.376.12529.563.18794.126 0 .313.06264.438.06264 3.692 1.00234 7.195 2.69377 10.636 4.32256 4.442 2.12994 8.759 4.57314 12.888 7.32954.125-.0626.25-.0626.375.0627.814.5638 1.564 1.1276 2.315 1.7541.188.1879.438.3758.688.5011.814.5638 1.565 1.1276 2.378 1.6915.25.1252.5.3132.688.5011v.188c3.066 2.2552 6.131 4.5105 8.696 7.3295 1.627 1.8167 3.128 3.7588 4.505 5.7634l.375.3759s0 .0626.063.0626c.125.188.313.3759.438.5012l.062.0627c.313.3758.626.7517.939 1.1276.125.1879.25.3132.438.5012l.062.0626.063.0626c.062.0627.062.1253.125.188V38.0268c.188.2506.438.5011.626.7517.375.4385.75.8771 1.126 1.3156.25.3132.5.5638.75.877.251.3133.501.5638.751.8771.125.1253.25.3132.376.4385.312.4385.625.877.875 1.3155.188.3133.438.6891.626 1.0024.063.1253.125.2506.188.3132.313.5012.625 1.0023 1.001 1.5035.313.5012.625 1.0023.938 1.5035.501.8144.939 1.6914 1.439 2.5058.125.2506.25.4386.376.6891.5 1.0024 1.001 2.0047 1.501 3.007.313.6891.688 1.3782 1.001 2.0673.063.1253.125.2506.188.3759.062.1253.125.3133.187.4385.063.188.126.3759.251.5639.062.1253.125.2505.125.3758.125.2506.188.4386.25.6891.313.7518.626 1.4409.876 2.1926 0 .0627.063.1253.063.188.062.1879.125.3132.125.5011.062.1253.062.2506.125.3133.062.1879.125.4385.187.6264.126.3759.188.6891.313 1.065.313.8771.626 1.6914.814 2.5685.25.9397.5 1.8794.813 2.819.125.4386.25.8771.438 1.253l.375 1.3155c0 .1253.063.2506.063.3759.062.3759.188.7517.25 1.1276.063.2506.125.5012.188.7518.062.2506.187.5011.25.7517.063.1253.125.3133.188.4385.062.1253.125.2506.187.4386.063.1253.063.1879.126.3132.125.2506.187.4385.312.6891.063.5012.125 1.065.188 1.5661 1.064 5.5755 1.627 11.3389 1.627 17.2903v1.4408z" fill="#171212"/><path d="M4.75476 75.1749c-1.31383-3.6334 1.001-7.2669 2.00201-10.6497.87589-2.4432 1.75177-4.8864 2.81534-7.2669 1.62669-3.4456 3.75379-6.7031 5.81839-9.8981 3.0656-4.1346 6.2563-8.2066 9.6347-12.1533 3.3158-4.4478 7.1322-8.5198 11.6367-11.84 1.001-.6265 2.1897-1.0024 3.3784-1.1276-.6256 1.5661-1.6266 2.9443-3.003 3.9466-2.1897 1.8794-4.3169 3.7588-6.3189 5.8887-1.6266 1.9421-3.1281 4.0094-4.7548 5.8887-4.3794 5.3249-8.7588 10.7125-12.1998 16.6638-2.8779 4.6985-4.5045 9.9607-6.31883 15.0977-.50051 2.0046-1.25126 3.9466-2.69021 5.4501z" fill="#171212"/><path d="M56.1191 158.807c-3.3784 0-8.8214-.94-8.1958-5.45-7.6327-5.638-5.8809-16.977-3.7538-24.996 1.3139-5.888 6.6943-8.081 12.1998-7.517 7.9455-.877 16.0162.501 23.8991-1.003 9.4471-2.067 18.5813-5.638 28.3416-6.264 1.876-.125 3.753-.251 5.693-.251 2.252-1.315 4.942-2.255 7.507-1.127 8.571 4.197 8.134 16.288 7.383 24.431-1.94 12.216-16.705 14.597-26.84 16.915-14.9524 4.573-30.7183 4.698-46.2339 5.262zm-5.443-11.84c-.9384-3.759-1.001-7.58-1.1261-11.402-.3754 3.759-.8759 7.956 1.1261 11.402zm14.5772-18.23c.3128-.125.6256-.188.9384-.313-.3128 0-.6882.063-1.001.063 0 .062 0 .125.0626.25zm-7.9455-.25v-.376c-.0626 0-.1251-.063-.2503-.063.1252.188.1877.313.2503.439zm14.8274-.314c.1877-.062.438-.188.6257-.25-.6882.062-1.3764.125-2.0021.188.438-.063.8759 0 1.3764.062zM108.484 104.932c-2.753-9.3971-1.251-21.2998 2.315-30.3835 2.941-5.3875 5.881-13.5941 12.951-14.0326 1.751-.0627 4.004.877 4.004 2.8817-.125.0626-.251.0626-.376.0626h-.062c-1.752 5.8261-7.946 9.7101-9.698 15.6615-2.127 5.1996-2.627 10.9003-3.065 16.4758-.25 3.7588.25 14.4715-6.069 9.3345zM119.683 98.8551c-.187 0-.5.0626-.625-.1253-1.627-3.5082 1.376-7.2043 5.067-6.7658 1.377 3.1323-.813 7.3296-4.442 6.8911zM88.4017 101.737c-8.0081-4.1975-17.0797-11.6523-26.5268-6.8912-.2502.1879-.6256.5011-.4379.8143-3.1282-.3132-2.6277-5.1369-.6882-6.703 7.5701-5.8261 32.5328 1.754 29.8426 13.3439-.6882-.126-1.439-.314-2.1897-.564zM63.6893 77.3675c-1.9395-.2506-4.6297-1.1903-5.1302-3.3202 2.5651-1.942 5.8184-2.13 8.9465-2.5685 6.1312-1.1903 12.0747-3.1949 17.5177-6.3272 1.6892-.6891 2.9404-1.2529 4.5045-2.0047 2.44 3.8214-.8759 8.0187-4.5671 9.3342-6.6317 3.007-14.0141 4.8864-21.2714 4.8864zM50.1755 109.192c-3.3159-2.506-4.3169-6.891-6.6317-10.2117-2.44-4.2599-6.2563-7.1416-9.5721-10.5871-3.5036-4.0093.9384-4.072 3.9414-3.007 2.8154 1.3156 5.0676 3.5082 7.2573 5.7008 3.5036 3.6961 6.3189 7.956 8.3209 12.592 1.001 2.38.6257 4.949-.4379 7.267-1.001-.564-1.9395-1.128-2.8779-1.754zM113.489 58.7617c-2.44.4385-8.821-3.5708-4.942-5.5755 2.315-1.2529 4.942-1.1276 7.445-1.5661 3.566-.7518 7.132-2.6938 10.886-1.6288 4.63.4385 2.377 4.6984-.25 6.5152-3.942 2.0673-8.759 2.4432-13.139 2.2552z" fill="#D6E3E2"/><path d="M132.321 160.498c-2.628-1.816-2.503-5.638-1.439-8.331 3.754-13.657 14.827-23.681 25.776-31.887 2.627-2.819 13.326-3.508 9.822 2.318-3.503 4.949-9.635 7.267-13.639 11.902-4.004 3.571-7.695 7.455-10.76 11.903-3.254 4.699-4.63 10.713-8.947 14.471-.25 0-.626-.313-.813-.376zM162.101 90.7737c-4.067-.2505-4.755-3.0696-1.94-5.7007-4.191 1.5035-.187-8.7704 5.256-4.6358 4.129 2.8817 1.564 10.3365-3.316 10.3365zM33.4712 147.343c-9.447-8.708-.8133-13.782-15.891-27.439-1.3138-1.441 2.44-2.13 3.5036-2.067 10.1352 1.503 19.0191 21.487 12.3874 29.506z" fill="#FDBE55"/><path d="M61.9375 151.039c3.6287 0 7.3199-.439 11.0111-.501 4.8799-.376 9.7598-.251 14.5772-1.003.1251 0 .3128.063.5005.063.2503 0 .5005.063.7508.063h.3128c.5005 0 1.001-.126 1.5015-.251.5631-.125 1.1261-.376 1.6892-.626 4.6922-1.003 9.2594-2.819 13.9514-4.01 3.191-1.19 6.507-2.067 9.76-3.132 3.879-1.629 7.57-3.759 11.074-6.014 2.252-1.315 4.442-2.882 6.193-4.886.751-.94 1.815-1.504 2.941-1.817.25 1.316-.501 2.819-1.439 3.759-1.439 1.441-3.003 2.756-4.755 3.884-4.442 2.756-8.946 5.638-13.889 7.455-5.067 1.566-10.135 3.195-15.265 4.573-5.0679 1.816-10.3857 2.631-15.7036 3.445-3.1907.376-6.444.188-9.6973.501-4.1917 0-8.446.564-12.6377.627-.3128-.752-.6256-1.441-.8759-2.13z" fill="#171212"/><path d="M135.261 129.489c-1.188-1.817-.75-4.135-1.001-6.202-.187-3.759-.625-7.58-1.063-11.339-.626-2.944-1.377-5.951-1.189-9.021.063-.752.501-1.441.876-2.067.751.814 1.064 2.13 1.064 3.195 0 3.069.938 6.076 1.251 9.146.125 1.754.187 3.508.438 5.262.25 1.754.313 3.571.375 5.325.125 2.005.688 4.197-.751 5.701zM54.8053 115.206c-.1252-.314-.3129-.627-.5631-.877v-.126c.4379.126.6882.564.7507 1.003h-.1251-.0625z" fill="#171212"/><path d="M58.9971 115.08c-1.3138-.188-3.1907-.188-4.6297-.626-.5005-.689-1.1261-1.316-1.9394-1.692 1.7517-.125 3.5035.251 5.2553.376 4.7548.314 9.5721.376 14.3895.063 8.1332-.814 16.2038-1.942 24.2119-3.508 7.0073-1.504 14.0143-3.007 21.0213-4.323 3.316-.752 6.506-1.942 9.509-3.445 1.064-.564 1.94-1.441 3.003-1.817.313-.1253 2.128-.877 1.94.125 0 0-.063 0-.063-.062-.813 2.631-3.753 3.696-6.068 4.761-5.568 2.568-11.887 3.132-17.831 4.448-2.315.563-4.567 1.127-6.882 1.628-1.1883-.25-2.377-.188-3.5657-.062-.8759.062-1.6892.188-2.5651.376-.8759.188-1.6892.375-2.5025.563-2.5026.564-4.9425 1.191-7.3825 1.88-.5005.062-.9384.125-1.4389.188-5.6933.877-11.4491 1.503-17.2049 1.503-2.4399-.062-4.8173-.125-7.2573-.376z" fill="#171212"/><path d="M61.7496 153.482h-1.1887c-2.8779-.438-7.0071-.501-8.4461-3.445-1.001-2.757-1.564-5.952-1.9394-8.833-1.3764-8.082-2.9405-16.226-2.5651-24.432.0626-2.256.1877-5.325 3.3158-4.072 1.1262.062 2.44.25 3.0656 1.315 0 .063.0626.063.0626.126 0 0 .0626 0 0 0-1.3138.188-2.7528.814-4.0666.25-.6256 6.202.1877 12.529 1.1261 18.669.6882 4.635 1.1887 9.209 2.1897 13.719.6257 2.255.3129 3.132 2.9405 3.759 1.3138.25 2.5651.689 3.9415.752 1.2512.125 2.5651-.126 3.8163.375.5005.188.9385.564 1.5015.69-.1251.187-.3753.438-.563.563-.7508.564-1.6892.627-2.5651.627-.1877 0-.3754 0-.6256-.063zM107.171 106.686c-.438-.877-.563-1.942-.438-2.945.313-2.505.688-4.7607.813-7.2039.125-3.0696.751-6.0766 1.376-9.1463.751-4.0719 1.439-8.2066 2.691-12.1533 1.626-4.3852 3.879-8.6451 6.819-12.3412.938-1.0649 1.752-2.9443 3.441-2.6937 2.002.5011 2.002 3.007.375 4.0093-.187-.6891-.187-1.3782-.563-2.0047-3.753 4.4479-6.694 9.5848-8.383 15.1603-1.314 5.8887-2.628 11.7774-3.566 17.7288-.25 3.0696-.563 6.0767-1.126 9.0837-.063 1.002-.626 1.879-1.126 2.694-.188.062-.313-.126-.313-.188zM85.5863 106.185c-1.1261-2.381-2.7528-4.511-4.3168-6.6408-3.2533-4.3852-5.3805-7.5175-10.7609-9.2716-1.5641-.6891-3.0656-1.6288-4.8173-1.6914h-.8134c-1.6266-.0627-4.004-.0627-3.8163 1.8793.1251.7518.5005 1.5035.8759 2.1926-2.002.2506-3.2533-2.1926-2.44-3.8214.9385-2.1926 3.8164-2.0046 5.8184-2.0046 1.8769-.0627 3.5661.877 5.2553 1.6914 2.5651 1.1276 5.3178 1.942 7.3199 4.0093 2.565 2.6312 4.6922 5.7008 6.8193 8.7082 1.439 2.443 3.6912 5.199 2.8779 8.144-1.001-.94-1.564-2.068-2.002-3.195zM49.9879 106.498c-1.8769-3.634-3.8789-7.5803-7.1948-10.1488-3.1907-1.8167-6.6942-3.1323-9.1968-5.9513-.2502.3758-.3128.8144-.2502 1.2529-1.1261-.3759-1.439-2.13-.438-2.8191 1.3139-.6891 2.3149.9397 3.1908 1.6288 1.0635.877 2.1897 1.6288 3.4409 2.2553 1.6892.8143 3.441 1.5661 4.88 2.7564 1.6266 1.3782 2.8153 3.1323 4.004 4.8868 1.001 1.566 1.9394 3.132 2.7528 4.823.7507 1.692 1.7517 3.508 1.3764 5.388-1.439-.94-1.9395-2.631-2.5651-4.072zM118.057 97.3516c.625-1.6288 1.689-6.2646 4.004-5.6381.625.2505.876 1.0023.75 1.5661-.187-.1253-.438-.3132-.688-.3759-1.314 1.6288-1.939 3.5082-2.502 5.4502-.501 1.7541-.251 3.5711-.438 5.3251-2.065-1.378-1.689-4.2601-1.126-6.3274zM136.2 87.6414c1.376-1.5661 2.127-3.6334 3.754-4.8863.25 1.8167-.751 3.5081-1.815 4.8863-1.564 2.1926-3.503 4.2599-4.942 6.4525-.688 1.0024-1.126 2.1927-2.002 3.0697-.313.3132-.751.5012-1.064.8144-.625-3.195 4.254-7.8307 6.069-10.3366z" fill="#171212"/><path d="M48.2362 112.888c-2.5025-.815-4.9424-1.88-7.3824-2.945-3.6287-1.879-6.8194-4.51-9.5722-7.517-4.4419-5.1997-8.1957-11.4643-8.7588-18.418-.1877-3.2576-.1877-6.7031 1.439-9.7101 1.9394-5.0743 7.5701-7.5175 12.7628-7.0163 2.002.1879 4.5046.1253 5.7558 1.942.1252.1879.3754.4385.438.6891-1.3764-.1253-2.6277-.5638-4.0041-.7517-3.8789-.5012-8.2583.1879-11.1988 3.0069-1.564 1.9421-2.8153 4.3853-3.1907 6.8284-.7507 6.0767 1.1887 12.0907 4.5671 17.0397 2.3149 3.8214 5.443 7.204 9.0717 9.71 1.6892 1.19 3.5661 2.193 5.5055 2.944 2.1272 1.003 5.0676 1.316 5.3179 4.26h-.0626c-.1877.063-.4379 0-.6882-.062z" fill="#171212"/><path d="M41.1666 69.9127c-.2502-.3132-.4379-.7517-.7507-1.0023h-.0626c-.0625.0626-.0625-.1253 0-.1253.2503-.2506.7508-.188 1.1262-.1253.7507.1253 1.4389.5012 2.0645 1.0023 1.1887.7518 2.6903 1.6915 2.9405 3.195-2.1897-.0627-3.9415-1.4409-5.3179-2.9444z" fill="#171212"/><path d="M134.01 130.992c-1.189-1.566-.688-3.57-1.001-5.387-.313-1.88-.313-4.01-.313-5.826-.187-2.757-.625-5.513-1.251-8.27-.5-2.38-.563-5.011-.813-7.454-.376-3.133-.751-6.3902.375-9.4599.751-2.1299 2.252-3.8214 3.191-5.7634 1.439-2.6938 3.441-5.1996 5.943-6.9537 2.002-1.5661 3.066-3.5708 4.38-5.6381.813-1.3782 1.877-2.819 1.501-4.5105-.688-3.1949-2.315-6.9537-5.443-8.3319-1.126-.4385-2.44-.0626-3.503-.6264-.939-.5012-.688-1.5662-.501-2.4432.251-1.3782.626-3.007.814-4.3852 1.188-8.4572-4.004-16.8517-11.575-20.4225-2.877-1.3783-6.068-2.0047-9.196-2.5685-2.503-.0627-4.943.0626-7.383.5011-3.065.8144-5.943 2.0674-8.821 3.4456-2.8781 1.5661-4.8801 4.1346-7.0073 6.6404-1.3764 1.5035-2.8779 2.8191-3.9414 4.5105-.8759 1.1903-1.5016 4.1973-3.5036 2.6311-1.1261-1.1276-1.9394-2.5684-3.2532-3.4455-2.3774-1.5035-5.0677-2.2552-7.8204-2.5058-9.3219-.2506-20.7084 4.5731-26.2765 12.2159-2.0646 2.7564-3.6287 5.8261-4.6297 9.0836-.2502 1.1903-.8759 2.2553-1.9394 2.8818-1.5641-3.2576 1.6892-9.2716 3.5035-12.1533 3.003-4.6985 6.9445-8.3319 11.9495-10.7125 9.0091-4.5105 22.0222-6.6404 29.3421 1.8794 1.1887-2.3179 3.3159-4.1973 5.0676-6.014 1.5641-1.7541 2.9405-3.6961 4.8174-5.0743 1.8769-1.5661 4.0664-2.5685 6.3184-3.4455 2.065-.877 4.192-1.7541 6.444-2.1926 8.071-1.3156 17.893.8144 23.649 6.891 6.382 6.014 7.57 14.5965 5.506 22.8031 2.94-.1879 5.568 1.5661 7.069 4.072 1.69 2.5684 3.066 5.7634 2.566 8.9583-.751 2.3806-2.503 4.3226-3.692 6.4525-1.501 2.3179-3.816 3.8841-5.693 5.8887-1.877 2.3179-3.128 5.137-4.88 7.5802-1.439 2.2552-1.564 5.0743-1.501 7.6426.375 2.318.375 4.761.625 7.079.626 4.573 1.877 9.084 1.752 13.72-.125 2.443 1.439 7.517-.813 9.021 0-.063 0-.188-.063-.314z" fill="#171212"/><path d="M133.572 63.7108c.563-.1253 1.502.3132 1.064.9396-.876.8144-2.065 1.3156-3.191 1.5035-.063-1.1902.813-2.3805 2.127-2.4431zM121.873 67.5322c-.438-.188-.438-.7518-.501-1.1903-.062-1.5035.376-2.819 0-4.3225-.062-.5639-.062-1.1277-.125-1.6288.313.0626.626.1879.876.3758 2.002 1.4409 1.627 4.6358.25 6.3899.063.0626.188.0627.251.1253-.188.0626-.376.1879-.563.1879-.063.0627-.125.0627-.188.0627zM52.8658 112.7c-1.0635-.689-1.9394-2.255-1.6892-3.446.0626-.062.1877-.125.2503-.062 1.3764.563 1.9394 2.192 1.4389 3.508zM71.1343 115.143c-1.8769-.564-2.1897-2.944-2.8779-4.448-1.2512-2.882-3.2532-5.325-5.1927-7.831-.8759-.877-1.6266-2.067-2.8153-2.568-.1252-.063-.1877-.063-.3129-.063.1252-.2503.438-.4383.6882-.5636 2.1897-.7517 3.5036 1.8796 4.7548 3.2576 2.6902 3.508 5.7558 7.58 5.7558 12.216 0 0-.0625 0 0 0zM131.82 151.728c1.314-3.383 3.128-6.578 5.005-9.647 6.569-10.274 15.328-19.483 27.778-22.052 1.001-.25 2.127-.188 3.128.126-1.126 1.127-2.752 1.503-4.254 1.879-12.763 3.383-21.209 14.596-27.34 25.622-1.376 2.569-2.628 5.2-3.441 8.019-.188.877-.751 1.816-1.251 2.506-1.439-2.068-.376-4.386.375-6.453zM154.719 113.577c1.188-.376 2.94-.439 3.816-1.629.062-.063.062-.125.125-.188 0-.063 0-.063.063-.063.062-.689-1.001-.814-1.502-1.127-.563-.251-1.126-.501-1.689-.564.625-1.065 2.19-1.065 3.191-.564 2.314.94 2.252 3.446.25 4.699-.563.438-1.251.626-1.877.626-.939 0-1.814-.376-2.377-1.19zM40.7286 146.215c-1.3763-1.002-2.0645-2.506-2.8153-4.009-1.0636-2.005-2.2523-3.884-3.5661-5.764-2.1271-3.007-4.442-5.951-7.1322-8.457-1.6266-1.691-3.7538-2.631-5.5055-4.134-1.1262-1.191-1.0636-1.191.563-.94 6.5066 2.631 10.886 8.833 14.7649 14.409.9385 1.503 1.8143 3.007 2.6277 4.635.6882 1.316 1.3138 2.757 1.0635 4.26zM16.6417 115.08c-.4379-.188-1.2513-.751-.9385-1.315l.0626.062c.2503.251.7508.063 1.0636 0 1.1261-.25 2.6276-.939 2.6276-2.255-.2502-1.127-1.6892-1.503-2.6902-1.253-1.0636.251-1.7517 1.128-2.5025 1.88-.0626.062-.1877.25-.2503.25-.2502-.814-.1876-1.691.2503-2.38 1.5641-2.381 5.9435-1.567 6.6942 1.127.5006 1.88-1.5015 3.947-3.3784 3.947-.3753.125-.6882.063-.9384-.063zM151.59 94.1566c.814-3.8214.626-7.7054.125-11.5268 0-.2506.313-.3759.501-.3132 1.501.7517 1.251 2.9443 1.439 4.3852.25 3.3202-.125 6.6404-.939 9.8354-.688 2.1926-.875 4.8238-2.752 6.3898-.563-3.007 1.251-5.826 1.626-8.7704zM160.349 87.2656c-.938-.2506-1.564-1.3156-1.063-2.2553.062-.1879.375-.5638.563-.5638-.063.5638.375 1.3782 1.063 1.1276.626-.1879 2.19-1.942.939-2.1926-.626-.0626-1.189.1253-1.815.3133-.563.1879-1.126.3758-1.689.3132.501-1.1276 1.377-2.2552 2.628-2.3805 1.814-.3133 3.691 1.4408 2.878 3.2575-.501 1.1903-1.627 2.3806-2.941 2.3806-.187.0626-.375.0626-.563 0z" fill="#171212"/></g><defs><clipPath id="clip0"><path fill="#fff" d="M0 0h186v188H0z"/></clipPath></defs></svg>