<svg width="186" height="187" viewBox="0 0 186 187" fill="none" xmlns="http://www.w3.org/2000/svg"><mask id="a" style="mask-type:alpha" maskUnits="userSpaceOnUse" x="1" y="3" width="184" height="184"><rect x="1" y="3" width="184" height="184" rx="92" fill="#C4C4C4"/></mask><g clip-path="url(#clip0)"><path d="M72.0524 69.6177c-4.8701-4.3706.437-22.1653 8.3041-16.7956 5.5569 4.8076.5619 23.9759-8.3041 16.7956zM130.618 44.0809c-3.371-1.8107-6.805-6.1189-4.558-9.99 3.809-5.3072 12.55.4995 12.238 6.0564 0 3.8087-4.558 6.3062-7.68 3.9336zM77.9839 31.1563c-.8741-.3122-4.433-1.1863-2.5599-2.0604-1.6234-1.7483-.4995-4.3082 1.5609-5.1199 2.4975-1.436 5.432-3.0594 8.3042-2.1229 1.9355.3122 3.3091 2.1854 3.2467 4.1209-.4995 3.8711-7.2427 5.9316-10.5519 5.1823zM56.0685 110.202c-1.4985-.437-3.0594-1.249-4.0584-2.498-.0624-.124 0-.187.0625-.249.437-.375.9365-.687 1.3736-.999.4995-.313.999-.562 1.5609-.75-.2498-.187-.4995-.374-.8117-.562.8117-1.56 2.7472-2.247 4.433-1.685 4.8701 1.81 2.2478 8.304-2.5599 6.743z" fill="#FDBE55"/><path d="M50.0121 109.827c-2.9346-.936-2.4351-4.87 0-6.181 2.0604-1.561 6.3686-.749 6.6807 2.123-.1248-.062-.2497 0-.3746.063-1.1863.999-2.2477 2.247-3.7462 2.872.6868 1.061-1.8107 1.498-2.5599 1.123zM112.018 111.963c-2.935-.937-2.435-4.87 0-6.181 2.06-1.561 6.369-.75 6.681 2.123-.125-.063-.25 0-.375.062-1.186.999-2.248 2.248-3.746 2.872.687 1.062-1.811 1.499-2.56 1.124zM83.6032 109.827c-4.0584.25-10.9265-.187-11.1138-5.557 0-.187.1249-.624.437-.437 9.5529-.936 13.6738.562 21.9155-6.056 5.6191-4.3082 10.5521-9.4905 14.7351-15.1723 1.748-2.5599 3.122-5.6194 6.119-6.8681.687-.2498 2.81-1.1239 2.872-.4995.687 2.9345.125 5.9315-1.623 8.3666-1.436 2.435-2.685 5.0574-4.621 7.1178-7.929 7.992-16.7329 18.4815-28.7208 19.1055zM94.2175 79.5453c-4.4955-4.9326 4.8076-15.1099 10.4265-14.2357 2.748.3121 5.433 3.0594 4.746 5.8691-.125.3122-.687 1.5609-.999.999-6.244-3.1219-8.367 5.9315-13.6116 7.1803.2498.3122-.437.3122-.5619.1873z" fill="#FDBE55"/><path d="M95.4662 71.4909c-2.7472-5.8067 3.996-11.5509 9.3658-12.3002 3.808-.999 8.803 1.6858 8.117 6.0564-3.497.3122-7.555-.1248-10.427 2.2478-1.249.9365-2.186 2.1853-3.4969 3.0594-.7492.6868-2.1853.999-2.3726 2.1229-.4995-.0625-.9365-.8117-1.1863-1.1863z" fill="#FDBE55"/><path d="M82.7292 142.919c-13.1118.125-26.286-.999-39.273-2.622-5.0574-.125-9.3031-.625-14.1732-1.249-2.1853 0-4.6827-.25-5.8066-2.435-.6868-1.311-.6244-3.184.4995-4.183-3.3716-3.309-6.8057-7.056-8.6788-11.489-1.1238-3.871 4.0584-5.682 6.1813-2.56.6244.937 1.0614 1.873 1.6858 2.81 1.2487-.312 2.5599.187 3.7462.562 2.3726.312 4.7452.499 7.0554.687 4.1833-2.498 9.2407-.312 13.861-.812 6.8681-.062 13.7362.562 20.6043 1.124 19.7301.687 39.3979-2.435 58.8779-5.057 5.37-.5 10.552-2.311 15.734-3.747 5.682-1.81 11.489-3.559 16.359-7.18 5.182-5.182 10.302.874 6.743 6.493 7.493 5.308-3.933 11.489-8.804 13.112-7.867 2.935-15.859 5.432-23.851 7.992-16.483 4.433-33.5906 7.368-50.7608 8.554zM35.8388 104.895c-2.6848.187-4.7452-2.56-3.9959-5.12.3746-1.7482 1.9355-2.8097 3.3091-3.7462.8741-1.4361 2.2478-2.3727 3.6838-3.1844 6.6808-2.7472 13.4864-5.6818 20.7291-6.7432 3.2467-.4995 6.6183-.6868 9.9275-.4995 1.2487.0624 2.6224-.1873 3.6838.4995 2.997 1.6858 1.9355 6.6808-1.4985 6.993.6244 4.2457-4.0584 4.3706-7.0554 4.433-1.998.1874-3.996.3747-5.9315.6869-8.0544.8117-14.9849 5.6189-22.852 6.6809zM115.196 98.214c-3.246-3.3091 2.56-6.1813 5.495-6.0564 2.435.2498 3.122 3.8711 1.124 5.1823-1.499.7493-5.245 1.9356-6.619.8741z" fill="#D6E3E2"/><path d="M155.968 106.393c-.312-.249-.562-.624-.812-.936-1.686-.375-2.497-2.186-3.996-2.997-3.933-1.062-7.929-2.248-12.05-2.6226-5.183 2.9346-11.364 1.1866-16.858.3746-2.997-.062-5.994.312-8.929-.3122-4.558 4.4332-8.054-4.8076-2.685-6.3061 2.498-2.6224 5.432-5.2448 8.991-6.2438 1.998-.3746 3.684 1.7483 3.247 3.6838-.25 1.2488-1.186 2.1229-1.811 3.1843 3.934 0 7.867 0 11.801-.3121.999-1.3737 2.31-2.56 3.621-3.559 1.124-.8741 2.498-1.436 3.871-1.7482 1.124-1.4361 3.122-1.2488 4.496-.3746 1.686.4995 3.434.6243 5.12 1.1863 1.436.437 2.934.9365 4.308 1.5609 1.249-.1249 2.435.2498 3.559.6868 2.497 1.0615 4.87 3.0594 5.369 5.8691.437 3.4338-1.311 3.2468-2.934 5.3698-.625.874-.063 2.06-.749 2.934-.687 1.187-2.373 1.499-3.559.562z" fill="#D6E3E2"/><path d="M167.768 143.981c.063-.063.063-.063 0 0-.062.062-.125.187-.249.374.124-.187.187-.312.249-.374zM168.081 143.544c-.063.124-.125.187-.188.312 0-.063.063-.188.188-.312z" fill="#161212"/><path d="M126.685 96.9652c-1.311-1.1239-1.998-2.8721-2.623-4.433-.374-2.6848 1.249-5.6194 3.559-6.9306 2.248-1.1239 3.996-3.2467 6.744-3.4965 2.122-.3122 4.558.2498 5.931 1.998 2.685 3.3092-.624 7.3052-3.434 9.0534-1.811 3.4965-6.493 6.8057-10.177 3.8087z" fill="#FDBE55"/><path d="M174.137 49.825s0 .0624.062.0624c0 0 0-.0624-.062-.0624z" fill="#161212"/><path d="M104.645 4.12078c1.062.12487 2.061.31219 3.06.4995-.875-.24975-1.811-.37463-2.748-.62438-.686-.06243-1.436-.12487-2.185-.18731.624.06244 1.249.18731 1.873.31219zM141.67 17.6697c.313.1873.687.3746.999.5619-.499-.3746-.999-.7492-1.561-1.0614.25.1249.437.3122.562.4995zm41.209 78.8584c.062-1.9355.062-3.8087-.063-5.6818-.187-2.6848-.624-5.3072-1.248-7.9295-.625-2.7473-1.312-5.3697-2.311-7.992-.686-1.8107-1.311-3.6838-1.873-5.4945v-.0624c-.624-2.1229-1.248-4.3082-1.873-6.4311.125.4371.25.8741.375 1.3112-.25-.7493-.437-1.561-.687-2.3102v-.0624c-.749-2.3102-1.498-4.6204-2.31-6.9306.062.1249.062.2498.125.3746-.063-.1248-.125-.3121-.125-.437-.063-.1873-.125-.4371-.187-.6244.124.3746.249.7493.374 1.1239-.936-2.9346-1.998-5.8067-3.434-8.5539-.562-1.1239-1.186-2.2478-1.873-3.3092-2.06-2.3102-4.121-4.6204-6.181-6.9306-2.685-3.434-5.495-6.8057-8.929-9.5529-5.994-4.995-12.674-9.0534-19.792-12.3002-6.806-3.3716-13.861-6.2437-21.166-8.17926-.687-.12488-1.374-.31219-2.061-.43707-1.935-.31218-3.933-.68681-5.869-.99899-.812-.18732-1.561-.31219-2.373-.4995-2.1224-.31219-4.2453-.62438-6.4306-.93656-2.1853-.18732-4.3081-.31219-6.4934-.18732-3.3092-.06243-6.5559.12488-9.8027.68682-.8116.24975-1.6858.43706-2.5599.49949-.4995.12488-.9365.31219-1.436.43707-.0625.06243-.1873.06243-.3122.12487-.0624.06244-.1873.06244-.2498.12488-.3121.12487-.5619.24975-.8741.31218-.4995.18732-.9365.37463-1.436.56194-.3122.12487-.6244.24975-.9366.43706-.437.18731-.9365.43706-1.3736.62438-.6244.24974-1.2487.56193-1.9356.87412-.3121.12487-.6243.31219-.9365.43706-.3122.12488-.6244.31219-.9366.43706-.8116.18731-1.6233.43706-2.435.74925-3.2467 1.12392-6.2437 2.93452-9.1783 4.68282-1.4984.8741-2.9969 1.8107-4.433 2.7472-1.436.9366-2.8097 1.998-4.1833 2.997-1.3736 1.0615-2.8096 2.0605-4.2457 2.9346-.3122.1873-.5619.3746-.8741.5619-.0624.0625-.1873.1249-.2498.1249l-.0624.0624c-.1249.0625-.1873.1249-.3122.1873-.1249.0625-.1873.1249-.3122.1874l-.0624.0624c-.0624.0624-.1873.1249-.2497.1873-.3122.1873-.562.4371-.8742.6868-.1873.1249-.3746.3122-.5619.4371-.2497.2497-.5619.4995-.8117.7492-1.3112 1.2488-2.5599 2.4975-3.8086 3.8087-.1249.1249-.2498.3122-.4371.4371-.1249.1248-.2498.3122-.3746.437-.1249.1249-.1873.2498-.3122.3747 0 .0624-.0624.0624-.0624.1248-.1249.1249-.2498.3122-.3747.4371-.0624.0624-.1248.1873-.2497.3122-.0625.0624-.0625.1249-.1249.1873-.0624.1249-.1249.1873-.2497.3122-.1873.1873-.3122.437-.4995.6244-.1249.1873-.3122.437-.4371.6243-.0624.0625-.1249.1249-.1249.1873-.0624.0625-.0624.1249-.1248.1874-.1249.0624-.1874.1873-.3122.2497-.6868.6244-1.4361 1.2487-2.1229 1.8731l-.0624.0625c-.1249.1248-.2498.2497-.3746.3746-.1249.0624-.1874.1873-.3122.2497l-.1249.1249c-.1249.1249-.3122.2498-.4371.3746-.1248.1249-.3122.2498-.437.3747-.0625 0-.0625.0624-.1249.0624-.1249.1249-.2497.1873-.3122.3122-.1249.1249-.2497.2497-.437.3746 0 0-.0625 0-.0625.0624-.1249.1249-.2497.2498-.3746.3122-.1249.1249-.2498.2498-.4371.3747-1.0614 1.0614-2.0604 2.1853-3.0594 3.3091-.4995.6244-1.0614 1.1863-1.5609 1.7483-.1873.1873-.3746.3746-.5619.6244-.0625.0624-.1249.1248-.1874.1873-.2497.2497-.437.5619-.6868.8117-.0624.0624-.0624.1248-.1248.1873-.1873.2497-.3122.437-.4995.6868-.1873.2497-.3122.437-.4371.6868-.0624.1249-.1249.2497-.2497.3122 0 .0624-.0625.0624-.0625.1249l-.0624.0624c-.0624.1249-.1249.1873-.1873.3122-.0625.0624-.1249.1873-.1249.2497v.0625c-.1249.1248-.1873.3122-.3122.437-.1249.1249-.1873.3122-.3122.4371-.0624.1249-.1248.1873-.1873.3122l-.0624.0624c-.1249.1873-.2498.3746-.3746.5619-.0625.1249-.1249.1874-.1873.3122-.1249.1873-.2498.3747-.3747.562-.0624.0624-.0624.1248-.1248.1873-.0625.0624-.0625.1249-.1249.1873-.1249.1873-.2498.4371-.3746.6244-.0625.1248-.1874.3122-.2498.437-.5619 1.0615-1.1239 2.1229-1.7482 3.1219-.6244 1.1863-1.3112 2.3102-1.87314 3.4965-.31219.6244-.56193 1.2487-.81168 1.8731-.18731.4371-.37462.9366-.56194 1.4361-.06243.1249-.06243.2497-.12487.3746 0 0 0 .0624-.06244.0624-.06243.1249-.12487.3122-.18731.4371-.37462.9366-.6868 1.8731-.93655 2.8721-.31219 1.1239-.56194 2.2478-.81168 3.4341-.06244.1249-.06244.3122-.12488.437-.12487.6244-.24975 1.3112-.31218 1.9356 0 .1249-.06244.2497-.06244.3746v.0625c0 .1248-.06244.2497-.06244.3746 0 .1873-.06244.3122-.06244.4995 0 .1249-.06243.3122-.06243.4995 0 .1873-.06244.3122-.06244.4995 0 .1873 0 .3122-.06244.4995 0 .1249 0 .3122-.06243.437 0 .3122-.06244.6868-.06244.999v1.561c-.06244.1873-.06244.3122-.12487.4995-.4995 1.998-.93656 3.996-1.31118 5.994 0 .1873-.06244.3122-.06244.4995-.06244.1873-.06244.437-.12487.6243-.06244.1873-.06244.3747-.06244.562v.0624c-.06244.5619-.18731 1.0614-.24975 1.6234v.1873c0 .1249 0 .2497-.06244.3746v.1249c0 .1873-.06243.3122-.06243.4995v.2497c-.24975 2.1853-.24975 4.3707-.12488 6.556.06244 1.5609.12488 3.1218.24975 4.6826.06244.687.12487 1.374.24975 2.123.06244.375.12487.687.18731 1.061 0 .125.06244.25.06244.375.06243.25.06243.437.12487.687.06244.437.18731.936.31219 1.374 0 .062 0 .124.06243.187.37463 1.811.56194 3.684.87412 5.494.43706 2.435 1.24874 4.683 2.12286 6.931.43706.999.81168 1.998 1.24874 2.997.06244.125.12488.25.18731.375 0 0 0 .062.06244.062.06244.125.12488.25.18731.375 0 0 0 .062.06244.062.06244.062.06244.187.12487.25 0 .062.06244.125.06244.187.06244.063.06244.125.12487.187 0 .063.06244.125.12488.188.06244.125.06244.187.12487.249 0 .063.06244.063.06244.125 0 .063.06244.063.06244.125.12487.187.18731.437.31218.625.18732.437.43702.811.68682 1.248.1873.437.4371.812.6244 1.249.2497.5.4995.999.8116 1.436.3747.687.8117 1.436 1.2488 2.123.1249.25.3122.499.437.687.0625.125.1249.25.2498.374.1249.25.2497.437.3746.687.0625.125.1249.25.2498.375.1248.25.2497.437.3746.624.1249.25.2497.437.3122.687.0624.062.0624.125.1248.187.2498.5.4995.999.7493 1.499.0624.187.1873.312.2497.499.0625.188.1873.313.2498.5.9365 1.811 2.0604 3.496 3.0594 5.245.4995.936.9366 1.935 1.4361 2.872.0624.187.1873.312.2497.499.0624.188.1873.312.2498.5.3746.624.6868 1.248 1.0614 1.873.1249.187.2497.437.3746.624.4995.812.999 1.624 1.4985 2.435.6244.937 1.2487 1.811 1.9355 2.685.1249.125.1874.25.3122.375.4371.562.9366 1.124 1.3736 1.623.0625.063.0625.063.1249.125.1873.25.4371.499.6244.687.0624.062.0624.125.1249.125.1873.249.3746.437.6243.686l.3747.375c.8741.999 1.6858 2.06 2.5599 3.06.6868.749 1.3736 1.498 2.1228 2.185.1249.062.1873.187.3122.25.1249.062.1873.187.3122.249.1249.063.1873.188.3122.25.1249.062.1873.187.3122.25.1248.062.1873.187.3122.25.1873.187.437.312.6243.499.1249.063.1873.187.3122.25.1873.125.3122.25.4995.374.5619.437 1.1239.937 1.7483 1.374.5619.437 1.1863.937 1.7482 1.374.3122.249.6868.499.999.749.3122.25.6868.499 1.0614.687.6868.437 1.4361.874 2.1853 1.311.1873.125.3746.187.6244.312.1249.063.3122.125.437.25.0625 0 .1249.062.1249.062s.0624 0 .0624.063c.1874.062.3747.187.562.249.1873.063.437.188.6244.25.1873.063.437.188.6243.25.6244.25 1.2488.437 1.9356.687.0624 0 .1873.062.2497.062.0625 0 .1873.063.2498.063.1873.062.3746.125.5619.187h.0624c1.0615.312 2.1229.624 3.1843.999.1873.062.3122.125.4995.187.1873.063.3122.125.4995.188.6244.249 1.3112.562 1.9356.811h.0624c.3122.125.6868.312.999.437.6244.25 1.2487.5 1.8731.812 1.9356.812 3.8711 1.499 5.8691 2.185.4995.188.999.375 1.436.5.3747.125.6869.25 1.0615.374.3746.125.6868.25 1.0614.375.1249.063.2498.063.3746.125.1249.062.3122.125.4371.125h.0624c.1873.062.3122.125.4995.187.0625 0 .1873.063.2498.063.0624 0 .1248.062.1873.062h.0624c.1249.062.2498.062.3746.125.0625 0 .1249.062.1874.062.1248.063.2497.063.3746.125.1873.063.3746.125.5619.125.1249.063.3122.063.4371.125.1873.062.3122.062.4995.125 1.6233.312 3.1843.499 4.8076.562.999.062 1.9356.062 2.9346.125 1.7482.125 3.5589.437 5.3071.624 1.6234.25 3.3092.562 4.9325.624 2.1229.125 4.3082.313 6.4935.125.1249 0 .3122 0 .4371-.062.1248 0 .1873 0 .3121-.063h.1873c.0625 0 .1871 0 .2501-.062.249-.062.499-.062.749-.125.125 0 .25-.062.375-.062.124 0 .187-.063.312-.063.249-.062.562-.125.811-.187l1.686-.375c3.247-.624 6.556-.874 9.865-1.186 1.436-.125 2.81-.312 4.184-.624.124 0 .249-.063.374-.063h.063c.124 0 .187-.062.312-.062.062 0 .125 0 .125-.063.062 0 .125 0 .125-.062.062 0 .124-.063.187-.063.125-.062.25-.062.437-.124h.687c1.748-.125 3.371-.313 4.995-.937 1.248-.437 2.372-1.061 3.559-1.686 1.311-.687 2.622-1.373 3.871-2.123.936-.562 1.81-1.248 2.685-1.873.749-.499 1.436-.999 2.185-1.561.187-.125.374-.25.562-.374.249-.188.562-.375.811-.562.25-.188.562-.375.812-.562.187-.125.437-.25.624-.375.438-.25.875-.562 1.374-.874 1.062-.687 2.123-1.436 3.184-2.185.999-.687 1.936-1.374 2.935-2.123 1.061-.812 2.06-1.624 3.059-2.498.188-.125.313-.312.5-.437.312-.312.624-.624.936-.874.125-.125.313-.312.437-.437.25-.25.5-.499.75-.749.749-.812 1.498-1.624 2.31-2.373.812-.749 1.623-1.498 2.435-2.248 1.061-.999 2.123-1.998 3.122-3.121.187-.188.312-.375.499-.562.188-.188.312-.375.437-.562.562-.75 1.187-1.436 1.811-2.123.562-.687 1.061-1.374 1.436-2.185.125-.25.25-.5.375-.687.187-.312.437-.625.624-.874l.062-.063.063-.062c.375-.5.687-.999.999-1.499-.063.125-.125.188-.187.312.062-.124.124-.249.249-.374v-.063-.062-.063-.062s0-.062.063-.062c.562-.812 1.124-1.624 1.623-2.498.063-.125.125-.187.187-.312.188-.312.313-.624.5-.937.187-.312.312-.624.499-.936.063-.125.125-.188.188-.312.811-1.312 1.748-2.56 2.435-3.996.874-1.749 1.873-3.434 2.123-5.432v-.25c.312-.625.624-1.311.874-1.936.749-1.873 1.373-3.684 1.935-5.619.562-1.936.999-3.809 1.436-5.744 0-.063 0-.125.063-.188v-.062c.125-.624.25-1.249.374-1.873.063-.312.125-.625.188-.937.062-.312.125-.624.187-.936.25-1.249.437-2.498.687-3.747.374-2.185.749-4.37 1.061-6.556.25-1.4356.437-3.0589.5-4.6199zm2.685-6.993c.624 5.1199.499 10.3022-.063 15.4219-.624 5.37-1.935 10.49-3.559 15.547-.624 2.123-1.311 4.246-2.123 6.244 0 0 0 .062-.062.062-.062.25-.187.437-.25.687-2.185 7.555-5.744 14.548-11.051 20.417-5.807 8.804-13.736 16.858-22.665 22.54-3.933 2.685-7.305 6.181-11.488 8.491-4.121 2.436-8.429 4.621-13.112 5.682-6.369 1.249-13.174 1.187-19.48 2.186-6.2441.187-12.3005.124-18.4193-.625-5.6194-.062-11.3636.188-16.7331-1.935-2.0605-.687-3.996-1.686-5.8691-2.81-.4371 0-.8741-.062-1.3112-.125-3.1843-.812-5.3072-3.122-8.3041-4.183-2.4351-1.124-5.1823-1.187-7.5549-2.435-3.2467-1.998-5.8691-4.995-9.1783-6.993-3.9335-2.31-7.2427-6.431-10.3021-9.553-2.6848-2.498-4.5579-5.557-6.1188-8.866-3.6214-5.307-6.3062-11.052-8.61633-16.983-.62437-1.624-1.24874-3.309-1.81067-4.933-.24975-.687-.4995-1.373-.74924-2.123 0-.062-.06244-.187-.06244-.249C3.55957 116.258.625024 107.205.187965 97.8393-.373969 89.7224.437713 81.4807 2.4357 73.6136c1.81067-6.3062 4.80765-12.3002 8.0544-17.982 5.3696-11.426 13.1118-21.5409 22.6022-29.7826 2.8097-2.6224 5.8066-5.0574 8.9909-7.1803 1.0615-.6244 2.1229-1.2488 3.2468-1.8107 4.6203-2.8721 9.5528-5.3072 14.6727-7.30517C67.62 5.74415 75.2997 1.87303 83.7912.561847 93.4065-1.12396 103.022 1.3111 112.387 3.43397c.188.06243.375.06243.562.12487.125 0 .312.06244.437.06244 3.747.68681 7.305 2.12287 10.864 3.55893 4.621 1.74825 9.054 3.93359 13.362 6.30619.125-.0624.25-.0624.375 0 .811.4995 1.623 1.0614 2.435 1.5609.249.1873.437.3122.686.4995.812.4995 1.686.999 2.498 1.4985.25.1249.499.2498.749.4371 0 .0624 0 .1249.063.1873 3.184 1.998 6.431 3.996 9.178 6.6184 1.748 1.7482 3.371 3.4964 4.87 5.432.125.1249.25.2498.375.3746 0 0 .062 0 .062.0625.187.1873.312.3122.499.4995l.063.0624c.312.3122.687.6868.999 1.0614.125.1249.312.3122.437.4371l.062.0624.063.0625c.062.0624.125.1249.125.1249.249.2497.437.4995.687.7492.374.4371.811.8117 1.186 1.1863.25.2498.562.562.811.8117.25.2497.562.5619.812.8117.125.1249.25.2497.375.437.312.3747.687.8117.999 1.2488.25.3122.499.6244.687.9366.062.1248.187.1873.249.3121.375.4995.75.9366 1.062 1.4361.374.4995.749.9366 1.061 1.4361.562.8116 1.062 1.5609 1.561 2.3726.125.1873.25.437.375.6244.562.9365 1.124 1.8731 1.686 2.8721.374.6868.749 1.3112 1.123 1.998.063.1248.125.2497.188.3746.062.1249.125.3122.249.4371.063.1873.188.3746.25.4995.063.1248.125.2497.188.3121.124.1874.187.4371.312.6244.374.6868.687 1.4361.999 2.1229 0 .0624.062.1249.062.1873.063.1873.125.3122.187.4995.063.1249.063.2498.125.3122.063.1873.125.4371.25.6244.125.3121.25.6868.375.999.374.8116.749 1.6858.999 2.4975.312.9365.624 1.8731.999 2.7472.187.4371.312.8117.499 1.2488.188.437.312.8116.437 1.2487.063.1249.063.2498.125.3746.125.3746.25.7493.312 1.1239.063.2497.188.4995.25.7492.062.2498.187.4995.312.6869.063.1248.125.3121.25.437.062.1249.125.2498.187.3746.063.0625.125.1874.125.2498.125.1873.25.4371.375.6244.125.4995.187 1.0614.25 1.5609 1.498 5.4945 2.435 11.1763 2.872 17.0454.499.8117.562 1.3112.562 1.8731z" fill="#171212"/><path d="M3.74624 81.3559c-1.56093-3.4965.43706-7.3052 1.24874-10.7392.74924-2.4975 1.43605-4.995 2.31017-7.4301 1.37362-3.5589 3.24675-6.9305 5.05745-10.3021 2.7472-4.3707 5.6817-8.6164 8.6787-12.7997 2.997-4.6828 6.4935-8.991 10.6767-12.6124.999-.6868 2.1229-1.1238 3.2468-1.3736-.4995 1.6234-1.4361 3.0594-2.6848 4.1209-2.0604 1.998-4.0584 4.0584-5.8691 6.3062-1.4985 2.0604-2.8097 4.1833-4.3082 6.2437-3.9959 5.6194-7.9295 11.3012-10.9265 17.4825-2.55987 4.8701-3.74617 10.2397-5.18223 15.4844-.37462 2.0605-.99899 3.996-2.24773 5.6194zM121.44 117.632c-3.746.25-7.492.062-11.239.062-5.057.188-10.052 0-15.1093-.062-3.9335.062-7.8671.187-11.8006.125-3.7462-.125-7.4925-.5-11.1762-.5-5.3696.125-10.7392.063-16.0464-.499-3.0594 0-6.1812-.187-9.1782-.749-1.2488-.188-2.6224-.375-3.3716-1.499-.1249-.187-.1873-.374-.0624-.562l.0624.063c.0624.062.1873 0 .2497 0 .9366-.188 1.8731-.25 2.7473-.063 2.435.437 4.9325.687 7.43.625 2.3101-.063 4.6203.249 6.9305.312 5.3071.187 10.6143-.125 15.859.187 4.8077.437 9.428.375 14.2356.25 3.8711-.125 7.8047 0 11.6762.062 5.244-.125 10.427 0 15.671 0 4.184-.062 8.055-.687 12.175-1.186 5.12-.624 10.427-1.436 15.485-2.622 2.622-.625 5.245-1.249 7.867-1.936 2.497-.749 5.182-1.186 7.305-2.747 1.748-2.185 4.121-4.308 4.62-7.1805-.124-6.5559-7.554-9.8651-12.986-11.6133-3.684-.999-7.555-1.3112-11.302-1.6234-1.81-.1873-3.871-.1249-5.244-1.4985-.063 0 .125-.1873.125-.2498 1.186-1.1238 2.934-.999 4.433-.7492 2.56.2497 5.119.4371 7.679.8117 6.619.9365 13.612 3.4965 17.795 8.991 3.059 3.9335 2.685 8.429-.687 11.988-1.498 2.06-3.309 4.121-5.807 4.808-12.487 4.058-25.411 5.869-38.336 7.055z" fill="#171212"/><path d="M45.7663 115.572c-1.7482 0-3.4965-.687-5.1823-.999-2.0604-.5-4.1832-.937-6.0564-1.936-3.8086-2.123-7.2427-5.557-8.866-9.678-.999-3.4962.6868-7.1176 3.434-9.3029 3.3092-3.1219 7.1803-5.432 11.4884-6.8681 6.3686-2.8721 13.2367-3.5589 20.1048-4.4331 4.9325-.6243 10.1148-.8116 15.0473-.4995 2.6848.3122 5.4945-1.1238 7.7422.6868-.999.8742-2.2477 1.2488-3.5589 1.3737-2.8097.5619-5.6818.2497-8.5539.2497-4.8077.1249-9.4904.562-14.1732 1.3112-5.3072.6868-10.6767 1.6234-15.6717 3.8087-2.8097.999-5.7442 2.3102-8.0544 4.1833-2.6848 2.1229-5.9315 4.6204-5.4945 8.4292.9366 3.434 3.8711 5.931 6.6808 7.929 2.8721 1.561 6.1813 2.123 9.3031 2.873 1.4361.312 2.8721.936 3.8711 1.998-.5619.561-1.3111.811-2.0604.874zM156.03 115.884c-.374-.063-.687-.188-.999-.375.687-.562 1.374-1.186 2.186-1.561 1.935-.874 3.746-1.748 5.307-3.059 1.311-1.186 2.497-2.747 3.496-4.121.749-.999 1.873-1.936 2.31-3.122.313-.562.687-1.061 1.062-1.561.25.5.437 1.124.374 1.686-.062 1.811-1.685 3.059-2.622 4.495-1.998 2.81-4.433 5.37-7.617 6.744-.999.624-2.248 1.061-3.497.874z" fill="#171212"/><path d="M105.144 136.8c-7.7422.375-15.4219 1.249-23.1641.625-5.2447 0-10.427-.25-15.6093-1.249-2.435-.312-4.8701-.562-7.1802-1.249-1.9356-.499-3.6214-.749-5.5569-.874-2.56-.375-5.1823-.812-7.7422-1.311-1.998-.25-3.9336-1.061-5.8067-1.561-1.6858-.624-3.6213-.499-5.2447-1.249-.5619-.249-1.1239-.499-1.6234-.749-1.6233-.749-2.8096-2.185-3.6837-3.684 0 0-.0625-.062 0-.062.4995-.312 1.0614-.312 1.6233-.25 1.0615.062 1.8731.749 2.6224 1.374.8741.499 1.7482.874 2.6223 1.248 2.4351.375 4.9326.875 7.2427 1.811 3.1219.937 6.1813 1.061 9.3032 1.748 3.434.188 6.6807.999 9.9899 1.873 3.1843.375 6.2437.937 9.428 1.312 5.0574.686 10.1772.374 15.2346.749 5.4945.187 10.9889-.562 16.4838-.749 10.239-.625 20.292-2.56 30.469-3.684 6.431-.437 12.737-1.873 18.856-3.746 3.434-1.624 7.243-2.81 10.24-5.308 1.373-2.06 1.56-4.682 2.31-6.993.624-2.934 1.623-5.744 2.185-8.678.062-.812.062-1.686 0-2.498-.187-.874-.375-1.873.062-2.685.063-.125.188-.374.375-.437.063 0 .125 0 .125.063 3.746 2.934 1.186 8.491.437 12.3-.499 2.31-1.061 4.246-1.748 6.493-.5 1.811-1.124 3.684-2.685 4.933-1.873 1.498-4.058 2.497-6.244 3.372-1.373.561-2.685 1.248-4.121 1.81-2.559.874-5.244 1.311-7.804 2.061-4.87 1.311-9.865 1.123-14.735 1.935-8.929 1.124-17.732 2.685-26.661 3.309zM30.4693 122.752c-3.4964-.312-6.0563-3.309-9.0533-4.683-3.4965-1.561-7.1179-2.81-10.8016-3.809-.62441-.124-1.24878-.124-1.87315-.187.06243-.25 0-.562-.18731-.812-.12488-.124-.31219-.249-.4995-.249 0-.312-.06244-.625-.12487-.937v0c2.18533-.25 4.80763.5 6.61833 1.062 2.7472.999 5.5569 1.748 8.1793 2.997 2.9969 1.248 5.2447 4.495 8.7411 4.308-2.5599-3.372-6.1812-5.744-8.8036-9.054-1.5609-2.372-2.2477-5.12-2.997-7.867v-.749c.0625-.187.0625-.375.1249-.5.0624-.374.1249-.686.1873-1.061 0-.187.0625-.375.0625-.562.3121.063.6243.187.999.375.6868.562.8116 1.436.9989 2.185.2498.812.562 1.686.6869 2.435.4994 1.748 1.1863 3.434 2.1852 4.808 1.998 2.06 4.1833 3.996 6.1189 6.119.7492.811 1.5609 1.498 2.1228 2.435 1.2488 2.123.1249 3.621-1.9355 3.746-.1873.062-.4995.062-.7493 0zM5.18225 113.386c.06244-.062.12487-.187.24975-.249.06244.124.06244.249.12487.374-.12487 0-.24974-.062-.37462-.125zM4.99496 107.08c-.37462-.187-.87412-.499-1.12387-.874.43706-.25.93656-.499 1.43606-.624 2.99698-.75 6.05635-.625 8.92845-1.624-.1873.125-.3121.312-.4995.437l-1.1238.75c-.0625.062-.1249.062-.1873.124-.0625 0-.1249 0-.1249.063-.1873.062-.3746.125-.5619.187-.3747.125-.6868.25-1.0615.437-.1873.063-.3746.188-.5619.25h-.0624c-.62441.062-1.24878.125-1.81071.125-.18731 0-.37462 0-.56194.062-.12487 0-.24974.063-.43705.125-.12488.063-.18732.125-.31219.25h-.24975c-.18731 0-.31218 0-.4995.062-.12487 0-.18731.063-.31218.063-.06244 0-.18731 0-.24975.062-.18731.063-.31218.188-.49949.312.06243-.124-.06244-.187-.12488-.187z" fill="#171212"/><path d="M33.6536 129.37c-2.4351-.062-4.1209-2.06-5.8691-3.496-1.4985-1.062-2.8097-2.31-3.996-3.746-1.1239-1.499-3.5589-2.81-3.1219-4.933 0-.062.0625-.187.1249-.187 0 .125.0625.187.1873.249 3.4341 1.312 5.1823 4.995 8.2417 6.931 1.2488 1.186 2.6224 2.248 4.1209 3.059.6868.5 1.1863 1.187 1.6233 1.874-.3746.124-.8741.249-1.3111.249zM21.0413 104.707c-.7493-.561-1.1239-1.248-1.3112-1.998 0-.124.0624-.249.0624-.312.0625-.374.1249-.686.1874-1.061 0-.187.0624-.375.0624-.562v-.375c0-.187-.0624-.312-.1249-.4367v-.0625c.1249-.5619.3122-1.0614.4995-1.5609.999-3.2468 3.2467-6.3062 6.4935-7.6174 1.1863-.6243 2.5599-1.0614 3.8711-.4995-.6244.562-1.2488 1.3112-2.0605 1.6858-1.3111.3747-2.3726 1.2488-3.3716 2.1853-1.9979 1.7483-3.0594 4.3707-3.434 6.9309-.2497 1.186-.1873 2.56-.8741 3.683z" fill="#171212"/><path d="M15.7966 98.7759c2.1853-3.5589 5.6193-6.0564 9.3655-7.8046 2.3102-.9366 4.6828-2.2478 7.1803-2.1853.437.0624.8117.1248 1.1863.2497-.7493.562-1.4361 1.0614-2.2477 1.4361-5.1199 1.8731-10.3646 4.433-13.424 9.1783-.0624.1249-.1249.2497-.2498.3122-.0624.1247-.1873.1877-.2497.3117-.1249.188-.2498.375-.3746.625-.0625.125-.1249.187-.1873.312-.0625.062-.0625.125-.1249.125-.4371.499-.9366.999-1.3736 1.498l.0624-.062c-.1873.187-.3122.312-.4995.499-.3122.313-.6244.625-.999.937-.437-1.811.999-3.871 1.9356-5.4321zM21.4783 117.695c-.9365-.125-1.7482-.375-2.6223-.562-1.4361-.313-2.8721-.625-4.3706-.375-2.6848.312-5.99398 2.248-8.30415.062-.31219-.187.12487-.499.56193-.686h.06244c.12487.062.24975.062.37462.062.18731 0 .31219-.062.43706-.125.12487-.062.24975-.187.31219-.312 1.37361-.25 2.62231-.999 3.99601-1.124 1.7482-.25 3.4964-.187 5.2447-.125 1.6233.125 5.0574.312 5.7442 1.936.2497.811-.3746 1.249-1.0614 1.311-.1249 0-.2498 0-.3747-.062z" fill="#171212"/><path d="M6.68078 119.131c-.18731-.063-.31219-.188-.43706-.313-1.99799.25-1.93555-3.309-2.31017-4.62-.24975-2.123-.62437-4.308-.37462-6.431.12487-.375.18731-.874.56193-1.062.18731-.124.37462.063.43706.313.06244.125.12487.187.18731.249.06244 0-.06244.063-.06244.063.06244.125.12488.25.12488.374.06243 0 .12487 0 .24975.063-.06244-.063-.06244.062-.12488.25-.12487.062-.18731.187-.24975.312-.06243.187-.12487.374-.12487.562 0 .187 0 .312.06244.499.06243.25.12487.562.18731.812.06243.125.06243.25.12487.312 0 .187.06244.437.06244.625 0 .124.06244.249.06244.374.06243.312.12487.562.18731.874.12487.5.24974.999.37462 1.499v0c.12487.499.24975.999.49949 1.436.06244.125.12488.187.18732.312.06243.062.12487.187.18731.25.06243.062.18731.125.31218.187.12488.063.24975.063.37462.063h.06244v.499c.12488.312.31219.624.43706.937.4995.124.93656.187 1.37362.312-.31219.624-.999 1.249-1.6858 1.311-.18732.125-.43706.062-.68681-.062zM84.9768 103.709c-2.6848.249-5.3696.312-8.0544-.25-1.1863-.188-2.435-.5-3.2467-1.499-.1873-.187-.3746-.499-.5619-.687.1873-.124.4995-.124.6868-.187 1.7482-.374 3.6213.437 5.2447.562 2.8721.187 5.9939.125 8.8036-.624 2.9346-.937 5.432-2.7475 7.8046-4.6206 1.8732-1.3112 3.3092-3.0595 5.0575-4.4955.624-.3746 1.249-.562 1.935-.8117.063.2497.125.4995.125.8117-.249 2.8097-3.1839 4.3706-5.057 6.1188-3.7463 2.7473-7.8671 5.7443-12.7372 5.6823z" fill="#171212"/><path d="M85.0393 113.324c-3.3092 0-6.5559-.749-9.8651-1.124-2.8097-.375-5.9315-.749-7.8046-3.122-2.0605-2.06-1.8731-4.995-1.6234-7.68.1873-3.3089 1.3736-8.6785 5.6818-6.0561 2.0604-.4371 3.4965-2.1229 5.1198-3.3092 2.6848-2.0604 5.0574-4.4331 7.1803-6.993 3.5589-4.8077 4.3081-10.9265 6.0564-16.4835 1.0614-3.1843 2.9969-6.1188 5.8691-7.9295 2.4974-1.6858 4.9324-3.4965 7.8044-4.3706 4.87-1.3112 12.175.437 16.359 3.1218 2.684 2.3102 5.744 4.6204 6.993 7.992 1.561 4.4955-.25 9.4281-2.248 13.4865-1.124 1.9356-2.747 3.4341-4.371 4.9325-3.309 3.0595-6.493 6.1813-9.303 9.6778-2.872 3.1219-4.995 6.8683-7.867 9.9903-4.6827 4.807-11.2385 8.054-17.9817 7.867zm3.6837-2.872c6.3686-1.124 11.863-5.183 15.422-10.5522 3.122-4.6204 6.806-8.8037 10.802-12.6123 2.934-2.997 6.68-5.4321 8.304-9.4905 1.124-3.3717 2.497-7.1179.874-10.4895-.749-1.4361-1.936-2.4975-3.122-3.6214-1.124-1.1863-2.31-2.3726-3.809-3.0594-4.058-1.6858-8.554-3.0594-12.862-1.9356-16.046 6.9306-10.3642 13.5489-17.045 25.974-2.2477 3.8087-5.6193 6.8681-8.9909 9.6153-2.6224 1.9356-5.994 5.1199-9.428 3.1843-.8117 2.4975-.7493 5.1823-.6868 7.7423.3121 3.184 3.9335 3.996 6.6183 4.246 4.5579.624 9.2407 1.81 13.9234.999z" fill="#171212"/><path d="M115.571 78.1717c.187-1.561 1.249-2.8097 1.998-4.1209 1.498-2.3102 1.935-4.7452 1.998-7.4925v-1.0614c.624.1873 1.124.6244 1.436 1.1863.499.8741.437 1.8731.312 2.8097-.25 1.9355-1.061 3.6838-2.06 5.3072-.812 1.1863-1.499 2.6223-2.748 3.3091-.187.1249-.874.562-.936.0625zM97.0272 75.8614c-1.4361-4.6203 11.6128-10.3646 11.1758-3.3091-.312-.1874-.686-.562-.936-.8117-1.249-1.561-3.497-.9366-4.995-.1249-2.185.9366-3.6839 2.6224-5.2448 4.2457zM98.5881 68.3689c-.0624-1.6858 1.3112-2.7472 2.6219-3.5589 1.624-1.0615 3.996-2.4351 5.745-.999.437.3746.749.8741.936 1.436-.125 0-.312-.0624-.437-.0624-1.061-.2498-2.06-.4995-3.122-.1249-2.123.8117-3.871 2.3102-5.7439 3.3092zM126.872 96.3409c-5.682-.4995-3.871-7.1803-1.311-10.1773 1.061-1.4985 2.435-2.7472 3.871-3.8711.749-.6244 1.623-1.3112 2.685-1.3112 1.498-1.6234 4.62.3122 5.557 1.8107 1.248 2.3726-.625 5.6818-1.936 7.6798-2.123 2.4975-5.432 5.6818-8.866 5.8691zm.375-1.998c3.684-.999 6.868-4.1209 8.241-7.6174.313-1.0614 1.062-2.3102.313-3.2467-.812-.8741-2.061-1.2488-3.185-1.0614-2.31 2.0604-4.87 4.0584-6.431 6.8056-1.061 1.6234-2.247 5.4945 1.062 5.1199z" fill="#171212"/><path d="M128.87 98.0892c-2.373.0624-6.181-1.2488-5.307-4.1833.687.6868 1.498 1.436 2.248 1.9355 1.124.4371 2.435.7493 3.683.6244 1.874-.4995 3.934-1.8107 5.245-3.2468 1.624-2.3101 2.623-5.1198 2.935-7.9295.062-.6868.187-1.4361.125-2.1229.686.3747 1.186.999 1.373 1.7483.375 1.5609-.25 3.1218-.687 4.5579-.499 1.4985-1.123 2.9346-1.935 4.2457-.874 1.1864-2.061 2.0605-3.372 2.8097-1.311.8117-2.747 1.6234-4.308 1.561zM124 86.1636c-1.061.0625-2.123-.1873-3.059-.7492-.125-.0625-.313-.1873-.437-.3122.811-.6244 1.935-.999 2.997-.9366 1.311 0 2.684.2498 3.683 1.1239-.936.6868-2.06.999-3.184.8741z" fill="#171212"/><path d="M126.373 85.6641c-1.187-.4995-2.56-.2498-3.809-.3746-.624-.0625-1.124-.3747-1.623-.562-.875-.3746.749-.8117 1.061-.9366-.063-.0624-.125-.0624-.125-.1248 1.374-1.1239 3.122-.8741 4.745-.6868h-.125c.687.0624 1.187.1248 1.749.3746.562.3122.749 1.1863.249 1.6858-.686.3122-1.373.7492-2.122.6244z" fill="#171212"/><path d="M121.69 86.1636c-.749.0625-1.748-.0624-2.186-.8116-.187-.4371.063-.8742.5-.9366.499-.1873 1.124-.1249 1.561.2497.624.1874 1.311.4995 1.873.8742-.5.3746-1.124.5619-1.748.6243zM152.159 105.519c-1.498-.499-2.435-1.873-3.871-2.435-2.435-.874-4.808-1.811-7.368-2.06-2.497-.188-4.932-.312-7.43-.375-3.246-.125-6.555.063-9.74-.187-3.309-.188-6.556.312-9.802-.188-1.124 0-2.186-.3117-3.122-.8112.749-.562 1.81-.8117 2.747-.7493 2.935.4371 5.744.1249 8.679.0625 5.744.3121 11.551.0624 17.295.437 2.81.0625 5.557.937 8.117 1.936 1.935.686 4.308 1.998 4.495 4.37zM37.6495 105.02c.999-3.247 4.8077-4.059 7.6798-4.808 5.3071-1.3112 10.864-2.5599 16.3585-1.7483.6868.1874 1.3112.4996 1.8731.8742-.999.437-1.998.6243-3.0594.4995-5.8691-.3747-11.6757 1.0616-17.2326 2.5596-2.0604.437-3.4965 2.31-5.6194 2.623zM118.568 111.638c-1.936.187-3.871.063-5.744-.187-1.062-.125-2.123-.125-3.122-.5-.312.125-.562.125-.812-.187-.062-.062-.125-.187-.125-.25 0 .063-.062 0 0-.062-.187-.999.375-2.123.812-2.872 1.686-4.121 7.368-4.808 11.051-3.122 2.123.936 4.995 3.684 3.31 6.119-.5.624-1.312.811-2.123.874-1.062.062-2.123.125-3.247.187zm-.874-1.623c1.436-.125 2.934-.312 4.37-.437.937-.125.625-1.312.25-1.811-2.372-3.059-7.43-3.247-10.302-.812-.812.874-1.061 2.123-1.811 2.997 2.498-.312 4.995.437 7.493.063z" fill="#171212"/><path d="M53.8208 109.265c-1.561-.124-3.2468 0-4.7453-.624-1.6233-.874-1.1238-3.184-.1248-4.371 1.3736-2.185 4.1208-2.934 6.4934-2.06 1.7483.5 3.7463 1.686 3.7463 3.746.0624 1.499-1.3112 2.56-2.6848 2.623-.8117.437-1.6858.749-2.6848.686zm.8741-1.748c.4995 0 .9365-.374 1.436-.437.4371-.125.999-.125 1.3112-.499 1.1239-1.936-2.5599-2.81-3.8711-2.997-1.8731-.188-3.996 1.748-3.8711 3.621 1.5609.375 3.3092.312 4.995.312zM77.2972 70.9289l.0624-.0625c-5.994.4371-5.432-8.6788-4.0584-12.4874 1.3112-4.2458 5.8066-8.6164 9.8651-4.558 2.8096 2.6224 3.7462 6.993 1.9355 10.3646-1.0614 2.3727-2.6224 4.6204-4.8701 5.8691-.8741.562-1.9355 1.1239-2.9345.8742zm0-1.6858c1.0614-.1249 1.6858-1.0615 1.9355-1.998.2498-1.0615.2498-2.1229.0625-3.1843-.1874-.9366-.562-1.8732-.4371-2.8722 1.998 1.4361 2.3726 4.1209 1.8731 6.4311 1.8107-1.8731 3.1219-4.2458 3.5589-6.8057v.0624c.4371-3.7462-3.7462-9.6777-7.2427-5.432-1.8107 2.0604-2.6223 4.8701-2.8721 7.4925 0 2.1229-.0624 6.8057 3.1219 6.3062zM135.426 43.0818c-.624 0-1.311-.1249-1.873-.3747-.063 0-.063-.0624-.125-.0624-1.623.9366-2.81-.8741-3.684-1.9356-1.186-1.3112-2.31-2.8096-2.497-4.6203-.25-2.1229.374-4.6204 2.684-5.2448 3.435-.9365 7.306 1.4361 8.679 4.6204 1.249 2.8097.437 7.3052-3.184 7.6174zm0-1.561c2.373-.437 2.435-3.3092 1.873-5.1823-.874-2.4975-3.621-4.3706-6.306-4.1209-2.498.2498-2.435 3.3717-1.748 5.1824.624 1.3111 1.685 2.3101 2.56 3.4964.312.4371.749.6244.999 0 .874-1.3736.187-2.9345-.125-4.3081-.125-.4371-.063-.9366-.188-1.3112 2.186.8117 2.872 4.1208 1.811 6.1813.375.0624.749.1249 1.124.0624zM77.1098 31.3436c-2.9345-.1874-4.1833-2.8097-3.6214-5.4945 1.4361-4.2458 6.4311-7.7423 10.9265-5.994 3.5589 1.7482 2.997 6.1188.3122 8.429-1.3736 1.4361-3.1843 2.1853-5.0574 2.7473-.8741.3746-1.7482.4995-2.5599.3122zm2.1229-1.8732c.7492-.3121 1.6858-.437 2.3726-.9365.999-1.6234-1.7483-2.4351-2.8721-2.8721h-.0625c.562-.6244 1.4985-.8742 2.2478-.6869 1.1863.2498 2.1853 1.2488 2.435 2.4351 3.1843-2.6848 2.4975-7.0554-2.1853-6.3686-1.8107.3746-3.6838 1.2487-4.8076 2.7472-1.1864 1.4985-2.1229 3.2468-1.0615 5.0575-.1873-1.8732 1.4361-3.4965 3.1843-3.7463.1249 0 .3122-.0624.3746 0 0 0-.0624 0-.0624.0625-1.0614 2.2477-4.3082 4.3081.4371 4.3081zM119.192 46.5158c-.874-2.8097-.811-5.8691-1.498-8.8037-.437-1.7482-.999-3.434-.874-5.2447 2.06 1.1239 2.06 3.9335 2.497 5.994.625-2.6224 2.435-4.8077 3.434-7.3052-.25.4371-.562.8741-.811 1.3112-.188.3122-.375.6868-.75.7492-.374.0625-.686-.2497-.811-.5619-.25-2.6224-.188-5.2447.062-7.8047-.999 1.3112-.812 3.1843-1.748 4.4955-1.062.6244-1.311-.999-1.686-1.6234-.499-1.0614-1.124-1.998-1.811-2.8721.125 1.0615 2.123 6.2438-.499 5.1199-1.249-.6868-2.435-1.6858-3.809-2.1853 2.56 2.435 4.496 5.6193 5.62 8.9285.561 1.8731 1.623 3.8087.686 5.7443-.499-.8117-.811-1.6858-1.124-2.6224-1.498-4.6828-3.683-9.6778-8.054-12.2377-.437-.2498-.812-.6244-.687-1.1863.188-.6244.937-.562 1.499-.562 2.06.0625 3.871 1.1239 5.557 2.2478-.5-1.7483-.75-3.559-1.499-5.2448-.062-.2497-.187-.4995-.062-.8117 1.311-2.1228 4.745 3.4965 5.244 4.6204.125-1.0614 2.248-5.994 3.559-4.0584.687 2.435-.249 5.0574-.062 7.5549.499-.7493.999-1.6234 1.873-1.998.749-.2498 1.311.4371 1.249 1.1239-.375 3.6838-3.434 6.431-4.121 9.99-.375 1.7482-.437 3.5589-.187 5.3696 0 .6868.499 1.8731-.375 2.1853-.25.1873-.624 0-.812-.3122z" fill="#171212"/><path d="M118.63 44.955c-1.186-1.2488-1.873-3.0595-1.498-4.7453 1.374 1.0615 2.06 2.997 1.498 4.7453zM138.236 66.9329c-.375-2.3102 1.373-4.4331 1.311-6.8057.125-1.6858.125-3.3716.125-5.0574.062-1.6234-.312-3.3717.499-4.8701.375-.562 1.124-.6244 1.686-.8117.624-.1249 1.311-.2498 1.998-.1249 1.249.0624 1.436 1.3112 1.186 2.3102-.187 1.6233-.499 3.0594-1.124 4.4955-.874 2.3726-1.935 4.6828-2.997 6.9305-.686 1.4985-1.373 3.0594-2.684 3.9336zm2.809-10.7393c0 .8742 0 1.7483-.062 2.6224.999-2.5599 2.248-5.1199 2.435-7.9295-.687.0624-1.686-.0625-2.123.4995-.437 1.5609-.187 3.1843-.25 4.8076zM134.052 75.4868c-.187-.3122-.124-.6868.188-.9366 2.247-2.3102 4.433-4.6828 6.618-7.0554 1.499-1.5609 2.81-3.2468 4.371-4.7453.499-.3746 1.061-.7492 1.685-.9365 0 .1873-.124.3746-.124.4995 1.56-.7493 3.121.4995 3.746 1.8731.562 1.1863 1.935 3.8087-.437 3.6838-5.307.8741-9.928 4.1209-14.174 7.3052-.624.4371-1.373 1.1239-1.873.3122zm11.926-11.6758c-1.873 2.2477-3.809 4.3706-5.807 6.4935 2.935-1.7483 6.119-3.4341 9.553-3.996-.562-1.8107-1.374-2.997-3.371-3.1219-.125.2498-.25.4371-.375.6244zM97.5267 49.95c-1.0614-1.4361-1.1239-3.2468-1.3112-4.9326-.1873-1.6234-.437-3.2467-.5619-4.8701-.1249-1.6858-.3746-3.1219-.8741-4.6204-.1249-.3122-.0625-.7492.1873-.999 1.2487-.9365 3.1843-1.8107 4.6828-1.0614 1.4984 1.3112.3122 4.7452.1873 6.4935-.2498 1.5609-.2498 3.1843-.562 4.7452-.3121 1.8107-1.3111 3.4341-1.7482 5.2448zm-.3122-8.1169c.1249 1.2487.2498 2.4975.3746 3.6838.4371-1.1239.562-2.4351.6244-3.5589.1249-2.4351.8741-4.8702.6868-7.3052-.9365 0-1.8107.3746-2.6223.8741.6243 2.0604.7492 4.1209.9365 6.3062zM90.5337 41.6457c-2.1853-.437-3.8711-1.1863-5.8691-1.8106-1.6858-.4371-3.6213-.2498-4.8701-1.6234-.8741-.6868-.6243-1.8731 0-2.6224 1.3112-2.3726 3.6214-.6868 5.2448.3122 2.3101 1.3112 4.1208 3.0594 5.6193 5.2447h-.3122c.0624.0625.1873.3122.1873.4995zm-3.3092-2.4975c-1.4984-1.3736-3.2467-2.3726-4.9949-3.1843-.2498-.0624-.4995-.1873-.6868-.1248-.4371.3746-.6868.7492-.8741 1.2487.6243.7493 1.5609.8741 2.4974.999 1.3737.1249 2.7473.4995 4.0584 1.0614zM65.1219 75.9239c-1.4361-.9365-2.56-2.1229-3.3716-3.6213-1.561-2.8097-3.6214-5.6819-3.6214-8.991.1249-1.8107.6868-2.7473 2.4975-3.1843.7492-.2498 1.5609-.3747 2.3726-.562.3746-.1248.8741-.1873 1.2487.1249.6869.4995.3122 1.4361 0 2.0604-1.8106 3.559-.8741 7.7423.2498 11.3636.3122.7493.3122 1.561.6868 2.2478 0 .0624-.0624 0-.1249 0 0 .1873.0625.3746.0625.5619zm-3.0595-5.9315c-.6243-2.9346-.8116-5.994.562-8.6788-.8741.1873-1.7483.3746-2.5599.8117-1.1863 2.0604.2497 4.3706 1.1238 6.2437.3122.4995.6244 1.0614.8741 1.6234zM5.86902 108.142c-.74925-.063-1.43606-.375-2.06043-.687.74925-.625 1.74824-.937 2.6848-.999 2.62235-.125 5.49441-.75 7.18021-2.997.6244-.812 1.4361-1.374 2.1229-2.186.1249.375.2498.75.3122 1.187.0624 1.498-1.1239 2.809-2.3102 3.621-2.1853 1.748-5.11982 1.998-7.92948 2.061z" fill="#171212"/><path d="M17.1078 111.513c-1.1863-.874-2.1229-2.247-2.2477-3.746-.562-2.622-.562-6.431 1.6233-8.2417.4371 2.4977-.7492 4.9327-.1873 7.3677.1249.812.2498 1.623.7493 2.31.3121.375.5619.812.8741 1.186.3746.5.3746 1.187.6244 1.749-.562.125-1.0615-.313-1.4361-.625zM58.8783 122.69c-5.8067-.562-11.5509-1.686-17.3576-2.623-2.3726-.687-4.6827-1.623-7.1178-1.998-2.0604-.499-3.8086-1.686-5.6818-2.622-1.3111-.687-2.2477-1.873-3.3716-2.81-.8116-.624-1.9355-1.374-1.8106-2.56 0-.312.3122-.624.1248-.936-.0624 0-.0624 0-.0624-.063.3122-.312.7492.25.8117.562.2497.624.8741.999 1.3736 1.436.8117.562 1.4985 1.311 2.3102 1.998 1.3736 1.311 3.5589 2.061 5.2447 2.997 2.2477.874 4.7452 1.062 6.9305 1.998 2.4975.874 5.2447.937 7.8671 1.436 3.3716.562 6.7432 1.124 10.1148 1.499 1.1238.062 2.1228.499 2.997 1.124-.6869.374-1.561.562-2.3726.562zM122.689 121.441c-10.802.125-21.603.624-32.3426 1.561-3.8087-.25-7.6173-.063-11.426-.562-1.8731-.188-4.0584.125-5.6818-1.124 0-.063-.1248-.063-.1248-.063 1.1238-.312 2.2477-.686 3.434-.374 2.0604 0 4.0584.312 6.0564.437 2.8721.125 5.6818.187 8.5539.25 1.6858-.25 3.3716-.375 5.0574-.375 5.5565-.624 11.1765-.812 16.7335-1.061 4.12-.188 8.241.124 12.3-.5 7.492-.999 14.985-2.435 22.539-3.247 1.811-.187 3.622-.499 5.37-.936 1.186-.25 2.373-.687 3.621-.5.313.063.687.125.999.25-.062.062-.187.187-.249.25-2.123 1.561-4.933 1.686-7.368 2.247-4.745.625-9.49 1.187-14.173 1.874-4.496.624-8.866 1.498-13.299 1.873z" fill="#171212"/></g><defs><clipPath id="clip0"><path fill="#fff" d="M0 0h186v187H0z"/></clipPath></defs></svg>