<svg width="184" height="186" viewBox="0 0 184 186" fill="none" xmlns="http://www.w3.org/2000/svg"><mask id="a" style="mask-type:alpha" maskUnits="userSpaceOnUse" x="0" y="2" width="184" height="184"><rect y="2" width="184" height="184" rx="92" fill="#C4C4C4"/></mask><g clip-path="url(#clip0)"><path d="M134.492 156.615c2.423.373 16.896 2.423 11.616 6.461-1.304.994-2.422 2.175-3.913 2.796-1.367.745-2.671 1.615-4.224 1.926-4.349 1.491-8.821 2.112-13.418 1.801-8.013-.248-16.026-.062-24.04-.683-6.5841-.497-13.1065-1.367-19.691-1.926-4.5347-.249-9.0693.124-13.6039.062-8.0133.249-15.9023-1.367-23.2322-4.597-2.3605-1.056-6.1497-2.423-7.0193-5.032-.4349-1.74 1.3044-2.796 2.7953-2.982 5.6527-.621 11.4297-.124 17.0825.248 2.3604.187 4.7209.311 7.0814.435.9939.062 2.0499.062 2.9196.622.7454-.497 1.9256-.435 2.2362.496.3727 1.678-1.7393 2.61-2.0499 4.101 6.274-.684 12.2994 1.615 18.5112 1.553 4.4104.186 8.7587-.373 13.1691-.435 4.41-.062 8.821.683 13.231.435.621-.124 1.864-.124 1.739-.994-.062-1.429-.124-2.92.435-4.287.187-.435.684-.745 1.118-.683h2.361c3.292 0 6.584.248 9.877.248 2.422.187 4.721.187 7.019.435z" fill="#D6E3E2"/><path d="M64.1741 165.996c-5.0936 0-10.4979-.062-15.5295-.249-1.9878-.062-3.7892-.994-5.5906-1.739-2.0499-.745-3.665-2.236-5.2801-3.665-.6833-.187-1.1181-.87-1.7393-1.243-.8075-.621-1.7393-1.18-2.3605-1.988-.4969-.373-1.1181-.745-1.3044-1.429-.1243-1.118.9317-1.18 1.6771-.869.9318-.062 1.8015 0 2.7332 0 .5591 0 1.3045-.249 1.8015.062 1.056.186 2.2983-.187 3.1059.559.3106.311.3727.932.0621 1.242-1.3045.87-3.1059.497-4.5967.559 1.5529.994 3.2301 1.926 4.8452 2.796.3727.249.559.621.4969 1.056 0 .062-.0621.124-.0621.187.1863.124.3727.31.5591.434 1.3666.622 2.8574 1.181 4.3482 1.616 2.2363.372 4.5347.124 6.7709.124 4.8452-.062 9.6904.186 14.5356 0 1.7394-.124 3.4787.062 4.7831 1.242-.9317.684-2.2983.994-3.4165.932-1.9256.311-3.8513.435-5.8391.373zM24.5429 137.481c-.8697-9.754-2.1741-19.569-2.2363-29.385 0-12.8596 1.8636-25.6572 1.8015-38.5169.1242-7.6413.8075-15.2204.9939-22.8617.0621-1.491.1242-3.1062.0621-4.5351-.0621-1.9259-.3106-3.976 2.4226-3.6653 1.3045-2.0501 4.5967-.7455 4.224 1.6773-.1242 3.0441-.1242 6.0882-.1863 9.1944-.2485 3.6032-.7455 7.1443-.9939 10.6854-.497 5.7775-.2485 11.5551.1863 17.2705.4348 6.8337.3727 13.6674.6212 20.501-.3106 8.4494-.4969 16.8974-.3727 25.3464.0621 3.417-.2485 6.896.2485 10.375.559 1.74-.6833 3.479-2.2984 4.162-.6212.311-1.3045.684-1.9878.435-.8696.435-2.112.311-2.4847-.683zm4.0998-4.287c-.0621.622-.1242 1.243-.1864 1.864.1864-.186.3727-.435.497-.683 0-.435-.1243-.87-.1243-1.305-.0621-.248-.0621-.559-.0621-.808-.0621.311-.0621.622-.1242.932zm-2.2363-2.236c.0622-.994.0622-1.988.1243-2.982.0621-1.553.0621-3.106.1242-4.722-.1863 2.548-.5591 5.095-.2485 7.704zm-1.4908-13.17c0 .372.0621.745.0621 1.118.3727-6.585-.2485-13.171-.0621-19.7558-.3727 6.1508-.4348 12.4248 0 18.6378zm2.609-74.1768c-.1243 7.3927-.6833 14.7855-.9318 22.2404-.1864 6.958-.1864 13.978-.8075 20.9359.6211-6.026 1.6771-11.99 2.0499-18.016-.3728-3.2926-.3106-6.6473-.2485-10.002.1242-5.467.7454-10.996-.0621-16.4008-.0622.3727 0 .8076 0 1.2425zm1.9877-2.2365c0-.5591.0622-1.1183 0-1.6774h-.0621c-.1863.497-.0621 1.1804.0621 1.6774z" fill="#D6E3E2"/><path d="M133.933 144.563c-1.243-.373-2.299-1.118-3.293-1.988.125-.186.373-.435.56-.621-9.505-.249-19.071.373-28.575.373-10.4356-.062-20.8094-1.429-31.121-2.734-13.2311-.683-26.5244 2.175-39.6313-.186-1.4288 1.056-3.5408-.124-3.7271-1.802-.7454-.745-1.1803-1.739-.9318-2.858.0621-.186.0621-.31.1242-.497-.8075-3.106-1.5529-5.591 2.8575-5.466 1.8635.31 3.4786-.435 5.3421-.373 2.7332.124 5.4043.559 8.1375.559 10.1253-.621 20.2505.248 30.4379.373 8.3238.124 16.6476-.187 24.9715-.249 13.6035.187 27.2075 1.864 40.8115 1.615 4.348.125 8.945-.372 13.293.249 4.535.186 4.473 5.84 2.609 8.822 1.367 2.982-1.18 4.472-3.851 3.913-1.988.746-4.162 1.119-6.274 1.119-3.913-.063-7.889.497-11.74-.249z" fill="#D6E3E2"/><path d="M153.003 134.561c-2.05-1.242-2.485-3.789-2.547-5.964-.186-4.783.062-9.567.249-14.351.434-7.02.186-14.102.683-21.1217.186-9.1323 1.491-18.1403 1.926-27.2726.124-3.4168.497-6.7715.683-10.1262.062-3.6032-.186-8.0762 3.603-9.9399 3.54 4.0381.994 13.7294 1.056 18.9479-.249 6.8336-1.118 13.6673-1.615 20.501-.87 13.9779-.622 28.0185-2.174 41.9335-.187 1.553-.063 3.169-.373 4.722-.124.932-.932 1.864-.808 2.795-.062.187-.497-.062-.683-.124zM154.742 43.8597c-5.901-1.1182-11.926-.4348-17.89-.6212-13.169.1242-26.276-2.0501-39.4447-1.0561-9.2556.8076-18.4491 2.7335-27.7668 1.988-7.3921-.497-14.722-1.0561-22.1141-1.2425-3.2922-.1243-6.5224-1.0561-9.7525-1.3046-2.7332 0-6.3361.5591-7.9511-2.2365.6211-2.2986 3.2301-3.0441 5.4042-3.0441 3.9135-.2485 7.6406.9319 11.554 1.3046 1.9878.1243 3.9756.1864 5.9633.2485 8.8208.1864 17.331 1.6152 26.0897.994 9.1934-.8076 18.3248-2.5471 27.58-2.2365 5.84 0 11.616.5592 17.393.9319 9.38.6834 18.76.0621 28.14.5591 3.851.497 8.386.9319 10.684 4.5351-2.174 2.1743-5.155 2.0501-7.889 1.1803z" fill="#D6E3E2"/><path d="M55.3533 93.3106c-1.4288-.0622-2.8575-.2485-4.2862-.497-.7454-.1864-1.5529-.4349-1.9257-1.1804-.559-1.1182-.3727-2.3607-.3727-3.5411.0622-2.5471-.1242-5.032-.0621-7.4549.0621-1.4288-1.056-6.026 1.6772-4.9699.5591-1.4289 2.2363-1.6152 3.5407-1.2425 1.4909-.1864 3.0438-.3106 4.5347-.0621 2.4847-.0622 5.2179-.5591 7.3299 1.0561 1.1803.8076.8075 2.2986.9939 3.4789.3727 2.2986.4348 4.6594.5591 6.9579.0621 1.9259.3106 4.0381-.497 5.9019-.3106.6833-1.056.9939-1.7393.9939-1.3045.0622-2.6711.1243-3.9755.1243-1.9257-.3106-3.8514.4349-5.777.4349zm.1863-2.1744c3.1059-.6212 6.274-.7455 9.442-.6834.6212-2.1743.1863-4.5971.1863-6.7094.0622-2.2364-.4348-4.535-.4969-6.7094-1.4908-.8697-3.2923-.5591-4.9073-.4349-1.553.0622-3.106-.1863-4.721.0622-1.3666.1863-2.7953-.1864-4.0998-.5592-.1864.0622-.4349.1243-.6212.1864 0 0-.0621 0-.0621.0621-.1864 2.4229.2484 4.8457.1242 7.2686.2485 2.2986-.0621 4.6593.2485 6.9579 1.6151.3106 3.2922.5591 4.9073.5591zM117.161 115.862c-1.491-.125-2.174-1.491-1.988-2.92-.062-2.299-.186-4.535.062-6.834.125-2.547-.621-5.218.435-7.6411.435-.8697 1.677-1.1182 2.361-.3727 2.609-.8077 5.342-1.3047 8.013-.9319 2.174.2485 4.224-.0621 6.274.6212.994.3728 1.366 1.4289 1.429 2.4225.559 2.237.993 4.535 1.304 6.834.186 1.553.186 3.106.124 4.597 0 1.305-.31 2.982-1.801 3.231-1.18.31-2.423 0-3.665-.062-1.18-.063-2.174.124-3.355.124-3.043.062-6.087.87-9.193.932zm.435-3.666v1.243c3.354-.497 6.709-.87 10.125-.932 1.615-.249 3.354.311 4.907.062.622-4.224-.559-8.511-1.304-12.6111-2.547-.2485-5.156-.3728-7.703-.497-1.925.1864-4.1 1.2421-5.715-.3106-.559 2.2987-.124 4.6597-.186 6.9577-.124 2.05-.311 4.038-.124 6.088z" fill="#FDBE55"/><path d="M50.6323 92.3166c-.3727-.6833.4348-1.1803.8075-1.6773 1.056-1.1804 2.1742-2.2365 3.3544-3.2926-1.7393 1.2425-3.4165 2.485-5.0937 3.8517-.559.497-1.1181.994-1.8014 1.3667-.1242.1243-.3727.0621-.497 0-.4969-.3106-.2484-1.0561.1864-1.3046 1.056-1.1182 2.112-2.1122 3.2301-3.1683-.9317-.6834.6833-2.0501 1.1182-2.6714-1.1803.7455-2.2363 1.6774-3.4165 2.3608-.3106.1242-.6833.3727-1.056.2485-.9939-.8077.9939-1.988 1.5529-2.5471-.8075-.2485-.6833-.9319-.1863-1.4289-.4349.1864-.9939-.1242-.9939-.6212.1863-.6213.8075-1.0561 1.2423-1.5531-.6833 0-.6833-.7455-.2484-1.1183-.2485-.0621-.3727-.3727-.3727-.6212.0621-.3728.3727-.6213.6211-.8698-.4348-.1242-.4348-.6833-.1242-.9939-.8697-.3728.0621-1.2425.3727-1.6774.497-.8697 1.3045-1.3667 2.112-1.8637.3106-.1864.6833.3106.4348.5591-.559.497-1.1802.994-1.6771 1.491.8696-.6213 1.7393-1.2425 2.6089-1.8638.3106-.1863.7454-.6212.9939-.1863.1242.1863.0621.4348-.1242.5591-.9318.6212-1.8636 1.3046-2.7332 2.0501 1.1802-.7455 2.2362-1.6774 3.4165-2.3607.4348-.1864.7454.497.3727.7455-1.3045.9318-2.609 1.9258-3.8513 2.9819 1.4287-.994 2.7332-2.0501 4.1619-3.0441.2484-.1863.559-.497.8696-.1863.1243.1242.1243.4348-.0621.5591-1.3045.994-2.609 1.988-3.8513 3.0441 1.6772-1.1804 3.2922-2.3608 5.0316-3.4169.3727-.1863.8696-.8076 1.2423-.2485.1242.1864.0621.497-.1242.5592-.497.3106-.9939.6833-1.4287.9939-2.2984 1.5531-4.4725 3.2926-6.5224 5.1564 2.9195-1.988 5.5906-4.3487 8.5723-6.1503.2484-.1864.6211-.497.9938-.3728.497.1864.3106.6834-.0621.8697-3.2301 2.3608-6.6466 4.473-9.4419 7.3928 3.1059-2.1743 6.1497-4.535 9.3177-6.6473.4969-.3106 1.056-.6833 1.6151-.994.1863-.1242.4348.0001.559.1243.1243.1864.0621.4349-.1242.5591-3.4786 2.2986-6.833 4.8457-10.001 7.5792 3.6028-2.1123 6.5845-5.1563 10.1873-7.2686.5591-.3106 1.1182-.6212 1.7394-.8076.4348-.1242.6211.4349.4348.7455-.2485.3106-.6212.497-.9318.7455.5591-.4349 1.1803-.8076 1.7393-1.2425.1864-.1242.3727-.0621.497.1243.1242.1242.1242.4348-.0622.5591-3.9755 2.9198-7.6405 6.2124-11.4297 9.3807 3.0438-2.1743 6.2118-4.1623 9.3798-6.1503.5591-.2485 2.3605-1.9879 2.7332-1.2424.1243.1863.0622.497-.1242.6212-3.4165 2.2986-6.5845 4.7836-9.6283 7.5792 2.2984-1.8016 4.6589-3.6032 7.0815-5.2806.6211-.4349 1.1802-.8076 1.8014-1.1804.1863-.1242.4969-.0621.6212.1243.1242.1864.1863.497 0 .6834-2.2984 1.6152-4.5346 3.2925-6.6467 5.1563 1.553-1.0561 3.2302-2.0501 4.9074-2.982.1863-.1242.4348-.1242.6211 0 .8697.8697-1.2423 2.1122-1.7393 2.7335.6833-.3107 2.7332-2.2986 2.9817-.8077-.1863 1.4289-1.4287 2.4229-2.1741 3.6033.1242.1863.1242.3727 0 .5591-.0621 0-.0621-.1243-.1243-.1243-.3727.4349-1.1181.5591-1.2423-.1242-.0621-.8698.8696-1.491 1.3045-2.1744-1.8015 1.1804-3.3544 2.9199-5.3422 3.7275-.3727.1242-.7454-.2485-.7454-.6213 0-.2485.0621-.4969.1863-.6833.5591-.6834 1.1803-1.3668 1.8636-1.988-.497.3727-.9318.6834-1.4287 1.0561-.9939.497-3.7892 3.7275-4.5347 1.8637-.4969.4349-2.2362 2.2986-2.9195 1.2425zm1.6151-5.6533c3.3543-2.7956 6.5224-5.7154 10.1252-8.2004-3.665 2.3607-7.4542 4.6593-10.1252 8.2004zM108.216 93.5591c-.249-1.3667.745-2.3607 1.553-3.2925-.994.8076-1.926 1.6152-2.92 2.4228-.497.3106-.994.8697-1.677.8697-1.366-.1863-.745-1.3667-.186-1.9879-.808.5591-1.802 1.8016-2.858 1.3667-.372-.1864-.621-.6834-.435-1.1182-.931.6833-1.8631 1.6773-3.1054 1.6773-1.056-.0621-1.056-1.3667-.497-2.0501-.8075.497-1.615 1.3046-2.5468 1.3046-1.4908-.497-.2485-1.7395.4348-2.4228-.559.2485-1.1802-.0621-1.3045-.6834.0622-1.0561 1.3045-1.9258 1.9878-2.6713-.6833.3727-1.3666 1.1182-2.2362.9318-.3106-.0621-.5591-.4348-.4349-.7455.3106-.7455.9939-1.1803 1.553-1.7394-.6212.3727-1.2424.7454-1.9257.7454-.559.0622-.6833-.6212-.4348-1.0561.4348-.497.9939-.9318 1.4908-1.4288-.4348.1864-.8075-.3728-.6833-.7455.1243-.2485.3728-.4349.5591-.6213-1.6772-.8076 1.6772-2.9819 2.2984-3.6032-.7454.4349-1.4287.8698-2.112 1.3046-.1864.1243-.4349.2485-.6833.0622-.2485-.1864-.3106-.5591-.0622-.7455 1.9878-1.491 4.162-2.4229 6.3362-3.479.373-.1242.621.3728.435.6213-1.5532 1.7394-3.7274 2.8577-5.2803 4.5972 2.1741-1.1804 4.0377-2.8578 6.2743-3.976.31-.1242.683-.4349.931-.1864.187.1864.187.4349 0 .6213.622-.3106 1.119-.8076 1.74-.994.497-.0621.683.7455.186.8697-2.982 1.9259-5.9012 4.1002-8.6344 6.461 3.8513-2.4229 7.7024-4.8457 11.7404-6.958.497-.1863.87.6213.373.8076-3.665 2.0501-7.206 4.473-10.3741 7.2065 3.4161-2.3608 6.9571-4.4109 10.4981-6.5852.435-.1864.994-.8697 1.366-.3106.311.5591-.434.8076-.745 1.0561-1.491.9318-3.106 1.988-4.535 3.0441-2.795 2.1122-5.5281 4.2244-7.8885 6.7715 2.5468-1.6152 4.9075-3.4789 7.2675-5.3427 2.237-1.6152 4.473-3.3547 6.957-4.535.435-.1864.808.497.435.8076-4.907 3.1683-9.566 6.5851-13.6035 10.7475 3.4785-2.6092 6.8325-5.4048 10.4975-7.8277.932-.6212 1.802-1.2425 2.796-1.8016.186-.1242.435-.0621.559.0621.31.3107.124.7455-.249.9319-4.162 2.9198-8.448 6.0882-11.6779 10.0641 3.3539-2.1122 6.0879-4.9699 9.3179-7.2064.621-.4349 1.304-.8697 1.925-1.3046.187-.1242.435-.0621.56.0621.683.8076-1.305 1.7395-1.74 2.2986-1.801 1.491-3.54 3.0441-5.156 4.7215 1.678-1.4289 3.293-2.9199 5.156-4.1002.435-.1864.87-.7455 1.429-.6213.87.5591-.124 1.3668-.559 1.8016-.87.9319-1.802 1.8638-2.671 2.7956.745-.4348 3.665-3.3547 4.224-1.988.186.4349 0 .8698-.187 1.2425-.434.7455-1.118 1.4289-1.552 2.1123-.622.7455-1.119 1.4909-1.926 1.7394zM115.919 109.711c-1.616-.497.248-2.05.807-2.733-.807-.683.311-1.677.745-2.237-.621.497-1.677.56-1.49-.497.372-.745 1.056-1.304 1.677-1.925-.808-.249-.621-1.057-.187-1.554-1.118.435-1.304-1.0556-.124-.9314.932-.4348 1.802-.994 2.671-1.5531.187-.1863.435-.1863.622 0 .496.5591-.435.994-.746 1.3668-.497.4347-1.056.9317-1.429 1.4287 1.181-.745 2.299-1.6151 3.417-2.3606.373-.2485.807.3106.559.6834-.932.9942-2.236 1.8012-3.168 2.7952 1.615-1.242 3.292-2.3604 4.969-3.4786.311-.1864.746.1864.622.5591-.56.9315-1.678 1.4905-2.485 2.2365-1.367 1.056-2.609 2.299-3.727 3.541 2.422-1.988 4.845-4.038 7.454-5.9017.186-.1243.435-.0622.559.1242.435.6834-.745 1.0565-1.18 1.4905 0 0 0 .001.062-.062-2.671 1.988-5.218 4.163-7.579 6.523 3.106-2.547 6.212-5.094 9.567-7.3302.372-.1864.807-.7455 1.18-.3107.31.3728-.062.7459-.373.9319-.435.311-.807.621-1.242.932-1.615 1.242-3.106 2.671-4.535 4.162 2.236-1.864 4.411-3.727 6.647-5.467.435-.2482.932-1.0559 1.491-.621.434.4349-.062.87-.373 1.118.248.124.373.435.311.684.248-.125.372-.311.621-.373.435-.124.807.435.559.807-.124.187-.249.311-.373.497.311-.186.808 0 .808.373.062 1.181-1.243 1.988-1.802 2.858.311-.249.621-.497.932-.559.435-.124.807.373.559.745-.621.622-1.304 1.119-1.988 1.678-.497.372-.932.807-1.615.745-.683 0-.745-.932-.373-1.367.373-.559.746-1.056 1.181-1.553-.746.622-1.429 1.367-2.174 1.864-.497.249-1.056-.248-.932-.745-.311.248-.87.186-.994-.249-.435.373-1.305 1.056-1.802.373-.807.559-1.615 1.739-2.733 1.553-.559-.124-.621-.808-.31-1.243-1.056.87-2.05 1.74-3.168 2.548-.373.186-.684.497-1.118.434z" fill="#FDBE54"/><path d="M118.279 114.309c-.621-.249-.497-.932-.124-1.305-.373.311-.746.745-1.243.87-.434.062-.745-.435-.497-.808.311-.435.622-.87.994-1.305-.124-.186-.124-.434 0-.683.559-.994 1.243-1.801 1.988-2.671-.062 0-.124.062-.186.062.248-.87 1.056-1.429 1.801-1.988.311-.249.808.062.746.497 0 .248-.249.497-.373.683.435-.372.87-.807 1.367-1.18.186-.124.434-.124.559.062.124.124.186.435.062.621-.435.559-1.056.994-1.553 1.553.559-.31 2.733-2.609 2.671-.807-.932 1.304-2.423 2.236-3.479 3.479.684-.559 1.429-1.056 2.174-1.491.125-.062.311-.062.435 0 .683.497-.186 1.18-.435 1.615 1.181-.932 1.926-.124 1.243 1.118v.062c-.187-.124-.249-.31-.373-.497-.683.497-1.304 1.181-2.112 1.491-.559.125-1.056-.435-.808-.932-.931.497-1.801 1.74-2.857 1.554zM56.4093 112.693c0-.186-.0621-.372 0-.497.0621-.124.1242-.248.1864-.372-.6212.497-1.2424 1.118-2.112 1.118-.497.062-.7455-.497-.7455-.932.0622-.373.2485-.621.4349-.932-.6833.435-1.3666 1.181-2.1742 1.181-.3106-.063-.6833-.249-.6833-.622-.559.435-2.0499 1.802-2.2983.497 0-.124 0-.248.0621-.435.4969-.621.9939-1.242 1.5529-1.863-.3727.062-.6833-.373-.6833-.684.497-1.056 1.6151-1.801 2.4226-2.671-.8075.621-1.615 1.305-2.4226 1.864-.3727.248-.8075.621-1.3045.497-.3727-.062-.559-.497-.3727-.808 1.7393-2.05 3.7892-3.789 5.7149-5.653-.9318.683-1.8635 1.429-2.9195 2.05-.2485.124-.497.311-.8076.186-.559-.186-.559-.869-.1242-1.18.6212-.683 1.2423-1.305 1.9256-1.926-.2484.186-.4969.373-.8075.435-.4348.062-.8696-.373-.6212-.746-.6833.249-1.1802-.372-.6833-.931-1.4287-.5595 2.3605-2.5475 2.9196-2.9202.2485-.1243.4969.0621.559.3106.0622.6212-.8075.994-1.1181 1.4288 1.056-.6833 2.0499-1.4288 3.1059-2.1122.4348-.1864.8076.4349.4349.7455-.1864.1864-.4349.3106-.6212.497.8075-.497 1.5529-1.0561 2.4226-1.4289.3106-.1242.6212.3107.4969.6213-1.4908 1.6773-3.4786 2.8581-5.0315 4.5351 2.2362-1.677 4.5967-3.0441 6.9572-4.473.1863-.0621.3727 0 .4969.1243.4349.6833-.9939 1.3046-1.3666 1.7394-2.3605 1.8633-4.5967 3.8513-6.7087 5.9023 2.4847-1.988 5.1558-3.604 7.7026-5.4674.5591-.3106 2.4226-2.1122 2.8575-1.3667.1242.1863.0621.4348-.0622.5591-2.8574 1.926-5.4664 4.287-7.9511 6.585 2.7953-2.05 5.5285-4.349 8.3238-6.3986.497-.2485 1.8636-1.8016 1.9878-.5592 0 .1243-.1242.2485-.1863.3728-1.1803.9319-2.3605 1.802-3.5408 2.733-2.5468 1.988-5.0315 4.101-7.392 6.275 2.8574-2.174 5.3421-4.908 8.5102-6.647.3727-.249.8696-.622 1.3044-.249.2485.124.3106.497.1243.684-3.0438 2.733-6.833 4.659-9.6283 7.703 3.1059-2.361 6.1497-4.908 9.4419-7.02.7454-.249.9318.808.3106 1.118-2.7953 2.112-5.6527 4.225-7.889 6.958 2.2984-1.926 4.721-3.727 7.2057-5.467.4348-.248.9318.311.6833.684-1.3666 1.428-2.9817 2.671-4.2861 4.162 1.615-1.243 3.2301-2.671 5.0936-3.479.4349-.062.7455.497.497.808-.7454.994-1.7393 1.801-2.5468 2.733 2.112-.932 2.2362 1.429.8075 2.299-.0621-.187-.0621-.435-.1242-.622v-.683c-.7455.248-1.4288.932-2.2363.932-.5591-.062-.9318-.621-.6212-1.118-.9939.559-3.9134 3.665-4.4725 1.925zM72.0009 113.252c-.1242-.186-.1863-.434-.0621-.621-.3727.187-.8075.062-.9939-.373-.3727.187-.8075.125-.9318-.31-.1242-.249 0-.621.1864-.746.6212-.932 1.553-1.739 2.2984-2.547-.2485.125-.5591.373-.8697.311-.559 0-.7454-.683-.3727-1.118-.8075-.497.1242-1.305.497-1.74.9317-.994 1.9256-1.926 2.9816-2.795-.9318.621-1.8014 1.304-2.7953 1.925-.2485.125-.5591.311-.8696.125-1.1182-.622.4969-1.678.9317-2.175-.4348.062-.7454-.559-.4348-.869.1864-.187.3106-.373.4969-.56-.8696-.248-.559-1.118-.1242-1.615-1.4287-.621 1.056-2.2983 1.553-2.9196.1242-.1864.3727-.1242.559 0 .3727.3728-.0621.6834-.3106.9319.6212-.497 1.3666-.994 1.9878-1.491.2485-.2485.6212-.1864.7454.1242.0621.1864.0622.4349-.1242.5592-1.056.9318-2.1741 1.8016-3.1059 2.7953 1.2424-.8074 2.4226-1.6771 3.6028-2.4847.3727-.2485.7455.1864.6212.5591.497-.3106 1.553-1.1182 1.6151 0-.0621.3106-.3727.4349-.5591.6834-1.3044 1.0561-2.6089 2.0502-3.9134 3.1682 2.0499-1.367 4.0998-2.7334 6.2739-3.9759.3106-.1863.6212-.4969.9318-.2484.7454.8076-.7454 1.4288-1.2424 1.8637.8076-.497 1.553-.994 2.4226-1.3668.4349-.1863.8076.4349.497.8077-3.2923 2.2987-6.5845 4.5347-9.5662 7.2687 3.6028-2.423 6.833-5.405 10.5601-7.5794.3106-.1863.6212-.4348.9939-.4348.4348-.0622.6211.5591.3106.7455-.8697.5591-1.6772 1.1807-2.5469 1.8017.4348-.187.8075-.559 1.3045-.435.3106.124.4969.559.1863.808-1.056.869-2.112 1.677-3.168 2.485 1.3666-.87 2.7953-1.554 4.1619-2.423.4349-.187.8076.435.4349.745-.3106.187-.5591.373-.8697.621.7454-.372 1.3666-.994 2.1741-1.118.4349 0 .6212.559.3106.87-2.3605 1.864-5.0937 3.293-7.3299 5.343 1.9878-1.553 4.0998-2.858 6.1497-4.287.1863-.124.4969-.062.6212.186.3106.56-.4349.808-.7454 1.119.559-.311 1.5529-.87 1.4287.248-1.1182 1.305-2.609 2.299-3.8514 3.479 1.0561-.683 2.1742-1.367 3.4165-1.801 1.4909.31-.559 1.925-.9938 2.36.559-.186 1.2423-.994 1.7393-.621.1863.124.2484.435.1242.621-.8075.932-1.6772 2.112-2.8574 2.547-.3106.125-.1864-.124-.1243-.372-.9317.621-1.6772 1.677-2.7953 1.988-2.1741-.435.7454-2.548 1.3666-3.231-1.5529.994-2.7953 2.361-4.4725 2.982-.4969.062-1.056-.621-.6833-1.056 1.3045-1.553 2.9196-2.796 4.4104-4.1-1.1181.745-2.1741 1.615-3.2302 2.485-.6833.435-2.1741 2.423-2.9816 1.677-.6212.559-1.8014.746-1.8014-.435-.6833.497-2.3605 2.361-3.1681 1.615z" fill="#FDBE54"/><path d="M165.8 141.457l-.063.062.063-.062z" fill="#161212"/><path d="M51.0047 173.886c-5.2179-2.05-10.6843-3.79-14.9083-7.703-1.6772-1.367-3.1059-2.982-4.4725-4.66-.3728-.186-.8076-.373-1.1803-.559-2.6711-1.864-3.8513-4.783-6.2739-6.834-1.8636-1.925-4.4725-2.919-6.2118-4.907-2.3605-3.044-3.7271-6.71-6.0876-9.692-2.85744-3.541-4.47251-8.511-6.27394-12.487-1.61507-3.23-2.29837-6.771-2.54684-10.374-1.49084-6.213-1.98778-12.487-2.11202-18.8241v-5.2185-2.2364-.2485c.062118-9.3808.49695-18.8237 3.35438-27.7075 2.42261-7.8276 6.02542-15.2204 10.68432-21.8677 3.9134-5.2806 8.7587-9.7535 13.7902-13.9158 9.0693-8.6974 19.8157-15.469 31.556-19.81766 3.5408-1.42886 7.1436-2.67134 10.8707-3.54108 1.1802-.2485 2.4226-.37275 3.6029-.55912 5.28-1.05611 10.7464-1.61523 16.2128-1.67735 8.448-.869744 16.8962-1.801607 25.2822 0 9.628 1.8016 17.641 7.39278 25.655 12.61121.186.1243.31.2485.497.3106.124.0622.248.1243.372.1864 3.23 1.988 6.088 4.5351 8.883 7.1443 3.665 3.2926 7.02 6.8337 10.188 10.5611.124 0 .248.0621.372.1243.621.7455 1.118 1.5531 1.74 2.2986.186.2485.31.4348.497.6833.621.7455 1.18 1.491 1.801 2.2986.186.1864.373.4349.559.6213v.1863c2.298 2.982 4.597 6.0261 6.212 9.4429.994 2.1744 1.925 4.473 2.671 6.7716.062.1863.186.3106.248.497v.0621c.125.1864.187.4349.311.6212 0 .0621 0 .0621.062.1243.186.4348.373.8697.559 1.3046.062.1864.187.3727.249.6212 0 0 0 .0621.062.0621v.0622c0 .0621.062.1242.062.1863v.1243c.124.3106.248.6212.373.9319.248.497.434 1.0561.683 1.5531.186.3727.31.6833.497 1.0561.124.3727.31.6833.435 1.0561.062.1864.124.3727.186.497.186.497.311.994.497 1.491.124.3727.248.7455.311 1.1182.062.1242.062.2485.124.3727.186.5592.372 1.1183.497 1.6774.186.5591.31 1.1182.497 1.6774.248.9318.434 1.8637.621 2.7955.062.2485.124.497.124.7455.186 1.0562.435 2.1744.559 3.2305.124.7455.249 1.491.373 2.2365 0 .1242.062.3106.062.4348 0 .1864.062.3107.062.497 0 .1864.062.3728.062.5592 0 .1242 0 .2484.062.3727 0 .2485.062.497.062.7455.063.8076.187 1.5531.187 2.3607V86.1665c.062.9319.062 1.8016.062 2.6714 0 .9939-.062 1.9258 0 2.9198 0 .4349 0 .8697.062 1.3046v1.6774c0 .3727-.062.7454-.062 1.1182v.7455c0 .2485 0 .497.062.7455 0 .1863.062.3106.062.497 0 .1242.062.3106.062.4348 0 .1243 0 .1864.062.3107.063.2485.063.4969.125.7454-.062.497-.187 1.0562-.311 1.5532-.559 5.591-1.615 11.244-3.292 16.898-.124.497-.311.994-.435 1.491-1.18 4.97-3.106 9.815-5.466 14.35-2.485 4.784-5.467 9.071-8.697 13.233-1.304 1.739-2.733 3.479-4.162 5.094l-.062.062c-.186.187-.311.373-.497.559-4.659 6.275-10.436 11.555-17.455 15.159-8.51 6.15-18.698 10.871-28.947 13.046-4.597 1.118-8.945 3.168-13.666 3.914-4.6591.807-9.5043 1.366-14.2252.745-6.3982-1.056-12.6722-3.479-18.884-4.784-5.8391-1.739-11.4297-3.913-16.8961-6.771zM9.82039 55.8499c-.99389 1.9258-1.73931 3.9759-2.4226 6.026-.49695 1.491-.93178 2.9199-1.3666 4.4108-.18636.6834-.37271 1.3668-.49695 2.0501-.06212.3728-.12423.6834-.18635 1.0562 0 .1242-.06212.2485-.06212.3727-.06212.2485-.06212.4349-.12424.6834-.06212.4348-.12423.9318-.18635 1.3667 0 .0621 0 .1242-.06212.1864-.31059 1.8016-.80754 3.6032-1.11813 5.4669-.43482 2.4229-.49694 4.7836-.43482 7.2064 0 1.0561.06211 2.1744.12423 3.2305v2.4228c0 .2485.06212.4349.06212.6834.06212.497.12424.9319.18636 1.3667.06211.4349.12423.9319.18635 1.3668.06212.5591.12424 1.0561.24847 1.6152.12424.8076.24848 1.6152.43483 2.4228.06212.2485.12424.5592.12424.8077 0 .1242.06211.3106.06211.4348.06212.2485.06212.497.12424.7455 0 .1243.06212.3103.06212.4353.06212.248.06212.497.12423.745 0 .249.06212.497.06212.746v.186l.18636 1.677c0 .187.06212.373.06212.559 0 .187.06211.373.06211.56.24848 1.988.6833 3.975.99389 5.963.12424 1.057.18636 2.113.31059 3.169 0 .186.06212.373.06212.559 0 .186.06212.373.06212.497.12424.683.24847 1.429.31059 2.112.06212.249.06212.497.12424.683.18635.932.37271 1.864.55906 2.796.24847 1.056.55906 2.112.86965 3.168.06212.125.12424.311.12424.435.12424.311.24847.622.31059.994V128.287l.06212.124v.124l.06212.125.06211.124.06212.124.06212.124.06212.124.06212.125.06212.124.06211.124.06212.124.06212.125.06212.124.06207.124.0622.124.0621.125.0621.124.0621.124.0621.124.0622.125.0621.124.0621.124.0621.124.0621.125.0621.124.0622.124.0621.124.0621.125.0621.124.0621.124.0622.124.0621.125.0621.124.0621.124.0621.124.0621.125.0622.186.0621.186.1242.187.1243.186.1242.187.1242.186.1243.186.1242.187.1242.186.1243.186.1242.187.1242.186.1243.187.1863.372c0 .062.0622.062.0622.125.7454 2.174 1.8635 4.224 3.1059 6.088 1.9256 2.92 4.3482 5.591 7.1435 7.765.2485.187.4349.373.6833.559.0622.062.1243.125.2485.187.0621.062.1243.124.2485.186.1242.124.3106.249.4348.373l.0621.062c.8697.683 1.7393 1.367 2.609 2.05.1242.124.2485.249.3727.373.1242.124.2485.248.3727.373.497.497.9939.931 1.4908 1.428 0 0 .0622 0 .0622.063.2484.248.4969.497.8075.745.4969.435.9939.932 1.4908 1.367 1.553 1.429 3.1059 2.733 4.721 4.1.3727.311.8075.683 1.1803.994.2484.248.559.497.8696.745.3106.249.5591.497.8697.746.1242.062.1863.186.3106.248.1242.125.2484.187.3727.311h.0621c.1242.124.2485.186.3727.311.0621.062.1242.124.2485.186l.1242.124.0621.062c.1243.063.1864.187.3106.249.0621.062.1242.062.1242.124.1243.062.1864.187.3106.249.1243.124.3106.248.4349.31.1242.062.2484.187.3727.249.1242.124.3106.186.4348.31 1.3666.87 2.7953 1.554 4.2861 2.175.8697.373 1.8015.745 2.6711 1.118 1.6151.745 3.1681 1.615 4.721 2.485 1.4287.808 2.8574 1.677 4.4104 2.361 1.9257.869 3.9134 1.801 5.9633 2.36.1243.063.3106.063.4349.125.1242 0 .1863.062.3105.062.0622 0 .1243 0 .1864.062.0621 0 .1864.062.2485.062.2484.062.4969.124.7454.124.1242 0 .2485.062.3727.062.1242 0 .1864 0 .3106.063.3106.062.5591.062.8696.124.5591.062 1.1182.124 1.6772.186 3.2302.559 6.3982 1.429 9.6283 2.299 1.3666.372 2.7332.683 4.0998.932.1243 0 .2485.062.4349.062h.0621c.1242 0 .2485 0 .3106.062h.9318c.1863.062.3105.124.4969.124.0621 0 .1242 0 .1242.062 1.6151.497 3.2302.87 4.9695.87 1.3045 0 2.6089-.186 3.9134-.373 1.4287-.186 2.9196-.373 4.3483-.621 1.0562-.186 2.1122-.497 3.1682-.746.869-.248 1.739-.434 2.609-.683.186-.062.435-.124.621-.186.311-.062.621-.187.932-.249.31-.062.621-.186.994-.248.248-.062.497-.124.745-.124.435-.063.808-.187 1.242-.249 3.852.373 7.703-.124 11.43-1.118.808-.187 1.615-.373 2.423-.684.932-.31 1.925-.621 2.857-.931.87-.311 1.739-.622 2.547-.932.808-.311 1.615-.622 2.423-.994 2.174-.994 4.286-1.988 6.336-3.169 2.733-1.615 5.28-3.479 7.764-5.467 4.1-3.23 7.144-7.392 10.312-11.493.124-.124.249-.248.373-.434.062-.063.062-.125.124-.125.248-.186.435-.435.621-.621.808-.808 1.367-1.926 1.553-3.106.87-1.056 1.739-2.112 2.547-3.168 1.18-1.616 2.298-3.231 3.354-4.846.062-.062.062-.124.125-.187 0 0 0-.062.062-.062.31-.497.683-1.056.994-1.615.186-.248.31-.559.497-.808.186-.248.31-.559.496-.807.622-1.056 1.305-2.174 1.926-3.231 1.118-1.925 2.236-3.789 3.292-5.777.746-1.367 1.491-2.796 2.112-4.225.746-1.739 1.367-3.541 1.926-5.342.745-2.547 1.242-5.157 1.615-7.828.373-2.733.683-5.467.683-8.2 0-1.926.063-3.852.187-5.7779v-.0621c.124-2.2365.31-4.4108.497-6.6473-.062.4349-.062.8697-.124 1.3046l.186-2.4228v-.0622c.124-2.4228.186-4.8457.31-7.2685V82.6876v-.6834c0 .2485 0 .5591-.062.8076.125-2.982.187-5.9018-.186-8.8216-.124-1.2425-.311-2.485-.559-3.7275-1.118-2.8577-2.236-5.7154-3.292-8.5731-1.305-4.1624-2.734-8.2626-4.97-12.0522-.248-.3727-.435-.8076-.683-1.1803v-.1243-.6212c-.124-1.3667-.559-2.6092-1.553-3.6653-.683-.7455-1.491-1.3046-2.423-1.6153-2.857-3.9138-6.025-7.6413-9.442-11.0581-5.155-5.529-10.746-10.6232-16.834-15.034-.621-.3728-1.18-.7455-1.801-1.1183-1.677-.994-3.417-1.988-5.156-2.9819-.683-.4349-1.366-.8698-1.988-1.2425-1.863-1.05615-3.727-2.11226-5.652-3.10625-1.926-.93186-3.914-1.8016-6.026-2.48497-3.044-1.18036-6.15-2.17435-9.38-2.73346-.869-.06213-1.739-.18638-2.547-.43487-.496 0-.993-.06213-1.49-.06213h-1.553c-.497 0-.994 0-1.491.06213-.311 0-.683.06212-.994.06212-.497.06212-.994.06212-1.491.06212-.6831.06213-1.3664.06213-2.0497.12425-.3728 0-.6833.06213-1.0561.06213-.3727.06212-.6833.06212-1.056.12425-.8696-.06213-1.6772-.12425-2.5468-.18638-3.4165-.06212-6.833.55912-10.1874 1.18036-1.6772.31063-3.4165.62125-5.0937.99399-1.6772.37275-3.2922.86974-4.9073 1.36674-1.6772.49699-3.2923.93186-5.0316 1.24248-.3106.06212-.6833.12425-.9939.18637-.0621 0-.1863.06213-.2484.06213h-.1243c-.1242 0-.2484.06212-.3727.06212-.1242 0-.2485.06213-.3727.06213h-.0621c-.1242 0-.1864.06212-.3106.06212-.3727.12425-.6833.18637-1.056.31062-.2485.06213-.4348.12425-.6833.2485-.3106.12425-.6833.2485-.9939.37274-1.6151.68337-3.2923 1.42886-4.9073 2.23646-.1864.0621-.3727.1864-.5591.2485-.1863.1243-.3727.1864-.5591.3106-.1242.0622-.3105.1243-.4348.2485-.0621 0-.0621.0622-.1242.0622-.1864.1242-.3106.1863-.497.3106-.1242.0621-.1863.1242-.3106.1864-.0621.0621-.1242.0621-.1863.1242-.1242.0621-.1864.1242-.3106.1864-.2485.1242-.4348.2485-.6833.4348-.2485.1243-.4348.2485-.6833.4349-.0621.0621-.1242.0621-.1863.1243-.0622.0621-.1243.0621-.1864.1242.5591 0 .4348 0 .3106.0621-.8697.3107-1.7393.6834-2.609.994h-.0621c-.1863.0621-.3106.1243-.4969.1864-.1243.0621-.2485.0621-.3727.1242-.0622 0-.1243.0622-.1243.0622-.1863.0621-.3727.1242-.4969.1863-.1864.0622-.3727.1243-.5591.1864-.0621 0-.0621 0-.1242.0621-.1243.0622-.2485.1243-.4349.1243-.1863.0621-.3727.1242-.4969.1864h-.0621c-.1243.0621-.3106.1242-.4348.1863-.1864.0622-.3728.1243-.497.2485-1.3666.6213-2.6711 1.3046-3.9755 1.988-.6833.3727-1.3666.7455-2.1121 1.1182-.2484.1243-.4969.2485-.6833.3728-.0621.0621-.1242.0621-.2484.1242l-.9318.5592c-.0621.0621-.1242.0621-.1864.1242-.2484.1242-.4348.3106-.6833.4349-.2484.1863-.4348.3106-.6833.497-.1242.0621-.2484.1242-.3106.2485-.0621 0-.0621.0621-.1242.0621l-.0621.0621c-.1242.0621-.1864.1243-.3106.1864-.0621.0621-.1242.1242-.2485.1864h-.0621c-.1242.1242-.3106.1863-.4348.3106-.1243.1242-.3106.1863-.4348.3106-.1243.0621-.1864.1242-.3106.1864l-.0622.0621c-.1863.1242-.3727.2485-.559.4349-.1242.0621-.1864.1242-.3106.2485-.1864.1242-.3727.2485-.4969.3727-.0622.0621-.1243.0621-.1864.1243-.0621.0621-.1242.1242-.1864.1242-.1863.1242-.3727.3106-.559.4349-.1243.1242-.2485.1863-.3727.3106-.8697.8076-1.8015 1.5531-2.6711 2.2986-.9939.8697-2.0499 1.6773-2.9817 2.6092-.4969.497-.9318.9319-1.4287 1.4289-.3106.3727-.6833.7455-.9939 1.1182-.0621.0621-.1863.1864-.2485.2485l-.0621.0621c-.1242.1243-.1863.2485-.3106.3728-.6833.7455-1.3044 1.491-1.9256 2.3607-.6833.9319-1.3045 1.9258-1.9257 2.9198-.0621.1243-.1863.2485-.2485.3728-.3727.5591-.6833 1.1182-.9939 1.6773-.0621.1243-.1242.2485-.1863.3728 0 0 0 .0621-.0621.0621-.0621.1242-.1243.2485-.1864.3727-.0621.1243-.1242.2485-.2485.4349-.0621.1243-.1242.2485-.1863.4349-.0621.1242-.1242.3106-.1864.4349-.0621.1242-.1242.3106-.1863.4348-.0621.1243-.1243.2485-.1864.3728-.1242.3106-.2484.6212-.3727.8697-.0621.1243-.1242.3106-.1863.4349 0 .0621-.0621.1242-.0621.1242v.0622c0 .0621-.0001.0621-.0622.0621v.0621c-.0621.1864-.1242.3727-.2484.5591-.1243.1243-.1864.3106-.3106.4349-1.1803 1.6773-2.2363 3.4168-3.2923 5.1563-.0621.1242-.1863.3106-.2485.4349-.1242.1863-.1863.3727-.3106.5591-.1242.1864-.1863.3106-.3105.497 0 0 0 .0621-.0622.0621-.2484.497-.559.9319-.8075 1.4289 0 .0621-.0621.1242-.0621.1242-.0621.1243-.1243.1864-.1864.3106v.0622s0 .0621-.0621.0621c-.0621.1242-.1242.2485-.1863.4349-.49699.4348-.49699.4969-.55911.5591zM164.246 37.2126c.249.3106.497.6212.745.8697-.31-.5591-.683-1.0561-1.056-1.5531.125.2485.249.497.311.6834zm-29.755-25.5952c.932.497 1.802.994 2.734 1.5531-.746-.5591-1.553-.994-2.361-1.491-.621-.3106-1.304-.6212-1.925-.9318.496.2485 1.056.5591 1.552.8697z" fill="#171212"/><path d="M13.4857 48.2705c-.2485-3.8517 2.9817-6.6473 4.9073-9.6293 1.553-2.0501 3.0438-4.1623 4.721-6.0881 2.5469-2.8577 5.4664-5.2806 8.3238-7.8277 4.0998-3.1062 8.2618-6.026 12.61-8.8838 4.4104-3.2925 9.1935-6.15026 14.4114-8.01399 1.1181-.31062 2.3605-.31062 3.5408-.12425-.9939 1.30461-2.3605 2.36074-3.9135 2.91984-2.6089 1.1804-5.1558 2.3607-7.6405 3.7896-2.112 1.3667-4.0998 2.9198-6.2118 4.2866-5.6528 3.8517-11.3676 7.7034-16.275 12.4248-4.0376 3.6032-7.0814 8.2625-10.2495 12.6112-1.1802 1.8016-2.4847 3.479-4.224 4.5351zM9.88279 126.299V128.473l.06211.124v.124l.0621.125.0621.124.0622.124.0621.124.0621.125.0621.124.0621.124.0621.124.0622.125.0621.124.0621.124.0621.124.0621.125c-.1242.31-.3106.559-.4969.807-.80754-1.615-.6833-3.292-.37271-4.845z" fill="#171212"/><path d="M107.595 182.397c-.435-.746.124-1.553.869-1.864 1.305-.683 2.671-1.242 4.1-1.553 1.677-.373 3.292-1.118 4.907-1.74 8.573-3.23 16.772-7.517 24.226-12.735 5.84-3.727 10.933-8.2 16.275-12.549 1.802-1.491 3.355-2.92 4.659-4.784 1.243-1.739 2.112-3.665 3.168-5.467.497-.994 1.118-1.988 2.05-2.609.062 1.056-.062 2.112-.559 3.044-1.18 2.361-2.236 4.846-3.851 7.02.373 1.056-.808 2.175-1.305 3.107-3.602 5.901-9.007 10.188-14.597 14.04-1.678 1.242-3.541 2.174-5.405 3.106-4.969 3.106-10.125 5.964-15.591 8.076-2.547.87-15.406 6.212-18.512 5.343-.124-.187-.31-.249-.434-.435zm49.694-26.714c0 .063.062.125.062.187.187-.187.311-.373.497-.559-.248.124-.435.248-.559.372zM169.092 44.6053c-.808-1.0561-1.802-2.2986-1.553-3.6654 1.242.8698 2.112 2.0501 2.919 3.2305.746.9319 1.367 2.0501 1.429 3.2926-1.18-.6213-1.988-1.7395-2.795-2.8577z" fill="#000"/><path d="M169.34 45.4128c-.994-1.5531-2.547-3.0441-2.671-5.0321 1.242.6834 1.988 1.8638 2.733 2.982.932 1.3667 2.174 2.7956 2.112 4.5351-.87-.6834-1.553-1.5531-2.174-2.485z" fill="#000"/><path d="M169.154 45.7235c-.932-1.5531-2.236-3.0441-2.299-4.9078 1.119.6212 1.802 1.7395 2.423 2.7956.932 1.6152 2.423 3.2304 2.423 5.1563-1.181-.8076-1.864-1.9259-2.547-3.0441z" fill="#000"/><path d="M168.781 46.2825c-1.18-1.9258-3.044-3.6653-3.23-6.026 1.18.6212 1.864 1.7394 2.547 2.8577 1.18 2.0501 3.292 3.8517 3.541 6.2745-1.243-.7455-2.05-1.9258-2.858-3.1062z" fill="#000"/><path d="M170.583 48.7675c-.684-1.1804-1.429-2.2986-2.175-3.4168-.993-1.6774-2.484-3.1063-2.857-5.0942 1.118.3727 1.926 1.5531 2.547 2.4849.87 1.2425 1.739 2.485 2.485 3.7275 1.056 1.8016 2.546 3.5411 2.484 5.6533-1.18-.7455-1.801-2.1122-2.484-3.3547zM34.8545 36.9639c2.4226-.8698 5.1558 0 7.6405-.2485 7.9511-.1864 15.9023.2485 23.8534.0621 7.9511.1864 15.9022.1864 23.7912.6834 9.1935.497 18.3874 1.4288 27.5804 2.1743 5.218.1864 10.436.6213 15.654.5591 8.448-.497 16.896-.0621 25.344.497 1.118 0 2.236.1243 3.168.6834-1.118.6212-2.36.7455-3.665.6212-6.336-.4348-12.796-.7454-19.132-.7454-3.976.1242-7.951.3106-11.927.1242-13.045-.5591-26.027-2.1743-39.0723-2.7335-11.9888-.8076-23.9776-.3727-35.9664-.6833-4.2861-.1864-8.5723.1242-12.8584-.0622-1.1181-.0621-2.2363-.0621-3.3544-.3727-.2485-.1242-.6833-.3106-1.056-.5591zM26.0955 132.076c-1.3045-1.491-.4348-3.727-.559-5.467-.0622-3.541-.1864-7.144.0621-10.685.4348-7.704-.1864-15.407.6833-23.1103.3106-8.4489-.1864-16.8357.0621-25.2846.2485-7.517-.2485-14.9719 0-22.489 0-.497-.0621-.994-.0621-1.491.1242-.8076 1.2423-.8076 1.1802.2485-.0621 5.6533 0 11.2445.1242 16.8357-.1863 9.1944-.1242 18.3267 0 27.521.1243 3.4169-.3727 6.8337-.559 10.2505-.1242 5.9022.0621 11.8032-.3106 17.7052-.1864 3.479-.0621 6.896-.0621 10.375.0621 1.864-.5591 3.852.3727 5.591.0621.124.1863.187.2485.311-.2485.062-.4349.062-.6833 0-.1243-.062-.3106-.187-.497-.311zM152.134 142.948c.683-.684 1.925-.621 2.484-1.367.932-2.298.746-4.846.684-7.268-.373-5.032-.435-10.065.186-15.034.497-6.027.745-11.99 1.056-18.017.683-6.0877.745-12.238 1.18-18.3262.435-6.2124 1.18-12.4248 1.739-18.6994.56-4.7835.746-9.6292 1.491-14.4128.062-.994.373-1.988.87-2.8577.807 1.5531.062 3.7274-.062 5.4669-.932 10.2505-2.112 20.501-2.858 30.7515-.31 4.1002-.434 8.2004-.621 12.3006-.372 4.1002-.745 8.2001-.869 12.3011-.311 5.839-.87 11.679-1.181 17.519-.186 3.603.249 7.206.249 10.809 0 2.112 0 4.473-1.118 6.399-.684.87-1.864.808-2.858.497-.124 0-.248-.062-.372-.062zM36.6559 138.04c2.3605.186 4.7831 0 7.1436.124 4.721.373 9.5041.87 14.225.994 4.7831.622 9.6284.808 14.4736.808 5.4042.248 10.7464-.124 16.0886-.062 5.6527.31 11.3055.559 16.9583.807-.621.311-1.118.684-1.553 1.243-1.739-.062-3.479-.186-5.218-.311-4.4104-.124-8.945-.497-13.3554-.497-7.2678.311-14.5356.125-21.8034-.186-3.6029-.311-7.1436-.808-10.7465-.808-3.6028-.124-7.2057-.807-10.8706-.807-3.5408.062-7.2057.062-10.5601-.87 1.3666-1.367 3.5407-.435 5.2179-.435zM109.458 140.898c2.609.124 5.218.186 7.889.248 6.523.622 13.169 1.491 19.692 1.615 3.106-.186 6.336-.062 9.38-.124 1.18-.062 2.484-.248 3.54.311-1.118.87-2.484 1.118-3.789 1.056-3.541-.062-7.019 0-10.56.062-4.969-.373-10.125-.559-15.033-1.242-3.168-.311-6.398-.435-9.566-.56-.435-.621-.994-1.056-1.553-1.366zM147.599 129.84c-1.864 0-3.913-.187-5.777-.497-3.354-.435-6.522-.684-9.877-.87-5.839-.497-11.554-1.491-17.393-1.739-3.665-.311-7.33-.808-11.057-.746-10.8085-.621-21.6791-1.491-32.5498-1.367-3.6029-.186-7.1436-.124-10.6843 0-3.9756.062-7.9511.187-11.9267-.062-1.8014-.124-3.665-.062-5.5285-.062-3.3544.062-6.7088.124-9.9389-.745-.2485-.063-.4348-.187-.6212-.311 1.6772-.994 3.9134-.249 5.777-.249 6.5224.063 12.9827.311 19.5051.373 4.8452-.373 9.6904-.248 14.4735-.124 8.5102-.124 16.9583.497 25.4684.932 3.6654.435 7.3304.435 11.0574.559 5.963.621 12.051.808 17.952 1.739 2.547.311 5.156.497 7.702.684h.125c.124 0 .186 0 .31.062.187 0 .435.062.621.062h.497c.063.062.125.124.249.186.186.125.373.187.621.187.249 0 .559-.124.745-.311 2.237.187 4.473.435 6.709.746.87.186 1.74.124 2.609.124.994 0 1.988 0 2.92.248v1.181c-.373.062-.684.062-1.056.062-.435 0-.684 0-.932-.062zM150.705 129.156c.062.062.186.125.248.187-.062.062-.186.062-.248.124v-.311zM86.5366 134.499c-1.1803-.683-2.2363-2.299-1.4909-3.603 0-.062.1243-.187.1864-.124v.372c.5591.994 1.056 2.113 2.1741 2.61 2.1121.994 7.3921 1.118 5.9013-2.548-1.2424-1.988-3.8514-2.547-5.9634-1.801-.3727.062-.7454.186-1.1181.248.1242-.31.2485-.559.4969-.807 1.3666-1.553 3.7892-1.305 5.4043-.373 2.4847 1.18 3.7271 4.473 1.3045 6.337-1.6151.931-3.6029.869-5.4043.372-.4969-.186-.9939-.434-1.4908-.683zM144.369 55.0421c-.063-.0621-.063-.1864-.125-.2485.062.1242.125.2485.187.3727-.062 0-.062-.0621-.062-.1242z" fill="#000"/><path d="M30.3196 124.559c.0621-.373.0621-.808.0621-1.18.6212.062 1.2424-.062 1.8014.062 1.2424.124 2.4847.435 3.6029.87-1.056.807-2.4226.683-3.6029.434-.6212-.124-1.2423 0-1.8635-.062v-.124zM32.8666 41.1884h.1242c-.0621 0-.1242.0621-.1864.0621 0 0 0-.0621.0622-.0621zM150.953 125.243c.062-.435.187-.932.249-1.367 0 .497-.062 1.056-.062 1.553-.063.87 0 2.05-.373 2.858 0-.994.062-2.05.186-3.044zM153.065 45.1022v-.0621c.062-.0621.124-.1243.187-.1864 0 .0621-.063.1864-.187.2485.062 0 .062 0 0 0 .062 0 .062 0 0 0 .062 0 .062 0 0 0 .062 0 0 0 0 0z" fill="#000"/><path d="M32.6183 41.8096v-.3728c.0621-.0621.1863-.1242.2484-.2484.6212.0621 1.2424-.0622 1.7394-.4349.559 0 1.1802.0621 1.7393.0621 2.6089.0621 5.1558.1864 7.7647.2485 5.1558.1864 10.3116.3106 15.4674.497 5.0937.1864 10.1874.2485 15.219.4349 2.5468.0621 5.0937.1863 7.6405.2485 2.609.0621 5.2801.1863 7.889.2485 5.0937.1242 10.125.3106 15.219.497 4.969.1863 10.001.3106 14.97.4348 4.97.1243 9.939.3106 14.847.497 4.969.1864 9.876.3106 14.846.4349.497 0 .994 0 1.491.0621h1.553c.124 0 .186 0 .248.0621-.31.3728-.497.8698-.621 1.3046h-.186c-1.181-.0621-2.299-.0621-3.479-.1242-2.423-.0621-4.845-.1243-7.206-.2485-2.112-.0621-4.224-.1242-6.336-.1864-.186-.0621-.372-.1242-.621-.1242-.435-.0621-.807 0-1.18.1242-2.236-.0621-4.473-.1242-6.771-.1863-5.032-.1864-10.063-.3107-15.033-.497-5.031-.1864-10.001-.3107-15.0322-.497-5.2179-.1864-10.4359-.3728-15.5917-.497-2.5468-.0622-5.0937-.1243-7.6405-.2485-2.5469-.0622-5.0937-.1864-7.6405-.2485-5.1558-.1864-10.3738-.3106-15.5296-.497-5.0937-.1864-10.2495-.3106-15.3431-.497-.6212 0-1.2424-.0621-1.8636-.0621h-.8696c.0621-.1243.0621-.1864.0621-.1864zM43.2402 49.1403c.1243-.3106.3727-.497.6833-.3727.3106.0621.4349.4969.3106.7454-.1242.3107-.3727.497-.6833.3728-.3106-.0621-.4348-.4349-.3106-.7455zM46.4083 48.7675c-.3106-1.1803 1.4287-1.1182 2.1742-1.2424-1.3666-1.7395 2.112-1.988 3.1059-1.9259.7454.0621 1.4287.3727 2.0499.8076-.1864.1243-.497.1864-.7455.3106 1.3045.1864 2.609.1243 3.9135.2485.7454.2485.4969 1.491-.3106 1.491-2.9817.0621-5.9633.2485-8.945.6213-.3106 0-.6212.0621-.9318 0-.1242-.1243-.1863-.1864-.3106-.3107z" fill="#000"/><path d="M40.7556 50.4449c-.497-1.0561.4969-1.8016 1.2424-2.2986-.497-.6212-.8697-1.5531-.3728-2.2364.497-.8077 1.7394-.6213 2.1742.1863.3727.1864.559.6834.559 1.1183 0 .5591-.0621 1.1182.0622 1.6152.559.497 1.4287 1.2425.8075 1.988-.1864.1864-.3727.3106-.5591.3727-.3106 0-.6211 0-.9317.0621-.5591-.1863-1.1803-.2484-1.8015-.0621-.0621 0-.1242.0621-.1863.0621h-.0621c-.4349-.1863-.7455-.4348-.9318-.8076zM152.196 47.8978c.124 0 .248.0621.372.0621 0 .1242-.062.3106-.062.4349-.124-.1864-.248-.3107-.31-.497zM48.3339 89.1483c-.3727-2.0501.1243-4.1002.1243-6.1503.1863-2.4229-.1864-5.2185 1.3044-7.2686.497 1.2425.3106 2.5471.1864 3.8517-.1242 3.976-.6212 7.0201-.1864 10.9339 2.9196-.1243 5.8391-.0621 8.7587.1242 2.2363 0 4.5346.4349 6.7709 0 .6212-2.8577.3727-5.5911-.2485-8.4489-.1863-1.7394.6212-3.6032-.2485-5.2184-.9317-.4349-1.9877-.4349-2.9816-.497-1.8015-.1242-3.5408-.1864-5.3422-.1242-1.9257 0-4.0998.6212-5.777-.497 1.2424-.6834 2.5469-.6834 3.8513-.8076 2.1121-.1243 4.162-.1864 6.2119-.0622 1.7393.2485 4.6588-.3727 5.4042 1.6774.8076 1.8016 0 3.7274.1864 5.5912.559 2.6713.7454 5.4048.2485 8.1382-.0622.497-.1243.994-.497 1.3668-.3106.3106-.8075.3727-1.2423.4348-1.9257.2485-3.8514 0-5.777-.0621-2.3605-.1242-4.721-.2485-7.0194-.2485-.9939 0-1.9878.1864-2.9817 0-.9938-.3727-.559-1.8637-.7454-2.7334zM70.9449 92.4409c-.3106-.3107-.3106-.7455-.3106-1.1183.0621-1.8016.1863-3.6653.3106-5.4669.3727-2.9198-.3106-5.9018-.0621-8.8216.0621-.2485.1242-.4349.1242-.6834.0621 0 .1863.1242.2485.1864.9317 1.0561.9939 2.4849 1.056 3.8517.3106 3.6032-.1864 7.2064-.3727 10.8096 2.5468.1242 5.1558-.497 7.7026-.4349 1.3045.0621 2.609.1243 3.8513.3106 1.1182.1864 2.2984.497 3.4165.1864.4349-2.2986.1864-4.5972.2485-6.8958 0-1.8016.1864-3.6032 0-5.4048-.1863-.8076-.1242-1.988-1.1802-1.9258-3.1059-.3107-6.2118-.4349-9.3178-.4349-1.8014-.0621-3.8513.3106-5.3421-.8076 1.3045-.7455 2.7953-.6834 4.224-.6834 3.8513.1864 7.889-.1864 11.6782.6212 1.6151.994 1.4287 3.7275 1.4909 5.467-.0622 2.2986-.1243 4.5972-.1243 6.8958-.1242 1.3667.2485 4.2865-1.4287 4.6593-1.3666.3727-2.8574-.0621-4.224-.2485-1.2424-.1243-2.7332-.2485-3.9756-.2485-2.2984.0621-4.5967.4349-6.8951.4349-.2485 0-.5591 0-.8697-.0622.0622 0-.1242-.0621-.2484-.1863zM94.2394 90.2666c-.3727-1.988.0621-3.976.1242-6.0261.1864-2.3607-.2484-5.1563 1.2424-7.0822.497 1.1804.3106 2.485.1864 3.7275-.1243 3.9138-.5591 6.8958-.1243 10.6854 2.9196-.0622 5.7769 0 8.6969.1863 2.236 0 4.534.4349 6.771.0622.621-2.7956.31-5.467-.311-8.2626-.186-1.7394.559-3.4789-.249-5.1563-.931-.4348-1.987-.4348-2.981-.497-1.74-.1242-3.541-.2485-5.342-.1863-1.926 0-4.1002.6212-5.7773-.5592 1.2423-.6212 2.4847-.6833 3.8513-.7454 2.112-.1243 4.1-.1864 6.212 0 1.739.2484 4.659-.3728 5.404 1.6773.808 1.8016 0 3.6653.249 5.4669.559 2.6093.745 5.2806.31 7.952-.062.4969-.124.9939-.497 1.3667-.31.3106-.807.3106-1.18.3727-1.926.2485-3.851-.0621-5.777-.0621-2.361-.1242-4.659-.3106-7.0194-.2485-.9939 0-1.9878.1864-2.9817 0-1.056-.3727-.6211-1.8016-.8075-2.6713zM116.85 93.6213c-.31-.3106-.31-.6834-.31-1.1182.062-1.8016.186-3.5411.31-5.3427.373-2.8577-.372-5.7776-.124-8.6353.062-.2485.124-.4349.124-.6212.063 0 .187.1242.249.1863.932 1.0561.994 2.485 1.056 3.7896.31 3.5411-.124 7.0201-.311 10.5611 2.547.1243 5.094-.4348 7.703-.3727 1.304.0621 2.547.1242 3.851.3106 1.118.1864 2.299.497 3.417.1864.435-2.2365.186-4.473.186-6.7716 0-1.7394.186-3.541 0-5.2805-.186-.7455-.124-1.9259-1.18-1.8638-3.106-.3106-6.15-.4348-9.256-.4348-1.801-.0621-3.851.3106-5.342-.8076 1.242-.7455 2.795-.6834 4.224-.6213 3.851.1864 7.889-.1242 11.678.6834 1.615.994 1.491 3.6653 1.553 5.3427-.062 2.2365-.124 4.4729-.062 6.7715-.124 1.3046.311 4.2245-1.429 4.5351-1.366.3106-2.857-.0621-4.224-.2485-1.242-.1242-2.733-.2485-3.913-.2485-2.298.0621-4.597.4349-6.895.3728-.249 0-.559-.0001-.87-.0622-.186-.1242-.31-.1863-.435-.3106zM47.7751 109.96c-.3728-2.05.0621-4.1.1242-6.15.1863-2.423-.1864-5.2188 1.3045-7.2689.4969 1.2424.3106 2.5471.1863 3.8519-.1242 3.976-.6212 7.02-.1863 10.934 2.9195-.062 5.8391-.062 8.7586.124 2.2363 0 4.5346.435 6.7709 0 .6212-2.858.3727-5.591-.2485-8.449-.1863-1.739.6212-3.6032-.2484-5.2185-.9318-.4348-1.9878-.4348-2.9817-.4969-1.8014-.1243-3.5407-.1864-5.3422-.1243-1.9256 0-4.0998.6213-5.777-.497 1.2424-.6834 2.5469-.6834 3.8514-.8076 2.112-.1243 4.1619-.1864 6.2118-.0621 1.7393.2485 4.6588-.3728 5.4042 1.6773.8076 1.8016.0001 3.7271.1864 5.5911.5591 2.671.7454 5.405.2485 8.138-.0621.497-.1243.994-.497 1.367-.3106.311-.8075.373-1.2423.435-1.9257.248-3.8514 0-5.777-.062-2.3605-.124-4.721-.249-7.0194-.249-.9938 0-1.9877.187-2.9816 0-.9939-.435-.497-1.863-.7454-2.733zM70.448 113.19c-.3105-.31-.3105-.745-.3105-1.118.0621-1.801.1863-3.665.3105-5.467.3728-2.92-.3106-5.902-.0621-8.8214.0621-.2485.1243-.4348.1243-.6833.0621 0 .1863.1242.2484.1863.9318 1.0561.9939 2.485 1.056 3.8514.3106 3.604-.1863 7.207-.3727 10.81 2.5469.124 5.1558-.435 7.7027-.435 1.3045.062 2.6089.124 3.8513.311 1.1181.186 2.2984.497 3.4165.186.4348-2.299.1864-4.597.2485-6.896 0-1.801.1863-3.603 0-5.4045-.1864-.8076-.1243-1.988-1.1803-1.9259-3.1059-.3106-6.2118-.4348-9.3177-.4348-1.8014-.0622-3.8513.3106-5.3422-.8077 1.2424-.7455 2.7954-.6833 4.2241-.6833 3.8513.1863 7.889-.1243 11.6782.6212 1.6151 1.0561 1.4287 3.727 1.4908 5.467-.0621 2.299-.1242 4.597-.1242 6.896-.1242 1.366.2485 4.286-1.4287 4.659-1.3666.373-2.8575-.062-4.2241-.248-1.2423-.125-2.7332-.249-3.9755-.249-2.2984.062-4.5968.435-6.8951.435-.2485 0-.5591 0-.8697-.062 0 0-.1242-.062-.2485-.187zM93.6803 111.078c-.3727-1.988.0621-3.976.1243-6.026.1863-2.361-.2485-5.1562 1.2423-7.082.497 1.1803.3106 2.485.1864 3.727-.1243 3.914-.5591 6.896-.1243 10.686 2.9196-.062 5.777 0 8.697.186 2.236 0 4.534.435 6.77.062.622-2.795.311-5.467-.31-8.262-.186-1.74.559-3.479-.249-5.1565-.931-.4349-1.987-.4349-2.981-.497-1.802-.1243-3.541-.2485-5.342-.1864-1.9261 0-4.1002.6212-5.7774-.5591 1.2423-.6213 2.4847-.6834 3.8513-.7455 2.1121-.1243 4.1001-.1864 6.2121 0 1.739.2485 4.659-.3727 5.404 1.6774.808 1.8011 0 3.6651.248 5.4671.56 2.609.746 5.28.311 7.952-.062.497-.124.994-.497 1.366-.31.311-.807.311-1.18.373-1.926.249-3.851-.062-5.777-.062-2.361-.124-4.659-.311-7.0195-.248-.9939 0-1.9877.186-2.9816 0-1.056-.373-.5591-1.802-.8076-2.672zM117.534 114.744c-.249 0-.56 0-.87-.063-.124-.062-.311-.124-.435-.248-.311-.311-.311-.683-.311-1.056.063-1.802.187-3.603.311-5.343.373-2.858-.373-5.777-.124-8.6352.062-.2485.124-.4348.124-.6212.062 0 .186.1242.249.1864.931 1.056.993 2.485 1.118 3.79.31 3.541-.125 7.02-.311 10.561 1.367.062 2.671-.062 4.038-.187 1.242-.124 2.422-.186 3.665-.186.621 0 1.304.062 1.925.124.187.497.373.994.559 1.491-1.056-.124-2.112-.186-3.105-.186-2.175.062-4.411.373-6.585.373h-.248zM133.498 111.451c-.248-.062-.435-.186-.683-.249-.125-.062-.187-.062-.311-.124.062-1.491-.062-2.982 0-4.411 0-1.739.186-3.541 0-5.28-.186-.746-.124-1.9261-1.18-1.8639-3.106-.3107-6.15-.4349-9.256-.4349h-1.304c-1.429 0-2.858.0621-4.038-.8076 1.242-.7455 2.795-.6834 4.224-.6213 3.851.1864 7.889-.1242 11.678.6834 1.615.994 1.491 3.6653 1.553 5.3423-.062 2.237-.124 4.473-.062 6.772-.062.373-.062.808-.062 1.305-.248-.187-.435-.249-.559-.311zM31.1895 139.966c-.5591-.186-1.056-.497-1.4908-.87 0 0-.0622 0-.0622-.062-.0621-.062-.1242-.062-.1863-.124.2485-.124.4348-.311.6212-.435.559-.311 1.1181-.497 1.7393-.497h3.3544c2.2983 0 4.5967.124 6.8951.186 5.0315.187 10.0631.373 15.0947.559 4.9073.187 9.8146.373 14.722.56 5.0316.186 10.0631.372 15.0947.559 5.0937.186 10.1252.372 15.2194.559 5.031.186 10.001.372 15.032.559 2.361.124 4.783.186 7.144.31 2.547.125 5.093.249 7.578.311 4.97.186 9.939.311 14.908.559 1.491.062 2.982.124 4.411.187.373 0 .745 0 1.118.062.373.062.745.124 1.118.248.621.249 1.18.559 1.677.994-.372.311-.745.559-1.18.746-.248.124-.559.186-.807.248-.373.062-.684.062-1.056.062-1.181 0-2.423-.062-3.603-.124-2.485-.124-4.97-.186-7.455-.248-2.546-.125-5.093-.249-7.64-.311-2.485-.124-4.97-.186-7.454-.311-4.908-.186-9.753-.372-14.66-.497-5.094-.186-10.125-.372-15.219-.559-5.0316-.186-10.0632-.373-15.1569-.559h-.2484l-1.3666-.186h-.1243l-.1863-.062-.2485-.063-.2485-.062-.2484-.062-.3106-.062-.3106-.062-.3106-.062-.2485-.062-.2485-.062-.2484-.063h-3.9135l-.1863.063-.1864.062-.1863.062-.1864.062-.1864.062-.1863.062-.1864.062c-1.7393-.062-3.5407-.124-5.28-.186-4.9073-.186-9.8768-.373-14.7841-.559-4.9074-.187-9.8147-.311-14.6599-.621-1.1802-.062-2.4226-.125-3.6029-.249-.559.062-1.2423.062-1.8635-.124z" fill="#000"/><path d="M155.302 143.942c-.249-.311-.373-.621-.559-.994-.125-.311-.187-.559-.249-.87-.124-.497-.124-.994-.062-1.491.062-.932.062-1.864.124-2.795.062-.932.124-1.802.124-2.734.187-3.976.497-7.952.684-11.928.248-4.038.497-8.138.745-12.176.249-4.038.559-8.138.808-12.1765.248-3.9759.497-8.014.745-11.9899.124-1.7395.249-3.4169.373-5.0321.062-1.2425.186-2.5471.31-3.6653.311-4.0381.559-8.0141.808-12.0521.062-1.4289.186-2.7956.248-4.2245.062-.4349.187-.8697.249-1.3046.186-1.0561.31-2.0501.373-3.1062.062-1.1804.062-2.2986.062-3.479.062-1.6152.186-3.2304.124-4.8457v-.3106-.1242c0-.3728.062-.7455.186-1.1183.124-.3106.249-.6212.435-.9318.124-.1864.311-.3728.435-.497l.062-.0621.062.0621v.0621c.186.3106.373.6213.559.994.187.497.249 1.0561.249 1.6152-.062.9319-.125 1.9259-.187 2.8577-.124 1.988-.186 3.976-.31 5.964-.249 4.038-.559 8.0761-.746 12.1763-.124 1.988-.248 4.0381-.372 6.0261-.125 2.0501-.187 4.1002-.311 6.2124-.124 1.988-.186 3.9759-.311 5.9639-.124 1.988-.248 3.976-.372 6.0261-.249 4.0381-.497 8.014-.746 12.052-.248 4.1-.497 8.138-.745 12.239-.249 3.975-.497 7.951-.746 11.927-.124 1.802-.248 3.541-.372 5.343-.062.808-.124 1.677-.187 2.485-.062.808-.124 1.615-.186 2.423v.062c0 .186 0 .311-.062.497-.062.497-.062.932-.249 1.367-.124.31-.248.559-.372.869-.187.187-.373.497-.621.684zM149.09 122.385c.372-8.387.683-16.836 1.49-25.1605.497-8.3868.684-16.7735 1.367-25.1603.311-4.0381.683-8.0762 1.18-12.1142.187-4.2245.311-8.4489.559-12.6734.062-.6834.311-1.4288.684-1.988h.062c.31.6834.559 1.4289.559 2.2365-.249 4.2245-.497 8.4489-.684 12.6734-.496 4.8456-.993 9.6292-1.242 14.4749-.621 9.505-.683 19.01-1.615 28.5146-.497 5.964-.621 11.99-.932 18.016-.248 2.796.249 5.778-.807 8.387-1.367-2.174-.497-4.845-.621-7.206z" fill="#000"/><path d="M160.644 49.7615c-.063-.1242-.063-.2485-.063-.4349v-.3106c-.372-.1864-.372-.6834-.31-1.0561.062-1.8016.186-3.6032.497-5.4048 0-.2485.124-.497.372-.6213-.248-.1242-.496-.1863-.683-.3727.373-.1242.746-.3727 1.18-.3727 1.802.3727.622 4.8456.559 6.1503-.124.6833-.186 2.9819-.993 2.7334-.187 0-.373-.0621-.559-.3106zM31.3757 124.559c.0622-.31.3727-.497.6833-.435.2485.062.497.373.4349.684-.0622.31-.3728.497-.6833.435-.2485-.063-.4349-.373-.4349-.684z" fill="#000"/><path d="M31.9971 124.621c-.1864-.435-.3728-.87-.4349-1.304-.0621-.435-.1242-.808-.1242-1.243v-1.242-5.032c0-3.355 0-6.648.0621-10.002 0-3.355 0-6.7099.0621-10.1267 0-3.4168 0-6.8958.0621-10.3126 0-3.4169 0-6.7716.0622-10.1884 0-3.3547 0-6.7715.0621-10.1263 0-3.3547 0-6.7715.0621-10.1262v-9.9399-1.3046c0-.3727.0621-.8076.1242-1.1804.0622-.2484.1243-.4969.2485-.7454.1242-.0622.2485-.1243.3727-.2485.1243.2485.1864.5591.2485.8076.0621.3106.1242.5591.1863.8697.0622.3728 0 .8076 0 1.1804v4.8457c0 3.2926-.0621 6.6473-.0621 9.9398 0 3.4169 0 6.8337-.0621 10.1884 0 3.3547 0 6.7716-.0621 10.1263 0 3.4168-.0621 6.7715-.0621 10.1884 0 3.4168 0 6.8336-.0621 10.2505 0 3.3542-.0622 6.7712-.0622 10.1262 0 3.355-.0621 6.709-.0621 10.002v1.429c0 .497 0 .994-.0621 1.491-.0621.683-.2485 1.18-.4969 1.677zM25.8474 139.034c-.8076-.497-.6212-1.491-.6833-2.299.0621-1.863.3727-3.789.3727-5.653.1863-.807-.2485-2.236.6212-2.733.4348-.249.9938.124 1.1802.559.4348 2.858-.3106 5.777-.3727 8.573 1.6151.248 3.2301-.124 4.8452 0 .8075.062 1.553.311 2.2984.311 1.056.124 1.2423 1.801.1242 1.925-1.6772-.124-3.2923-.124-4.9694-.186-.8697-.062-1.8636 0-2.7332-.248-.2485-.063-.4349-.125-.6833-.249z" fill="#000"/><path d="M26.5927 137.295s0-.063-.0622-.063c-.1863-.31-.3105-.559-.4969-.869-.1864-.497-.3106-.994-.3106-1.491 0-.932 0-1.926-.0621-2.858v-6.088c0-3.976.0621-7.952.0621-11.928.0621-3.976.0621-7.952.0621-11.99 0-4.0381 0-8.0762.0621-12.1143 0-3.9759.0622-8.014.0622-11.9899 0-4.0381.0621-8.0762.1242-12.1143.0621-3.9138.1242-7.8898.1864-11.8036 0-1.988.0621-4.0381.0621-6.026.0621-1.9259.0621-3.7896.0621-5.7155 0-.5591 0-1.1182.1242-1.6773.1243-.497.2485-.9319.497-1.3668v-.0621c.1242-.2485.2484-.3727.4348-.5591.1242.1864.2485.3727.3727.6212v.0622c.3727.7455.6212 1.6152.5591 2.4849 0 .9319-.0621 1.8016-.0621 2.7335v17.8297c0 4.038-.0622 8.014-.0622 12.0521 0 4.038-.0621 8.014-.1242 12.0521-.0621 3.9759-.1242 8.014-.1864 11.99-.0621 3.9762-.0621 8.0142-.1242 11.9902 0 1.988-.0621 3.976-.0621 5.902 0 1.988-.0621 3.975-.0621 6.026-.0621 3.976-.1243 7.952-.1864 11.99 0 .31 0 .621-.0621.931 0 .311-.1242.622-.2485.932-.1242.373-.3727.684-.6212.994.1243.062.0622.062.0622.125zM27.8973 36.9018c0 .0621 0 .0621 0 0 0 .0621 0 .0621 0 0 0 .0621 0 .0621 0 0 .8075-.3728 1.5529-.8697 2.4847-.7455 1.4908.1242 3.0438.0621 4.5346.0621.7454 0 1.553.1243 2.2363.4349-.8076.4349-1.553.7455-2.4227.7455-2.2362 0-4.4103.1864-6.5224-.3106-.1242 0-.3727-.0622-.3105-.1864z" fill="#000"/><path d="M27.4002 37.523c-.1243-.0621-.4349-.1242-.3106-.1864.8696-.6833 1.9878-.7454 3.0438-.6833 1.5529.0621 3.0438.1242 4.5967.1864 1.1181.0621 2.2363-.1243 3.2923-.0622.8696 0 1.7393.2485 2.5468.5591-.4969.3107-1.1181.497-1.6772.6213-2.9195.1864-5.9012.0621-8.8208-.0621-.8075 0-1.5529-.0622-2.2983-.3107-.1243.0622-.2485 0-.3727-.0621zM83.6793 64.2986c-.1242-.1242-.2484-.2485-.3105-.4348-.8076-.9319.1242-1.1183.9317-.8076.7454-.1864 1.2424-.8698 2.0499-.994.7454-.1243 1.4909.2485 2.2363.3106.559 0 1.1181-.1243 1.7393-.1864 2.2984-.3106 4.5967.2485 6.8951.1243 1.2424 0 2.5468.1242 3.4789.9318-.373.4349-.9321.8076-1.5532.9319-2.4848.4349-4.9074-.5591-7.3921-.5591-1.1802.0621-2.0499.5591-3.168.4348-.3106 0-.6212-.1242-.9318-.2485-.3106-.1242-.6833-.2485-.9939-.2485-.5591.6213-1.4908 1.2425-2.2984 1.0562-.3105 0-.4969-.1243-.6833-.3107zM65.168 69.7034c-.1863-.1864-.3106-.4349-.3106-.6212.4348.1863.8697.4969 1.056.9939-.0621 0-.1242 0-.1863-.0621-.1864-.0621-.3727-.1864-.5591-.3106zM65.7271 68.2746c-.5591-.1242-.9939-.5591-1.4288-.8076.6212-.2485 1.2424 0 1.8636.1864.4969.1242.9939.3106 1.4287.3106 1.7393 0 3.4786-.4349 5.2179-.3728 1.553 0 2.9817.4349 4.5346.6213 4.2862-.0621 8.6345-.994 12.7964.1242.3106.1243.6833.3106.9939.497-.3106.0621-.6833.1243-.9939.1243-2.4226-.497-4.9074-.497-7.33-.3728-1.615.0621-3.2301.4349-4.8452.4349-1.3045 0-2.5468-.3728-3.8513-.5591-2.609-.4349-5.28.8076-7.8269.0621-.1863-.1243-.3727-.1864-.559-.2485zM98.4632 68.5231c-.0621 0-.1864-.0622-.1242-.1864.9317-.3106 1.863-.3106 2.795-.4349 1.988-.3727 3.976-.6834 6.026-.3727 3.168.6212 6.522.497 9.628 1.3046.311.1242.621.3106.808.497-.311.0621-.622.1242-.932.1242-2.299-.2485-4.597-.497-6.833-.7455-1.677-.2485-3.292-.6212-4.97-.5591-1.987-.0621-4.162 1.0561-6.0872.497-.1243 0-.1864-.0621-.3106-.1242zM69.4541 70.1383c0-.1864.1864-.2485.3728-.2485.1242.0621.2484.1863.2484.3727 0 .1864-.1863.2485-.3727.2485-.1863-.0621-.3106-.2485-.2485-.3727z" fill="#000"/><path d="M68.6467 70.6353c-.1864-.0621-.8076-.497-.3106-.5591 0 0 0 .0621-.0622.0621 1.6772.1242 3.4165.3727 5.0937.2485 1.553.0621 3.1681-.497 4.721-.0621-1.1181.8076-2.6089.6833-3.9134.8076-1.6772 0-3.4165.1242-5.0316-.3106-.1864-.0622-.3727-.1243-.4969-.1864zM84.1762 71.1323c-.1863-.1243-.4348-.3107-.559-.497.6833.0621 1.3666.0621 2.0499.0621 1.6772-.1242 3.2922-.3727 4.9694-.2485 1.4909.1243 2.8575.5591 4.3483.6834 3.4165.3727 6.8332-.0622 10.1872.1863 2.547.1864 5.094.6834 7.703.5592.373.0621.745.0621 1.056.1863-.311.2485-.621.4349-.994.5591-2.671.4349-5.466-.3727-8.2-.4969-2.981-.1864-6.0251.1863-9.0689-.1864-1.9257-.1243-3.665-.9319-5.5906-.994-1.9257-.1243-3.9756.7455-5.8391.1864.0621.0621 0 .0621-.0622 0zM39.7619 50.3206c-.0621.1864-.2485.3106-.3727.3106.0621-.1864.2484-.3727.3727-.3106zM39.0784 52.4329c.2484-.1242.4348-.1863.6833-.2485.2484-.0621.4969-.0621.7454-.0621h.8075c1.1181 0 2.2363.0621 3.4165.0621 2.2363.0622 4.5346.0622 6.7709.1243 4.4725.0621 9.0071.1242 13.4796.1864 4.5347.0621 9.1314.1242 13.666.1863 4.5968.0622 9.1314.1243 13.7281.1864 4.5346.0621 9.0693.1243 13.6043.1864 4.534.0621 9.069.1242 13.541.1863 4.473.0622 8.945.1243 13.418.1864 2.236.0621 4.41.0621 6.646.1243 1.057 0 2.175 0 3.231.0621h1.553c.497 0 .993 0 1.428.0621h.87c.248 0 .497 0 .745.0621.311.0622.622.1243.87.3107-.124.0621-.186.0621-.311.1242-.124.0621-.31.0621-.497.1243-.186.0621-.434.0621-.621.0621H142.94c-2.174 0-4.286-.0621-6.46-.1243-2.299-.0621-4.535-.0621-6.833-.1242-2.237-.0621-4.411-.0621-6.647-.1243-4.535-.0621-9.007-.1242-13.542-.1863-4.534-.0622-9.069-.1243-13.6037-.2485-4.5967-.0622-9.1313-.1243-13.7281-.1864-4.5346-.0621-9.0692-.1243-13.6038-.1864l-13.6039-.1863c-4.4725-.0622-8.8829-.1243-13.3554-.1864h-1.3045c-.1242 0-.2485 0-.3727-.0621-.1242 0-.2485-.0622-.3106-.0622-.1863-.1242-.3727-.1863-.4969-.2485zM104.24 49.513c-.31-.8076.87-1.1182 1.678-1.0561 1.242 0 2.671-.2485 3.727.6213-.746.6833-1.74.6212-2.671.6212-.87 0-1.864.1243-2.672-.2485-.062 0-.062.0621-.062.0621zM114.428 49.0782c.062-.1864.248-.3107.435-.4349.434-.3106.993-.3106 1.428-.3106 1.056.0621 2.237-.1864 3.293.2485.186.0621.434.1863.559.3727-.435.3728-1.056.6213-1.615.6213-1.119-.0622-2.299.1863-3.417-.0622-.248-.1242-.497-.2485-.683-.4348zM124.553 49.4509c-.186-.0622-.435-.2485-.621-.2485.062-.4349.87-.8076 1.304-.8076.87 0 1.74-.1243 2.609.0621.373.1242.87.3106 1.118.6212-.248.1864-.559.3106-.869.4349-.683.1864-1.491.0621-2.174.1242-.435 0-.87.0622-1.243-.0621 0-.0621-.062-.1242-.124-.1242zM130.765 50.6313c0-.9319-.125-1.988.31-2.8578-.062 0 .062-.1242.062-.1242 0-.0621 0-.1243.125-.1243.869-.7454 2.112-.4348 3.106-.3106.807.1243 1.615 0 2.36-.0621.621-.0621 1.429.0621 1.553.8076.311 1.3046.87 2.6092.683 3.976-.31.8697-1.428.3727-2.112.4348-1.925-.1863-3.789.1243-5.715.0622-.559-.3728-.31-1.2425-.372-1.8016zm2.547-2.6093c-.622-.0621-1.181 0-1.802-.1242.062.1864.124.3727.186.5591.063.994 0 1.988 0 2.982 2.05-.1864 4.162-.1864 6.274-.1243 0-1.0561-.31-2.1743-.621-3.1683-1.366-.0621-2.671.1242-4.037-.1243zM140.641 52.1222c-.621-.8076-.683-2.0501-.497-3.0441-1.304-2.7956 1.926-2.2364 3.603-1.9879.932.1242 1.864.0621 2.796 0 .993.1242.869 1.4288.931 2.1122 0 .8697.249 1.8016-.062 2.6092-.435.6212-1.553.3106-2.236.4349-1.242.0621-2.547.0621-3.789.0621-.124 0-.311 0-.435-.0621 0 .0621-.186 0-.311-.1243zm1.678-4.1623c-.435 0-.994-.1243-1.367.0621-.062.1243-.062.3106-.124.4349.497.9318.124 1.988.435 2.9198 1.801 0 3.602 0 5.342-.1242.062-1.0561 0-2.0501-.125-3.0441-1.366.0621-2.795-.0621-4.161-.2485zM102.687 142.265c.187.248.311.497.435.807H102.377c.062-.31.186-.559.31-.807z" fill="#000"/><path d="M101.756 141.581s0-.062 0 0c.683 0 1.18.808 1.428 1.491h-1.863c.124-.621.373-1.056.435-1.491zM78.896 141.705c.0621.063.1242.125.1242.187h-.2485c.0621-.124.0621-.124.1243-.187z" fill="#000"/><path d="M78.3991 141.705c.1243-.434.6833-.497 1.056-.248.0622 0 .1243.062.2485.124l.1242.124c.1864.063.3106.187.3106.311l-.559-.062h-.1243l-.1863-.062-.2485-.062-.2485-.062-.3727-.063c-.0621.063-.0621.063 0 0zM74.0508 141.333h2.6089l.2485.062.2485.062-.2485-.062-.2485-.062H74.0508zM68.7089 154.006c.3727-3.79 1.2423-7.579 1.8635-11.307.1864-.683.1864-2.05 1.1802-1.863.3728.062.6212.435.5591.807 0 .249.1242.373.1864.622 0 .372-.1864.745-.3106 1.056-.0621 0-.1243-.062-.1243-.125-.4348 3.293-1.1802 6.586-1.5529 9.878-.3727 2.796-.6212 5.964-2.5468 8.138-1.1182-2.36.6211-4.845.7454-7.206zM115.732 161.399c-.869-1.429-.683-3.231-1.118-4.846-.621-3.603-.807-7.206-1.118-10.81-.062-.745.186-1.491.497-2.174.186.249.373.559.559.87 0 .31 0 .621.062.932 0 .186.062.372.062.559 0 .186.062.31.124.497.125.497.187.994.249 1.491.062.559.124 1.056.186 1.615v.994c0 .186 0 .435.062.621v.559c0 .187.062.435.062.622 0 .186 0 .372.063.559.062.435.124.807.186 1.18.062.249.062.497.124.683.062.187.062.435.124.622 0 .186.063.372.063.559 0 .186.062.435.062.621 0 .249.062.435.062.683 0 .187.062.435.062.622v-.062c.062.248.062.434.062.683 0 .248.062.435.062.683v.062c0 .249.062.497.062.746 0 .186.062.311.062.497-.124.435-.31.87-.497 1.242.063-.062 0-.248-.124-.31z" fill="#000"/><path d="M113.682 157.609c-.062-2.547-.248-5.094-.435-7.703-.062-1.553-.31-3.106-.497-4.66-.186-.931-.124-1.925.373-2.733.062-.062.124-.186.187-.186l.062.062c1.056 1.367 1.18 3.106 1.428 4.721.435 3.293.559 6.585.559 9.94-.062 1.864.87 3.914-.31 5.591-1.118-1.366-1.243-3.292-1.367-5.032z" fill="#000"/><path d="M68.9572 161.212c-.2484-.124-.4348-.248-.6833-.31.8697-1.118 2.7953-.746 4.0998-.746 3.168-.124 6.3361.125 9.5041.311 6.833.559 13.7281.124 20.5612.062 3.106.124 6.087-.124 9.131 0 1.18 0 2.423.311 3.355 1.118-1.243.684-2.671.559-4.1.497-6.212-.062-12.4859.062-18.6977.249-4.9074.248-9.8147-.311-14.722-.559-1.1803-.062-2.2363-.125-3.3544-.125-1.4908-.062-3.0438.187-4.4725-.248-.1863-.062-.4348-.124-.6212-.249z" fill="#000"/><path d="M67.9013 161.647c-1.6151-.932-.3727-2.547.8696-3.168.0622 0 .2485-.062.1864.062 0 .621 0 1.18-.1864 1.802 2.9817.807 6.1497.621 9.1935.932 6.7709.559 13.4797-.063 20.2505-.373 3.4161-.062 6.7711-.373 10.1871-.187 2.112.063 4.224.435 6.274.187.311-.062.621.124.932.062.186-.062.373-.124.497-.249.124.311.124.684 0 .932-.124.311-.435.497-.683.746-.497.621-1.305.807-2.05.683-1.118-.062-2.299-.062-3.417-.186-3.168-.435-6.336-.187-9.442-.124-7.7023.372-15.4671 1.242-23.2319.372-2.6089-.372-5.4042-.186-7.9511-.932-.4969-.124-.9939-.31-1.4287-.559zM114.117 144.004c-.248-.311-.311-.745-.373-1.118-.124-.187.373-.187.559 0 .187.124.373.31.435.559h-.124l-.124.124v.187c0 .186.062.31.062.497v.186c-.124-.062-.311-.249-.435-.435z" fill="#000"/><path d="M114.241 141.892c.497.373.87.994.932 1.615h-.497l-.124.124v.187c0 .186.062.31.062.497v.372c-.559-.869-.807-1.925-.373-2.795z" fill="#000"/><path d="M112.564 143.321c-.124-.497-.31-1.057-.186-1.616.124-.435.683-.559.994-.248.497.683.869 1.491 1.18 2.298v.063c0 .186.062.31.062.497 0 .372 0 .683.062 1.056 0 .186.062.372.062.559 0 .186.062.31.125.497.062.248.124.559.124.807-.249-.062-.435-.248-.559-.434-.062.186-.062.372-.124.497-1.056-1.181-1.429-2.61-1.74-3.976z" fill="#000"/><path d="M69.889 141.333s.0621 0 0 0c-.1243-.062-.2485-.062-.3106-.125 1.2423-1.118 2.9195-.807 4.4725-.745 2.6711 0 5.3421.311 8.0753.248 7.4542.187 14.9705-.497 22.4248-.434 3.789-.125 7.516.683 11.243 1.118.808.186 1.553.621 2.174 1.118-.683.311-1.49.621-2.298.683-2.36.063-4.659-.621-6.957-.869-9.877-.684-19.7538.932-29.6306.248-2.671-.435-5.5285-.062-8.1374-.807-.3106-.125-.6833-.249-1.056-.435zM128.715 121.764c-1.429-.87-1.677-2.672-2.112-4.163-.559-1.739-.994-3.417-1.491-5.094-.311-1.18-.559-2.299-.994-3.479-.124-.559-1.242-3.292-.124-2.92.311.311.497.746.621 1.119.994 2.733 1.739 5.653 2.609 8.386.373 1.181.745 2.299 1.118 3.479.311.932.621 1.864.373 2.672z" fill="#000"/><path d="M137.722 113.377c-2.857-1.056-5.28-2.982-8.075-4.1-1.677-1.119-4.348-.808-5.404-2.734l-.063-.062c.125-.186.497-.311.746-.311.683-.124 1.242.187 1.863.435 2.112.559 4.287 1.553 6.212 2.609 1.18.56 2.299 1.243 3.417 1.864 1.056.497 2.112 1.18 2.236 2.423-.249.062-.559 0-.932-.124z" fill="#000"/><path d="M125.05 107.102c-.435-.062-.745-.373-.932-.745-.062-.062.062-.125.062-.187.622-.497 1.615.062 1.802.746-.311.124-.621.248-.932.186zM135.113 127.479c-.062 0-.124-.062-.124-.062h.683c-.124.062-.186.062-.311.062-.062.062-.124.062-.248 0zM137.163 125.491c-.062-.186-.186-.311-.311-.497-.062-.124-.124-.186-.186-.311.808-.683 1.615-1.304 2.423-1.988-1.802-1.615-3.23-3.665-5.032-5.218-1.429-1.864 3.789-2.112 4.721-2.982-.994-.808-2.112-1.553-1.926-2.982.994.124 1.802.87 2.547 1.491 3.479 2.547-1.615 3.728-3.603 4.287 1.491 1.615 2.858 3.416 4.535 4.845.497.373.497 1.119-.062 1.491-.559.373-.932.87-1.429 1.243-.497.31-.869.683-1.304 1.056-.187-.124-.311-.249-.373-.435z" fill="#000"/><path d="M127.348 118.533c-.807-2.423-1.677-4.846-2.422-7.268-.373-1.554-1.802-3.293-.87-4.846.062-.062.062 0 .124 0 .684.435 1.118 1.118 1.367 1.926.31.807.621 1.615.87 2.423-.063.372.062.683.124 1.056.062.31.186.559.248.869.187.622.435 1.305.684 1.926.124.311.248.621.372.87.062.124.125.186.125.311.559 1.739 1.056 3.541 1.428 5.342.435-.807 1.118-1.491 1.429-2.298.186-.373.186-.808.559-1.056 1.242-.56 1.553 1.304 1.864 2.112.124.435.248.87.372 1.367-.124-.249-.186-.435-.372-.622-.125-.124-.187-.186-.311-.31.062 0 .062.062.062.062-.062-.062-.124-.124-.186-.124-.311-.249-.684-.249-.994-.063 0 0-.062 0-.062.063-.249.186-.311.434-.373.683-.373.621-.745 1.242-1.18 1.926-.187.248-.373.559-.684.621h-.248c-1.429-.186-1.429-3.852-1.926-4.97z" fill="#000"/><path d="M136.542 124.497c-.746-.186-1.367-.746-1.802-1.305-1.056-1.242-2.236-2.485-2.733-4.038 0-.062 0-.062.062-.124 1.118.249 1.615 1.429 2.299 2.236.869.932 1.925 1.926 2.174 3.231z" fill="#000"/><path d="M136.666 124.124c-1.429-.559-2.174-1.926-3.168-2.982-.683-.87-1.491-1.926-1.615-3.044 1.056.373 1.739 1.429 2.36 2.237.932 1.118 2.299 2.236 2.423 3.789z" fill="#000"/><path d="M134.43 122.074c-1.181-.497-2.299-1.429-2.858-2.609-.186-.373.124-.621.373-.87.062-.062.248-.248.311-.186-.063.124.062.435.062.621.869.87 1.863 1.74 2.112 3.044zM130.889 121.267c-.186-.56.124-1.181.683-1.367.125.559-.124 1.118-.683 1.367.062 0 0 0 0 0z" fill="#000"/><path d="M136.48 124.808c-1.678-.87-2.671-2.61-3.852-4.038-.497-.622-1.056-1.367-.931-2.237l.062.062c1.242.87 2.174 2.237 3.168 3.417.683.808 1.49 1.677 1.553 2.796z" fill="#000"/><path d="M137.536 125.056c-.684-.186-1.305-.621-1.74-1.242-.435-.622-1.056-1.367-.994-2.113 1.305.746 2.485 1.864 2.734 3.355z" fill="#000"/><path d="M137.163 124.621c-.807-.31-1.677-1.242-1.491-2.112.932.249 1.677 1.118 1.491 2.112z" fill="#000"/><path d="M136.666 126.112c-1.056-1.304-2.236-2.609-2.857-4.162 0-.062.062-.124.124-.124 1.491.434 2.36 1.925 3.23 3.106.311-.373.745-.621 1.056-.932.435-.621 1.056-1.118 1.801-1.18.063 0 .187-.063.249-.063-.062.249-.124.435-.249.622-.186.807-.683 1.615-1.366 2.05-.746.497-1.056 1.615-2.05.621l.062.062z" fill="#000"/><path d="M129.585 117.663c-.684.187-.994-.559-1.119-1.118-.248-.745-.497-1.429-.745-2.174-.186-.87-2.05-4.163-.186-3.976.186.062.372.186.497.373.062.062.124.186.124.31 1.801 1.243 1.863 3.79 2.547 5.716.434.745-.435 1.491-1.118.869z" fill="#fff"/><path d="M129.46 120.024c-.932-.808-1.118-2.112-1.428-3.23-.497-1.864-1.616-3.417-2.112-5.281-.373-1.118-.932-2.361-.435-3.541.559.497.931 1.18 1.18 1.926.932 2.547 2.298 4.908 2.857 7.517.125.807.311 1.801-.062 2.609z" fill="#fff"/><path d="M125.547 108.904c-.311-.187-.559-.746-.311-1.056.249.31.497.745.311 1.056z" fill="#fff"/><path d="M132.193 116.731c-.062-.124-.124-.31-.186-.497-.062-.124-.062-.186-.124-.31-.187.062-.373.062-.497 0-.124 0-.311-.062-.435-.124-.559.621-1.367-.063-1.491-.746-.124-.559-.435-1.18-.31-1.739-.497-.497-1.305-1.056-1.243-1.864.062-.373.497-.621.87-.435.373-.248.745.062 1.056.249.062-.125.186-.187.248-.249-1.366-.683-2.733-1.553-4.099-2.174.062.31.124.559.186.869.062.249.186.56 0 .746-.186.124-.435.124-.559-.062-.186-.249-.249-.746-.373-.994-.124-.435-.373-.932-.248-1.367l-.062-.062c-.311-.559.372-.87.807-.559.249.124.497.31.683.373 3.231 1.242 6.336 2.857 9.38 4.473.684.497 4.038 1.304 3.293 2.422-.684.622-1.678.622-2.485.994-.808.435-1.615.684-2.423 1.056-.745.249-1.615.808-1.988 0zm.87-.931c.311-.125.621-.249.932-.373-.062 0-.187-.062-.249-.062l-.186.186c-.186.124-.373.124-.559.062 0 0 .062.062.062.187zm2.982-1.243c.124-.062.31-.124.435-.124.124-.062.31-.124.434-.124-.31-.125-.683-.187-.994-.373.125.124.187.373.125.621z" fill="#fff"/><path d="M134.802 119.651c-1.428-.497-2.795-1.739-3.354-3.168 0-.062-.124-.373.062-.373 1.367.746 2.795 1.926 3.292 3.541z" fill="#fff"/><path d="M133.436 119.341c-.808-.932-1.988-1.678-2.299-2.858 0-.062-.062-.186 0-.186h.063c1.366.435 2.484 1.491 3.292 2.671.186.373.31.808.373 1.18-.56-.248-1.056-.435-1.429-.807z" fill="#fff"/><path d="M135.486 120.77c-1.119-.249-1.864-1.181-2.547-2.051-.746-.869-1.74-1.739-1.74-2.919.994.621 1.864 1.491 2.672 2.36.683.746 1.366 1.616 1.615 2.61z" fill="#fff"/><path d="M135.672 119.776c-.932-.497-1.615-1.429-2.298-2.237-.373-.497-.932-1.242-.87-1.802 1.491.808 2.795 2.361 3.168 4.039z" fill="#fff"/><path d="M136.169 120.148c-.87-.497-1.429-1.304-2.05-1.988-.497-.559-1.18-1.366-1.056-2.112 1.305 1.056 2.92 2.299 3.106 4.1z" fill="#fff"/><path d="M137.163 124.683c-1.739-2.174-3.789-4.1-5.466-6.274-.622-.559-1.181-1.305-1.181-2.175 1.367.125 2.423 1.491 3.293 2.548 1.118 1.615 2.609 2.982 3.913 4.535.186-.187.311-.373.559-.497-1.739-2.113-3.913-3.976-5.342-6.337-.124-.311-.249-.621-.186-.932 1.304.808 2.236 1.926 3.292 3.044 1.118 1.118 2.236 2.361 3.292 3.541.87.746.559 1.367-.31 1.864-.622.559-.932 1.491-1.864.683z" fill="#fff"/><path d="M129.647 121.142v-.062c-.062 0-.125.062-.062 0 .124-1.304.869-2.485 1.615-3.603.186-.186.31-.435.621-.497.248 0 .559.311.435.559-.249.373-.435.746-.622 1.118-.496.994-1.118 1.926-1.987 2.485z" fill="#fff"/><path d="M128.466 121.701c-.931-2.547-1.739-5.156-2.608-7.765-.373-1.74-1.243-3.603-.87-5.405 1.429 1.367 1.304 3.79 2.05 5.591.062-.124.062-.248.124-.31.311.372.621.807.808 1.242.496 1.74 1.056 3.417 1.677 5.156.621.125.621.87.372 1.305-.124.683-1.118.932-1.553.186z" fill="#fff"/><path d="M129.212 122.509c-.994-.435-1.305-1.615-1.677-2.485-.56-1.429-.994-2.858-1.491-4.349-.621-1.739-1.056-3.479-1.553-5.218-.249-.994-.684-2.05-.249-3.106 1.429 2.174 1.491 4.97 2.485 7.33.435 1.367.87 2.734 1.367 4.101.434 1.242.993 2.422 1.118 3.727z" fill="#000"/><path d="M137.66 125.864c-.808-.187-1.18-.994-1.802-1.491-1.553-1.553-2.857-3.293-4.099-5.094-.435 1.118-.994 2.174-1.615 3.23-.311.559-1.056.373-1.243-.124-.373-.932-.745-1.802-1.056-2.734-.807-2.733-1.615-5.405-2.609-8.014-.31-1.366-1.242-2.92-.745-4.286.994.932 1.18 2.423 1.553 3.665 1.242 3.417 2.112 6.958 3.416 10.375.311-.621.684-1.243.932-1.926.249-.435.373-1.056.87-1.243.931-.186 1.242.932 1.677 1.429 1.242 1.988 2.857 3.604 4.472 5.281.746-.683 1.119-1.677 1.926-2.299-1.926-1.926-4.162-3.541-5.963-5.591-.559-1.677 2.236-.808 3.106-1.305.869-.559 1.987-.559 2.919-.931.124-.063.311-.063.435-.063s.248-.124.311-.124c.062.311-.063.497-.249.746-.31.683-1.118.869-1.739 1.056-1.056.373-2.112.994-3.23.745 1.242 1.305 2.609 2.423 3.851 3.728.559.683 2.423 1.615 1.304 2.547-.621.621-.931 1.429-1.615 1.988-.124.062-.372.497-.807.435zM135.424 128.224c-.062 0-.125-.062-.187-.062h-.124c-.062-.124.124-.186.186-.248.746-.497 1.678-.187 2.237.373-.621.186-1.429.186-2.112-.063z" fill="#000"/><path d="M135.113 127.79c.932-.373 2.112-.311 2.92.31-.932.311-2.05.311-2.92-.31z" fill="#000"/><path d="M136.914 128.349c-.559-.062-1.118-.187-1.615-.497.435-.249 1.056-.311 1.553-.373.621 0 1.243.248 1.74.621-.497.187-1.119.249-1.678.249z" fill="#000"/><path d="M136.542 128.162c-.497 0-.994-.248-1.367-.497.124-.124.373-.124.559-.186.746-.186 1.429 0 2.05.373-.373.248-.808.31-1.242.31z" fill="#000"/><path d="M98.6498 160.902c-.6833 0-1.3045-.062-1.9878-.124-1.3045-.125-2.5468-.249-3.8513-.311-6.2739.311-12.61-.062-18.8839-.559-1.1182.373-2.3605.124-3.5408.31-.559-.062-1.615.435-1.7393-.434.0621-.497.6833-.622.8697-.994-.6212-.435.0621-1.181.3727-1.554.4348-.683 1.3666-.621 1.3045.311h.3727c.1863-.186.4969-.124.7454-.124.9318.062 1.9257.124 2.8574.186 1.4909.124 3.0438.124 4.5968.249 5.3421.31 10.6843.186 16.0886.31 5.3425.062 10.6225-.435 15.9025-.31.621 0 1.366-.187 1.739.497.124.186.248.372.373.559.062.186.186.373.124.559.932.745.621 1.491-.559 1.429-1.677 0-3.354-.062-5.032-.062-3.106-.125-6.398.186-9.7522.062z" fill="#D6E3E2"/></g><defs><clipPath id="clip0"><path fill="#fff" transform="translate(1)" d="M0 0h183v186H0z"/></clipPath></defs></svg>