<svg width="560" height="640" viewBox="0 0 560 640" fill="none" xmlns="http://www.w3.org/2000/svg"><mask id="a" style="mask-type:alpha" maskUnits="userSpaceOnUse" x="0" y="0" width="560" height="640"><path fill="#C4C4C4" d="M0 0h560v640H0z"/></mask><g mask="url(#a)"><path d="M279.5 522.766c107.699 0 195-86.696 195-193.633 0-106.937-87.301-193.633-195-193.633s-195 86.696-195 193.633c0 106.937 87.301 193.633 195 193.633z" stroke="#FDBE54"/><path opacity=".4" d="M279.5 573.5c135.865 0 246-109.469 246-244.5S415.365 84.5 279.5 84.5 33.5 193.969 33.5 329s110.135 244.5 246 244.5z" stroke="#78BB25"/><g filter="url(#filter0_d)"><circle cx="280" cy="328" r="166" fill="#fff"/></g><path fill-rule="evenodd" clip-rule="evenodd" d="M401.225 438.803c-.789 1.109-1.571 2.228-2.354 3.348-5.114 7.319-10.271 14.698-17.851 19.688-3.145 2.369-6.61 4.185-10.154 5.863-.247.289-.501.605-.755.922l-.001.001-.001.001v.001c-.254.316-.508.632-.754.921-2.439 2.138-5.225 3.344-8.013 4.551-2.314 1.002-4.629 2.005-6.749 3.541-2.001 1.165-3.71 2.725-5.411 4.277-1.874 1.709-3.737 3.409-5.967 4.563-3.149 1.399-6.451 2.299-9.741 3.197h-.001c-3.376.921-6.74 1.839-9.915 3.288-5.632 2.634-12.357 3.651-18.645 4.602h-.001c-2.053.311-4.06.615-5.967.965-6.364 1.426-12.846 1.059-19.237-.108-11.504-.126-22.663-2.044-33.762-4.652l-9.093-2.33-3.897-.998-.433-.111c-16.318-4.298-32.574-9.286-46.754-18.326-12.538-7.796-23.781-17.495-33.244-28.736-7.421-9.307-13.011-19.908-17.975-30.702-11.029-19.988-17.939-42.096-20.176-64.886-.879-6.926-1.405-13.879-1.224-20.886.067-1.441.24-2.904.41-4.353.091-.771.181-1.538.254-2.295.562-9.848 2.075-19.806 4.454-29.541l.155-1.028c2.274-15.049 4.547-30.096 11.347-43.87 6.983-15.131 19.026-26.33 30.91-37.381l.001-.002.002-.001c.913-.849 1.825-1.697 2.734-2.546.09-.083.177-.155.261-.224.196-.163.371-.308.506-.52l.494-.579c4.934-4.849 10.672-8.786 16.491-12.586 7.405-5.038 15.101-9.415 23.037-13.377.057-.22.222-.413.387-.606.79-.385 1.594-.708 2.398-1.032.804-.323 1.607-.646 2.398-1.031.259-.11.484-.199.709-.289.224-.089.449-.178.708-.288 1.281-.624 2.544-1.176 3.876-1.758l.004-.002.002-.001c.31-.135.624-.272.943-.412.205-.124.437-.241.668-.358.232-.117.464-.234.669-.358l.325.083c6.241-2.75 12.591-5.473 19.28-6.816 4.241-.794 8.67-1.423 13.015-1.721.176-.013.333-.061.489-.109.157-.048.313-.096.49-.11l.108.028c.191-.069.401-.103.612-.137.211-.035.421-.069.612-.137.108.027.108.027.245-.055l2.527-.411c.143-.011.291-.04.447-.071.228-.045.474-.093.749-.093 0 0 .108.028.136-.082l.109.027c.054.014.115.001.176-.013.061-.014.122-.028.177-.014l.108.028.108.028 1.793-.246c.49-.11 1-.185 1.509-.26.51-.075 1.019-.151 1.509-.26.367-.083.7-.144 1.033-.206.333-.061.666-.123 1.033-.205.353-.027.686-.089 1.019-.151.333-.061.666-.123 1.019-.15h.001c.352-.027.705-.054.95-.109.475-.055.944-.082 1.412-.109.468-.027.937-.054 1.412-.108.706-.054 1.412-.109 2.09-.053.122-.027.238-.027.353-.027.115.001.231.001.353-.027h.001c1.058-.081 2.117-.162 3.148-.133.529-.041 1.052-.054 1.574-.067.523-.013 1.045-.027 1.575-.067 1.737-.025 3.445.06 5.154.145.461 0 .922.001 1.355.112.595.043 1.203.079 1.815.114 1.369.08 2.758.162 4.069.335l4.066.336c.109.028.251.035.393.042.143.007.285.015.393.042.163.042.305.049.448.056.142.007.284.014.447.056.162.041.331.055.501.069.169.015.339.029.501.07.217.056.433.111.678.056.216.056.44.084.664.111.223.028.447.056.663.112.495.086.979.156 1.46.225.915.132 1.816.261 2.739.498l.324.083.866.222.65.166 1.191.305 1.84.472c1.652.305 3.168.693 4.683 1.082.581.149 1.147.307 1.709.464h.001c1.112.311 2.209.618 3.378.839.758.194 1.515.388 2.302.472l2.273.583.649.166c.325.083.643.194.96.305.318.111.636.221.961.304l1.299.333c.433.111.866.222 1.327.223.162.041.305.048.447.056.142.007.285.014.447.055.108.028.251.035.393.042.143.007.285.014.393.042.217.056.325.083.57.028.23.001.454.029.677.057.224.027.448.055.678.056.838.332 1.756.802 2.565 1.244 9.489 3.489 18.859 7.888 27.947 13.39.405.222.803.471 1.2.719.398.249.796.498 1.2.719 8.124 4.315 15.691 9.898 22.52 16.114 7.205 6.548 13.317 13.757 19.101 21.351 1.374 1.744 2.73 3.558 4.04 5.392.966.397 1.793 1.368 2.571 2.282.388.456.764.898 1.14 1.247 8.645 9.033 13.655 20.544 17.823 32.191 1.402 3.534 2.178 7.259 2.954 10.985 3.152 10.211 5.786 20.643 6.98 31.294.064.885.229 2.43.439 4.398l.001.001c.956 8.952 2.848 26.656.448 30.86.283 4.421.487 8.849.053 13.298-.712 8.634-1.942 17.488-5.172 25.594-2.663 6.103-6.055 11.945-9.421 17.741-2.64 4.547-5.264 9.066-7.506 13.66-5.688 9.593-12.02 18.551-19.487 26.983zm36.87-106.586c-.335 1.208-.714 2.406-1.14 3.592-.045.399-.056.778-.066 1.157v.001c-.011.38-.022.759-.066 1.159-.114.441-.118.91-.123 1.379-.035.388-.026.75-.017 1.096.006.268.012.527-.002.78-.017.29-.006.586.004.883v.001c.011.296.021.592.005.882.012.179.016.386.021.593.005.207.009.414.021.593.019.828.01 1.648.002 2.469s-.017 1.642.002 2.469c-.016.662-.02 1.327-.024 1.993-.007 1.33-.015 2.66-.118 3.966-.195 2.375-.499 4.816-.795 7.184v.001l-.005.038-.096.776v.001c-.269 2.4-.538 4.799-1.131 7.116-.791 3.089-2.176 5.79-3.777 8.437-.108-.028-.136.082-.164.193-.067.261-.185.437-.326.649-.038.056-.077.114-.117.178l-.198.772-.085.331-.084.331-.057.22c-.136.083-.193.304-.249.524l-.029.11c-.046.183-.117.323-.181.449-.052.103-.099.197-.125.296-1.054 2.316-2.217 4.604-3.489 6.865l-.435.78-.001.001c-2.836 5.078-5.625 10.072-7.949 15.291l-1.088 2.896c-.125.262-.216.503-.306.744-.091.241-.182.483-.306.745-.165.193-.193.303-.25.524-.028.11-.084.213-.139.317-.055.103-.111.206-.139.317-.113.441-.334.854-.555 1.268-.015.055-.063.131-.111.207-.048.076-.097.151-.111.207-.136.082-.165.192-.193.303-.028.11-.076.186-.125.262-.048.075-.096.151-.124.262-.083.096-.145.227-.208.358-.062.131-.124.262-.207.358-1.757 3.126-4.043 6.017-6.263 8.824l-.014.017c-.183.232-.367.464-.549.696-1.529 1.976-3.232 3.755-4.912 5.51v.001h-.001c-.202.212-.404.423-.606.634-.201.211-.402.422-.601.633l-.001.001v.001h-.001l-.001.001-.001.001v.001h-.001v.001l-.001.001-.001.001v.001h-.001l-.001.001v.001h-.001v.001l-.001.001-.001.001-.001.001v.001h-.001l-.001.001v.001h-.001v.001l-.001.001c-2.216 2.363-4.433 4.726-6.461 7.255-.523.689-1.053 1.405-1.582 2.122-.53.717-1.059 1.433-1.582 2.122-1.761 2.37-3.602 4.603-5.739 6.641-.136.083-.253.2-.369.317-.117.117-.233.234-.37.317-.082.096-.192.186-.301.275-.11.09-.219.179-.302.276-.164.193-.466.468-.739.633-.082.097-.184.159-.287.221-.102.062-.205.123-.287.22-.067-.017-.103.018-.153.068-.032.03-.068.066-.12.097-.082.097-.185.158-.287.22-.103.062-.205.124-.287.221l-.137.082-.273.166c-.165.192-.301.275-.438.358-.051.031-.099.063-.145.096-.074.054-.142.11-.21.165-.109.09-.219.179-.355.262l-.029.11c-.114.069-.209.143-.3.217l-.055.045c-.11.089-.219.179-.356.261-.082.097-.184.159-.287.221-.102.062-.205.124-.287.22-.287.22-.566.413-.846.605l-.001.001-.001.001c-.28.192-.56.385-.847.605-.574.44-1.148.881-1.694 1.211-.355.262-.744.544-1.134.826-.39.282-.78.565-1.135.826l-.668.484v.001c-2.242 1.625-4.425 3.207-6.684 4.758 6.874-6.917 12.682-14.938 17.373-23.402 5.5-10.9 9.2-22.9 10.8-35 .8-8.8.6-17.7-.5-26.4-.5-7.3-2.2-14.4-4.1-21.4-1.9-7.6-3.8-15-7.5-22-.424-.848-.835-1.919-1.276-3.067-1.327-3.456-2.921-7.607-5.924-8.433-.3 0-.6.2-.8.5.086.014.154.041.207.078-.372-.058-.75-.078-1.108-.078-6.03 1.314-11.762 3.884-17.01 7.108-1.134.61-2.252 1.253-3.35 1.928-.015-.18-.029-.358-.039-.536-.1-5-1.5-9.8-3.7-14.3-2.7-5.3-5.9-10.3-9.4-15.1-.5-.6-1.1-1.1-1.9-1.4-.4-.4-.7-.7-1.2-.9-.832-.333-1.663.233-2.379.721h-.001c-.145.099-.286.195-.42.279-4.164 2.464-16.557 14.168-19.024 21.19-.771-.951-1.563-1.914-2.377-2.89-3.797-5.038-8.076-9.715-12.323-14.358-1.232-1.348-2.462-2.692-3.677-4.042-3.2-3.7-6.7-7-10.6-9.9-.036-.029-.073-.059-.109-.089-.017-.013-.033-.026-.049-.039-.029-.024-.057-.047-.086-.071-.671-.834-1.535-1.554-2.362-2.243-.307-.255-.609-.507-.893-.758-.888-.565-2.167-1.065-3.047-.501-1.593.033-3.186 1.289-4.354 2.301-.75.6-1.501 1.276-2.101 2.051-3.304 2.614-6.315 5.53-9.099 8.749-1.215 1.35-2.444 2.694-3.677 4.042-4.247 4.643-8.525 9.32-12.323 14.358-.813.976-1.605 1.938-2.377 2.89-2.467-7.022-14.86-18.726-19.023-21.19-.135-.084-.276-.18-.421-.279-.716-.488-1.548-1.054-2.379-.721-.5.2-.8.5-1.2.9-.8.3-1.4.8-1.9 1.4-3.5 4.8-6.7 9.8-9.4 15.1-2.2 4.5-3.6 9.3-3.7 14.3-.011.197-.027.395-.045.594-.862-.531-1.736-1.044-2.622-1.536-5.442-3.434-11.424-6.183-17.732-7.558-.399 0-.823.025-1.235.099.056-.047.132-.082.235-.099-.2-.3-.5-.5-.8-.5-3.003.826-4.597 4.977-5.924 8.433-.441 1.148-.853 2.219-1.276 3.067-3.7 7-5.6 14.4-7.5 22-1.9 7-3.6 14.1-4.1 21.4-1.1 8.7-1.3 17.6-.5 26.4 1.6 12.1 5.3 24.1 10.8 35 9.2 16.6 22.7 31.5 40.1 39.7.624.324 1.248.65 1.874.977l.022.011c2.433 1.269 4.879 2.545 7.348 3.774-.522-.118-1.039-.242-1.546-.372-4.25-.971-8.335-2.135-12.359-3.989-1.609-.717-3.166-1.514-4.709-2.305-1.438-.737-2.863-1.467-4.309-2.121-.08-.138-.188-.166-.296-.194-.365-.152-.757-.311-1.149-.47-.392-.159-.783-.318-1.148-.471-.202-.11-.385-.186-.567-.263-.183-.076-.365-.152-.567-.262-.109-.028-.21-.083-.311-.139-.101-.055-.202-.11-.311-.138-.31-.138-.593-.27-.877-.401-.283-.132-.567-.263-.878-.401-1.134-.526-2.24-1.162-3.346-1.798-2.401-1.438-4.693-2.848-7.065-4.396-3.261-2.129-6.494-4.368-9.398-6.992-.018-.032-.038-.058-.064-.092-.087-.114-.246-.32-.656-1.151-.296-.193-.484-.359-.672-.525h-.001c.029-.11-.08-.138-.08-.138l-.108-.028c-.094-.083-.161-.159-.228-.235-.067-.075-.134-.151-.228-.234 0 0-.08-.138-.189-.166-.376-.332-.719-.684-1.061-1.036-.342-.352-.685-.705-1.061-1.036.028-.11-.08-.138-.08-.138-.134-.152-.248-.269-.362-.387-.115-.117-.229-.235-.363-.387-.134-.151-.275-.276-.416-.4-.141-.124-.283-.249-.417-.401-.094-.083-.208-.2-.322-.317-.114-.118-.228-.235-.322-.318-2.525-2.624-5.049-5.249-7.413-8.06-1.018-1.52-2.215-2.964-3.476-4.37-1.015-1.251-2.045-2.499-3.079-3.752-5.221-6.325-10.526-12.752-14.233-20.079-5.821-10.51-9.867-22.005-13.887-33.428l-.359-1.021c-.711-2.181-1.516-4.327-2.322-6.473v-.001c-.357-.95-.714-1.9-1.062-2.853-.012-.085-.029-.168-.047-.251-.08-.138-.08-.138-.051-.248l-.071-1.076c-.052-.248-.075-.607-.098-.966 0 0-.08-.138-.052-.248-.026-.124-.025-.241-.024-.359.002-.117.003-.234-.023-.358-.012-.18-.031-.331-.049-.483-.019-.152-.038-.304-.05-.483l.028-.11c-.072-.842-.172-1.69-.272-2.539-.1-.848-.2-1.697-.273-2.538-.009-.045-.015-.09-.02-.126-.006-.049-.011-.084-.02-.085-.02-.003-.064.168-.208.73v.002h-.001v.003c-.04-.069-.053-.132-.066-.194-.013-.062-.026-.124-.066-.193-.04-.069-.053-.131-.066-.193-.013-.062-.026-.124-.066-.193-.211-.525-.343-.911-.447-1.408-.211-.524-.343-.911-.446-1.407-.026-.125-.059-.221-.092-.318-.033-.096-.066-.193-.092-.317-.04-.069-.053-.131-.066-.193-.013-.063-.026-.125-.066-.194-.025-.124-.058-.22-.091-.317-.033-.097-.066-.193-.092-.317-.066-.194-.112-.352-.158-.511-.046-.159-.091-.317-.157-.511.014-.055-.006-.089-.026-.124-.02-.034-.04-.069-.026-.124-.122-.211-.165-.47-.201-.691-.011-.069-.022-.133-.034-.192-.066-.193-.105-.38-.144-.566-.038-.186-.077-.372-.143-.566-.012-.179-.051-.365-.089-.551-.039-.187-.078-.373-.09-.552-.672-3.229-1.208-6.54-1.664-9.714-.038-.303-.068-.634-.099-.965-.03-.331-.061-.663-.099-.966-.103-.497-.126-.855-.122-1.324-.023-.359-.027-.683-.03-1.007-.004-.325-.007-.649-.031-1.007.029-.111.023-.2.017-.29-.006-.09-.012-.179.017-.29l.028-.11c.028-.11.029-.228.03-.345.002-.117.003-.234.031-.345.028-.11.03-.227.031-.344.001-.118.002-.235.03-.345l.057-.221c.014-.055.008-.145.002-.234-.006-.09-.011-.18.003-.235.016-.29.04-.607.063-.924.024-.317.048-.634.064-.924.25-3.228.227-6.29.124-9.49-.131-3.09-.262-6.18-.149-9.325.099-2.722.299-5.505.495-8.225.03-.423.061-.845.091-1.265.443-6.234.915-12.579 2.578-18.618.252-.759.496-1.489.741-2.22.245-.731.49-1.462.742-2.22.031-.345.081-.655.132-.965.051-.311.101-.621.132-.966.085-.331.135-.641.186-.951.051-.311.101-.621.186-.952.102-.621.23-1.234.358-1.848.129-.614.257-1.227.358-1.848.226-.882.453-1.765.57-2.675.071-.276.122-.586.172-.897.051-.31.102-.62.172-.896.118-.91.344-1.793.57-2.675l.424-1.655.141-.551.142-.552c.113-.441.253-.876.393-1.31.14-.434.28-.869.393-1.31.801-1.323 1.413-2.812 1.917-4.329 2.444-5.486 5.589-10.558 9.03-15.437 2.152-3.446 4.572-6.587 7.072-9.591 2.606-2.975 5.293-5.811 7.98-8.648v-.001h.001v-.001h.001v-.001h.001v-.001h.001c.932-.937 2.001-1.956 3.069-2.976 2.524-2.645 5.047-5.29 7.542-7.825.466-.468.925-.909 1.384-1.35.459-.44.918-.881 1.384-1.35 10.456-8.841 21.876-16.496 33.856-23.184 7.508-4.542 15.445-8.504 23.565-11.831.965-1.516 2.306-2.701 3.916-3.581 2.293-1.294 4.656-1.511 7.094-1.122l1.082.277.217.056c.381-.138.782-.241 1.184-.343.401-.103.802-.206 1.183-.344 7.621-2.279 15.416-2.986 23.262-3.445 5.46-.599 10.949-1.309 16.437-2.019 2.278.113 4.528.337 6.749.671 5.258.641 10.317 2.055 15.457 3.607-.405-.221-.946-.36-1.379-.471l1.191.305.216.055c2.083.652 4.172 1.275 6.262 1.899 2.09.623 4.18 1.247 6.262 1.898l.109.027 4.137 1.413c-.365-.152-.737-.277-1.109-.401-.372-.125-.743-.25-1.108-.402l.818.285c3.526 1.23 6.974 2.433 10.539 3.565l.108.028c3.299 1.08 6.627 2.05 9.983 2.91 4.763 1.22 9.385 2.992 13.978 4.874 4.485 1.854 8.806 3.902 12.905 6.362 2.885 1.797 5.742 3.705 8.434 5.805 2.207 1.741 4.358 3.703 6.4 5.637 2.351 2.176 4.549 4.387 6.768 6.618l.008.008c.595.598 1.192 1.198 1.794 1.799.779.788 1.577 1.61 2.376 2.431.799.822 1.598 1.644 2.377 2.431.174.221.382.422.59.622.209.2.417.4.591.621.174.221.382.422.591.622.208.2.416.4.59.621.611.588 1.207 1.235 1.768 1.844.203.221.402.436.594.642-.028.111.08.138.08.138.04.069.088.111.135.152.047.042.094.083.134.152 2.334 2.597 4.64 5.303 6.917 8.12 1.473 1.905 2.916 3.92 4.36 5.935h.001v.001l.001.002c.977.424 1.885 1.005 2.68 1.7.174.368.348.741.521 1.117 1.001 2.223 2.015 4.432 3.026 6.635l.004.008.002.005c4.187 9.122 8.34 18.168 11.431 27.857 5.701 15.567 9.44 32.042 11.169 48.708.083.748.178 1.499.273 2.252l.001.002V324.526c.304 2.409.611 4.835.525 7.228-.006.154-.011.309-.014.463zM280.1 292.5c-.078-.092-.156-.186-.231-.281-.658.372-1.275.837-1.894 1.303-.774.583-1.549 1.167-2.408 1.574-.194.22-.411.425-.667.604-1.26 1.217-2.528 2.427-3.794 3.637-7.374 7.043-14.732 14.07-20.706 22.263-4.2 5.7-8 11.6-11 18-8.1 14.2-12.8 29.9-15.4 45.9-1.1 10.7-1.2 21.5.1 32.1.031.269.061.539.091.81l.071.642c.438 3.986.902 8.195 2.238 11.848 2.4 7.7 5 15.4 8.2 22.9 1.548 3.297 3.412 6.187 5.289 9.095.913 1.414 1.828 2.833 2.711 4.305 3.5 5.6 7.9 10.9 12.7 15.4 1.365 1.285 2.811 2.489 4.253 3.69.363.303.726.605 1.088.909-.142-.237-.288-.47-.44-.699-3.4-5.7-6-11.9-8.4-18-5.9-13.3-9.1-26.6-8.1-41.2.6-15.1 4-30.2 11-43.6.57-1.211 1.124-2.432 1.678-3.653 2.557-5.632 5.112-11.262 9.222-15.947 2.6-3.3 5.4-6.5 8.3-9.5 1.2-1.6 2.9-2.8 4.7-3.7.642-.229 1.263.046 1.661.518.143.003.29.029.438.082 1.8.9 3.5 2.1 4.7 3.7 2.9 3 5.7 6.2 8.3 9.5 4.109 4.685 6.665 10.315 9.222 15.948.554 1.22 1.108 2.441 1.678 3.652 7 13.4 10.4 28.5 11 43.6 1 14.6-2.2 27.9-8.1 41.2-2.39 6.074-4.978 12.247-8.356 17.927l.403-.337h.001c1.442-1.201 2.887-2.405 4.252-3.69 4.8-4.5 9.2-9.8 12.7-15.4.88-1.466 1.791-2.878 2.7-4.286v-.001l.001-.001.001-.001v-.002l.001-.001.001-.001.001-.002.001-.001.001-.001v-.001l.001-.002.001-.001.001-.001.001-.002v-.001h.001c1.876-2.909 3.741-5.798 5.288-9.095 3.2-7.5 5.8-15.2 8.2-22.9 1.337-3.653 1.8-7.862 2.239-11.848l.068-.623c.031-.278.062-.554.093-.829 1.3-10.6 1.2-21.4.1-32.1-2.6-16-7.3-31.7-15.4-45.9-3-6.4-6.8-12.3-11-18-5.918-8.235-13.309-15.292-20.656-22.308-1.218-1.164-2.435-2.326-3.644-3.492-.336-.235-.604-.516-.843-.815-.117-.081-.234-.161-.351-.241-1.161-.797-2.33-1.599-3.306-2.644zm68.901 38.5c.081 1.468.096 3.003.099 4.495-.607.426-1.207.861-1.8 1.305-.699.52-1.404 1.033-2.11 1.547-3.234 2.353-6.481 4.716-9.19 7.753-.448.506-.949 1.017-1.46 1.537-.911.928-1.854 1.888-2.588 2.92-3.519-7.967-7.906-14.966-13.551-22.383.169-1.344.557-2.66 1.2-3.874 1.8-3.9 4-7.5 6.5-10.9 3-3 6-5.7 9.5-8 .801 1.079 1.65 2.13 2.5 3.181 1.907 2.359 3.816 4.721 5.2 7.419.477 1.138.971 2.26 1.462 3.377l.001.003.001.001c1.667 3.792 3.309 7.527 4.236 11.619zm-16.143 153.906c2.501-1.229 4.978-2.513 7.44-3.797-2.397 1.444-4.89 2.712-7.44 3.797zm-30.606 7.656c.138-.116.275-.229.411-.336.444.125.9.216 1.364.28l-.083.019-.244.055-.245.055-.245.054-.217-.055-.244.055-.217-.056-.216-.055-.064-.016zM323.2 467.6c-4.207 7.506-9.298 14.945-15.779 20.8.479.012.958.032 1.438.051 1.106.045 2.215.091 3.342.049 3.685-.314 7.124-1.734 10.558-3.152.946-.39 1.892-.781 2.842-1.148 11.6-4.4 22.2-11 31.9-18.8 13.7-11.8 23.1-28.1 28.3-45.4 4-11.4 5.3-23.6 4.8-35.7-1.2-11.9-4.7-23.5-8.4-34.9-.6-1.6-1.275-3.15-1.95-4.7-.675-1.55-1.35-3.1-1.95-4.7-.515-1.373-.957-2.746-1.395-4.112-.584-1.816-1.163-3.618-1.905-5.388-.389-.691-.647-1.345-.823-2.002-1.145.963-2.574 1.324-4.008 1.685-.805.203-1.611.407-2.369.717-2.538.951-4.907 2.322-7.287 3.698-2.121 1.228-4.251 2.459-6.513 3.402-3.519 2.011-7.078 4.18-10.279 6.755-1.388 1.374-2.68 2.859-3.972 4.345-1.185 1.363-2.371 2.727-3.63 4.004l-.02.032c-.603.978-1.205 1.954-1.95 2.829 1.559 4.179 2.926 8.668 4.15 13.635 5.5 23.3 4.7 38.3-1.4 61.3-3.1 12.8-6.7 25.5-13.7 36.7zm-43.731-113.114c4.005 4.207 7.224 9.044 10.47 13.922l.333.5.328.492c7.4 9.8 12.3 21.3 15.6 33.1 2.2 8.2 3.9 16.6 5 25.1 0 9.4-.8 19-3.5 28.1-1.27 4.109-2.986 8.106-4.691 12.075-.577 1.344-1.152 2.684-1.709 4.025-.294.68-.585 1.364-.877 2.051-1.598 3.759-3.225 7.582-5.423 11.049-.464.736-.905 1.495-1.346 2.254-.877 1.507-1.754 3.015-2.807 4.348-.78.016-1.558.021-2.332.009l-5.125-.255c-.188.014-.398-.01-.623-.036-.198-.024-.408-.048-.625-.048-1.219-.195-2.574-.307-3.821-.392-.098-.025-.223-.033-.36-.042-.169-.011-.356-.024-.535-.069-.162-.042-.332-.056-.501-.07-.169-.014-.339-.028-.501-.07-.946-.125-1.885-.278-2.824-.431h-.008l-.003-.001c-.94-.152-1.88-.305-2.827-.43-1.056-.099-2.116-.178-3.177-.252-.61-.923-1.174-1.892-1.738-2.861l-.001-.001c-.441-.759-.882-1.517-1.345-2.253-2.198-3.466-3.825-7.29-5.423-11.049-.292-.686-.584-1.371-.877-2.051-.557-1.341-1.132-2.681-1.709-4.025h-.001v-.001c-1.704-3.969-3.42-7.965-4.69-12.074-2.7-9.1-3.5-18.7-3.5-28.1 1.1-8.5 2.8-16.9 5-25.1 3.3-11.8 8.2-23.3 15.6-33.1.219-.328.437-.657.656-.985l.004-.007c3.093-4.647 6.162-9.258 9.908-13.322zm-69.068-19.421c.573.404 1.139.815 1.699 1.235.699.52 1.405 1.033 2.111 1.547 3.233 2.353 6.481 4.716 9.189 7.753.413.447.861.897 1.317 1.355.997 1.001 2.03 2.039 2.806 3.16 3.523-7.991 7.918-15.006 13.577-22.441-.17-1.345-.557-2.66-1.2-3.874-1.8-3.9-4-7.5-6.5-10.9-3-3-6-5.7-9.5-8-.801 1.079-1.651 2.13-2.5 3.181-1.907 2.359-3.817 4.721-5.2 7.419-.478 1.139-.972 2.263-1.464 3.381-1.667 3.792-3.309 7.527-4.236 11.619-.083 1.491-.097 3.051-.099 4.565zm26.342 149.783h-.002v-.001h-.002v-.001h-.002v-.001h-.002v-.001h-.001c-.943-.389-1.886-.778-2.833-1.144-11.6-4.4-22.2-11-31.9-18.8-13.7-11.8-23.1-28.1-28.3-45.4-4-11.4-5.3-23.6-4.8-35.7 1.1-11.9 4.7-23.5 8.3-34.9.6-1.6 1.275-3.15 1.95-4.7.675-1.55 1.35-3.1 1.95-4.7.515-1.373.956-2.746 1.395-4.112.583-1.816 1.163-3.618 1.905-5.388.418-.744.686-1.445.862-2.154 1.155 1.002 2.609 1.369 4.068 1.737h.001v.001h.002c.804.203 1.609.406 2.367.716 2.537.951 4.907 2.322 7.286 3.698 2.122 1.228 4.251 2.459 6.514 3.402 3.313 1.893 6.66 3.926 9.712 6.306 1.606 1.522 3.072 3.208 4.538 4.894v.001c1.237 1.422 2.474 2.844 3.795 4.169.562.91 1.133 1.811 1.831 2.625-1.57 4.198-2.946 8.71-4.177 13.705-5.5 23.3-4.7 38.3 1.4 61.3 3.1 12.8 6.7 25.5 13.7 36.7 4.144 7.394 9.146 14.721 15.489 20.535-.034-.005-.069-.008-.105-.011-.039-.003-.079-.006-.12-.008l-.06-.003c-.142-.007-.285-.014-.393-.042-.231 0-.454-.028-.678-.056-.223-.028-.447-.056-.678-.056-.108-.028-.25-.035-.393-.042-.142-.007-.284-.014-.393-.042-.433-.111-1.002-.139-1.463-.14-1.493-.029-2.956-.169-4.42-.309-.373-.01-.728-.032-1.077-.061-1.776-.576-3.519-1.295-5.261-2.015h-.002v-.001h-.003v-.001zM214.59 176.687c.654-.302 1.309-.605 1.855-.935-1.116.302-2.151.742-3.187 1.182.49-.11.979-.22 1.332-.247zm-58.137 41.415c1.29-1.433 2.552-2.755 3.95-4.16-.948.775-1.798 1.637-2.661 2.512-.333.337-.668.677-1.011 1.014-.412.482-.831.992-1.25 1.502-.419.51-.838 1.02-1.25 1.502.659-.772 1.455-1.626 2.222-2.37z" fill="url(#paint0_linear)"/></g><defs><linearGradient id="paint0_linear" x1="277.073" y1="162.01" x2="280.75" y2="495.99" gradientUnits="userSpaceOnUse"><stop stop-color="#FDCE54"/><stop offset="1" stop-color="#E64D2C"/></linearGradient><filter id="filter0_d" x="84" y="132" width="392" height="392" filterUnits="userSpaceOnUse" color-interpolation-filters="sRGB"><feFlood flood-opacity="0" result="BackgroundImageFix"/><feColorMatrix in="SourceAlpha" values="0 0 0 0 0 0 0 0 0 0 0 0 0 0 0 0 0 0 127 0" result="hardAlpha"/><feOffset/><feGaussianBlur stdDeviation="15"/><feComposite in2="hardAlpha" operator="out"/><feColorMatrix values="0 0 0 0 0 0 0 0 0 0 0 0 0 0 0 0 0 0 0.16 0"/><feBlend in2="BackgroundImageFix" result="effect1_dropShadow"/><feBlend in="SourceGraphic" in2="effect1_dropShadow" result="shape"/></filter></defs></svg>