<svg width="560" height="640" viewBox="0 0 560 640" fill="none" xmlns="http://www.w3.org/2000/svg"><mask id="a" style="mask-type:alpha" maskUnits="userSpaceOnUse" x="0" y="0" width="560" height="640"><path fill="#C4C4C4" d="M0 0h560v640H0z"/></mask><g mask="url(#a)"><path d="M279.5 522.766c107.699 0 195-86.696 195-193.633 0-106.937-87.301-193.633-195-193.633s-195 86.696-195 193.633c0 106.937 87.301 193.633 195 193.633z" stroke="#78BB25"/><path opacity=".4" d="M279.5 573.5c135.865 0 246-109.469 246-244.5S415.365 84.5 279.5 84.5 33.5 193.969 33.5 329s110.135 244.5 246 244.5z" stroke="#FDBE54"/><g filter="url(#filter0_d)"><circle cx="280" cy="328" r="166" fill="#fff"/></g><path fill-rule="evenodd" clip-rule="evenodd" d="M205.443 474.83c-1.275-.476-2.559-.942-3.844-1.408-8.392-3.045-16.855-6.116-23.637-12.147-3.102-2.425-5.753-5.301-8.291-8.291-.343-.163-.714-.326-1.085-.489l-.003-.002c-.372-.163-.743-.327-1.087-.491-2.696-1.802-4.582-4.181-6.47-6.561-1.566-1.976-3.134-3.953-5.166-5.603-1.644-1.631-3.593-2.878-5.532-4.12-2.136-1.367-4.261-2.727-5.952-4.583-2.166-2.679-3.891-5.635-5.61-8.582-1.763-3.022-3.52-6.035-5.742-8.726-4.001-4.758-6.724-10.991-9.271-16.819-.832-1.903-1.644-3.763-2.477-5.515-3.024-5.778-4.347-12.133-4.874-18.609-2.856-11.144-3.891-22.42-4.244-33.815l-.104-9.387-.044-4.022-.005-.447c-.072-16.874.538-33.868 5.601-49.905 4.285-14.128 10.744-27.498 19.152-39.548 7.069-9.577 15.863-17.72 25.004-25.308 16.453-15.827 36.018-28.224 57.454-36.283 6.462-2.641 13.042-4.949 19.857-6.588 1.409-.308 2.867-.52 4.311-.731.768-.112 1.532-.223 2.282-.348 9.658-2.006 19.668-3.122 29.687-3.344l1.034-.116c15.124-1.699 30.246-3.397 45.311-.394 16.423 2.828 30.357 11.562 44.108 20.182 1.058.662 2.114 1.325 3.171 1.983.102.066.195.132.283.194.208.148.393.279.634.355l.687.328c5.96 3.51 11.249 8.034 16.425 12.671 6.783 5.848 13.002 12.15 18.883 18.79.228-.002.457.107.686.216.577.664 1.096 1.356 1.616 2.049l.001.001c.52.693 1.04 1.385 1.617 2.049.173.222.318.416.462.61.145.194.289.388.462.61.935 1.075 1.794 2.152 2.7 3.287l.001.001v.001l.321.401c.108.135.216.271.326.408.173.165.346.359.519.553.173.193.346.387.518.553l.004.335c4.272 5.317 8.546 10.746 11.574 16.859 1.865 3.891 3.619 8.007 5.031 12.126.058.167.145.306.232.445.087.138.174.277.233.444l.001.112c.116.166.203.361.291.555.088.195.175.39.291.556.001.112.001.112.116.222l1.051 2.336c.047.135.114.27.184.412.102.21.213.435.284.7 0 0 .001.112.115.11l.001.112c.001.056.03.112.059.167.029.056.058.111.058.167l.002.112.001.112.702 1.668c.232.445.437.917.641 1.39.205.473.409.946.642 1.39.174.333.32.639.466.945.146.306.291.611.466.945.117.334.263.639.409.945.146.306.291.611.409.945.117.334.235.668.351.891.176.445.323.89.47 1.335.148.446.295.891.471 1.336v.001c.235.668.47 1.335.591 2.004.058.112.088.223.118.334.03.112.059.223.117.334l.001.002c.352 1.001.705 2.003.944 3.005.176.501.324 1.003.472 1.504.148.501.295 1.002.472 1.503.474 1.671.834 3.343 1.194 5.015v.002c.119.445.237.891.242 1.338.112.585.235 1.181.359 1.782.277 1.343.558 2.706.73 4.017l.728 4.015c.001.112.031.251.061.39.03.14.06.279.061.391.002.168.032.307.062.446.03.14.06.279.062.447.002.167.032.334.062.502.031.167.061.334.063.502.002.224.005.447.121.669.002.224.033.447.064.67.031.223.062.446.065.67.044.5.102.986.16 1.468v.001c.11.918.217 1.821.228 2.773l.004.335.01.894.007.671.013 1.229.021 1.9c.133 1.674.15 3.239.167 4.803.007.6 0 1.188-.006 1.772-.012 1.154-.025 2.293.064 3.48.009.782.017 1.564.14 2.345l.025 2.347.008.67c.004.336-.021.671-.046 1.007-.025.335-.05.671-.046 1.006l.015 1.341c.005.447.01.894.129 1.34.001.167.031.307.061.446s.06.279.062.446c.001.112.031.251.061.391.03.139.06.278.062.39.002.224.003.335.12.558.059.223.09.446.121.669.031.223.062.446.121.669-.104.895-.32 1.903-.538 2.8-.914 10.068-2.738 20.258-5.701 30.46-.109.448-.246.897-.384 1.345v.001c-.137.449-.275.897-.383 1.344-2.066 8.964-5.5 17.718-9.737 25.923-4.46 8.654-9.841 16.425-15.68 23.976-1.328 1.779-2.729 3.559-4.163 5.299-.133 1.036-.857 2.086-1.538 3.073-.34.493-.67.971-.909 1.424-6.488 10.688-16.31 18.507-26.482 25.548-3.05 2.269-6.447 3.982-9.845 5.696-9.048 5.687-18.443 10.932-28.422 14.841-.838.291-2.287.85-4.133 1.563h-.001c-8.398 3.241-25.01 9.651-29.693 8.421-4.197 1.418-8.422 2.76-12.831 3.493-8.525 1.547-17.395 2.651-26.062 1.628-6.584-.992-13.105-2.756-19.574-4.507l-.001-.001c-5.075-1.373-10.119-2.738-15.136-3.715-10.738-3.01-21.03-6.809-31.107-11.838zm112.495 8.026c-1.253-.01-2.508-.066-3.763-.171-.398.06-.767.148-1.136.236-.369.088-.739.176-1.136.236-.456.005-.91.122-1.364.238-.384.067-.732.17-1.063.267h-.001c-.257.076-.505.149-.753.2-.284.059-.568.146-.851.233h-.001c-.284.087-.567.174-.852.233-.17.058-.368.116-.567.174-.199.058-.397.116-.568.174-.794.232-1.589.436-2.384.641-.795.204-1.59.408-2.385.641-.643.156-1.287.324-1.931.493-1.286.337-2.573.674-3.861.912-2.344.426-4.78.764-7.144 1.092h-.001c-.272.037-.544.075-.814.113-2.388.361-4.775.723-7.166.749-3.189.035-6.157-.603-9.127-1.464-.001-.112-.115-.11-.229-.109-.27.003-.47-.065-.712-.147l-.002-.001c-.063-.021-.129-.043-.2-.066l-.797.009-.341.004-.342.004-.228.002c-.115-.11-.342-.108-.57-.105l-.114.001c-.188.002-.342-.03-.48-.059-.113-.024-.216-.045-.318-.044-2.51-.419-5.022-.951-7.534-1.593l-.867-.219c-5.639-1.425-11.185-2.827-16.829-3.722l-3.078-.301c-.285-.053-.542-.078-.798-.103-.257-.025-.513-.05-.799-.103-.229-.109-.342-.108-.57-.105-.114.001-.228-.026-.342-.052l-.001-.001c-.114-.026-.228-.053-.342-.052-.455.005-.912-.101-1.368-.208-.057.001-.143-.026-.229-.053-.086-.027-.171-.054-.228-.054-.115-.11-.229-.109-.343-.108-.114.002-.2-.025-.285-.052-.086-.027-.172-.054-.286-.053-.114-.055-.257-.081-.399-.107-.143-.027-.286-.053-.4-.108-3.474-.889-6.858-2.348-10.144-3.766h-.001c-.278-.121-.556-.24-.833-.36-2.305-.965-4.465-2.149-6.595-3.318-.514-.282-1.025-.562-1.537-.839h-.001c-2.864-1.533-5.727-3.066-8.702-4.374-.801-.327-1.63-.653-2.459-.979h-.001l-.006-.002c-.827-.326-1.654-.651-2.453-.977-2.745-1.087-5.378-2.287-7.9-3.824-.115-.111-.258-.193-.402-.275-.143-.082-.286-.165-.401-.275-.115-.055-.229-.137-.344-.219v-.001h-.001c-.114-.082-.229-.165-.343-.219-.229-.11-.573-.329-.804-.55-.114-.055-.2-.138-.287-.221-.086-.083-.172-.165-.287-.22-.001-.069-.044-.095-.105-.131-.037-.022-.081-.048-.125-.09-.115-.055-.201-.138-.287-.22-.087-.083-.173-.166-.287-.221l-.116-.11-.23-.221c-.229-.109-.344-.22-.459-.33-.115-.111-.23-.193-.345-.276-.114-.083-.229-.165-.344-.276l-.114.002c-.115-.111-.23-.193-.345-.276-.115-.083-.229-.165-.345-.276-.114-.054-.2-.137-.287-.22-.086-.083-.172-.166-.287-.22-.287-.221-.545-.441-.804-.662-.259-.221-.518-.441-.805-.662-.574-.44-1.148-.881-1.609-1.323-.344-.276-.718-.579-1.091-.882-.374-.303-.747-.606-1.092-.882l-.641-.52c-2.758-2.239-5.425-4.403-8.094-6.76-.46-.385-.919-.799-1.379-1.212l-.001-.002c-.46-.414-.92-.828-1.38-1.214-.574-.441-1.035-.883-1.495-1.324-.002-.112-.115-.111-.115-.111-.46-.441-.92-.855-1.38-1.269l-.001-.001-.001-.001c-.46-.414-.92-.827-1.38-1.269l-.69-.663-.691-.663-4.823-3.635-.115-.11c-.115-.111-.259-.221-.402-.331-.144-.11-.287-.22-.402-.331-.229-.109-.345-.219-.46-.33-.229-.109-.344-.22-.459-.33-.229-.165-.431-.331-.632-.496-.201-.166-.402-.331-.631-.496-5.168-3.855-9.662-8.611-13.249-13.824-2.315-3.327-4.405-6.992-5.814-10.887-.001-.056-.03-.084-.059-.112-.028-.027-.057-.055-.058-.111l-.349-.666-.231-.333-.232-.333-.231-.333-.231-.332-.232-.333-.231-.333-.232-.332-.231-.333-.232-.333-.231-.333-.232-.332-.117-.334-.118-.334-.116-.222-.116-.223-.117-.222-.116-.222-.116-.222-.117-.223-.116-.222-.116-.222-.117-.222-.116-.223-.116-.222-.117-.222-.116-.222-.116-.222-.117-.223-.116-.222-.116-.222-.117-.222-.116-.223-.116-.222-.117-.222-.116-.222-.116-.222-.117-.223-.116-.222-.116-.222-.117-.222-.116-.223-.116-.222-.117-.222-.116-.222-.116-.223-.117-.222-.116-.222-.002-.223-.117-.223-.002-.223-.003-.224-.002-.223-.003-.224-.002-.223-.002-.224-.003-.223-.002-.224-.003-.223-.002-.224-.003-.223-.002-.224-.003-.223-.002-.223-.003-.224-.002-.223-.002-.224-.003-.223-.002-.224-.003-.223-.002-.224-.003-.223-.001-.112-.001-.112-.001-.112-.002-.111-.001-.112-.001-.112-.001-.112-.002-.111c-.121-.669-.355-1.226-.589-1.782-.002-.223-.12-.557-.236-.78-.59-1.893-1.181-3.786-1.657-5.681l-1.08-5.017c-.063-.177-.093-.387-.126-.611-.029-.197-.06-.407-.115-.616-.128-1.227-.37-2.566-.612-3.792-.001-.101-.025-.224-.052-.359-.033-.165-.069-.35-.071-.534-.002-.168-.032-.335-.063-.502-.03-.168-.06-.335-.062-.503-.125-.948-.22-1.897-.316-2.846-.096-.949-.192-1.898-.316-2.846-.244-1.428-.524-2.855-.804-4.283-.42-2.141-.839-4.282-1.136-6.424-.002-.168-.033-.335-.063-.502-.03-.168-.06-.335-.062-.503-.002-.167-.032-.335-.063-.502-.03-.167-.06-.334-.062-.502l-.375-3.013-.004-.336c-.002-.223-.033-.446-.064-.669-.031-.224-.062-.447-.064-.67-.06-.223-.091-.446-.122-.669-.031-.224-.062-.447-.121-.67-.001-.111-.031-.251-.061-.39s-.06-.279-.061-.39c-.06-.223-.091-.447-.122-.67-.031-.223-.061-.446-.121-.669-.001-.112-.031-.251-.061-.39-.03-.14-.06-.279-.061-.391-.005-.447-.125-1.004-.244-1.45-.358-1.449-.601-2.899-.845-4.349-.239-1.003-.363-1.896-.488-2.9-.061-.391-.122-.809-.184-1.228-.062-.418-.123-.836-.184-1.227-.123-.781-.245-1.562-.369-2.454-.002-.224-.033-.419-.064-.614-.03-.196-.061-.391-.063-.614l-.003-.224-.002-.223-.006-.559-.004-.335-.004-.335-.004-.336-.006-.558-.001-.112-.009-.782-.001-.112-.008-.782c-.135-1.899-.271-3.909-.292-5.808-.162-4.357-.095-8.604.654-12.971.276-1.739.644-3.45 1.008-5.145.34-1.579.676-3.145.934-4.711.112-.113.111-.225.11-.336.053-.392.105-.812.157-1.231.052-.42.105-.84.157-1.231.055-.225.081-.42.108-.616.026-.196.052-.392.107-.616-.002-.112.026-.224.053-.336.027-.112.054-.224.053-.336.053-.336.107-.644.16-.951.054-.308.108-.616.161-.952.214-1.232.542-2.465.87-3.698.768-2.69 1.537-5.269 2.418-7.961 1.212-3.701 2.538-7.404 4.322-10.888.025-.026.045-.051.071-.085.088-.114.246-.321.942-.932.111-.336.222-.561.333-.786.114-.001.113-.113.113-.113l-.001-.111c.055-.113.111-.197.168-.282.056-.084.112-.168.167-.281 0 0 .113-.113.112-.225.222-.449.474-.871.726-1.293.251-.422.503-.843.726-1.293.114-.001.112-.113.112-.113.112-.169.196-.309.28-.45.084-.141.168-.281.28-.45.112-.169.195-.337.279-.506.084-.169.167-.337.279-.506.056-.112.14-.253.224-.394.083-.14.167-.281.223-.393 1.883-3.119 3.765-6.238 5.87-9.251 1.204-1.376 2.288-2.904 3.318-4.485.945-1.303 1.885-2.622 2.827-3.944v-.001c4.758-6.68 9.593-13.467 15.712-18.945 8.644-8.343 18.701-15.226 28.694-22.065l.894-.612c1.922-1.25 3.786-2.583 5.65-3.917h.001v-.001c.824-.589 1.649-1.179 2.478-1.762.081-.034.157-.073.234-.111.112-.113.112-.113.226-.114l1.021-.347c.227-.114.567-.23.908-.345 0 0 .112-.113.226-.114.113-.057.227-.087.341-.116.113-.029.227-.058.34-.115.17-.058.312-.116.454-.173.141-.057.283-.115.453-.173l.114-.001c.794-.288 1.588-.604 2.382-.92.793-.316 1.587-.632 2.381-.92.041-.021.082-.038.116-.052.152-.063.152-.063-.687-.054.057-.056.113-.085.17-.113.057-.029.113-.058.17-.114.056-.057.113-.085.169-.114.057-.028.113-.057.17-.113.452-.341.791-.568 1.244-.796.451-.341.791-.568 1.244-.796.113-.057.198-.114.282-.171.085-.057.17-.114.283-.171.057-.056.113-.085.17-.113.056-.029.113-.058.169-.114.114-.057.198-.114.283-.171.085-.057.17-.113.283-.171.17-.113.311-.198.452-.284h.001c.141-.085.282-.171.452-.284.057-.001.085-.029.113-.057.028-.029.056-.057.113-.058.173-.172.412-.28.616-.373.063-.028.123-.055.177-.082.169-.114.339-.2.509-.285.17-.086.34-.172.509-.285.17-.058.34-.144.51-.229.17-.086.34-.172.51-.229 2.945-1.486 6.005-2.86 8.952-4.122.283-.115.595-.23.907-.345.312-.116.624-.231.907-.346.453-.228.794-.344 1.248-.46.34-.116.652-.203.965-.29v-.001c.312-.087.624-.174.965-.29.113-.001.198-.03.284-.059.085-.028.17-.057.284-.059l.114-.001c.113-.001.227-.03.34-.059.114-.03.228-.059.341-.06.114-.001.228-.03.341-.06.114-.029.228-.058.341-.059l.228-.003c.057 0 .142-.029.227-.058.085-.029.171-.058.227-.059.285-.059.597-.118.91-.177.312-.06.625-.119.909-.178 3.182-.594 6.134-1.408 9.199-2.336 2.951-.927 5.901-1.853 8.968-2.558 2.654-.609 5.395-1.136 8.073-1.65.417-.081.832-.16 1.245-.24 6.137-1.185 12.387-2.372 18.651-2.329.798.047 1.567.095 2.337.142.769.047 1.538.095 2.336.142.341-.06.654-.091.966-.122.313-.032.626-.063.967-.123.342-.004.655-.035.967-.066.313-.032.626-.063.968-.067.625-.063 1.251-.098 1.877-.132.626-.035 1.252-.07 1.878-.133.911-.01 1.822-.02 2.732-.142.284-.003.597-.034.91-.066.313-.031.626-.062.91-.065.91-.122 1.821-.132 2.732-.142l1.708-.019.569-.006.57-.007c.455-.005.911.018 1.367.041.456.023.911.046 1.367.041 1.485.431 3.082.637 4.677.731 5.932.94 11.646 2.666 17.249 4.727 3.885 1.187 7.546 2.711 11.094 4.348 3.55 1.749 6.986 3.611 10.423 5.473h.001c1.146.658 2.407 1.427 3.668 2.195 3.208 1.753 6.417 3.505 9.511 5.259.573.329 1.117.659 1.662.988h.001c.544.329 1.088.659 1.661.987 11.247 7.811 21.596 16.861 31.157 26.702 6.33 6.077 12.211 12.717 17.527 19.699.38.12.748.262 1.106.424.475.714.993 1.406 1.51 2.099.657.879 1.313 1.758 1.884 2.68.977 1.405 1.955 2.81 2.893 4.254l.012 1.079.002.223c.231.333.435.694.638 1.055s.406.722.638 1.054c4.174 6.772 6.875 14.118 9.348 21.578 1.993 5.119 4.099 10.236 6.205 15.354.48 2.23.846 4.461 1.099 6.693.741 5.244.685 10.497.516 15.864.107-.439.103-.985.098-1.427l.014 1.202.002.223c-.09 2.18-.151 4.36-.213 6.539-.061 2.181-.123 4.361-.212 6.541l.001.112-.294 4.362c.053-.392.077-.783.101-1.175.024-.391.048-.783.101-1.174l-.064.864c-.275 3.724-.545 7.365-.715 11.102l.001.112c-.19 3.466-.265 6.931-.227 10.395.054 4.917-.461 9.84-1.09 14.764-.631 4.812-1.49 9.516-2.806 14.112-.989 3.252-2.092 6.505-3.424 9.649-1.111 2.582-2.449 5.167-3.788 7.641-1.494 2.833-3.06 5.529-4.641 8.25l-.002.003c-.425.732-.852 1.466-1.278 2.205-.559.957-1.146 1.941-1.733 2.926-.587.984-1.174 1.968-1.733 2.924-.168.225-.308.478-.447.731-.14.253-.28.506-.448.731-.168.226-.308.479-.447.732-.14.253-.28.506-.448.731-.409.742-.88 1.485-1.323 2.184l-.187.296c-.046.072-.091.144-.136.215-.048.077-.097.154-.144.23-.114.001-.112.113-.112.113-.057.057-.085.113-.112.169-.028.056-.056.112-.112.169-1.904 2.927-3.922 5.854-6.054 8.783-1.459 1.916-3.032 3.834-4.605 5.751-.158 1.053-.483 2.08-.949 3.027-.311.264-.626.528-.945.793-1.892 1.545-3.766 3.099-5.636 4.649l-.001.001c-7.728 6.406-15.39 12.758-23.948 18.25-13.562 9.537-28.508 17.413-44.158 23.396-.701.274-1.403.56-2.106.847-2.251.919-4.518 1.844-6.855 2.381-.151.034-.302.069-.452.106zm92.384-256.143c.462.554.924 1.108 1.384 1.55-.58-1-1.273-1.886-1.966-2.772l-.001-.001c.233.445.466.889.583 1.223zm-55.051-45.437c1.718.876 3.322 1.752 5.042 2.739-.995-.715-2.047-1.313-3.116-1.921-.412-.234-.827-.469-1.241-.713-.572-.273-1.173-.546-1.774-.819-.601-.273-1.202-.546-1.774-.819.915.437 1.946.985 2.863 1.533zm-133.194 262.51c12.718 6.473 26.291 11.358 40.599 11.969 1.467.122 3.057.244 4.402-.122 7.704 0 15.408-1.588 22.989-3.42 8.316-1.71 17.609-4.519 25.924-7.084 6.359-1.099 12.84-2.443 18.71-5.496 7.337-4.031 14.429-8.427 21.033-13.557 9.293-5.985 18.465-12.336 25.19-21.13.975-1.27 2.009-2.481 3.04-3.69 1.944-2.278 3.88-4.547 5.398-7.18 2.201-3.42 3.302-7.206 4.402-11.115 4.158-11.359 6.603-23.45 6.114-35.542.489-6.595-1.345-12.824-3.546-18.931-.747-2.646-1.683-5.293-2.619-7.939-.749-2.117-1.498-4.234-2.15-6.351-1.468-5.13-2.935-10.26-5.381-14.901-2.031-4.541-5.134-8.394-8.218-12.225-.815-1.011-1.628-2.021-2.42-3.042-.884-1.208-1.733-2.434-2.58-3.657-1.379-1.993-2.753-3.978-4.268-5.87-5.646-7.049-12.65-12.855-19.597-18.613-.275-.229-.55-.456-.825-.684-4.28-3.42-8.682-6.596-13.451-9.283-3.342-1.791-7.011-2.823-10.679-3.854-1.835-.516-3.669-1.031-5.462-1.642-1.149-.333-2.286-.7-3.422-1.066-2.614-.843-5.223-1.684-7.951-2.11-4.28-.488-8.682-.122-13.084.245-.66.048-1.321.102-1.981.156-2.641.215-5.283.43-7.924.332h-4.647c-.652 0-1.304-.003-1.956-.007-3.261-.017-6.522-.034-9.783.374-4.255.452-8.174 2.175-12.056 3.882-1.362.599-2.72 1.197-4.086 1.736-3.057 1.221-6.358 1.954-9.66 2.687-9.294 1.71-17.854 6.107-24.579 12.58-.964 1.009-1.937 2.014-2.911 3.019-4.211 4.349-8.432 8.708-12.008 13.47-5.869 8.549-8.927 18.809-11.739 28.824-1.476 6.012-1.582 12.128-1.687 18.253-.008.47-.016.941-.025 1.411-.016.641-.033 1.28-.051 1.917-.12 4.342-.238 8.602.296 12.862 2.445 24.672 11.861 43.725 33.383 56.916 2.832 1.676 5.843 3.172 8.803 4.643.491.244.981.487 1.469.731.755.392 1.507.785 2.258 1.178 5.567 2.913 11.057 5.786 17.307 7.616 11.006 3.297 22.867 3.053 34.24 2.198 7.542-.886 14.682-3.581 21.784-6.262.728-.275 1.456-.549 2.184-.822 7.703-2.931 15.04-6.962 21.155-12.58 18.342-16.488 26.78-34.687 18.587-58.992-1.38-4.48-3.855-8.412-6.309-12.312-1.026-1.63-2.048-3.254-2.985-4.91-.404-.601-.809-1.208-1.217-1.819-5.134-7.699-10.621-15.925-19.571-19.433-1.168-.37-2.344-.733-3.522-1.097-3.879-1.2-7.796-2.411-11.641-3.91-9.294-2.809-19.321-1.954-28.615.488-19.81 4.642-28.981 8.916-38.886 27.848-11.495 22.473 1.345 47.389 24.701 54.717 12.596 3.298 26.414.733 36.93-7.084 10.517-6.717 20.055-21.129 13.084-33.465-1.1-2.077-2.445-4.031-4.035-5.741-.244-.244-.367-.366-.611-.488l-1.468-1.1c-.122-.061-.244-.152-.367-.244-.122-.091-.244-.183-.366-.244-.123-.061-.214-.122-.306-.183s-.184-.122-.306-.184c-.061-.061-.153-.091-.244-.122-.092-.03-.184-.061-.245-.122-.257-.086-.455-.231-.676-.395-.094-.07-.193-.143-.302-.216-.367-.244-.734-.488-.979-.732-.061 0-.091-.031-.122-.061-.03-.031-.061-.061-.122-.061-.367-.245-.703-.489-1.04-.733-.336-.245-.672-.489-1.039-.733-.183-.061-.336-.153-.489-.244-.153-.092-.306-.184-.489-.245l-.734-.366c-5.258-1.71-11.128-.977-16.386 3.298-.534.416-1.089.833-1.651 1.256-3.556 2.672-7.409 5.567-8.254 10.102-.122.733-.245 1.466-.245 2.321v.977c0 3.909 1.346 7.817 4.525 10.26 2.935 2.076 6.97 2.687 9.905.366 2.935-1.71 4.525-4.397 3.669-7.206h-.123l-.122-.122c-.122-.122-.122-.244-.122-.367v-.122c-.245-.244-.367-.488-.489-.733l-.123-.122h-.489c-.061 0-.122.031-.183.061-.061.031-.123.061-.184.061s-.122.031-.183.062c-.061.03-.122.061-.184.061h-.122c0 .061-.03.091-.061.122-.031.03-.061.061-.061.122v-.122c-.122.244-.245.488-.367.61l-.245.245c-.122 0-.244.122-.366.244-.075.056-.149.114-.224.173-.42.331-.866.682-1.488.682-.49 0-.979-.244-1.468-.489-.244-.122-.489-.244-.734-.488-.061-.061-.091-.122-.122-.183-.03-.061-.061-.123-.122-.184 0-.061-.031-.122-.061-.183-.031-.061-.061-.122-.061-.183s-.031-.122-.062-.183c-.03-.061-.061-.122-.061-.183-.07-.071-.1-.101-.113-.136-.009-.027-.009-.057-.009-.109-.734-2.076.489-4.152 2.323-5.374.808-.586 1.605-1.217 2.407-1.852 1.87-1.481 3.77-2.985 5.909-4.01 6.481-1.588 13.818 7.572 12.35 13.801.123.122.123.244.123.367.081.325.054.651.027.977-.014.163-.027.325-.027.488 0 .376-.139.798-.274 1.209-.085.257-.168.51-.215.745-.245.978-.856 1.955-1.468 2.687-.407.408-.706.815-1.005 1.222-.15.203-.299.407-.462.611-.363.407-.709.849-1.058 1.293-.589.752-1.185 1.512-1.877 2.126-.367.306-.764.611-1.162.916-.397.306-.795.611-1.161.916-.49.489-.979.855-1.468 1.222-.611.488-1.223.855-1.956 1.221l-2.568 1.099c-.247.124-.491.247-.732.369-1.192.604-2.328 1.179-3.548 1.586-.245 0-.612.122-.856.244-7.093 2.687-15.041 2.931-22.378.733-4.769-1.71-8.805-4.519-11.984-8.061l-.122-.122c0-.062-.031-.092-.061-.123-.031-.03-.062-.061-.062-.122-1.956-2.198-3.546-4.763-4.646-7.45-.49-.977-.856-1.832-1.223-2.809-.037-.147-.085-.294-.134-.444-.114-.35-.233-.717-.233-1.144v-.366c-1.345-5.863-.734-12.092 2.201-17.955 3.179-6.717 7.582-13.191 13.574-17.587 1.771-.924 3.64-1.605 5.515-2.288 1.101-.401 2.203-.803 3.289-1.254 10.027-3.298 20.666-6.596 31.305-4.397 1.95.423 3.841 1.14 5.755 1.866.846.32 1.697.643 2.56.943 1.335.533 2.739.903 4.142 1.273 1.811.478 3.62.954 5.274 1.78 4.158 2.077 7.092 5.741 9.66 9.527 2.282 2.658 4.09 5.695 5.896 8.727 1.098 1.844 2.196 3.686 3.398 5.441 5.747 8.794 7.337 20.153 5.258 30.29-4.28 13.435-14.674 24.427-26.291 32-10.761 5.496-22.5 9.649-34.484 10.992-13.084.855-26.658-.244-38.275-6.717l-.105-.051c-5.832-2.791-11.42-5.465-16.526-8.743-.489-.122-1.1-.367-1.589-.611-1.59-.733-3.18-1.588-4.647-2.687.061 0 .092.031.122.061.031.031.061.061.123.061-.653-.488-1.305-1.085-1.957-1.683-.326-.298-.652-.597-.978-.882-.979-.855-1.957-1.832-2.813-2.809-.66-.659-1.248-1.464-1.818-2.246-.17-.232-.337-.462-.505-.685-.734-1.099-1.345-2.076-1.957-3.176-.183-.244-.336-.519-.489-.794-.153-.274-.306-.549-.489-.793-1.467-2.321-2.813-4.886-4.035-7.695-4.77-11.481-6.481-24.183-5.87-36.641-.489-11.97 2.935-23.573 7.459-34.687 2.465-5.861 6.618-10.596 10.731-15.286.173-.198.347-.395.519-.592 4.28-4.886 8.927-9.771 14.797-12.947 4.613-2.633 9.733-3.818 14.859-5.004 1.532-.354 3.064-.709 4.584-1.103 2.598-.661 5.047-1.831 7.489-2.998 3.421-1.634 6.828-3.261 10.609-3.475 3.607-.183 7.245-.183 10.883-.183 3.638 0 7.276 0 10.883-.183 1.583-.046 3.15-.208 4.711-.369 2.661-.276 5.31-.55 8.007-.242 5.096.903 10.026 2.468 14.94 4.028 2.396.761 4.788 1.52 7.193 2.201 5.453 2.086 10.134 5.93 14.672 9.656.246.201.491.403.736.604 1.219 1.055 2.456 2.092 3.694 3.13 4.349 3.647 8.708 7.301 12.325 11.77 1.807 2.205 3.357 4.557 4.911 6.914 1.287 1.952 2.576 3.908 4.016 5.789.715.917 1.493 1.793 2.274 2.67 1.089 1.224 2.181 2.451 3.107 3.803 3.749 5.727 5.609 12.15 7.463 18.552.201.697.403 1.393.607 2.089.49 1.507.992 3.013 1.495 4.52 1.005 3.012 2.011 6.025 2.908 9.037.165.495.335.989.506 1.483.967 2.806 1.939 5.625 1.939 8.533.123 7.816 0 15.755-1.834 23.45v.001c-1.835 6.229-3.669 12.457-5.87 18.564-1.467 3.175-3.546 5.74-5.869 8.305-.778.906-1.538 1.83-2.3 2.754-2.112 2.565-4.232 5.139-6.749 7.384-3.378 3.561-7.476 6.26-11.521 8.923-1.226.807-2.448 1.611-3.642 2.435-7.949 5.863-15.897 11.726-24.946 15.634-3.038 1.277-6.232 1.876-9.446 2.479-1.703.319-3.412.64-5.106 1.063-2.124.555-4.226 1.236-6.342 1.921-3.002.972-6.032 1.953-9.188 2.598-1.817.425-3.627.87-5.437 1.315-5.986 1.472-11.967 2.942-18.164 3.693-6.359.366-12.718.122-18.954-1.1-9.538-1.832-18.71-5.618-27.269-10.137-.489-.244-.856-.366-1.223-.488v-.001c-1.017-.304-1.949-.778-2.937-1.28-.201-.101-.403-.204-.609-.307-.367.244-.856.122-1.223 0-.184-.122-.337-.214-.49-.306-.152-.091-.305-.183-.489-.305-.23-.077-.412-.201-.576-.314-.097-.067-.189-.129-.28-.175-.244-.183-.519-.366-.794-.549-.275-.183-.551-.367-.795-.55l-2.935-2.198c-3.424-1.954-6.848-4.275-9.783-6.962-4.035-3.908-7.704-8.061-11.005-12.58l-.367-.367-.123-.122c-.276-.315-.552-.618-.825-.916-.571-.626-1.123-1.231-1.62-1.893-.856-.977-1.712-2.076-2.446-3.175-.367-.55-.734-1.13-1.1-1.71-.367-.581-.734-1.161-1.101-1.71-.489-.815-.87-1.629-1.25-2.443-.19-.407-.38-.814-.584-1.221-.245-.55-.459-1.13-.673-1.71-.214-.581-.428-1.161-.672-1.71-.187-.187-.303-.445-.401-.665-.031-.068-.06-.133-.089-.19-.122-.245-.244-.519-.366-.794-.123-.275-.245-.55-.367-.794l-.367-.733c-.155-.309-.31-.611-.463-.908-.45-.878-.884-1.722-1.249-2.634-.122-.305-.214-.58-.306-.855-.091-.275-.183-.549-.305-.855-.062-.183-.123-.336-.184-.488-.061-.153-.122-.306-.183-.489-.069-.068-.099-.176-.134-.3-.027-.096-.057-.203-.111-.311-.122-.244-.122-.366-.122-.488-.117-.262-.234-.518-.349-.769-.367-.804-.717-1.57-.996-2.407-5.381-10.626-6.481-22.595-6.848-34.32-.079-6.876.405-13.752.889-20.627.264-3.75.528-7.501.701-11.251 1.643-9.938 5.981-18.898 10.326-27.874 1.797-3.711 3.594-7.424 5.204-11.21 3.301-7.084 8.926-13.191 14.551-18.565.417-.428.833-.855 1.248-1.282 4.093-4.209 8.141-8.372 12.693-12.031 6.481-5.74 13.329-11.359 21.399-15.023 10.639-5.008 21.4-8.794 32.895-11.603.324-.035.643-.069.957-.103 6.202-.665 10.464-1.121 13.839-6.004v-.611c0-.201-.037-.366-.07-.514-.027-.121-.052-.231-.052-.34-.061-.245-.122-.458-.184-.672-.061-.214-.122-.428-.183-.672v.122c-.061-.122-.092-.244-.122-.366-.031-.122-.061-.245-.123-.367 0-.122-.122-.366-.244-.488-.061-.061-.092-.122-.122-.183-.031-.062-.062-.123-.123-.184 0-.122-.122-.244-.244-.366-.123-.122-.245-.214-.367-.305-.122-.092-.245-.184-.367-.306l-.122-.122c-2.594-.901-5.292-.555-7.998-.209-.228.029-.456.059-.684.087-5.86.279-11.649 2.183-17.314 4.046-1.782.586-3.553 1.168-5.309 1.694-10.149 3.787-20.299 8.062-29.47 13.924-8.193 6.351-16.264 13.069-23.723 20.397-7.215 6.718-14.552 13.557-19.199 22.351-1.153 2.356-2.334 4.7-3.515 7.045-4.332 8.598-8.67 17.208-11.648 26.421-2.699 7.809-3.132 16.113-3.562 24.374-.134 2.593-.269 5.181-.474 7.748-.733 11.969-.611 24.061 1.712 35.908.734 3.787 1.957 7.573 3.424 11.115 1.008 2.252 1.921 4.561 2.836 6.874 1.418 3.583 2.84 7.177 4.624 10.592 1.247 2.042 2.331 4.167 3.411 6.281 1.566 3.068 3.121 6.116 5.149 8.864 5.991 8.427 12.472 16.61 20.788 22.961 5.052 4.019 10.749 6.965 16.487 9.932 1.762.911 3.527 1.824 5.279 2.771z" fill="url(#paint0_linear)"/></g><defs><linearGradient id="paint0_linear" x1="279.882" y1="161" x2="279.882" y2="495.288" gradientUnits="userSpaceOnUse"><stop stop-color="#25A9BB"/><stop offset="1" stop-color="#78BB25"/></linearGradient><filter id="filter0_d" x="84" y="132" width="392" height="392" filterUnits="userSpaceOnUse" color-interpolation-filters="sRGB"><feFlood flood-opacity="0" result="BackgroundImageFix"/><feColorMatrix in="SourceAlpha" values="0 0 0 0 0 0 0 0 0 0 0 0 0 0 0 0 0 0 127 0" result="hardAlpha"/><feOffset/><feGaussianBlur stdDeviation="15"/><feComposite in2="hardAlpha" operator="out"/><feColorMatrix values="0 0 0 0 0 0 0 0 0 0 0 0 0 0 0 0 0 0 0.16 0"/><feBlend in2="BackgroundImageFix" result="effect1_dropShadow"/><feBlend in="SourceGraphic" in2="effect1_dropShadow" result="shape"/></filter></defs></svg>