<svg width="560" height="640" viewBox="0 0 560 640" fill="none" xmlns="http://www.w3.org/2000/svg"><mask id="a" style="mask-type:alpha" maskUnits="userSpaceOnUse" x="0" y="0" width="560" height="640"><path fill="#C4C4C4" d="M0 0h560v640H0z"/></mask><g mask="url(#a)"><path d="M279.5 522.766c107.699 0 195-86.696 195-193.633 0-106.937-87.301-193.633-195-193.633s-195 86.696-195 193.633c0 106.937 87.301 193.633 195 193.633z" stroke="#FDBE54"/><path opacity=".4" d="M279.5 573.5c135.865 0 246-109.469 246-244.5S415.365 84.5 279.5 84.5 33.5 193.969 33.5 329s110.135 244.5 246 244.5z" stroke="#0D743C"/><g filter="url(#filter0_d)"><circle cx="280" cy="328" r="166" fill="#fff"/></g><path fill-rule="evenodd" clip-rule="evenodd" d="M204.508 475.565c-1.276-.476-2.559-.941-3.844-1.408-8.393-3.045-16.856-6.116-23.638-12.147-3.101-2.424-5.752-5.301-8.291-8.29-.343-.164-.715-.328-1.087-.491-.372-.164-.744-.327-1.087-.491-2.696-1.803-4.582-4.181-6.47-6.562-1.567-1.976-3.134-3.953-5.167-5.603-1.643-1.631-3.592-2.878-5.532-4.119-2.136-1.368-4.26-2.728-5.952-4.583-2.166-2.68-3.89-5.636-5.609-8.582-1.764-3.023-3.521-6.035-5.742-8.727-4.002-4.758-6.725-10.99-9.272-16.819-.831-1.903-1.644-3.763-2.476-5.515-3.025-5.777-4.348-12.133-4.874-18.609-2.856-11.144-3.892-22.42-4.245-33.815l-.103-9.386-.044-4.023-.005-.447c-.072-16.874.538-33.868 5.6-49.904 4.286-14.129 10.744-27.498 19.153-39.549 7.069-9.577 15.862-17.72 25.003-25.308 16.453-15.827 36.019-28.224 57.454-36.282 6.462-2.642 13.042-4.95 19.857-6.589 1.409-.307 2.868-.52 4.311-.73.769-.112 1.533-.224 2.283-.349 9.658-2.006 19.667-3.122 29.687-3.344l1.033-.116c15.125-1.698 30.247-3.397 45.312-.394 16.422 2.829 30.357 11.563 44.108 20.182 1.057.663 2.114 1.325 3.17 1.984.103.065.195.131.284.194.208.147.393.279.633.354l.687.328c5.961 3.511 11.249 8.034 16.425 12.671 6.784 5.848 13.003 12.15 18.884 18.791.228-.003.457.106.686.215.576.665 1.096 1.357 1.616 2.05.521.693 1.041 1.386 1.617 2.05.174.222.318.416.463.61.144.194.289.387.462.609.932 1.074 1.79 2.149 2.695 3.282l.002.002.001.002h.001l.002.002c.212.267.427.536.647.81.172.166.345.359.518.553.173.194.346.387.519.553l.004.335c4.272 5.318 8.545 10.747 11.574 16.86 1.865 3.891 3.618 8.006 5.03 12.126.059.167.146.305.233.444.087.139.174.277.232.444l.002.112c.115.167.203.361.29.556h.001c.087.195.175.389.29.555.002.112.001.112.117.223l1.05 2.335c.048.135.114.27.184.413.103.209.213.434.284.699 0 0 .001.112.115.111l.001.112c.001.055.03.111.059.167.029.055.058.111.059.166l.001.112.001.112.702 1.669c.233.444.437.917.642 1.389.204.473.409.946.641 1.39.175.334.321.639.466.945.146.306.292.612.466.945.118.334.264.64.409.945.146.306.292.612.409.946l.001.001c.117.333.234.667.351.889.175.445.322.89.47 1.335v.001c.147.445.295.891.47 1.336.235.668.47 1.336.592 2.005.058.111.088.222.117.333v.001c.03.111.06.223.118.334.353 1.002.705 2.003.944 3.007.176.501.324 1.002.472 1.503l.001.002c.147.5.295 1.001.471 1.502.474 1.671.834 3.343 1.194 5.015.119.446.238.892.243 1.339.112.586.235 1.182.359 1.782v.001c.277 1.342.558 2.705.73 4.016l.727 4.015c.001.112.031.251.061.391.03.139.06.278.062.39.001.168.031.307.061.447.03.139.06.278.062.446.002.168.032.335.063.502.03.167.06.335.062.502.003.224.005.447.121.67.003.223.034.446.065.669.031.224.062.447.064.67.045.5.103.986.16 1.468.11.919.218 1.822.228 2.775l.004.335.01.894.007.67.014 1.229.021 1.9c.132 1.675.149 3.239.167 4.804.006.6 0 1.187-.006 1.771V321.699c-.013 1.151-.025 2.285.063 3.467.009.783.018 1.565.14 2.346l.026 2.346.007.671c.004.335-.021.67-.046 1.006-.024.336-.049.671-.045 1.006l.014 1.341c.005.447.01.894.129 1.34.002.167.032.307.062.446.03.14.06.279.062.447.001.111.031.251.061.39s.06.279.061.39c.003.224.004.336.12.558.06.223.091.446.121.669.031.223.062.446.122.669-.104.896-.321 1.904-.539 2.8-.914 10.068-2.738 20.258-5.7 30.46-.109.448-.247.897-.384 1.345-.138.449-.275.898-.384 1.346-2.065 8.963-5.499 17.718-9.736 25.922-4.46 8.655-9.841 16.425-15.68 23.977-1.329 1.779-2.73 3.558-4.163 5.298-.133 1.036-.857 2.086-1.538 3.073-.341.494-.67.971-.91 1.424-6.488 10.688-16.309 18.507-26.482 25.548-3.049 2.269-6.447 3.983-9.845 5.696-9.048 5.688-18.443 10.932-28.421 14.841-.839.292-2.288.851-4.134 1.563-8.399 3.241-25.011 9.651-29.693 8.421-4.197 1.418-8.422 2.761-12.832 3.494-8.524 1.546-17.395 2.65-26.061 1.628-6.584-.992-13.105-2.757-19.575-4.508h-.001c-5.075-1.374-10.119-2.739-15.136-3.715-10.738-3.011-21.029-6.809-31.106-11.839zm112.495 8.027c-1.253-.011-2.508-.067-3.763-.172-.398.06-.768.148-1.137.236s-.738.176-1.136.236c-.455.005-.91.122-1.364.239-.384.067-.731.169-1.063.266-.257.076-.506.149-.754.201-.284.059-.567.145-.851.232l-.001.001c-.283.086-.567.173-.851.232-.17.058-.369.116-.568.174-.198.058-.397.116-.567.174-.795.232-1.59.437-2.385.641-.795.204-1.589.409-2.384.641-.644.156-1.287.325-1.931.493-1.287.337-2.574.674-3.862.912-2.345.427-4.783.765-7.148 1.092l-.45.063-.36.05h-.001c-2.387.362-4.775.723-7.166.749-3.188.036-6.156-.602-9.127-1.464-.001-.111-.115-.11-.229-.109-.27.003-.47-.065-.711-.147-.064-.021-.131-.044-.202-.066l-.797.008-.342.004-.341.004-.228.002c-.115-.11-.343-.108-.571-.105l-.114.001c-.188.002-.342-.03-.48-.059-.113-.023-.216-.045-.318-.044-2.51-.419-5.021-.95-7.534-1.593l-.866-.219h-.002v-.001h-.001c-5.638-1.425-11.183-2.826-16.826-3.72l-3.078-.302c-.286-.052-.542-.077-.799-.103-.256-.025-.513-.05-.798-.103-.229-.109-.343-.107-.571-.105-.113.001-.227-.025-.341-.052h-.001c-.114-.027-.228-.053-.342-.052-.455.005-.912-.102-1.369-.209-.057.001-.143-.026-.228-.053-.086-.027-.172-.054-.229-.053-.115-.111-.229-.11-.343-.108-.113.001-.199-.026-.285-.053-.086-.027-.171-.054-.285-.053-.115-.054-.257-.081-.4-.107-.143-.027-.285-.053-.4-.108-3.474-.888-6.858-2.348-10.144-3.766-.279-.12-.557-.24-.834-.359-2.304-.965-4.463-2.15-6.594-3.318-.514-.282-1.026-.563-1.538-.84-2.864-1.533-5.727-3.066-8.703-4.374-.799-.326-1.626-.651-2.453-.976l-.005-.002-.002-.001c-.829-.326-1.658-.652-2.458-.978-2.746-1.088-5.378-2.288-7.901-3.825-.115-.11-.258-.192-.401-.275-.143-.082-.287-.164-.402-.275-.114-.054-.229-.137-.344-.219-.115-.083-.229-.166-.344-.22-.229-.109-.573-.329-.803-.55-.115-.055-.201-.138-.287-.22l-.001-.001c-.086-.082-.172-.165-.286-.22-.001-.069-.045-.095-.106-.131-.037-.022-.081-.048-.125-.09-.114-.054-.2-.137-.287-.22-.086-.083-.172-.166-.287-.22l-.115-.111-.23-.221c-.229-.109-.344-.22-.459-.33-.116-.111-.23-.193-.345-.276-.115-.082-.23-.165-.345-.275l-.114.001c-.115-.111-.23-.193-.344-.276-.115-.082-.23-.165-.345-.275-.115-.055-.201-.138-.287-.221-.087-.082-.173-.165-.287-.22-.287-.22-.546-.441-.805-.662-.258-.22-.517-.441-.804-.661-.575-.441-1.149-.882-1.609-1.324-.345-.275-.718-.578-1.092-.882-.373-.303-.747-.606-1.091-.882l-.64-.519h-.001l-.001-.002c-2.759-2.238-5.425-4.402-8.094-6.758-.46-.386-.92-.8-1.38-1.214-.46-.414-.92-.828-1.38-1.215-.574-.44-1.034-.882-1.495-1.324-.001-.112-.115-.111-.115-.111-.46-.441-.92-.855-1.379-1.268l-.001-.002c-.461-.414-.921-.828-1.381-1.27l-.691-.663-.69-.662-4.823-3.635-.116-.111c-.115-.11-.258-.22-.402-.331-.143-.11-.287-.22-.402-.33-.229-.11-.344-.22-.459-.331-.229-.109-.344-.219-.459-.33-.23-.165-.431-.33-.632-.496-.201-.165-.402-.331-.632-.496-5.167-3.854-9.661-8.61-13.249-13.823-2.314-3.327-4.404-6.992-5.814-10.888-.001-.056-.029-.084-.058-.111-.029-.028-.058-.056-.058-.111l-.349-.667-.232-.333-.231-.333-.232-.332-.231-.333-.231-.333-.232-.332-.231-.333-.232-.333-.231-.333-.232-.332-.231-.333-.118-.334-.117-.334-.116-.222-.117-.222-.116-.223-.116-.222-.117-.222-.116-.222-.116-.223-.117-.222-.116-.222-.116-.222-.117-.222-.116-.223-.116-.222-.117-.222-.116-.222-.116-.223-.117-.222-.116-.222-.116-.222-.117-.222-.116-.223-.116-.222-.117-.222-.116-.222-.116-.223-.117-.222-.116-.222-.116-.222-.117-.223-.116-.222-.116-.222-.117-.222-.116-.222-.116-.223-.003-.223-.116-.222-.003-.224-.002-.223-.003-.224-.002-.223-.002-.224-.003-.223-.002-.224-.003-.223-.002-.224-.003-.223-.002-.224-.003-.223-.002-.224-.003-.223-.002-.224-.003-.223-.002-.224-.002-.223-.003-.224-.002-.223-.003-.224-.002-.223-.002-.112-.001-.112-.001-.111-.001-.112-.001-.112-.002-.111-.001-.112-.001-.112c-.121-.669-.355-1.225-.589-1.782-.003-.223-.12-.557-.237-.779-.59-1.894-1.18-3.787-1.656-5.681l-.594-2.756.022.007.237.076c-.108.335.118.555.343.664 1.688 1.316 3.815 1.849 5.935 1.825 9.959.557 19.712.229 29.529-.101H159.911c4.929-.166 9.874-.333 14.87-.388 17.747.139 35.605.276 53.349.08 8.447-.057 16.907.03 25.375.117h.003c18.268.188 36.571.377 54.858-.889 4.064-.187 8.15-.253 12.239-.318h.002c3.831-.062 7.664-.123 11.485-.285 2.217.089 4.475.311 6.708.531 1.328.131 2.647.261 3.943.361 1.832-.02 3.664-.049 5.494-.078 7.311-.116 14.594-.232 21.74.223 1.363-.042 2.755-.002 4.152.038 2.685.077 5.389.154 7.947-.353 1.906.362 3.824.665 5.765.897 4.895.614 9.783.507 14.67.4 3.258-.072 6.516-.143 9.776-.001 1.619.038 3.266.103 4.913.168 1.647.065 3.294.131 4.913.169 1.111-.013 2.223-.074 3.338-.136 2.044-.112 4.101-.226 6.2-.04-.568 1.621-1.179 3.228-1.849 4.808-1.11 2.583-2.448 5.168-3.788 7.641-1.494 2.833-3.06 5.529-4.64 8.25-.426.733-.853 1.468-1.28 2.208-.559.956-1.146 1.94-1.733 2.924-.587.985-1.174 1.969-1.733 2.926-.169.225-.308.478-.448.731v.001c-.14.253-.279.505-.447.731-.169.225-.308.478-.448.731-.139.253-.279.506-.447.731-.41.742-.881 1.485-1.323 2.184h-.001l-.003.006c-.16.252-.315.497-.463.736-.114.001-.113.113-.113.113-.056.056-.084.112-.112.168-.028.057-.056.113-.112.169-1.904 2.927-3.921 5.855-6.053 8.784-1.459 1.915-3.032 3.832-4.605 5.748l-.001.002c-.158 1.053-.483 2.08-.949 3.028-.31.263-.625.527-.944.792-1.892 1.546-3.766 3.099-5.636 4.65-7.728 6.405-15.391 12.758-23.95 18.251-13.561 9.536-28.507 17.412-44.157 23.395-.702.274-1.404.561-2.107.848-2.251.918-4.517 1.844-6.855 2.38-.073.017-.145.033-.218.051-.078.018-.156.037-.233.056zm116.036-107.274c-.591-.379-1.293-.644-1.944-.809-4.033-1.402-8.285-2.357-12.534-3.088-8.397-1.474-16.621-.9-24.93-.319-4.084.285-8.188.572-12.343.618-2.12.023-4.128.156-6.135.29-.677-.185-1.353-.39-2.039-.598-.903-.274-1.821-.553-2.776-.795-6.482-1.61-13.094-.788-19.666.029h-.004l-.001.001h-.003c-1.254.156-2.507.312-3.758.45-17.31-1.033-34.717-.73-52.011-.206-6.351-.036-12.71-.122-19.073-.225-.012-.385-.046-.775-.08-1.164-.052-.591-.104-1.178-.077-1.737-.001-.124-.002-.249-.003-.373.635-2.146.722-4.438.807-6.712.043-1.139.086-2.273.197-3.382.087-2.145.173-4.318.26-6.491v-.002l.003-.073c.087-2.198.174-4.396.262-6.566.043-.775.076-1.548.1-2.319.321-.052.642-.106.962-.159l.006-.001c1.249-.21 2.489-.418 3.698-.466 8.916-1.057 17.086-4.632 24.947-8.839 4.059-1.502 8.014-3.263 11.839-5.36 4.102-2.492 7.862-5.649 11.06-9.132 3.191-4.151 6.156-8.522 9.01-12.892 5.361-9.737 7.134-21.103 7.906-32.013.605-5.175.05-10.095-1.397-14.696-.164-1.862-.412-3.697-.833-5.414-1.869-7.544-7.29-13.38-12.926-18.435-4.854-4.953-10.814-9.003-16.878-12.385-1.671-1-3.326-2.032-4.984-3.066l-.001-.001c-2.688-1.676-5.382-3.357-8.16-4.908-6.758-2.96-14.165-3.719-21.55-3.422-3.95-.935-7.987-1.301-12.089-.658-1.86.828-3.9 1.138-5.958 1.45-1.629.248-3.269.497-4.84 1.005-7.011 1.857-13.676 4.712-19.544 9.003-2.625 1.778-5.215 3.686-7.683 5.738-1.177.919-2.308 1.9-3.382 2.95-.078.084-.157.169-.235.253-1.49 1.411-2.912 2.883-4.243 4.421-.301.308-.603.615-.905.922l-.024.025c-1.821 1.856-3.642 3.711-5.407 5.622-2.501 2.73-3.969 6.179-5.421 9.589v.001c-.341.8-.68 1.598-1.032 2.384-1.091 2.237-2.182 4.585-2.6 7.148-.194 1.079-.364 2.158-.532 3.226l-.001.001c-.197 1.248-.391 2.481-.618 3.682-.172.843-.376 1.678-.58 2.511-.551 2.254-1.099 4.497-.991 6.851.026 2.415.823 4.629 1.631 6.871v.001c.42 1.166.843 2.34 1.162 3.554.171 1.232.3 2.483.429 3.739.417 4.068.84 8.192 2.757 11.911.918 2.326 2.614 4.309 4.419 6.069 1.703 2.651 3.407 5.302 5.441 7.616 6.205 6.05 13.3 11.867 21.482 15.003 1.685.678 3.327 1.444 4.979 2.215.987.46 1.978.922 2.985 1.369 1.569.594 3.192 1.021 4.815 1.448 1.623.428 3.246.855 4.815 1.449 2.912.969 6.159 1.935 9.275 1.122.158.306.329.611.522.898-.014.42-.031.789-.053 1.099-.008 4.603-.352 9.21-.697 13.817-.313 4.188-.626 8.377-.686 12.562.008.765-.033 1.498-.073 2.217-.014.261-.029.519-.041.777-17.456-.3-34.943-.601-52.423-.191-9.935-.224-19.867-.115-29.674 1.217-8.691 1.37-17.432 1.152-26.171.933-7.281-.181-14.559-.363-21.805.374-1.905.121-3.857.04-5.814-.041h-.003c-2.396-.099-4.798-.198-7.129.072-.325.054-.633.152-.928.28l-.007-.027c-.003-.014-.007-.028-.011-.042-.127-1.228-.37-2.567-.611-3.793-.001-.101-.026-.223-.052-.359-.033-.165-.07-.349-.072-.534-.002-.167-.032-.335-.062-.502-.031-.167-.061-.335-.063-.502-.124-.949-.22-1.898-.316-2.847-.096-.948-.192-1.897-.316-2.846-.243-1.428-.523-2.855-.803-4.282-.42-2.141-.84-4.282-1.137-6.425-.002-.168-.032-.335-.062-.502-.031-.167-.061-.335-.063-.502-.002-.168-.032-.335-.062-.503-.031-.167-.061-.334-.063-.502l-.375-3.013-.003-.335c-.003-.224-.034-.447-.065-.67-.031-.223-.061-.446-.064-.67-.059-.223-.09-.446-.121-.669-.031-.223-.062-.446-.121-.669-.002-.112-.032-.251-.062-.391-.03-.139-.06-.278-.061-.39-.059-.223-.09-.446-.121-.669-.031-.224-.062-.447-.121-.67-.002-.111-.032-.251-.062-.39s-.06-.279-.061-.391c-.005-.446-.125-1.004-.244-1.45-.357-1.449-.601-2.899-.845-4.349-.239-1.003-.362-1.896-.487-2.9-.061-.391-.123-.809-.185-1.227v-.003c-.061-.418-.123-.835-.184-1.225-.122-.781-.245-1.562-.369-2.454-.002-.224-.033-.419-.063-.614-.031-.195-.061-.391-.064-.614l-.002-.224-.003-.223-.006-.559-.004-.335-.003-.335-.004-.335-.006-.559-.001-.112-.009-.782-.001-.112-.009-.782c-.135-1.898-.271-3.908-.292-5.808-.161-4.357-.094-8.604.655-12.971.275-1.739.643-3.449 1.008-5.145.339-1.579.676-3.145.933-4.711.113-.113.112-.224.11-.336.053-.391.105-.811.157-1.23l.001-.001c.052-.42.104-.839.157-1.231.054-.224.081-.42.107-.616.026-.196.053-.392.107-.616-.001-.112.026-.224.053-.336.028-.112.055-.224.054-.335.053-.336.106-.644.16-.952.054-.308.107-.616.16-.952.215-1.232.543-2.464.871-3.697.767-2.691 1.536-5.27 2.417-7.962 1.212-3.701 2.538-7.403 4.322-10.887.026-.026.046-.052.071-.086h.001c.087-.114.246-.32.942-.931.11-.337.221-.562.333-.786.114-.002.112-.113.112-.113l-.001-.112c.056-.112.112-.197.168-.281.056-.085.112-.169.168-.281 0 0 .112-.113.111-.225.223-.45.475-.871.726-1.293.252-.422.503-.844.726-1.294.114-.001.113-.113.113-.113.112-.168.196-.309.28-.45.083-.14.167-.281.279-.45.112-.169.196-.337.279-.506.084-.168.168-.337.28-.506.055-.112.139-.253.223-.393.084-.141.168-.282.223-.394 1.883-3.119 3.766-6.238 5.87-9.251 1.204-1.376 2.288-2.904 3.318-4.484.946-1.304 1.885-2.623 2.828-3.945 4.758-6.681 9.592-13.468 15.711-18.946 8.645-8.342 18.701-15.225 28.695-22.065l.893-.611c1.922-1.251 3.787-2.585 5.651-3.918l.001-.001c.824-.59 1.649-1.179 2.478-1.762.081-.034.157-.072.233-.111.065-.065.092-.092.126-.104.024-.009.052-.009.101-.01l1.021-.347c.226-.114.567-.229.907-.345 0 0 .113-.113.227-.114.113-.057.227-.086.34-.116.114-.029.227-.058.34-.115.171-.058.312-.115.454-.173.142-.057.284-.115.454-.172l.114-.002c.794-.288 1.587-.604 2.381-.92.794-.316 1.587-.632 2.381-.92.042-.021.083-.038.117-.052.046-.019.078-.032.077-.041-.003-.021-.18-.019-.764-.013.056-.056.113-.085.169-.113.057-.029.114-.057.17-.114.056-.056.113-.085.17-.113.056-.029.113-.058.169-.114.452-.34.791-.568 1.244-.796.452-.34.791-.567 1.244-.796.113-.057.198-.114.283-.171.085-.057.17-.113.283-.17.056-.057.113-.086.169-.114.057-.029.114-.057.17-.114.113-.057.198-.114.283-.17v-.001c.085-.056.169-.113.283-.17.169-.114.311-.199.452-.285.141-.085.283-.17.452-.284.057-.001.085-.029.114-.057.028-.028.056-.057.113-.057.172-.173.411-.281.616-.373.063-.029.123-.056.176-.083.17-.114.34-.199.509-.285.17-.086.34-.171.51-.285.17-.058.34-.143.51-.229.17-.086.339-.171.51-.229 2.944-1.485 6.004-2.86 8.951-4.122.283-.115.595-.23.907-.345.312-.115.624-.231.908-.345.453-.229.793-.344 1.247-.461.341-.116.653-.203.965-.29.312-.087.625-.175.965-.29.114-.001.199-.03.284-.059.085-.029.17-.058.284-.059l.114-.001c.114-.002.227-.031.341-.06.114-.029.227-.058.341-.06.114-.001.227-.03.341-.059.114-.03.227-.059.341-.06l.228-.002c.057-.001.142-.03.227-.059.085-.029.17-.058.227-.058.284-.059.597-.119.909-.178.313-.059.625-.119.909-.178 3.182-.593 6.134-1.408 9.199-2.336 2.951-.926 5.902-1.853 8.969-2.557 2.654-.61 5.394-1.136 8.072-1.651l.008-.002.007-.001c.412-.079.822-.158 1.23-.237 6.137-1.185 12.388-2.371 18.652-2.329.798.048 1.567.095 2.336.142.769.048 1.538.095 2.336.142.341-.059.654-.091.967-.122.313-.032.626-.063.967-.123.341-.003.654-.035.967-.066.313-.031.625-.063.967-.067.626-.062 1.252-.097 1.878-.132.626-.035 1.252-.07 1.877-.132.911-.011 1.822-.021 2.732-.142.285-.003.598-.035.91-.066.313-.032.626-.063.911-.066.909-.122 1.82-.132 2.731-.142l1.708-.019.57-.006.569-.006c.456-.005.911.018 1.367.041.456.022.912.045 1.367.04 1.485.431 3.082.637 4.678.731 5.932.941 11.645 2.666 17.248 4.727 3.885 1.187 7.546 2.711 11.095 4.349 3.549 1.748 6.986 3.61 10.423 5.472v.001c1.147.657 2.408 1.426 3.669 2.194 3.208 1.753 6.416 3.506 9.51 5.26.573.329 1.118.658 1.662.987.545.329 1.09.659 1.663.988 11.246 7.811 21.595 16.86 31.156 26.701 6.331 6.077 12.212 12.718 17.527 19.7.38.119.749.261 1.106.423.476.714.993 1.407 1.511 2.099.656.879 1.313 1.758 1.884 2.68l.001.002c.977 1.404 1.954 2.809 2.891 4.252l.012 1.079.002.223c.232.333.435.694.638 1.055.204.361.407.722.638 1.055 4.175 6.771 6.875 14.117 9.349 21.577 1.992 5.119 4.098 10.237 6.205 15.354.48 2.23.846 4.461 1.098 6.693.741 5.245.685 10.498.517 15.864.109-.448.102-1.007.097-1.454l.014 1.229.002.224c-.089 2.18-.151 4.36-.212 6.54-.062 2.18-.123 4.359-.213 6.54l.001.111-.293 4.362c.052-.392.076-.783.101-1.174.024-.392.048-.783.101-1.175l-.064.862v.001c-.276 3.725-.545 7.366-.716 11.103l.001.112c-.189 3.467-.265 6.932-.227 10.396.054 4.916-.461 9.839-1.09 14.763-.63 4.813-1.49 9.516-2.806 14.112-.061.204-.124.407-.187.61zm-92.429-99.707c-.077-6.992-.262-13.982-1.187-20.858-1.237-2.686-2.951-5.366-5.27-8.105-3.568-4.665-8.198-8.247-12.756-11.774-.94-.727-1.876-1.451-2.8-2.183-2.813-2.082-5.737-4.164-8.77-5.91-3.446-1.913-7.183-3.169-10.913-4.423-1.375-.462-2.749-.924-4.107-1.419-1.6-.625-3.176-1.353-4.756-2.084-2.535-1.171-5.082-2.349-7.764-3.116-10.432.097-20.232 3.012-30.545 6.564-5.78 2.178-11.558 4.466-16.542 7.969-3.433 2.374-6.19 5.408-8.947 8.442-.666.679-1.342 1.33-2.013 1.977-1.546 1.49-3.071 2.96-4.409 4.697-1.169 2.315-2.086 4.759-2.687 7.331-2.558 10.93-4.442 22.297-3.091 33.518l.069.412c.696 4.213 1.438 8.705 3.533 12.452.727 1.157 1.604 2.2 2.479 3.239.628.747 1.254 1.491 1.823 2.276 5.058 7.994 13.251 12.889 21.227 17.655.622.371 1.242.742 1.859 1.113.859.463 1.715.937 2.572 1.41 4.181 2.311 8.376 4.63 13.021 5.871 2.647.629 5.37 1.062 8.1 1.347.066-4.39.211-9.48.678-13.762-.033-1.827-.056-3.652-.073-5.474-.418-.468-.846-.925-1.274-1.382-.593-.633-1.186-1.266-1.751-1.927-1.458-.651-2.806-1.415-3.934-2.515-1.492-1.358-3.032-2.667-4.572-3.976-3.695-3.142-7.391-6.284-10.426-10.098-.438-.692-1.209-1.594-2.078-2.61-2.735-3.199-6.437-7.529-3.753-10.007 1.217-.904 3.113-1.036 3.912.513 2.809.992 5.163 3.154 7.374 5.185h.001c.434.399.863.793 1.288 1.172 2.255 2.088 4.063 4.071 6.097 6.384.91 1.001 1.829 2.001 2.751 3.005 1.952 2.124 3.915 4.261 5.826 6.439l.311.273.151.132c-.003-.313-.007-.625-.01-.938-.062-1.84-.132-3.685-.202-5.534v-.006c-.463-12.169-.932-24.486.998-36.499-.461-2.112-.323-4.366.346-6.363.542-1.452 2.434-1.918 3.671-1.041.932.582 1.164 1.64.805 2.434l.002.004c.772 1.27.967 2.697.71 4.044.097 1.291.084 2.595.071 3.828-.006.58-.012 1.145-.006 1.686-.018 4.929.092 9.868.203 14.812.182 8.129.364 16.27-.024 24.394.268-.353.536-.706.8-1.061 2.636-3.811 5.498-7.402 8.698-10.775 2.645-3.033 5.401-6.178 8.159-9.1 1.514-2.096 4.014-2.911 6.538-2.964.005 0 .01-.001.015-.001.056 0 .083-.056.111-.112.027-.056.054-.112.11-.113 1.584 4.156-2.198 8.241-5.39 11.689-.978 1.056-1.9 2.052-2.596 2.972-3.635 4.378-7.159 8.644-10.57 13.131-.515.574-1.01 1.177-1.506 1.78-1.159 1.412-2.319 2.826-3.746 3.86.277 2.262.268 4.579.26 6.894V321.396c-.005 1.329-.01 2.657.039 3.974.169 2.72.338 5.441.451 8.17 6.712.139 13.238-1.029 19.583-3.051 4.157-1.103 8.312-2.469 12.286-4.202.795-.439 1.59-.875 2.385-1.299 4.33-2.05 8.988-4.772 11.509-8.915 1.266-1.899 2.576-3.769 3.888-5.641h.001c2.327-3.323 4.66-6.652 6.763-10.161 1.069-1.996 1.583-4.169 2.095-6.336.378-1.6.755-3.197 1.355-4.715.309-.909.64-1.813.971-2.717v-.002c1.174-3.205 2.35-6.418 2.573-9.89zm-67.999 79.973c.034-.704.07-1.382.108-2.025-.108.335-.104.669-.101 1.002-.029.375-.058.75-.086 1.126.025-.035.052-.069.079-.103zm136.776-129.135c.461.553.923 1.107 1.383 1.549-.58-.999-1.273-1.886-1.966-2.772.233.444.465.889.583 1.223zm-55.051-45.437c1.718.875 3.322 1.751 5.041 2.738-.994-.715-2.046-1.313-3.115-1.92h-.001c-.412-.234-.826-.47-1.241-.714-.572-.273-1.173-.546-1.774-.819-.601-.272-1.202-.545-1.774-.818.916.437 1.947.984 2.864 1.533zm41.437 168.189c.471 2.219 1.945 4.317 4.401 4.401 1.117.099 2.114-.58 2.663-1.364 2.847-.582 2.797-2.342 2.738-4.377-.012-.433-.025-.878-.01-1.327.089-2.003.179-4.006.157-6.008-.1-2.133-.774-4.051-1.45-5.975-.311-.884-.622-1.769-.878-2.676-1.462-11.22-4.819-22.084-8.619-32.722-4.117-9.076-9.232-17.474-14.791-25.645-1.711-3.318-4.201-6.517-6.91-9.268-1.7-2.317-5.272-2.389-6.13.735-1.737 5.053 1.027 8.398 3.884 11.855 1.057 1.279 2.127 2.574 2.986 3.977l.287.428c4.334 6.488 8.747 13.093 11.884 20.351 4.223 8.519 7.116 17.832 8.671 27.27.381 4.223.539 8.448.586 12.675.045.821-.014 1.667-.072 2.513-.124 1.788-.248 3.58.603 5.157zm-245.974-5.622c.297 4.73.74 11.799 4.866 12.392 4.479.529 3.668-4.769 3.027-8.945-.222-1.45-.423-2.765-.376-3.654-.228-4.527.112-9.13.454-13.748.086-1.167.172-2.335.249-3.502.252-7.568 2.404-14.822 4.894-21.857 4.215-12.506 10.446-24.366 17.914-35.35 1.65-2.132 3.192-4.04 5.404-5.844.517-.413 1.121-.741 1.725-1.069 1.208-.656 2.416-1.312 2.922-2.653.43-1.451.857-3.235.283-4.675-3.633-5.633-10.703 1.008-13.342 4.596-6.306 7.498-10.751 16.231-15.17 24.912-.677 1.329-1.353 2.656-2.034 3.978-.579 1.301-1.171 2.594-1.762 3.884-2.304 5.024-4.588 10.008-5.951 15.334-1.068 4.387-1.44 8.866-1.812 13.344-.186 2.24-.372 4.479-.646 6.707-.083.733-.173 1.467-.263 2.202v.001c-.457 3.724-.914 7.461-.593 11.266.088.719.146 1.644.211 2.681z" fill="url(#paint0_linear)"/></g><defs><linearGradient id="paint0_linear" x1="277.073" y1="162.01" x2="280.75" y2="495.99" gradientUnits="userSpaceOnUse"><stop stop-color="#FDBE54"/><stop offset="1" stop-color="#78BB25"/></linearGradient><filter id="filter0_d" x="84" y="132" width="392" height="392" filterUnits="userSpaceOnUse" color-interpolation-filters="sRGB"><feFlood flood-opacity="0" result="BackgroundImageFix"/><feColorMatrix in="SourceAlpha" values="0 0 0 0 0 0 0 0 0 0 0 0 0 0 0 0 0 0 127 0" result="hardAlpha"/><feOffset/><feGaussianBlur stdDeviation="15"/><feComposite in2="hardAlpha" operator="out"/><feColorMatrix values="0 0 0 0 0 0 0 0 0 0 0 0 0 0 0 0 0 0 0.16 0"/><feBlend in2="BackgroundImageFix" result="effect1_dropShadow"/><feBlend in="SourceGraphic" in2="effect1_dropShadow" result="shape"/></filter></defs></svg>