<svg width="33" height="42" viewBox="0 0 33 42" fill="none" xmlns="http://www.w3.org/2000/svg">
<path fill-rule="evenodd" clip-rule="evenodd" d="M29.6229 26.7131C29.6777 27.0102 29.7091 27.181 29.7284 27.2579C29.7417 27.3114 29.7866 27.4052 29.8458 27.5289C30.0543 27.9649 30.4405 28.7723 30.2522 29.4942C30.0229 30.354 29.7211 30.7246 29.6218 30.8464C29.6164 30.853 29.6117 30.8589 29.6075 30.8641C29.6075 30.8641 28.6606 31.267 28.439 31.3879C28.4253 31.3959 28.4112 31.4042 28.3966 31.4129C28.1538 31.5562 27.7729 31.781 26.7467 31.952C25.6588 32.1333 23.4629 32.4758 23.4629 32.4758C23.4629 32.4758 23.0398 31.952 22.8988 30.3806C22.9041 30.3753 23.154 30.2828 23.5199 30.1474C24.5396 29.7701 26.4605 29.0593 26.505 28.9704C26.5293 28.9218 26.3195 28.61 26.0389 28.1929C25.621 27.5715 25.0459 26.7164 24.853 26.1499C24.5306 25.203 24.3292 24.2763 24.3292 24.2763C24.3292 24.2763 24.0673 24.377 23.9867 24.6993C23.9061 25.0217 23.5233 26.2305 23.1204 26.8348C22.6973 27.4392 22.5765 27.6407 22.5563 27.7213C22.5484 27.753 22.5405 27.9217 22.5289 28.1687C22.511 28.5499 22.4843 29.1174 22.4354 29.6553C22.4153 29.9172 22.4153 30.2194 22.4556 30.5418C22.3548 30.6223 21.549 31.2267 21.1662 31.3073C21.0407 31.3261 20.9231 31.3332 20.798 31.3408C20.5215 31.3575 20.2088 31.3763 19.6955 31.5289C19.3493 31.6319 19.0204 31.8782 18.6968 32.1207C18.3238 32.4002 17.9578 32.6744 17.5802 32.7176C16.6675 32.8115 15.3345 32.6551 14.457 32.5521C14.0174 32.5005 13.6921 32.4624 13.5912 32.4758C13.2487 32.5161 13.3696 32.8586 13.3696 32.8586C13.9941 33.3421 16.2707 34.0674 16.8348 34.1681C17.6205 34.289 19.5948 34.1681 20.7431 33.5637C21.2213 33.3171 21.5305 33.1149 21.7703 32.9581C22.1771 32.692 22.3843 32.5564 22.8786 32.5564C23.0801 33.3018 23.2614 33.8659 23.2614 33.8659C23.2614 33.8659 18.7084 34.7725 15.7066 36.6058C15.7 36.6025 15.6735 36.5864 15.6289 36.5592C15.1256 36.253 12.3139 34.5419 9.72313 33.9868C9.74327 33.9666 10.3074 32.3751 10.3678 31.4282C10.3736 31.3236 10.3811 31.2064 10.3892 31.0791C10.4375 30.3236 10.5086 29.2106 10.388 28.2451C10.4407 28.1993 10.5298 28.121 10.6424 28.022C11.1741 27.5543 12.2302 26.6254 12.463 26.4924C12.567 26.4339 12.717 26.4362 12.9084 26.4391C13.3105 26.4452 13.8952 26.4541 14.6187 25.9081C14.9974 25.6223 15.2215 25.3441 15.4178 25.1004C15.7749 24.6571 16.0398 24.3283 16.9758 24.2763C17.4808 24.2478 18.046 24.2369 18.5732 24.2268C19.5391 24.2082 20.377 24.1921 20.4812 24.0748C20.6424 23.8935 20.7431 23.692 20.3604 23.5309C19.9574 23.3697 17.4392 22.6646 16.5326 22.8257C15.626 22.9869 14.5582 23.2287 13.6315 23.7122C13.1847 23.955 12.8408 24.2541 12.5233 24.5303C12.1823 24.8269 11.8716 25.0972 11.496 25.2433C11.1958 25.3581 10.826 25.4999 10.4917 25.6282C10.0631 25.7926 9.69279 25.9346 9.60225 25.9686C9.56839 25.9084 9.53664 25.8531 9.50674 25.801C9.37649 25.5743 9.28125 25.4085 9.19932 25.1627C8.91727 24.3367 8.71581 24.0547 8.71581 24.0547C8.71581 24.0547 8.51435 25.4447 8.43376 25.888C8.35318 26.3513 8.31289 26.5326 8.31289 26.5326L9.17918 26.1297C9.17918 26.1297 9.52166 26.5528 9.76342 27.2982C10.0052 28.0436 10.0052 28.5473 10.0052 28.5473C10.0052 28.5473 8.91727 29.5747 7.66821 30.018C6.41914 30.4813 4.94846 31.0051 4.34407 31.0454C3.73968 31.1059 2.8331 30.6828 2.75251 29.5143C2.6978 28.721 3.05168 27.7791 3.30978 27.0921C3.43185 26.7672 3.53249 26.4994 3.55836 26.3312C3.56252 26.3032 3.56923 26.2534 3.5786 26.184C3.7511 24.9056 4.82251 16.9659 7.32572 15.5328C8.1988 14.8819 8.84673 14.8065 9.37794 14.7446C9.5209 14.7279 9.6554 14.7123 9.78357 14.6866C10.3678 14.5658 11.1132 14.4247 11.1132 14.4247C11.1132 14.4247 13.2487 13.7801 13.6315 13.3771C14.0143 12.9742 14.1553 12.7929 14.0747 12.5713C14.0652 12.5452 14.0099 12.4565 13.9212 12.3143C13.2564 11.2483 10.7139 7.17174 11.496 3.84794C12.3824 0.0604391 16.0088 0 16.3915 0C16.7945 0 20.1589 0.362633 20.864 3.88823C21.5893 7.39368 19.1919 11.9065 18.789 12.3497C18.789 12.6317 18.8091 13.0749 19.1113 13.2563C19.4135 13.4577 22.2743 14.5456 23.4629 14.7672C23.5802 14.7907 23.7001 14.8122 23.822 14.8341C24.9562 15.038 26.2583 15.2721 27.1497 17.3459C27.5123 18.1115 28.1973 19.6426 28.8419 22.7451C29.2815 24.8603 29.5056 26.0765 29.6229 26.7131ZM16.9758 31.1461C17.0765 31.126 18.5271 30.7231 18.6882 29.474C18.7956 28.492 18.5408 28.106 18.2975 27.7375C18.2213 27.6221 18.1463 27.5085 18.0838 27.3788C17.8421 26.8147 18.2651 26.8147 18.2651 26.8147C18.2651 26.8147 17.6205 26.6938 17.5399 27.3385C17.5349 27.3786 17.5301 27.418 17.5254 27.4566C17.4548 28.039 17.4053 28.4465 16.8952 28.4465C16.3513 28.4465 16.5326 27.7213 16.7945 27.6407C17.0564 27.5601 17.3989 26.6535 16.9758 26.1096C16.5729 25.5656 16.0289 25.2231 16.0289 25.2231C16.0289 25.2231 16.3915 25.8275 16.1901 26.2707C15.9875 26.6596 15.6091 26.9573 15.225 27.2593C14.654 27.7084 14.0706 28.1673 14.0344 28.9502C13.974 30.2597 14.8403 31.0051 15.5051 31.1461C15.5051 31.1461 14.659 30.3 15.1022 29.3934C15.5454 28.4868 15.6461 28.7689 15.6461 28.7689C15.6461 28.7689 15.4447 29.1114 15.6461 29.4942C15.8677 29.8971 16.3311 29.7561 16.6132 29.6553C16.8952 29.5546 17.3787 29.7561 17.3586 30.3C17.3391 30.7876 17.0363 31.0864 16.9805 31.1415C16.9786 31.1433 16.9771 31.1449 16.9758 31.1461ZM15.3235 37.331C10.9115 35.0747 4.74672 33.3622 3.15517 33.3018C1.56361 33.2413 0.636881 34.1278 0.314541 34.853C0.0358865 35.48 0.118565 35.8962 0.198155 36.2969L0.198169 36.2969C0.210642 36.3597 0.223038 36.4221 0.233956 36.4849C0.314541 36.9483 1.24127 39.2651 8.25217 41.0178C15.2631 42.7907 21.6495 41.6222 21.6495 41.6222C21.6495 41.6222 19.7557 39.5874 15.3235 37.331ZM32.831 36.2431C32.4316 33.6112 28.2545 34.1192 26.4882 34.334L26.488 34.334C26.2939 34.3576 26.129 34.3777 26.0014 34.3897C24.7322 34.5105 20.159 35.4574 16.7139 37.2101C16.7139 37.2101 17.7615 37.6735 19.8769 39.0032C21.9923 40.3127 22.7981 41.2394 22.7981 41.2394C22.7981 41.2394 24.712 41.0581 27.4922 40.3933C27.6237 40.3618 27.7557 40.3306 27.8878 40.2994C30.5504 39.6698 33.2724 39.0262 32.831 36.2431Z" fill="url(#paint0_radial)"/>
<defs>
<radialGradient id="paint0_radial" cx="0" cy="0" r="1" gradientUnits="userSpaceOnUse" gradientTransform="translate(16.5 28.7318) rotate(90) scale(13.2682 10.3481)">
<stop stop-color="#FFE0AC"/>
<stop offset="1" stop-color="#FDBE54"/>
</radialGradient>
</defs>
</svg>
