<svg width="184" height="57" viewBox="0 0 184 57" fill="none" xmlns="http://www.w3.org/2000/svg"><path fill-rule="evenodd" clip-rule="evenodd" d="M39.8589 36.0924c.074.4014.1165.6321.1425.7361.0181.0722.0787.199.1587.3662.2817.589.8035 1.6799.549 2.6552-.3098 1.1618-.7176 1.6624-.8516 1.8271-.0073.0089-.0138.0168-.0194.0238 0 0-1.2793.5444-1.5788.7078-.0185.0108-.0375.022-.0573.0337-.328.1936-.8426.4973-2.2291.7284-1.4699.245-4.4369.7077-4.4369.7077s-.5716-.7077-.7621-2.8308c.0072-.0072.3447-.1321.8392-.3151 1.3776-.5098 3.973-1.4701 4.0331-1.5903.0328-.0656-.2505-.4869-.6296-1.0505-.5647-.8395-1.3418-1.9948-1.6024-2.7603-.4355-1.2793-.7077-2.5315-.7077-2.5315s-.3539.1361-.4627.5717c-.1089.4355-.6261 2.0687-1.1705 2.8853-.5716.8166-.7349 1.0888-.7622 1.1976-.0107.0429-.0214.2708-.037.6046-.0242.515-.0602 1.2818-.1263 2.0085-.0272.3539-.0272.7622.0272 1.1977-.1361.1089-1.2248.9255-1.742 1.0344-.1696.0254-.3285.035-.4975.0452-.3736.0225-.7961.048-1.4896.2542-.4678.1391-.9121.472-1.3493.7995-.504.3776-.9986.7482-1.5088.8065-1.2331.1269-3.034-.0844-4.2196-.2236-.5941-.0697-1.0336-.1212-1.1699-.1031-.4627.0545-.2994.5172-.2994.5172.8438.6533 3.9196 1.6332 4.6818 1.7693 1.0616.1633 3.7291 0 5.2807-.8166.646-.3331 1.0637-.6063 1.3877-.8183.5497-.3595.8297-.5427 1.4976-.5427.2722 1.0071.5171 1.7693.5171 1.7693s-6.1516 1.2249-10.2074 3.7019c-.0089-.0044-.0447-.0262-.105-.0629-.6801-.4139-4.479-2.7256-7.9793-3.4757.0272-.0272.7894-2.1776.871-3.4569.0079-.1413.018-.2996.029-.4716.0652-1.0208.1613-2.5247-.0018-3.8291.0714-.0619.1917-.1677.3438-.3015.7185-.6319 2.1454-1.8869 2.4599-2.0667.1404-.079.3431-.0759.6017-.0719.5434.0082 1.3334.0203 2.3108-.7174.5117-.3862.8145-.7622 1.0797-1.0914.4825-.5989.8404-1.0432 2.105-1.1135.6823-.0384 1.4461-.0531 2.1583-.0668 1.3051-.0251 2.4371-.0469 2.578-.2054.2178-.2449.3539-.5171-.1633-.7349-.5444-.2177-3.9469-1.1704-5.1718-.9527-1.2249.2178-2.6675.5444-3.9197 1.1977-.6037.3281-1.0682.7322-1.4973 1.1054-.4607.4008-.8805.766-1.388.9633-.4055.155-.905.3467-1.3567.5199-.5792.2222-1.0796.4141-1.2019.46-.0458-.0813-.0887-.156-.1291-.2263-.176-.3064-.3046-.5304-.4153-.8625-.3811-1.116-.6533-1.4971-.6533-1.4971s-.2722 1.8782-.3811 2.477c-.1089.6261-.1633.8711-.1633.8711l1.1705-.5444s.4627.5716.7893 1.5787c.3267 1.0072.3267 1.6877.3267 1.6877s-1.4699 1.3882-3.1575 1.987c-1.68767.6261-3.67472 1.3338-4.49132 1.3882-.81659.0817-2.04149-.4899-2.15037-2.0687-.07392-1.0718.40421-2.3444.75294-3.2726.16492-.439.3009-.8009.33586-1.0281.00561-.0379.01468-.1051.02734-.199.23307-1.7271 1.68066-12.4546 5.06277-14.3909 1.17968-.8793 2.05508-.9813 2.77278-1.0649.1932-.0225.3749-.0437.548-.0783.7894-.1633 1.7966-.3539 1.7966-.3539s2.8853-.871 3.4024-1.4154c.5172-.5444.7078-.7894.5989-1.0888-.0128-.0353-.0875-.155-.2074-.3472-.8983-1.4403-4.3334-6.94817-3.2768-11.439C16.5651.08166 21.4647 0 21.9819 0c.5444 0 5.0901.489957 6.0428 5.25343.9799 4.73626-2.2593 10.83347-2.8037 11.43237 0 .3811.0272.9799.4355 1.2249.4083.2722 4.2736 1.742 5.8795 2.0415.1585.0317.3205.0608.4852.0904 1.5325.2755 3.2917.5917 4.4961 3.3937.4899 1.0344 1.4154 3.1031 2.2864 7.2949.5939 2.8579.8967 4.5012 1.0552 5.3612zm-17.0877 5.9895c.1361-.0272 2.096-.5716 2.3137-2.2592.1451-1.3268-.1992-1.8484-.5279-2.3463-.1029-.1558-.2043-.3094-.2887-.4846-.3266-.7622.245-.7622.245-.7622s-.871-.1633-.9799.7078c-.0068.0541-.0132.1073-.0196.1595-.0954.7869-.1622 1.3376-.8514 1.3376-.735 0-.49-.98-.1361-1.0888.3538-.1089.8166-1.3338.2449-2.0687-.5444-.735-1.2793-1.1977-1.2793-1.1977s.49.8166.2178 1.4154c-.2737.5254-.785.9276-1.3039 1.3357-.7716.6068-1.5598 1.2267-1.6087 2.2846-.0816 1.7692 1.0888 2.7764 1.9871 2.9669 0 0-1.1432-1.1432-.5444-2.3681s.7349-.8438.7349-.8438-.2722.4627 0 .9799c.2994.5444.9255.3538 1.3066.2177s1.0343.1361 1.0071.8711c-.0263.6588-.4353 1.0625-.5108 1.1369-.0025.0025-.0046.0046-.0064.0063zm-2.2319 8.3565c-5.9611-3.0486-14.29039-5.3623-16.44075-5.444-2.15037-.0817-3.402488 1.116-3.838006 2.0959-.376493.8471-.264785 1.4095-.157251 1.9508h.000011c.016855.0849.033607.1692.04836.254.10888.6261 1.360996 3.7564 10.833536 6.1245 9.4725 2.3954 18.1012.8166 18.1012.8166s-2.5587-2.7492-8.5471-5.7978zm23.6539-1.4699c-.5395-3.5561-6.1833-2.8697-8.5698-2.5794h-.0002c-.2622.0319-.4851.059-.6575.0752-1.7149.1633-7.8938 1.4426-12.5484 3.8108 0 0 1.4155.626 4.2735 2.4225 2.8581 1.7693 3.9469 3.0214 3.9469 3.0214s2.5859-.2449 6.3423-1.1432c.1776-.0425.3559-.0846.5345-.1269 3.5974-.8506 7.2752-1.7201 6.6787-5.4804z" fill="url(#paint0_radial)"/><path d="M60.4594 7.57644h4.7499c2.9664 0 5.2867.88414 6.961 2.65246 1.6743 1.75 2.5114 3.81 2.5114 6.1798 0 2.6251-.8462 4.8309-2.5387 6.6174-1.6925 1.7682-4.0128 2.6524-6.961 2.6524-.3458 0-1.0555-.0274-2.1292-.082-1.0738-.0365-1.9291-.0547-2.5661-.0547l-3.9855.164c-.0728-.0729-.1092-.2278-.1092-.4648 0-.3646.0364-.5469.1092-.5469.2184 0 .5551-.0638 1.0101-.1914.4731-.1276.737-.2644.7916-.4102.1092-.4193.1638-1.2214.1638-2.4063V11.35c0-1.0027-.0546-1.71361-.1638-2.13289-.0546-.14584-.3276-.3099-.8189-.4922-.4732-.1823-.8099-.27344-1.0101-.27344-.0728 0-.1092-.16407-.1092-.49221 0-.29167.0273-.46485.0819-.51954 1.4559.09115 2.7935.13672 4.0128.13672zm1.829 3.69146v10.6097c0 1.1849.0819 1.823.2457 1.9141.4004.237 1.4286.3555 3.0847.3555 1.5287 0 2.7116-.6563 3.5487-1.9688.8371-1.3125 1.2557-3.2722 1.2557-5.8791 0-2.0052-.4459-3.7006-1.3376-5.086-.8735-1.40373-2.0928-2.10557-3.6579-2.10557h-.1365c-1.5469 0-2.4295.14584-2.6479.43751-.2366.32814-.3549.90236-.3549 1.72266zM81.9157 14.8774c-.7098 0-1.2284.3464-1.556 1.0391-.3276.6745-.4914 1.3399-.4914 1.9962 0 .1093.0637.164.1911.164h3.4669c.2547 0 .3821-.1732.3821-.5195 0-.6928-.1911-1.3126-.5732-1.8594-.364-.5469-.8372-.8204-1.4195-.8204zm.1365-1.5039c1.6378 0 2.9481.5742 3.9309 1.7227 1.0009 1.1302 1.5014 2.2878 1.5014 3.4727 0 .4193-.091.6927-.273.8204-.1638.1276-.5005.1914-1.01.1914h-6.1694c-.1092 0-.1638.0638-.1638.1914 0 .9844.273 1.8685.819 2.6524.5641.7839 1.3649 1.1758 2.4022 1.1758.6005 0 1.1738-.082 1.7198-.2461.5459-.1823.9281-.3372 1.1465-.4649.2184-.1458.5095-.3554.8735-.6289.1638.0729.2457.2461.2457.5196 0 .2187-.0364.401-.1092.5469-.182.4375-.7279.957-1.6379 1.5586-.9099.6016-1.929.9024-3.0574.9024-1.6742 0-3.121-.6107-4.3403-1.8321-1.2011-1.2214-1.8017-2.6889-1.8017-4.4025 0-1.75.546-3.2175 1.6379-4.4024 1.0919-1.185 2.5205-1.7774 4.2858-1.7774zM94.5273 14.8774c-.7097 0-1.2284.3464-1.5559 1.0391-.3276.6745-.4914 1.3399-.4914 1.9962 0 .1093.0637.164.1911.164h3.4668c.2548 0 .3822-.1732.3822-.5195 0-.6928-.1911-1.3126-.5733-1.8594-.3639-.5469-.8371-.8204-1.4195-.8204zm.1365-1.5039c1.6379 0 2.9482.5742 3.931 1.7227 1.0009 1.1302 1.5012 2.2878 1.5012 3.4727 0 .4193-.091.6927-.2728.8204-.1638.1276-.5005.1914-1.0101.1914h-6.1693c-.1092 0-.1638.0638-.1638.1914 0 .9844.273 1.8685.8189 2.6524.5642.7839 1.3649 1.1758 2.4023 1.1758.6005 0 1.1738-.082 1.7197-.2461.546-.1823.9282-.3372 1.1465-.4649.2184-.1458.5096-.3554.8736-.6289.1638.0729.2457.2461.2457.5196 0 .2187-.0364.401-.1092.5469-.182.4375-.728.957-1.6379 1.5586-.9099.6016-1.9291.9024-3.0574.9024-1.6743 0-3.1211-.6107-4.3404-1.8321-1.2011-1.2214-1.8016-2.6889-1.8016-4.4025 0-1.75.5459-3.2175 1.6378-4.4024 1.092-1.185 2.5206-1.7774 4.2858-1.7774zM109.432 13.4008c1.729 0 3.158.6016 4.286 1.8048 1.146 1.2031 1.72 2.5977 1.72 4.1837 0 2.0234-.646 3.6003-1.939 4.7305-1.292 1.1303-2.92 1.6954-4.886 1.6954-.218 0-.455-.0182-.71-.0547-.236-.0364-.436-.082-.6-.1367-.164-.0365-.255-.0547-.273-.0547-.073 0-.109.1458-.109.4375v1.3672c0 1.1667.063 1.9962.191 2.4884.036.1276.291.2734.764.4375.473.1641.792.2461.956.2461.054 0 .081.1458.081.4375.019.3099.009.5013-.027.5742-.2-.0182-.773-.0638-1.72-.1367-.928-.0547-1.601-.082-2.02-.082-.437 0-1.119.0273-2.047.082-.928.0729-1.492.1185-1.693.1367-.072-.0729-.109-.2643-.109-.5742 0-.2917.037-.4375.109-.4375.201 0 .537-.082 1.01-.2461.474-.1641.728-.3099.765-.4375.127-.5469.191-1.2396.191-2.0782v-9.5979c0-1.0209-.164-1.7045-.491-2.0508-.128-.1459-.319-.2644-.574-.3555-.255-.0912-.473-.155-.655-.1914-.182-.0365-.273-.0638-.273-.0821 0-.638.046-.957.137-.957 1.11 0 2.575-.2643 4.395-.793.564-.1823.864-.2735.9-.2735.11 0 .164.1185.164.3555 0 .1094-.018.2735-.054.4922.8-.6198 1.638-.9297 2.511-.9297zm-.409 1.586c-.637 0-1.147.1914-1.529.5742-.382.3829-.573.8659-.573 1.4493v5.1681c0 .6927.227 1.2305.682 1.6133.455.3646.937.5469 1.447.5469 1.638 0 2.457-1.349 2.457-4.047 0-3.5365-.828-5.3048-2.484-5.3048zM118.904 11.0765c0-.8568-.045-1.51303-.136-1.96877-.091-.29167-.564-.43751-1.42-.43751h-.245c-.109 0-.164-.1823-.164-.54689 0-.3099.055-.46485.164-.46485.564-.05469 1.128-.12761 1.692-.21876.583-.09115 1.074-.1823 1.474-.27345.401-.09114.756-.18229 1.065-.27344.328-.09115.582-.16407.764-.21876l.273-.08203h.055c.073 0 .145.05469.218.16407.073.10938.119.20964.137.30079-.2.82033-.301 1.74093-.301 2.76179l-.027 11.70341c0 1.1667.064 1.9962.191 2.4884.037.1276.291.2734.765.4375.473.1641.791.2461.955.2461.055 0 .082.1549.082.4648.018.2917.009.474-.027.5469-.201-.0182-.774-.0547-1.72-.1093-.928-.073-1.602-.1094-2.02-.1094-.437 0-1.119.0364-2.048.1094-.928.0546-1.492.0911-1.692.1093-.073-.0729-.109-.2552-.109-.5469 0-.3099.036-.4648.109-.4648.2 0 .537-.082 1.01-.2461.473-.1641.728-.3099.764-.4375.128-.5469.191-1.2396.191-2.0782V11.0765zM129.278 13.7016c.4 0 1.046-.0273 1.938-.082.892-.0729 1.438-.1185 1.638-.1368.054.1641.082.3555.082.5743 0 .2917-.037.4375-.11.4375-.236 0-.582.0729-1.037.2188-.437.1458-.655.3099-.655.4922l.027.2461c.037.2916.746 2.069 2.129 5.3321 1.238-2.6797 1.911-4.1563 2.021-4.4298.109-.2552.163-.5286.163-.8203 0-.1094-.054-.237-.163-.3828-.091-.1459-.292-.2917-.601-.4375-.309-.1459-.701-.2188-1.174-.2188-.073 0-.109-.1641-.109-.4922 0-.237.018-.4102.055-.5196.218.0183.755.0639 1.61.1368.874.0547 1.529.082 1.966.082.382 0 .891-.0273 1.528-.082.637-.0729 1.101-.1185 1.393-.1368.072.1459.109.3008.109.4649 0 .3646-.037.5469-.109.5469-.273 0-.683.0911-1.229.2734-.528.1823-.883.4558-1.065.8204l-5.077 11.0198c-1.51 3.2996-3.276 4.9493-5.296 4.9493-.546 0-.992-.1458-1.337-.4375-.328-.2916-.492-.6289-.492-1.0117 0-.5651.21-.9935.628-1.2852 2.311 0 3.813-.711 4.504-2.1329.419-.8932.701-1.4948.847-1.8047l-4.068-9.0237-.136-.3281c-.182-.3828-.464-.6472-.847-.793-.364-.1641-.682-.2461-.955-.2461-.073 0-.109-.1367-.109-.4102 0-.3646.018-.5651.054-.6016.146 0 .719.0365 1.72.1094 1.001.0729 1.72.1094 2.157.1094zM71.7871 38.1344c0-1.0391-.1183-1.6953-.3549-1.9688-.1637-.2005-.5095-.3828-1.0373-.5469-.5095-.164-.8735-.2461-1.0919-.2461-.0728 0-.1183-.1458-.1365-.4375-.0182-.3099 0-.5013.0546-.5742 1.6743.1458 2.8754.2187 3.6033.2187.455 0 1.0738-.0273 1.8563-.082.8007-.0729 1.3103-.1185 1.5287-.1367.0728.1458.1092.3099.1092.4922 0 .3463-.0455.5195-.1365.5195-1.0009 0-1.7562.3008-2.2657.9024-.2548.3099-.3822.9753-.3822 1.9961V48.662c0 .6563.0364 1.9324.1092 3.8283-.0728.0729-.3003.1094-.6825.1094-.2183 0-.5004-.2097-.8462-.629L61.0044 38.1344v10.473c0 1.0026.0728 1.6497.2184 1.9414.1638.3099.546.556 1.1465.7383.6006.1641 1.0373.2461 1.3103.2461.0546 0 .0819.155.0819.4649.0182.3099.0091.5013-.0273.5742-.1638 0-.7006-.0365-1.6106-.1094-.9099-.0729-1.6015-.1094-2.0746-.1094-.4732 0-1.0737.0365-1.8017.1094-.7279.0547-1.2557.0912-1.5833.1094-.0546-.0547-.0819-.2188-.0819-.4922 0-.3464.0273-.5195.0819-.5195.182 0 .3913-.0183.6279-.0547.2366-.0365.5368-.1367.9008-.3008.364-.1823.6279-.4102.7917-.6836.1819-.2917.2729-.9571.2729-1.9962V37.7789c0-.9479-.1364-1.5951-.4094-1.9414-.091-.1276-.4095-.237-.9555-.3281-.5459-.0912-.9463-.1368-1.2011-.1368-.0728 0-.1183-.1458-.1365-.4375-.0182-.3099.0091-.5013.0819-.5742.2912.0182.8645.0638 1.7198.1367.8735.0547 1.5469.082 2.0201.082.6187 0 1.5104-.0729 2.6752-.2187.3093.6198.9099 1.5222 1.8016 2.7071.91 1.1667 2.0747 2.6159 3.4942 4.3478 1.4195 1.7318 2.5478 3.1537 3.3849 4.2657.0364-.1276.0546-.5013.0546-1.1211v-6.426zM83.7709 41.7439c-.5277 0-.9645.2096-1.3103.6289-.3457.4193-.5732.9024-.6824 1.4493-.1092.5286-.1638 1.1211-.1638 1.7774 0 3.7006.9372 5.5509 2.8117 5.5509.7643 0 1.3194-.3737 1.6652-1.1211.3639-.7474.5459-1.6225.5459-2.6251 0-3.7735-.9554-5.6603-2.8663-5.6603zm-4.1766.3008c1.2558-1.2032 2.7753-1.8048 4.5588-1.8048 1.7835 0 3.294.6016 4.5315 1.8048 1.2557 1.2031 1.8835 2.6706 1.8835 4.4024 0 1.7319-.6187 3.1993-1.8562 4.4025-1.2375 1.2032-2.7571 1.8047-4.5588 1.8047-1.7835 0-3.303-.6015-4.5588-1.8047-1.2375-1.2032-1.8562-2.6706-1.8562-4.4025 0-1.7318.6187-3.1993 1.8562-4.4024zM105.282 43.5213v5.3595c0 .9479.091 1.5222.273 1.7227.091.0911.236.1641.437.2188.2.0364.4.0546.6.0546h.273c.073.0365.109.1094.109.2188 0 .5287-.054.793-.164.793-.273.0182-.627.0547-1.064.1094-.437.0547-.874.1185-1.31.1914-.437.0547-.856.1185-1.256.1914-.382.0547-.701.1003-.956.1367l-.382.0821c-.109 0-.164-.1641-.164-.4923v-1.0117c0-.0729-.009-.1185-.027-.1367-.018-.0182-.045-.0091-.082.0273-.382.4011-.946.7657-1.6922 1.0938-.728.3281-1.5196.4922-2.375.4922-1.0737 0-1.9381-.474-2.5933-1.4219-.6369-.948-.9554-2.0964-.9554-3.4454v-2.6524c0-1.0209-.1638-1.7045-.4914-2.0509-.1274-.1458-.3184-.2643-.5732-.3554-.2548-.0912-.4732-.155-.6552-.1915-.182-.0364-.273-.0638-.273-.082 0-.638.0455-.957.1365-.957.3458 0 1.1374-.1185 2.375-.3555 1.2375-.2552 2.111-.4649 2.6206-.6289l.1365-.0547c.0909-.0183.1455-.0274.1637-.0274.091 0 .182.0638.273.1914.091.1094.1365.2006.1365.2735-.2002 1.6042-.3003 2.5157-.3003 2.7344v2.9259c0 1.4219.182 2.4245.546 3.0079.364.5651.9736.8477 1.829.8477.6192 0 1.0832-.1368 1.3922-.4102.309-.2917.464-.6107.464-.9571v-3.9102c0-1.0209-.164-1.7045-.491-2.0509-.128-.1458-.319-.2643-.574-.3554-.254-.0912-.473-.155-.655-.1915-.1817-.0364-.2727-.0638-.2727-.082 0-.638.0455-.957.1365-.957.3462 0 1.1372-.1185 2.3752-.3555 1.237-.2552 2.111-.4649 2.62-.6289.018 0 .073-.0183.164-.0547l.137-.0274c.091 0 .182.0638.273.1914.091.1094.136.2006.136.2735-.2 1.6042-.3 2.5066-.3 2.7071zM117.266 40.2399c.8 0 1.583.3373 2.347 1.0118 0 .9479-.118 1.6498-.355 2.1055-.218.4558-.628.6836-1.228.6836-.364 0-.783-.2096-1.256-.6289s-.892-.6289-1.255-.6289c-.546 0-.938.3099-1.174.9297-.219.6016-.328 1.2487-.328 1.9415v2.7617c0 1.1485.064 1.9688.191 2.461.037.1277.273.2735.71.4376.455.164.755.2461.901.2461.054 0 .082.1549.082.4648.018.2917.009.474-.028.5469-.218-.0182-.773-.0547-1.665-.1094-.892-.0729-1.547-.1094-1.965-.1094-.437 0-1.119.0365-2.048.1094-.928.0547-1.492.0912-1.692.1094-.073-.0729-.109-.2552-.109-.5469 0-.3099.036-.4648.109-.4648.2 0 .537-.0821 1.01-.2461.473-.1641.728-.3099.764-.4376.128-.5468.191-1.2396.191-2.0781v-3.7462c0-1.0209-.163-1.7045-.491-2.0509-.127-.1458-.318-.2643-.573-.3554-.255-.0912-.473-.155-.655-.1915-.182-.0364-.273-.0638-.273-.082 0-.638.045-.957.136-.957.219 0 .582-.0456 1.092-.1368.51-.1093 1.174-.2552 1.993-.4375.819-.1823 1.456-.319 1.911-.4101.182-.0547.282-.0821.3-.0821.091 0 .182.0638.273.1914.091.1094.136.2006.136.2735-.036.2187-.063.4557-.081.7109-.019.2553-.037.4193-.055.4922.892-1.1849 1.92-1.7774 3.085-1.7774zM123.244 37.068c-.401-.4011-.601-.8842-.601-1.4493s.2-1.0391.601-1.4219c.4-.401.873-.6016 1.419-.6016.565 0 1.038.2006 1.42.6016.4.3828.6.8568.6 1.4219 0 .5651-.2 1.0482-.6 1.4493-.382.3828-.855.5742-1.42.5742-.546 0-1.019-.1914-1.419-.5742zm3.439 11.3206c0 1.1667.064 1.9961.191 2.4883.037.1277.292.2735.765.4376.491.164.81.2461.955.2461.073 0 .109.1549.109.4648 0 .2917-.018.474-.054.5469-.182-.0182-.746-.0547-1.693-.1094-.946-.0729-1.628-.1094-2.047-.1094-.437 0-1.119.0365-2.047.1094-.91.0547-1.474.0912-1.693.1094-.054-.0729-.082-.2552-.082-.5469 0-.3099.028-.4648.082-.4648.219 0 .555-.0821 1.01-.2461.473-.1641.728-.3099.765-.4376.127-.5468.191-1.2396.191-2.0781v-3.7462c0-1.0209-.164-1.7045-.492-2.0509-.127-.1458-.318-.2643-.573-.3554-.237-.0912-.455-.155-.655-.1915-.182-.0364-.273-.0638-.273-.082 0-.638.045-.957.136-.957.364 0 1.156-.1185 2.375-.3555 1.238-.2552 2.111-.4649 2.621-.6289.018 0 .073-.0092.164-.0274.091-.0364.136-.0547.136-.0547.109 0 .2.0638.273.1914.091.1094.137.2006.137.2735-.019.1458-.055.4193-.11.8203-.054.4011-.1.7565-.136 1.0665-.036.2916-.055.5742-.055.8476v4.84zM134.709 40.1853c1.601 0 2.784.1823 3.549.5468.182.8386.273 1.9689.273 3.3908 0 .164-.119.2461-.355.2461-.564 0-.865-.073-.901-.2188-.164-.7656-.446-1.3672-.846-1.8047-.382-.4375-1.001-.6563-1.856-.6563-.401 0-.728.1003-.983.3008-.255.1823-.382.4557-.382.8203 0 .4193.182.7839.546 1.0938.364.2917.9.6107 1.61.9571.492.2369.874.4375 1.147.6015.291.1641.664.4284 1.119.793.473.3464.819.7566 1.037 1.2305.237.474.355 1.0027.355 1.586 0 1.2032-.464 2.1147-1.392 2.7345-.91.6198-2.075.9297-3.494.9297-.637 0-1.347-.1003-2.129-.3008-.783-.2005-1.347-.4466-1.693-.7383-.218-1.2579-.328-2.3699-.328-3.336.073-.0547.21-.0821.41-.0821.582 0 .883.0821.901.2461.309 1.8048 1.292 2.7071 2.948 2.7071.437 0 .801-.1002 1.092-.3008.291-.2005.437-.483.437-.8476 0-.4558-.201-.8386-.601-1.1485-.382-.3099-1.083-.7201-2.102-1.2305-1.055-.5104-1.838-1.0664-2.348-1.668-.509-.6198-.764-1.3764-.764-2.2696 0-1.2396.473-2.142 1.42-2.7071.946-.5834 2.056-.875 3.33-.875zM150.269 40.2673c1.055 0 1.911.4466 2.566 1.3399.673.8932 1.01 2.2513 1.01 4.0743v2.7071c0 1.1667.064 1.9961.191 2.4883.036.1277.291.2735.764.4376.473.164.792.2461.956.2461.054 0 .082.1549.082.4648.018.2917.009.474-.028.5469-.2-.0182-.773-.0547-1.719-.1094-.929-.0729-1.602-.1094-2.02-.1094-.437 0-1.101.0365-1.993.1094-.874.0547-1.42.0912-1.638.1094-.073-.0729-.109-.2552-.109-.5469 0-.3099.036-.4648.109-.4648.2 0 .519-.0821.955-.2461.437-.1641.674-.3099.71-.4376.127-.5468.191-1.2396.191-2.0781v-2.461c0-1.349-.182-2.3061-.546-2.8712-.364-.5834-.955-.875-1.774-.875-1.274 0-1.911.401-1.911 1.2031v4.5939c0 1.1667.064 1.9961.191 2.4883.036.1277.273.2735.71.4376.455.164.755.2461.901.2461.054 0 .082.1549.082.4648.018.2917.009.474-.028.5469-.218-.0182-.773-.0547-1.665-.1094-.892-.0729-1.547-.1094-1.965-.1094-.437 0-1.12.0365-2.048.1094-.928.0547-1.492.0912-1.692.1094-.073-.0729-.109-.2552-.109-.5469 0-.3099.036-.4648.109-.4648.2 0 .537-.0821 1.01-.2461.473-.1641.728-.3099.764-.4376.128-.5468.191-1.2396.191-2.0781V37.943c0-.8568-.045-1.513-.136-1.9688-.091-.2917-.564-.4375-1.42-.4375h-.245c-.11 0-.164-.1823-.164-.5469 0-.3099.054-.4648.164-.4648.564-.0547 1.128-.1277 1.692-.2188.582-.0912 1.074-.1823 1.474-.2734.401-.0912.755-.1823 1.065-.2735.327-.0911.582-.1641.764-.2187l.273-.0821h.055c.072 0 .145.0547.218.1641.073.1094.118.2096.137.3008-.219.8203-.328 1.7409-.328 2.7618v5.086c0 .1276.036.1915.109.1915.018 0 .064-.0365.137-.1094.4-.4558.964-.8295 1.692-1.1212.728-.3099 1.483-.4648 2.266-.4648zM163.208 41.7439c-.71 0-1.228.3464-1.556 1.0391-.327.6745-.491 1.3399-.491 1.9961 0 .1094.063.1641.191.1641h3.467c.254 0 .382-.1732.382-.5195 0-.6928-.191-1.3126-.573-1.8595-.364-.5469-.838-.8203-1.42-.8203zm.137-1.504c1.637 0 2.948.5743 3.931 1.7228 1 1.1302 1.501 2.2878 1.501 3.4727 0 .4193-.091.6927-.273.8203-.164.1276-.501.1914-1.01.1914h-6.169c-.11 0-.164.0638-.164.1915 0 .9844.273 1.8685.819 2.6524.564.7838 1.365 1.1758 2.402 1.1758.6 0 1.174-.0821 1.72-.2461.546-.1823.928-.3373 1.146-.4649.219-.1458.51-.3555.874-.6289.164.0729.245.2461.245.5195 0 .2188-.036.4011-.109.5469-.182.4375-.728.9571-1.638 1.5587-.91.6015-1.929.9023-3.057.9023-1.674 0-3.121-.6107-4.34-1.832-1.202-1.2214-1.802-2.6889-1.802-4.4025 0-1.75.546-3.2175 1.638-4.4025 1.092-1.1849 2.52-1.7774 4.286-1.7774zM176.202 41.7165c-.855 0-1.483.3464-1.884 1.0391-.382.6745-.573 1.7592-.573 3.254 0 3.2996.819 4.9494 2.457 4.9494.619 0 1.128-.1732 1.529-.5196.418-.3646.628-.8021.628-1.3125v-4.9767c0-.2187-.019-.4284-.055-.6289-.036-.2005-.118-.4558-.246-.7657-.127-.3099-.355-.556-.682-.7383-.31-.2005-.701-.3008-1.174-.3008zm.164-1.4766c.746 0 1.383.0821 1.911.2461.054 0 .082-.1276.082-.3828V37.943c0-.7656-.055-1.4219-.164-1.9688-.091-.2917-.564-.4375-1.42-.4375h-.245c-.11 0-.164-.1823-.164-.5469 0-.3099.054-.4648.164-.4648.564-.0547 1.128-.1277 1.692-.2188.582-.0912 1.074-.1823 1.474-.2734.4-.0912.755-.1823 1.065-.2735.327-.0911.582-.1641.764-.2187l.273-.0821h.055c.072 0 .145.0547.218.1641.073.1094.118.2096.137.3008-.201.8203-.301 1.7409-.301 2.7618v11.7581c0 .7839.055 1.4401.164 1.9688.036.1276.137.2279.3.3008.164.0729.337.1185.519.1367.182.0182.355.0273.519.0273l.273.0274c.054.0182.082.1276.082.3281 0 .4558-.055.6836-.164.6836-.273.0183-.637.0547-1.092.1094-.437.0547-.883.1185-1.338.1914-.437.0547-.855.1185-1.256.1914-.4.0547-.727.1094-.982.1641l-.41.0547c-.109 0-.163-.155-.163-.4649v-.5742c0-.0729-.01-.1185-.028-.1367-.018-.0182-.045-.0091-.082.0273-.764.7657-1.683 1.1485-2.757 1.1485-1.474 0-2.793-.5469-3.958-1.6407-1.147-1.112-1.72-2.5521-1.72-4.3204 0-1.823.619-3.3451 1.856-4.5665 1.256-1.2396 2.821-1.8595 4.696-1.8595z" fill="#4D4D4D"/><defs><radialGradient id="paint0_radial" cx="0" cy="0" r="1" gradientUnits="userSpaceOnUse" gradientTransform="matrix(0 17.9268 -13.9813 0 22.1286 38.8198)"><stop stop-color="#FFE0AC"/><stop offset="1" stop-color="#FDBE54"/></radialGradient></defs></svg>