<svg width="180" height="184" viewBox="0 0 180 184" fill="none" xmlns="http://www.w3.org/2000/svg"><g clip-path="url(#clip0)"><path d="M88.6852 60.9327c-.0601-.7211.481-1.322 1.2025-1.322.7215 0 1.3829.6009 1.443 1.322.0602.7211-.481 1.322-1.2025 1.322-.7215 0-1.3828-.6009-1.443-1.322z" fill="#78BB25"/><path d="M93.6723 64.4485c-.4831.1777-1.0735 0-1.4492-.4145-3.1299.7448-1.853-7.93-1.7175-9.9479.8457-11.4628 7.5949-19.5113 14.3844-28.3043 1.02-1.2435 4.347-5.9806 5.796-3.612 0-.7106 0-1.4804.215-2.191.59-1.5987 2.415-1.0658 2.898.3553 2.469 6.9873 3.221 14.922 1.342 22.1461-1.664 6.6319-5.528 12.198-9.768 17.1128-1.2 1.6174-10.6502 10.0713-11.7007 4.8555zM75.6932 26c.2856-2.2834 6.0001-17.50009 6.0001-17.50009l2.0001-4.5s4.3164 4.03625 6 6.49999c1.5632 2.4638 2.9872 6.356 4.2498 9 1.1424 2.644 1.3293 5.6757 1.7502 8.5.481 2.7642.1739 5.6318-1.7502 7.9754-3.3965 4.3204-3.9154 9.3257-7.2499 14.5247-.1804 1.0216-3.7975-5.6202-5-5.5-6-7.222-9.5-9.0247-6.0001-19zM63.3121 64.8988c-6.0126-.5408-12.446-1.9229-16.8953-6.2495-3.9081-3.245-6.3733-7.6917-9.1391-11.838-1.3828-2.2835-3.367-9.0137 1.2025-8.5931.9621-.6009 2.2848-.1202 3.3671.1803 1.443.3004 2.9461.661 4.3891 1.0816 8.2372 1.8028 16.4744 4.3867 23.7496 8.7133 2.5253 1.5623 5.0506 3.1247 7.5157 4.7472 1.8038 1.2619 4.0284 2.5238 4.6297 4.8674.7215.2404 1.6234.1202 2.2246.6009.7215.5408.962 1.6826.481 2.4638-2.2246 4.3265-7.5758 4.0862-11.8447 4.0862-3.1867-.1803-6.4334.1803-9.6802-.0601zm-2.5854-5.3482c.2405.0601.4209.0601.6614.1202-4.0886-1.5623-8.0569-3.6055-11.7245-5.949-3.0063-1.983-5.2309-4.8674-7.7562-7.3913 2.3449 4.2064 5.8322 7.6917 9.8606 10.3358 2.7056 1.5623 5.8923 2.2233 8.9587 2.8843z" fill="#78BB25"/><path d="M83.3559 53.9815c-.9295-.1843-1.4872-.9831-2.1688-1.5361-4.2137-3.5637-8.2415-7.6189-13.1368-10.1995-3.1603-1.3517-6.5685-2.1505-9.9146-3.195-1.6112-.4301-2.3269-.3835-3.4423-1.5509 0 .9068-1.5-.5-2.5-.5-1.3633-.4301-1.1988-.447-2.5001-1-1.859-.3072-3.7649.0614-5.4999 0-1.3013-.1843-.31-3.4621.6815-4.0765 1.3633-.7373 3.0363-.3687 4.5235-.4301 2.6026-1.5361 5.8868-1.5361 8.7992-1.4746 4.3996.1843 8.5876 1.4006 11.9958 3.9812 5.5 3.5 9.6924 6.9556 12.4809 12.0554 1.0534 1.8433 1.9209 3.8094 2.4786 5.837.2479 1.0446-.6816 2.2734-1.797 2.0891z" fill="#0D743E"/><path d="M102.514 84.0078c-.181-.5408.3-.9614.782-1.0215.36-.1202.601-.2404.601.3004.481.0601 1.022.3005 1.323.601-.421 1.0215-2.285 1.2619-2.706.1201z" fill="#FDBE54"/><path d="M64.8152 96.9876c-1.0221-3.8459 6.6138-8.2927 9.2593-10.516 4.0886-3.1849 8.2372-6.3697 12.8068-8.8335 3.0062-1.8027 6.0125-3.7256 9.3194-4.9876 6.4933-2.3435 13.2873-4.1463 20.2023-4.627 3.006-.1202 6.734-1.0216 9.139 1.322 4.209 5.6486.361 8.8334-3.247 13.16-1.142 1.5624-2.285 3.6055-3.427 5.0477-1.202 1.8027-2.706 3.6055-4.99 4.0261-.301.9014-1.203 1.6225-2.165 1.6826.06-.4807 0-.9615-.12-1.3821-9.921-.7211-20.0219 1.3821-29.8224 3.0046-1.6234.3605-3.3069.7811-4.9303 1.2018-2.1645.4206-5.8923 2.1633-7.0948-.6009-.2405.1202-.5411.2403-.7816.3605-.4209.1803-.9019.1202-1.3228-.0601-.8418.6009-1.8639.7812-2.7056 1.3821 0 0 .0601.0601 0 .0601-.0602-.2403-.1203-.2403-.1203-.2403zm16.1738-8.3527c.2405-.0601.481-.1202.7215-.1202v-.2404c-.1804.1202-.481.2404-.7215.3606zm25.674-4.2064c.24-.1202.541-.2404.781-.3606v-.0601c-.24.1803-.541.3005-.781.4207z" fill="#FDBE54"/><path d="M156.567 78.3592c.18-1.2619.24-2.5238 0-3.7857-.241-1.4422-.902-2.8243-1.984-3.7858-.541-1.8027-1.443-3.6055-3.067-4.5669-.18-.1202-.36-.1803-.541-.2404-.481-.8413-1.202-1.5624-1.984-2.1032-1.503-1.0816-3.427-1.5624-5.231-1.2018-.18.0601-.601.3605-.3.4807-.061.0601-.121.0601-.241.1202-2.826 2.5238-4.87 5.889-6.974 9.0137-1.083 1.7427-2.165 3.4252-3.187 5.228-2.525 2.8243-5.291 5.4082-7.396 8.593-3.427 4.9275-6.433 10.0954-9.139 15.444-1.022-1.8032-2.765-.842-4.148-.061-2.886 1.563-5.652 3.245-8.358 5.108-3.968 1.382-7.9363 2.764-11.9046 4.147-4.6898-.722-9.3195 1.201-13.5884 2.884-5.1106 2.043-9.7403 5.168-14.0694 8.533-1.5632 1.082-5.4714 2.584-5.4714 4.747-3.2468 2.163-6.0726 5.108-7.8764 8.593-3.0063 3.666-14.0694 19.65-6.7341 22.414.3007.902.8418 1.743 1.6835 2.404 2.3449 1.803 5.5917.601 7.4556-1.322 4.2088-1.743 7.9967-6.971 10.3416-10.756 2.7658-1.142 5.3512-2.705 7.9366-4.207 5.5315-.481 11.0631-1.021 16.5345-2.163 5.291-1.142 10.4618-2.584 15.6925-3.966 3.548-.962 7.035-2.163 10.402-3.666 1.683-.781 3.547-1.442 4.81-2.944 1.443.12 2.706-1.022 3.728-1.923 3.908-1.983 6.072-6.129 8.598-9.495.601-1.442 3.126-1.862 2.525-3.725 1.383-2.164 2.826-4.327 4.209-6.49 1.503-1.743 3.006-3.485 4.449-5.288 4.63-5.7089 9.199-11.8382 11.364-18.9891.781-1.1417 1.563-2.3435 2.285-3.4853.901-1.0816 1.262-2.644.18-3.5454zM69.3248 140.494c.6614-.541 1.443-1.022 2.2848-1.322.1202.06.2405.06.3607.06.3608.06.7817.12 1.1424.06-1.0822.961-2.4651.901-3.7879 1.202zm64.4542-51.1981c.121-.4207.301-.8413.421-1.2619l.06-.0601h.181c-.241.4206-.421.9013-.662 1.322zm7.636-9.4945c-.18.2404-.3.4808-.481.7812 0-.1202.06-.2403.06-.3004.121-.2404.301-.4808.421-.7211v.2403zm3.548-7.2109h-.181c.121-.1803.181-.3606.301-.5409.12-.1201.24-.2403.361-.3605-.181.3005-.361.6009-.481.9014z" fill="#D6E3E2"/><path d="M56.8186 16.1045c-.1203.0601-.2405.1202-.3608.1803h-.0601c.1203-.0601.3006-.1202.4209-.1803zM56.3376 16.2847c-.1203.0601-.2405.1202-.3608.1202.1804 0 .2405-.0601.3608-.1202zM31.2058 32.5094l-.0608.0608.0608-.0608z" fill="#161212"/><path d="M88.7451 184c-1.2025-.06-2.3449-.18-3.5474-.3-5.2309-.241-10.4618-.962-15.6326-2.104-8.117-1.141-16.3542-2.163-23.8097-5.708-8.598-3.906-14.9112-10.997-21.2243-17.727-.1203-.121-.2405-.301-.4209-.421-.1203-.12-.2405-.18-.3006-.3-2.5854-2.584-4.6898-5.649-6.7341-8.714-2.7056-3.906-5.0505-7.992-7.21505-12.258-.12025 0-.2405-.121-.30063-.241-.36075-.841-.7215-1.682-1.08226-2.524-.12025-.24-.18037-.48-.30063-.721-.42087-.841-.78163-1.682-1.14238-2.524-.12025-.24-.2405-.48-.36075-.721 0-.06.06012-.12.06012-.18-1.44301-3.365-2.94615-6.67-3.72778-10.276-.42088-2.283-.78163-4.627-.96201-6.97-.06012-.18-.06012-.361-.12025-.481v-.06c-.06012-.24-.06012-.421-.12025-.661v-.12c-.06012-.481-.18038-.902-.2405-1.382-.06013-.181-.06013-.421-.12025-.601v-.18c0-.061 0-.121-.06013-.181v-.06-.06-.06c-.06012-.3-.12025-.661-.18037-.961-.12025-.541-.18038-1.082-.300631-1.623-.060126-.36-.120251-.721-.180377-1.082-.060125-.36-.120251-.721-.180376-1.081 0-.18-.060126-.361-.060126-.541-.060125-.481-.060125-1.022-.120251-1.502 0-.361-.060125-.781-.060125-1.142v-.361c0-.6005-.060126-1.1413-.120251-1.7423-.060126-.6009-.060126-1.1417-.060126-1.7426 0-.9014 0-1.8628.060126-2.7642v-.7211c.060125-1.0817.120251-2.1032.180376-3.1849.060126-.721.120251-1.4421.180377-2.2233 0-.1202 0-.3005.060125-.4207 0-.1803.060126-.3004.060126-.4807 0-.1803.060125-.3606.060125-.5408 0-.1202.060126-.2404.060126-.3606 0-.2403.060125-.4807.120251-.7211.120251-.7812.180381-1.5023.360751-2.2834 0-.0601.06013-.1202.06013-.1803.06012-.1803.06012-.3005.12025-.4808 0-.1201.06012-.2403.06012-.3004.06013-.1803.12025-.4207.18038-.6009.06013-.3606.18038-.661.2405-1.0216.18038-.8413.30063-1.7426.54113-2.5839.2405-.9014.48101-1.8028.66138-2.7642.06013-.4207.18038-.8413.2405-1.2619.12026-.4207.18038-.8413.30063-1.262.06013-.1201.06013-.2403.12025-.3605.12025-.3606.24051-.7211.30063-1.0817.06013-.2403.12025-.4807.18038-.7211.06012-.2403.12025-.4807.12025-.721 0-.1803.06012-.3005.06012-.4808 0-.1202.06013-.3004.06013-.4206v-.3005c0-.2403.06012-.4807.06012-.7211.18038-.4807.42088-.9614.66138-1.3821 1.80377-5.1678 4.08854-10.2155 6.91442-15.143.2405-.4207.481-.8413.7816-1.2619 2.2848-4.3867 5.1708-8.4729 8.4176-12.2587 3.4272-3.966 7.2151-7.2711 11.1834-10.4559 1.6233-1.322 3.367-2.644 5.0505-3.8459l.0601-.0601c.1804-.1201.3608-.3004.5412-.4206 5.8321-4.8073 12.4459-8.4729 19.8414-10.2756 9.3796-3.84588 20.0218-6.00918 30.2431-5.70872 4.6297 0 9.1391-.96146 13.7689-.60091 4.569.30045 9.259.90137 13.528 2.58393 5.772 2.4637 11.123 6.1894 16.655 8.8334 5.05 3.245 9.86 6.55 14.37 10.456 4.449 3.1247 9.199 6.0091 12.265 10.6361 1.263 1.6826 2.225 3.4853 3.127 5.4083.361.2403.661.5408.962.8413 2.104 2.3435 2.525 5.3481 4.329 7.8118 1.323 2.2234 3.487 3.7257 4.69 6.0693 1.503 3.3651 1.984 7.1509 3.487 10.516 1.864 4.0261 2.285 9.0137 3.006 13.16.782 3.4252.602 6.9105.06 10.3357 0 6.1894-.962 12.1986-2.344 18.2076-.421 1.623-.782 3.305-1.203 4.928-.18.721-.361 1.382-.541 2.103 0 .06-.06.18-.06.24-2.225 8.774-4.75 17.547-9.44 25.239-3.968 6.79-9.019 12.859-14.911 18.087-4.87 4.086-10.462 7.211-16.174 9.975-10.462 6.13-22.126 10.036-34.151 11.478-3.4873.541-6.9746.841-10.4619.841-.1202-.06-.3006-.06-.481-.06zM2.40489 92.7211c-.12025 1.2018-.24051 2.4036-.30063 3.6655.42088 2.9445.78163 5.8894 1.14238 8.8334.30063 4.206.72151 8.413 1.92402 12.439 2.04427 7.271 5.23094 14.061 9.13904 20.491 3.5474 6.37 7.6961 12.439 12.446 17.968.481.48.962.961 1.443 1.442l4.1487 3.966c.5411.541 1.0822 1.081 1.6234 1.682 1.5031 1.443 3.0664 2.825 4.6296 4.207 1.6234 1.322 3.3069 2.584 5.0506 3.665 2.5854 1.803 5.291 3.426 8.177 4.748.7817.24 1.5633.6 2.2848.961.481.12.9019.24 1.3829.361.1203 0 .1804.06.3006.06.1203 0 .1804.06.3007.06.3006.06.6012.12.9018.24.481.12.962.24 1.4431.301.3006.06.6613.12.962.18.481.06.962.18 1.443.24.6614.12 1.3227.241 1.9841.361.3006.06.6614.12.962.18.3608.06.6614.12 1.0222.12.7816.301 1.5632.541 2.3448.721 3.1867.842 6.5537 1.022 9.8606 1.202 1.6835.06 3.3671.18 4.9904.24 1.6836.061 3.307-.06 4.9303-.18 1.6836-.06 3.3069-.12 4.9905-.06.3006 0 .6613.06.962.06h1.5031c.3608 0 .7215-.06 1.0221-.06.2405 0 .481-.06.6614-.06.3608-.06.6614-.06 1.0221-.12 1.6836-.301 3.4275-.601 5.1105-1.022.181-.06.361-.06.601-.12.181-.06.361-.12.602-.12.12-.06.3-.06.421-.12.06 0 .06 0 .12-.06.18-.06.361-.121.541-.181.12-.06.24-.06.301-.12.06 0 .12-.06.18-.06.12-.06.24-.06.361-.12.24-.06.481-.18.721-.24.241-.061.481-.181.722-.241.06 0 .18-.06.24-.06s.121-.06.181-.06c.12 0 .24 0 .421-.06.901-.12 1.803-.24 2.705-.361h.06c.181 0 .361-.06.541-.06.121 0 .241 0 .421-.06h.121c.18 0 .36-.06.541-.06.18 0 .36-.06.541-.06h.12c.12 0 .301-.06.421-.06.18 0 .361-.06.541-.06h.06c.181 0 .301-.06.481-.06.181 0 .361-.06.541-.12 1.443-.241 2.826-.601 4.209-.962.722-.18 1.503-.36 2.225-.541.24-.06.481-.12.721-.18.06 0 .181-.06.241-.06.361-.12.661-.18.962-.301.06 0 .12-.06.18-.06.241-.06.481-.18.722-.3.24-.12.481-.18.721-.301.12-.06.241-.12.361-.12.06 0 .06-.06.12-.06 0 0 .06 0 .06-.06.121-.06.241-.12.361-.12.06-.06.18-.06.241-.12h.06c.18-.06.3-.12.481-.181.18-.06.3-.12.481-.18.12-.06.18-.06.3-.12.06 0 .06 0 .121-.06.24-.06.42-.18.601-.24.12-.061.24-.121.361-.121.18-.06.36-.18.601-.24.06 0 .12-.06.18-.06.06-.06.12-.06.241-.12.24-.121.421-.181.661-.301.12-.06.301-.12.421-.24 1.022-.541 2.044-1.082 3.066-1.563 1.143-.54 2.285-1.141 3.428-1.742.541-.361 1.082-.661 1.623-1.022.421-.24.782-.541 1.202-.841.121-.06.181-.12.301-.18l.06-.06c.12-.06.241-.181.361-.241.782-.541 1.623-1.141 2.345-1.802.842-.782 1.683-1.503 2.465-2.284.12-.12.24-.24.301-.3.42-.421.901-.902 1.322-1.383.06-.12.181-.18.241-.3l.06-.06c.06-.12.18-.18.24-.301.121-.12.181-.24.301-.36s.18-.24.301-.361c.12-.12.18-.24.3-.36.121-.12.181-.241.301-.361.06-.12.18-.24.24-.3.181-.241.421-.481.602-.781.12-.121.18-.241.3-.361.06-.06.06-.06.121-.12l.06-.06s0-.06.06-.06c.12-.181.24-.301.361-.481.12-.12.24-.24.36-.361 1.504-1.322 2.886-2.644 4.269-4.086.121-.12.241-.24.361-.36.12-.121.301-.301.421-.421s.24-.24.361-.421l.06-.06c.361-.36.721-.781 1.082-1.141.06-.061.06-.061.12-.121s.181-.18.241-.24l.06-.06.06-.06c.12-.12.18-.241.301-.361.06-.06.12-.12.12-.18 1.383-1.622 2.525-3.365 3.668-5.168.781-1.262 1.563-2.524 2.284-3.846.361-.601.662-1.202.962-1.802.121-.301.301-.601.421-.902.06-.12.12-.18.12-.3.061-.181.181-.421.241-.601.18-.421.361-.841.541-1.262 0-.06.06-.12.06-.18.722-1.623 1.564-3.245 2.285-4.868.962-2.163 1.563-4.386 2.044-6.67.241-1.021.481-2.043.662-3.065 0-.12.06-.3.06-.42v-.06c0-.121.06-.241.06-.421v-.06c0-.12.06-.18.06-.301v-.18-.18-.18c0-.121.06-.181.06-.301v-.12-.12c0-.241.06-.421.06-.661.06-.481.121-.902.181-1.322.06-.421.12-.902.12-1.322.06-.541.12-1.082.18-1.563.06-.781.121-1.562.181-2.343 0-.241.06-.541.06-.781v-.421c0-.24 0-.481.06-.721v-.421c0-.24.06-.48.06-.721.06-.24.06-.481.06-.721v-.18c.06-.541.12-1.082.241-1.623 0-.18.06-.36.06-.54 0-.181.06-.361.06-.541.24-1.923.301-3.9062.421-5.8292.12-1.0215.3-2.0431.421-3.0646 0-.1803.06-.3606.06-.5408 0-.1803.06-.3606.06-.5409.06-.661.12-1.3821.18-2.0431 0-.2404.06-.4807.06-.661.061-.9014.061-1.8628.121-2.7642 0-1.0816-.06-2.1032-.121-3.1848 0-.1202 0-.3005-.06-.4808-.06-.661-.12-1.3821-.24-2.0431v-.1803c-.06-.3004-.06-.6009-.12-.9013v-.1803c-.061-.3005-.061-.5408-.121-.8413 0-.1803-.06-.3605-.06-.5408-.12-1.2619-.24-2.5238-.361-3.7858-.12-.9614-.24-1.9229-.481-2.8844 0-.1201-.06-.2403-.12-.3605-.06-.1202-.06-.2404-.12-.3606-.06-.1201-.06-.2403-.12-.3605-.06-.1202-.06-.2404-.121-.3605-.06-.1202-.06-.2404-.12-.3606-.06-.2404-.18-.4807-.24-.7211-.06-.1202-.06-.2404-.121-.3605-.06-.1803-.12-.4207-.18-.601-.18-.661-.421-1.3821-.601-2.0431-.241-.661-.421-1.3821-.662-2.0431-.12-.3605-.24-.7812-.42-1.1417-.121-.3606-.301-.7812-.421-1.1418-.301-.7211-.662-1.5022-1.022-2.2233-.121-.1803-.181-.3606-.301-.5409-.06-.1201-.181-.3004-.241-.4206 0-.0601-.06-.1202-.06-.1202s0-.0601-.06-.0601c-.12-.1802-.18-.3004-.3-.4807-.121-.1803-.241-.3606-.361-.5408-.12-.1803-.241-.3606-.361-.5409-.361-.5408-.782-1.0816-1.142-1.5623-.061-.0601-.121-.1202-.181-.2404-.06-.0601-.12-.1202-.18-.2404-.12-.1201-.241-.3004-.361-.4206 0 0 0-.0601-.06-.0601-.661-.8413-1.383-1.6826-1.984-2.5238-.12-.1202-.181-.3005-.301-.4207-.12-.1202-.18-.3004-.3-.4206-.361-.5408-.722-1.1418-1.083-1.6826 0 0 0-.0601-.06-.0601-.18-.3004-.361-.6009-.541-.9013-.361-.5409-.721-1.0817-1.082-1.6225-1.082-1.6826-2.285-3.305-3.487-4.9275-.301-.4206-.602-.7812-.902-1.2018-.181-.3005-.421-.601-.602-.8413-.24-.3005-.42-.6009-.661-.8413-.06-.1202-.12-.1803-.24-.3005-.061-.1201-.181-.2403-.301-.3605v-.0601c-.12-.1202-.18-.2404-.301-.4206-.06-.0601-.12-.1202-.18-.2404l-.12-.1202-.06-.0601c-.061-.1202-.181-.1802-.241-.3004-.06-.0601-.06-.1202-.12-.1202-.06-.1202-.181-.1803-.241-.3005-.12-.1202-.24-.3004-.36-.4206-.121-.1202-.181-.2404-.301-.3606-.12-.1201-.241-.2403-.361-.3605-1.082-1.1417-2.225-2.1032-3.547-3.0046-.782-.5408-1.503-1.1417-2.285-1.6825-1.323-1.0817-2.585-2.2234-3.908-3.3652-1.203-1.0816-2.345-2.2233-3.608-3.1848-1.623-1.2619-3.247-2.5839-5.05-3.6055-.121-.0601-.241-.1202-.361-.2404-.06-.06-.18-.1201-.241-.1201-.06 0-.12-.0601-.18-.0601-.06-.0601-.12-.0601-.24-.1202-.241-.1202-.481-.2404-.662-.3005-.12-.0601-.24-.1202-.361-.1202-.06-.06-.18-.06-.24-.1201-.241-.1202-.541-.1803-.782-.3005-.541-.1803-1.022-.3605-1.563-.6009-2.946-1.2619-5.712-2.8243-8.478-4.3867-1.202-.661-2.405-1.2619-3.667-1.8027-.121-.0601-.241-.1202-.361-.1202h-.06c-.12-.0601-.181-.0601-.301-.1202-.06 0-.06-.0601-.12-.0601s-.12-.0601-.12-.0601c-.06 0-.121-.0601-.181-.0601-.12-.0601-.24-.0601-.421-.1202-.12-.06-.24-.1802-.42-.2403-.061 0-.061-.0601-.121-.0601-1.443-.8413-2.826-1.5624-4.509-1.9229-1.263-.3005-2.465-.4207-3.728-.5409-1.443-.1201-2.826-.3004-4.269-.4206-1.082-.0601-2.1042 0-3.1263 0-.8418 0-1.7437 0-2.5854.0601H92.2324c-.481 0-1.0221-.0601-1.5032-.0601H87.0616c-1.1424 0-2.2848.0601-3.4272.1202-1.2626.0601-2.5252.1803-3.7879.3605-.1803 0-.4208.0601-.6012.1202-.4209.0601-.8418.1202-1.2025.2404-.1804.0601-.4209.0601-.6013.1202-.3006.0601-.6614.1201-.962.1802-1.0221.2404-2.1044.4808-3.1265.601-1.0823.1802-2.1044.3004-3.1867.4807-1.3829.1803-2.8259.4206-4.1486.7812-.2405.0601-.481.1202-.6614.1802-.2405.0601-.481.1202-.6614.1803-.8418.3005-1.7436.4808-2.5854.7211-.8417.2404-1.5633.5408-2.3449.9014-.2405.1202-.481.2404-.6614.3605-.3006.1202-.6613.2404-1.0221.3606H57.9608c-.5411.1803-1.0822.4206-1.6233.661.0601 0 .1202-.0601.1803-.0601.0602-.3605 0-.3605-.0601-.3005h-.0601-.0601H56.2172h-.0601-.0601-.0602-.1202c-.9019.3606-1.7437.7211-2.6455 1.0817-.1203.0601-.1804.0601-.3007.1202-.3006.1202-.6012.3004-.9018.4807-.3007.1803-.6013.3005-.9019.4807-.1203.0601-.1804.1202-.3007.1803-1.3828.6009-2.7657 1.0817-4.0885 1.8028-1.6234.9013-3.3069 1.7426-4.5695 3.1848-.0602.0601-.1203.1202-.1203.1803-.6012.3605-1.2025.7211-1.7436 1.0816-1.5633 1.0817-3.0664 2.2234-4.5696 3.4252-1.443 1.2019-2.886 2.4638-4.2689 3.7858-.0601.0601-.1202.0601-.1202.1202l-.0601.0601c-.4209.4206-.8418.8412-1.3228 1.2619-.2405.2404-.4209.4206-.6614.661-.2405.2404-.4209.4206-.6614.661-.8417.8413-1.6835 1.7427-2.5252 2.5839-1.5032 1.5023-2.9462 3.0647-4.3892 4.6872-1.0221 1.1417-2.0443 2.2834-2.9462 3.4853-1.0822 1.5023-2.1043 3.0045-3.0062 4.5669-1.2627 2.2234-2.3449 4.567-3.3069 6.9706-.962 2.5239-1.8639 4.9876-2.4652 7.5715-.42085 1.8028-.96198 3.6055-1.50311 5.4083v.0601l-1.98414 6.1293c.12025-.4206.2405-.8413.42087-1.2018-.2405.7211-.481 1.5023-.66138 2.2234v.06c-.66138 2.2234-1.26263 4.5069-1.92401 6.7303 0-.0601.06012-.1803.06012-.2404-.06012.1202-.06012.2404-.12025.3606-.06012.1802-.12025.4206-.18037.6009.12025-.3606.2405-.7211.30062-1.0817-.962 3.1248-1.68351 6.0092-2.04426 8.9537zM30.724 161.706c.5411.481 1.0823.901 1.6234 1.322-.4209-.421-.8418-.841-1.2627-1.262-.7215-.661-1.5031-1.322-2.2246-2.043.6013.661 1.2626 1.262 1.8639 1.983zM9.07882 131.6c-.06013-.24-.12025-.481-.12025-.661-.18038-.36-.36076-.661-.54113-1.021.18037.601.42088 1.141.66138 1.682z" fill="#171212"/><path d="M56.8187 16.1045c-.0601 0-.0601.0601-.1202.0601 0 0 .0601-.0601.1202-.0601zM98.4856 181.897c1.2626-1.022 2.7654-1.683 4.3894-1.863 2.705-.481 5.411-1.082 8.057-1.863 2.284-.841 4.509-1.803 6.794-2.644 6.193-2.343 12.446-4.687 18.158-7.992 4.629-2.464 8.537-6.129 12.506-9.495 1.383-1.382 2.946-2.644 4.87-3.244-.601 3.665-4.329 5.528-6.794 7.932-1.924 1.562-3.788 3.184-5.832 4.687-3.007 2.103-6.374 3.725-9.621 5.468-4.569 1.983-9.199 3.786-13.828 5.468-4.931 2.104-10.041 3.666-15.332 4.267h-.061c-1.142-.06-2.3444-.301-3.3064-.721zM31.5658 131.6c2.1044-3.846 4.0284-7.872 6.3132-11.657 2.2847-3.546 4.1486-7.452 6.3733-11.057 1.924-3.426 3.9081-7.091 6.9745-9.6149 1.2627-.7812 2.6455-.5408 3.8481-1.5023 2.0442-.8413 3.9682-.7211 6.0726-1.2018 1.3829-.1202 2.7057-.601 4.0284-.7812 1.3829-.1202 2.7057-.3606 3.9683-.9014 1.6835-.1202 3.1867-.2404 4.7499-.9014 5.5917-1.6825 11.484-1.6224 17.2561-2.5238 2.1044-.4807 4.1486-1.2018 6.253-1.5023 3.6678-.3605 7.3958-.1803 11.0628-.7211 4.51-.1803 5.532 3.0046 4.931 6.8504-.301 2.6441-1.083 5.3478-2.826 7.4518-6.614 7.391-12.9874 6.91-22.0062 8.112-3.6677.24-7.2752.601-10.8827 1.562-2.0443.481-4.3892.601-6.2531-.48.6013-.782 1.5633-1.262 2.4651-1.683 1.1424-.541 2.6456-.721 3.8481-.961 2.7658-.722 5.5917-1.142 8.4176-1.202 4.9302-.781 10.101-.842 14.9112-2.464 3.066-1.262 5.712-3.485 7.696-6.009 1.263-2.3437 1.864-5.168 1.443-7.752-1.323-.4206-2.706 0-4.028.0601-1.143.1202-2.345.1202-3.548.1202-1.082 0-2.164 0-3.1865.0601-3.7278.3005-7.2151 1.8027-10.9429 1.983-4.1486.3005-8.2372.7211-12.3257 1.6225-1.2626.3004-2.4651.7812-3.6676 1.0215-1.2627.3005-2.2247.1803-3.3069.661-3.7278.7211-7.4556 1.3821-11.2435 1.8626-1.1424.12-1.8639.842-2.886 1.262-.4209.12-.9019.18-1.3228.241-.7816.12-1.3829.721-1.8038 1.261-1.924 1.803-3.1866 4.147-4.3891 6.49-1.2627 2.464-2.8259 4.748-4.0886 7.211-2.1044 3.846-4.5695 7.452-6.4935 11.358-1.443 2.644-2.8259 5.288-4.3291 7.872-.7215 1.262-1.924 2.103-3.0664 2.884-.7816-2.464.8418-4.867 1.9842-7.031zM57.2395 158.822c-1.3829-.661-.7215-3.726-.1202-4.868 1.0221-2.644 1.8639-5.408 3.3069-7.872.9019-1.442 1.5632-3.185 3.0664-4.086 3.6676-1.562 7.8163-2.163 11.6042-3.245 3.0664-.721 6.1929-.841 9.2593-1.442 5.1107-1.022 10.1612-2.223 15.332-3.005 5.4109-1.442 11.0629-2.223 16.4749-3.785 2.705-1.262 4.449-3.786 6.192-6.13 1.023-1.141 2.345-2.163 3.848-2.343.061 1.081-.12 2.103-.42 3.124-1.383 3.125-3.848 5.829-6.614 7.872-2.586 1.503-5.712 1.803-8.598 2.524-3.728.661-7.335 1.863-11.0632 2.464-3.9683.541-7.8164 1.382-11.7245 2.283-3.4873.782-7.4556 1.022-10.8827 1.683-2.1645.481-4.3291 1.142-6.4936 1.562-1.0822.241-2.1044.601-3.1866.902-1.0823.36-2.3449.36-2.8259 1.562-1.5032 2.704-2.6456 5.589-3.7278 8.473-.6013 1.743-1.6234 3.125-3.1265 4.206l.0601-.06c-.1203.121-.2405.181-.3608.181z" fill="#171212"/><path d="M115.982 89.2959c1.503-2.3435 3.127-4.627 4.81-6.9105 5.231-6.61 9.981-13.5806 14.911-20.4311 2.345-3.7256 6.133-6.4298 10.282-7.8119 2.285-.4807 4.75-1.2619 6.614.6009 4.749 2.4638.962 9.4344-.962 12.7394-1.564 3.1248-3.548 6.1895-5.352 9.1339-2.405 3.7257-4.569 7.2711-7.155 10.8165-1.443 2.4037-2.705 5.228-5.291 6.6702-.42.3004-.962.4807-1.382.7211-.181-.8413 0-1.7427.18-2.5239.361-1.4422 1.443-2.5238 2.225-3.7257 1.322-2.3435 2.946-4.8674 4.569-7.0307 3.127-5.288 6.674-10.3958 9.56-15.804 1.443-2.4037 2.946-4.9876 2.886-7.872-.601-.3605-1.142-.7812-1.683-1.2018-3.367.1202-6.434 1.8027-9.14 3.7256-2.104 1.9831-3.547 4.567-5.291 6.8505-3.607 4.5068-6.914 9.194-10.341 13.821-1.744 2.1633-3.487 4.4468-5.111 6.7303-2.345 3.0646-4.028 7.5114-8.237 8.3527.24-2.8243 2.465-4.6271 3.908-6.8505zM122.235 125.531c3.307-5.528 6.734-10.997 10.402-16.285 2.706-4.687 5.471-9.3741 7.936-14.1814 2.586-4.5068 4.209-9.0137 6.434-13.5807.661-.9614 1.563-1.8628 2.585-2.4036.481 2.7041-.661 5.2279-1.804 7.6316-3.186 7.3912-7.034 14.4821-11.183 21.3921-2.525 4.507-5.892 8.594-8.478 12.98-1.863 2.764-3.246 5.829-5.411 8.293-.781.841-1.864 1.262-2.766 1.742-.24-1.983 1.203-4.026 2.285-5.588z" fill="#171212"/><path d="M125.422 103.658c.18-2.224.902-4.0264 2.164-5.7691 1.443-2.3436 2.826-4.7472 4.329-7.0307.842-1.2018 2.105-1.9229 3.428-2.4637-.121 1.6825-.662 3.305-1.564 4.6871-1.443 2.5839-3.006 5.1078-4.629 7.5714-.782 1.502-2.105 2.704-3.728 3.005 0 .06 0 .06 0 0zM147.849 83.467c-1.083-4.0862 2.104-7.4513 2.164-11.5375.12-1.4422 1.082-2.5239 1.563-3.7257.241.0601.421.3005.541.5408.602 1.1418.782 2.5239.722 3.7858-.241 1.9229-.661 3.9059-1.443 5.7087-.541 1.2619-.902 2.7041-1.804 3.7857-.541.4808-1.142.9014-1.743 1.4422zM131.795 112.551c1.503-1.863 2.946-3.785 4.269-5.829 4.028-6.369 8.658-12.3183 12.266-18.9885 1.443-2.644 3.006-5.288 4.509-7.9321.06-.1802.06-.3605.06-.4807.421.0601.722.4207.902.7812 1.323 2.4037-.361 4.8674-1.683 6.9105-2.766 4.9876-5.773 9.7949-9.079 14.4216-3.067 4.147-5.472 8.353-8.719 12.319-1.503 1.983-3.066 4.086-5.531 4.868.06-2.404 1.503-4.327 3.006-6.07z" fill="#171212"/><path d="M151.516 75.8354c-.12 0-.18.0601-.3.0601.06-.2404.12-.5408.12-.7812-.421-.4206-.181-1.2018.421-1.3821.721-.2404 1.443.2404 1.924.661 2.224 2.3436 1.262 7.6917-1.624 9.2541-.841-2.4638 0-5.2881-.541-7.8119zM66.4987 82.8661c6.4935-5.2279 14.9712-6.1894 22.5471-8.9536 6.4935-2.8844 13.2872-5.4683 20.5032-5.288 3.667-.3606 6.613 1.9229 9.379 4.0261 1.624 1.3821 9.199 2.7041 7.035 5.7688-.301-.3005-.421-.6009-.782-.7812-1.503.3004-2.946-.4207-4.329-.9014-2.164-.6009-4.028-1.983-5.832-3.2449-2.525-2.1032-5.832-1.6826-8.838-1.5624-6.4339.4206-12.0857 3.6656-18.0983 5.7688-10.8225 3.1848-17.4364 4.1463-25.6134 12.9196-1.6835 1.983-3.0063 4.0862-5.2911 5.4083-1.3829-4.5069 6.1328-10.5761 9.3195-13.1601zM90.4888 67.9634c-1.3828-4.3266-3.4872-8.4729-4.4492-12.9197-.7216-14.1215 9.4998-25.8393 18.2184-35.8746 1.503-1.5624 2.465-3.6656 4.028-5.2279 3.547-1.5624 3.187 5.1077 3.608 7.1509.601 4.8674.42 9.7348.12 14.6022-.481 4.8674-.902 9.855-3.127 14.3017-2.405 4.9275-8.117 12.8596-12.9869 15.4435-.481 1.5023-2.1645 3.6656-3.7879 3.6656-.5411 0-1.1424-.3004-1.6234-1.1417zm1.5032-25.4788c-2.2848 5.228-3.7879 11.4174-1.1424 16.7655.6614 1.8629 1.443 3.7257 2.1645 5.5284.1804-.0601.3608-.1802.6013-.2403.8417-2.1633 3.1265-3.1248 4.5094-4.9275 3.1262-3.6055 6.2532-7.3913 8.1772-11.778 2.285-5.2279 2.585-11.0568 2.826-16.7054.12-3.966.12-7.932-.541-11.8981-6.013 7.3913-12.9274 14.3018-16.595 23.2554z" fill="#171212"/><path d="M90.7294 67.0019c-2.1645-1.5023-3.0063-4.0862-4.5094-6.1293-9.4397 2.2234-19.7813 2.4037-29.0406-.8413-6.0727-2.1633-10.8226-6.7903-15.1516-11.4173-2.5253-2.5239-4.269-5.7087-5.3512-9.1339-1.0222-2.5239-1.5633-5.4684 2.2246-5.1078.962-1.7427 2.9462-2.4037 4.7499-3.0046 2.3449-.9014 4.75-1.4422 7.2151-1.983 6.6739-1.7427 14.0694-1.0216 20.0819 2.4637 4.5696 2.7642 8.2372 6.7904 11.2435 11.177 1.8037 2.8844 3.2468 6.0693 4.7499 9.134.7215 1.5623 1.443 3.1247 1.924 4.7472.2405.7211.3608 1.5624.0601 2.2834 1.5032 2.3436 3.6076 5.0477 2.5253 7.9922-.0601.0601-.0601.0601-.1202.0601-.2405.1803-.5412-.1803-.6013-.2404zM39.6227 37.497c.962 2.7042 2.0443 5.3482 3.9082 7.5716 3.0063 3.305 6.1929 6.4297 9.8606 9.0137 5.4113 3.7857 12.3257 4.5669 18.7591 4.8073 3.9683.0601 7.9366-.0601 11.7846-.9014-2.4651-3.0046-5.6518-5.288-8.5979-7.8119-2.405-1.983-4.8101-4.0862-7.5157-5.6486-5.291-2.644-10.9429-4.4467-16.7149-5.6486-3.2468-.9013-6.5537-1.3821-9.8606-1.3821-.6012-.0601-1.0822 0-1.6234 0zm5.0506-2.8844c4.1486.3005 8.1169 1.5624 12.2054 2.3436 4.9905 1.2619 9.9809 2.8844 14.3099 5.7688 4.1487 3.0647 7.9967 6.4298 11.9049 9.7348-3.1867-7.0908-7.6961-13.9412-14.6105-17.9072-3.3671-1.8028-6.9145-2.4638-10.522-2.4638-4.5094 0-9.0188 1.0817-13.2877 2.5238zM92.413 64.7785c-.9018-1.983-1.0221-4.1463-.6012-6.2495.481-5.0477 2.3449-9.9151 4.5695-14.4219.6614-1.0817 1.5633-1.923 2.6455-2.584.2405 1.262.3007 2.6441 0 3.9661-.6613 2.0431-1.6835 3.966-2.4651 6.0091-.8418 2.4037-1.443 4.8674-1.7436 7.3913-.1804 2.1032-.4209 4.5669-2.4051 5.8889z" fill="#171212"/><path d="M91.5711 66.8217c-1.9241-.9615-.3007-3.7257 1.3828-3.8459 1.2026-.8412 2.5854-1.2619 4.0285-1.5623-.2405.9013-.6614 1.7426-1.2026 2.5238-.6613.9014-1.5632 1.4422-2.2847 2.2234-.3007.4807-.7817.7812-1.3228.7812-.1804 0-.4209 0-.6012-.1202zM72.9925 30.4062c.2405-3.966 1.2627-7.872 2.7057-11.5976 1.5632-3.8459 3.4872-7.6316 4.329-11.71787.4209-2.1032.3608-3.84585.2405-5.88896.1203-.961459 1.2626-1.442191 2.1044-1.021551.9019.360549 1.2626 1.382101 1.6234 2.163291 1.0221 2.04311 2.0442 4.08622 3.1866 6.06924 3.2468 6.00915 10.522 20.55125 5.712 26.68055-.1203.1202-.2406.3606-.3007.4808-.481-.9014-.7816-1.8629-.962-2.8844 0-9.0738-4.2088-17.4265-8.4777-25.17833-1.2626 6.91053-5.2309 13.03983-6.3733 20.01043-.3607 1.9229-.5411 3.906-.3607 5.8289.3006 1.8027.0601 3.6656-.6013 5.3481-2.8259-1.7426-2.9461-5.4082-2.8259-8.2926z" fill="#171212"/><path d="M83.8149 51.8589c-.6013-3.0045-1.0221-6.0692-1.5032-9.1339-.481-3.7857-2.405-14.0614 1.2026-16.2848.481 1.3821 1.0221 2.7643.9018 4.2665-.1202 3.0046.1203 5.9491.5412 8.8936.4209 3.1247.962 6.1894 1.443 9.3141.4209 2.4638.9019 5.0477-.3006 7.3312-1.0823-1.2619-1.9842-2.7041-2.2848-4.3867zM91.2916 70.4963c-1.6234-1.3221-1.9241-3.6656-3.3069-5.228-.8418-.9615-1.3895-1.927-2.2913-2.7682-2-2-1.8574-1.9189-2.5789-3.0006 1.8639-.4206 3.7879.9014 5.1107 2.2234 2.1645 1.9229 3.5082 1.4016 4.35 4.1658.481 0 1.019 2.0601 1.5 2-.3006.8413-.9197 2.908-1.8818 2.908-.3607-.0601-.6613-.1202-.9018-.3004zM56.3978 99.3912c-.0601-.0601-.1804-.1202-.2405-.1803-3.9683.3606-1.0221-6.0692 1.0822-6.7302 1.3228-4.0863 5.2911-6.7904 8.4176-9.2541 6.0126-4.4468 13.2878-6.8504 20.3224-9.0137 6.6138-2.0431 13.2277-5.1679 20.3225-4.2064 2.044.1802 3.968.9614 5.892 1.5623 2.405.7812 4.931 1.262 7.095 2.5239 1.623.8413 3.247 1.6825 4.99 2.0431h.542c.421 0 .841-.0601 1.262.0601.962.2404 1.684 1.4422 1.022 2.2835-.721 1.0215-2.104.9013-3.126 1.3821-.06-.1803-.12-.4207-.06-.601-3.668-.5408-6.434-3.305-10.041-4.0862-3.367-.9013-6.554-2.4036-9.981-2.4036-3.608-.4207-7.2151 1.1417-10.5821 2.1032-9.079 3.0646-18.5187 5.3481-26.335 11.2371-2.4652 1.983-5.2911 3.9059-6.7341 6.7903.481 1.4422-1.1424 2.5239-1.2626 3.906-.3006 1.2018-.481 3.0045-1.6835 3.0045-.2405-.1802-.5412-.2403-.9019-.4206z" fill="#171212"/></g><defs><clipPath id="clip0"><path fill="#fff" d="M0 0h179.054v184H0z"/></clipPath></defs></svg>