<svg width="183" height="184" viewBox="0 0 183 184" fill="none" xmlns="http://www.w3.org/2000/svg"><g clip-path="url(#clip0)"><path d="M160.654 146.66s0-.061 0 0c-.061.062-.184.184-.245.307.061-.123.123-.245.245-.307zM160.776 146.477s-.061.061 0 0c-.061.061 0 0 0 0zM160.839 146.415c-.063 0-.063 0 0 0-.063 0-.063.063 0 0-.063 0-.063 0 0 0zM18.1838 43.5322c.0626 0 .0626 0 0 0 0 .0626 0 0 0 0z" fill="#161212"/><path d="M160.899 146.293c-.061.122-.122.183-.245.306.123-.123.184-.245.245-.306zM173.634 54.8751s0 .0619.062.0619c-.062 0-.062 0-.062-.0619zM174.674 119.315v.123c-.061-.062-.061-.062 0-.123z" fill="#161212"/><path d="M108.858 5.15032c.979.18394 2.02.42919 3 .67445-.857-.30657-1.776-.49051-2.633-.79707-.673-.12263-1.408-.24525-2.082-.36788.551.18394 1.164.30656 1.715.4905zm35.265 15.94138c.306.2452.674.4292.98.6131-.49-.4292-.919-.7971-1.408-1.1649.122.1839.306.3678.428.5518zm34.715 80.1973c.183-1.9008.306-3.7401.367-5.5795 0-2.6365-.245-5.2729-.673-7.8481-.429-2.6977-.919-5.3342-1.653-7.9707-.551-1.8393-.98-3.6787-1.409-5.5181v-.0613c-.489-2.146-.918-4.2919-1.408-6.4379.061.4292.184.8584.245 1.2876-.184-.7971-.367-1.5328-.49-2.3299v-.0613c-.551-2.3299-1.163-4.6598-1.714-6.9284 0 .1227.061.2453.061.3679-.061-.1226-.061-.3066-.122-.4292-.061-.1839-.123-.4292-.184-.6131.061.3679.184.7357.245 1.1036-.735-2.943-1.531-5.8247-2.694-8.6451-.49-1.1649-1.041-2.2686-1.592-3.3722-1.836-2.3912-3.673-4.7824-5.51-7.2349-2.388-3.5562-4.898-7.051-8.082-10.0553-5.51-5.3343-11.755-9.7488-18.49-13.4276-6.367-3.8014-13.102-7.1123-20.143-9.50347-.673-.18394-1.346-.36788-2.02-.55182-1.898-.4905-3.796-.91969-5.694-1.41019-.735-.24525-1.53-.42919-2.265-.61313-2.082-.49051-4.102-.9197-6.1839-1.34889-2.0816-.36787-4.2245-.61312-6.3674-.67444-3.1837-.30656-6.4286-.30656-9.6123 0-.8571.18394-1.7143.30657-2.5102.30657-.4898.12262-.9184.24525-1.4082.36787-.1224 0-.1836.06132-.3061.06132-.1224 0-.1837.06131-.3061.06131-.3061.06131-.6123.18394-.9184.24525-.4898.12263-.9796.30657-1.4082.49051-.3061.12262-.6122.24525-.9183.36787-.4898.18394-.9184.36788-1.4082.49051-.6735.24525-1.2857.42919-1.898.67444-.3061.12262-.6122.24525-.9796.36787-.3061.12263-.6122.24526-.9183.36788-.796.12263-1.6531.30657-2.449.55182-3.245.85838-6.3062 2.39122-9.3062 3.92402-1.5306.7971-3.0613 1.5328-4.5307 2.3299-1.4694.7971-2.8775 1.7781-4.2857 2.6364-1.4082.9197-2.8776 1.7781-4.4082 2.5752-.3061.1839-.6122.3066-.9184.4905-.0612.0613-.1836.0613-.2449.1226-.0612 0-.0612.0613-.1224.0613-.1225.0613-.2449.1227-.3061.184-.1225.0613-.1837.1226-.3062.1839l-.0612.0613c-.0612.0613-.1837.1226-.2449.184-.3061.1839-.6122.3678-.8571.6131-.1837.1226-.3674.2452-.5511.4292-.3061.1839-.551.4292-.8571.6744-1.347 1.1037-2.6939 2.2686-3.9796 3.4949-.1225.1226-.3061.2452-.4286.4291-.1224.1227-.3061.3066-.4286.4292-.1224.1227-.2449.2453-.3061.3679 0 .0613-.0612.0613-.0612.1226-.1225.1227-.2449.2453-.3674.4292-.0612.0613-.1836.184-.2449.2453-.0612.0613-.1224.1226-.1224.1839l-.2449.2453c-.1837.1839-.3674.3679-.4898.5518-.1837.1839-.3061.3679-.4898.5518-.0612.0613-.1225.1226-.1837.1839-.0612.0614-.1224.1227-.1224.184-.1225.0613-.2449.1839-.3062.2452-.7347.5518-1.4694 1.1037-2.2041 1.6555h-.0612c-.1224.1226-.3061.1839-.4286.3065-.1224.0614-.2449.184-.3061.2453-.0612 0-.0612.0613-.1224.0613-.1225.1226-.3062.1839-.4286.3066-.1837.1226-.3061.2452-.4898.3679-.0612 0-.0612.0613-.1225.0613-.1224.0613-.2449.1839-.3673.2452-.1225.1226-.3061.2453-.4286.3066 0 0-.0612 0-.0612.0613-.1225.1226-.2449.1839-.3673.3066-.1225.1226-.3062.2452-.4286.3678-1.1021.981-2.1429 1.962-3.1837 3.0044-.551.5518-1.1021 1.1036-1.6531 1.5941-.1837.1839-.3673.3679-.551.5518-.0612.0613-.1225.1226-.1837.184-.2449.2452-.4898.4905-.7347.797-.0612.0613-.1224.1227-.1224.184-.1837.1839-.3674.4292-.4898.6131-.1837.1839-.3674.4292-.4898.6131-.0613.1226-.1837.184-.2449.3066 0 .0613-.0613.0613-.0613.1226l-.0612.0613c-.0612.1227-.1224.184-.2449.3066-.0612.0613-.1224.1226-.1837.2452l-.0612.0614c-.1224.1226-.2449.3065-.3061.4291-.1225.1227-.2449.3066-.3061.4292-.0613.0614-.1225.184-.1837.2453l-.0612.0613c-.1225.1839-.3062.3679-.4286.5518-.0612.1226-.1225.184-.2449.3066-.1225.1839-.2449.3679-.3674.4905-.0612.0613-.0612.1226-.1224.1839-.0612.0613-.1225.1226-.1225.184-.1224.1839-.3061.3678-.4285.6131-.0613.1226-.1837.2452-.2449.4292-.6123.981-1.2857 1.962-1.898 2.943-.7347 1.1036-1.4694 2.146-2.0816 3.3109-.3062.5518-.6123 1.1649-.9184 1.7781-.2449.4292-.4286.9197-.6735 1.3489-.0612.1226-.1224.2452-.1224.3065 0 0 0 .0613-.0613.0613-.0612.1227-.1224.3066-.1836.4292-.42861.9197-.85719 1.8394-1.16331 2.7591-.36735 1.1036-.67347 2.2073-1.04082 3.3109-.06123.1226-.06123.3066-.12245.4292-.18368.6131-.30613 1.2262-.4898 1.9007-.06123.1226-.06123.2452-.06123.3679v.0613c0 .1226-.06122.2452-.06122.3679-.06123.1226-.06123.3065-.06123.4291-.06122.1227-.06122.3066-.06122.4292 0 .1227-.06123.3066-.06123.4292 0 .1226-.06122.3066-.06122.4905 0 .1227-.06123.3066-.06123.4292-.06122.3066-.12245.6132-.12245.981 0 .184-.06122.3066-.06122.4905v.4292c0 .184-.06123.3679-.06123.6131-.06122.184-.12244.3066-.18367.4906-.67347 1.9007-1.16327 3.8627-1.7143 5.7634-.06122.1839-.06122.3065-.12245.4905-.06122.1839-.12244.4292-.12244.6131-.06123.1839-.06123.3679-.12245.5518v.0613c-.12245.5518-.2449 1.0423-.36735 1.5942 0 .0613 0 .1226-.06123.1839 0 .1226-.06122.2453-.06122.3679v.1226c-.06123.1226-.06123.3066-.06123.4292 0 .0613 0 .1226-.06122.2452-.36735 2.0847-.55103 4.2306-.61225 6.3766-.06123 1.5328-.06123 3.0656-.06123 4.5985 0 .6744.06123 1.4102.12245 2.0846 0 .3679.06123.6744.12245 1.0423 0 .1226 0 .2453.06123.3679 0 .2452.06122.4292.06122.6744.06123.4292.12245.9197.18368 1.3489v.184c.18367 1.8394.2449 3.6784.4898 5.4564.30612 2.392.85714 4.66 1.59184 6.929.30613 1.042.67348 2.023.9796 3.065.06122.123.12245.246.12245.43 0 0 0 .061.06122.061.06123.123.12245.245.12245.368v.061c.06123.061.06123.184.12245.245 0 .062.06123.123.06123.184 0 .062.06122.123.06122.184 0 .062.06123.123.06123.184.06122.123.06122.184.12245.307 0 .061.06122.061.06122.122 0 .062 0 .062.06123.123.06122.184.18367.429.2449.613.18367.429.36735.858.55102 1.288.18368.429.36735.858.55103 1.226.2449.49.42857.981.67347 1.471.36736.736.67346 1.472 1.04086 2.146.1224.246.2449.491.3673.736.0612.123.1225.245.1837.368.1224.245.2449.429.3673.674.0613.123.1225.246.1837.368.1225.246.1837.43.3061.675.1225.245.1837.429.3062.674 0 .062.0612.123.0612.184.1837.491.4286 1.042.6122 1.533.0613.184.1225.368.1837.491.0612.183.1225.367.2449.49.7959 1.839 1.7143 3.556 2.5714 5.334.4286.981.796 1.962 1.2245 2.943.0613.184.1225.307.1837.491.0612.184.1225.306.2449.49.3061.613.6123 1.288.9184 1.901.1224.184.1837.429.3061.613.4286.858.8572 1.656 1.347 2.453.551.919 1.102 1.839 1.7143 2.759.0612.122.1836.245.2449.368.4285.551.7959 1.164 1.2245 1.716 0 .062.0612.062.1224.123.1837.245.3674.49.551.736.0613.061.0613.122.1225.122.1837.246.3673.491.551.675.1225.122.2449.306.3061.429.7347 1.042 1.4694 2.146 2.2654 3.127.6122.797 1.2244 1.594 1.8979 2.33.0612.122.1837.184.3061.306.1225.123.1837.184.3062.307.1224.123.1836.184.3061.306.1224.062.1837.184.3061.246.1225.061.1837.184.3061.245.1837.184.3674.368.6123.552.1224.061.1837.184.3061.245.1225.123.3061.307.4898.429.551.491 1.0408.981 1.5919 1.472.551.49 1.0408.981 1.5918 1.471.3061.246.6123.552.9184.797.3061.246.6122.552.9796.797.6735.491 1.3469.981 2.0816 1.411.1837.122.3674.245.551.367.1225.062.3062.184.4286.246.0612 0 .1225.061.1225.061s.0612 0 .0612.061c.1837.123.3673.184.4898.307.1837.123.3673.184.6122.306.1837.123.3674.184.5511.307.6122.307 1.2245.552 1.8367.797.0612.061.1837.061.2449.123.0612.061.1837.061.2449.122.1837.062.3674.123.4898.184h.0612c1.0409.368 2.0205.797 3.0613 1.227.1837.061.3061.122.4898.245.1837.061.3061.122.4898.245.6122.307 1.2245.613 1.8367.92 0 0 .0612 0 .0612.061.3062.184.6123.307.9184.491.6123.306 1.1633.613 1.7755.919 1.8368.92 3.6735 1.717 5.5715 2.514.4898.184.9184.429 1.4082.613.3061.123.6734.307.9796.429.3061.123.6734.307.9796.43.1224.061.2449.122.3673.122.1225.062.3061.123.4286.184h.0612c.1837.061.3061.123.4898.184.0612.061.1837.061.2449.123.0612 0 .1225.061.1837.061h.0612c.1225.061.2449.123.3674.123.0612 0 .1224.061.1836.061.1225.061.2449.061.3674.123.1837.061.3673.122.551.184.1225.061.3061.122.4286.122.1837.062.3061.123.4898.123 1.5306.429 3.0612.674 4.6531.858.9796.123 1.898.184 2.8775.307 1.7143.245 3.4286.674 5.1429.981 1.5919.306 3.1837.736 4.7756.981 2.0816.306 4.2245.613 6.3061.613h1.1633c.2449 0 .4898-.061.7347-.061.1225 0 .2449-.062.3674-.062.1224 0 .1836 0 .3061-.061.3061-.061.551-.061.8571-.123.5511-.061 1.1021-.184 1.6531-.245 3.2449-.368 6.4897-.429 9.7347-.49 1.408 0 2.755-.062 4.163-.307.123 0 .245-.061.429-.061h.061c.123 0 .245-.062.306-.062h.123c.061 0 .122 0 .183-.061.062 0 .123 0 .184-.061.123 0 .245-.062.429-.123h.673c1.714 0 3.306-.061 4.959-.552 1.225-.368 2.388-.858 3.613-1.41 1.285-.613 2.632-1.165 3.979-1.778.98-.49 1.837-1.042 2.755-1.594.735-.429 1.531-.92 2.266-1.349.183-.123.367-.245.551-.307.306-.183.551-.367.857-.49.306-.184.551-.307.857-.491.245-.122.429-.245.673-.367.49-.246.919-.491 1.347-.736 1.102-.613 2.143-1.288 3.245-1.901 1.041-.552 2.021-1.226 3-1.839 1.102-.736 2.143-1.472 3.184-2.208.184-.122.367-.245.49-.429.306-.245.673-.552.979-.797.184-.122.307-.306.49-.429.245-.245.49-.429.735-.674.796-.736 1.592-1.472 2.449-2.146.857-.675 1.714-1.349 2.571-2.024 1.102-.919 2.266-1.839 3.306-2.82.184-.184.368-.368.49-.491.123-.122.306-.367.49-.551.612-.675 1.286-1.288 1.898-1.962.612-.675 1.102-1.288 1.592-2.024.122-.245.306-.429.428-.674.245-.307.429-.552.674-.859l.061-.061.061-.061c.368-.429.735-.92 1.102-1.41-.061.122-.122.184-.244.306.061-.122.183-.245.244-.306l.062-.062v-.061c0-.061 0 0 0 0l.061-.061v-.062s0-.061.061-.061c.612-.736 1.225-1.533 1.776-2.33.061-.061.122-.184.183-.306.184-.307.368-.552.551-.859.184-.306.368-.613.551-.858.062-.123.123-.184.184-.307.857-1.226 1.898-2.391 2.694-3.679.98-1.655 2.02-3.249 2.449-5.15 0-.061.061-.122.061-.245.368-.613.674-1.226.98-1.839.857-1.779 1.592-3.557 2.265-5.396.674-1.839 1.286-3.679 1.837-5.518 0-.061.061-.123.061-.184v-.061c.184-.614.367-1.165.49-1.778.061-.307.184-.614.245-.92.061-.307.183-.613.245-.92.306-1.226.612-2.391.918-3.617.551-2.085 1.041-4.231 1.469-6.377-.122-1.287.184-2.82.368-4.353zm3.122-6.6832c.245 5.0277-.245 10.1162-1.163 15.1442-1.041 5.212-2.633 10.117-4.592 14.96-.735 2.024-1.592 4.047-2.51 6.009 0 0 0 .061-.061.061-.123.246-.184.43-.306.675-2.694 7.235-6.674 13.857-12.245 19.252-6.307 8.216-14.633 15.512-23.756 20.479-4.041 2.33-7.592 5.518-11.816 7.541-4.225 2.085-8.572 3.924-13.225 4.66-6.367.797-12.9181.245-19.163.736-6.1225-.246-12.0001-.736-18.0002-1.901-5.5102-.491-11.1429-.613-16.2245-3.127-1.9592-.858-3.7348-1.962-5.5103-3.188-.4286-.062-.8571-.123-1.2857-.246-3.0613-.981-4.9592-3.433-7.7756-4.721-2.3265-1.287-5.0204-1.532-7.2245-2.943-3.0612-2.207-5.3878-5.334-8.449-7.48-3.6735-2.575-6.6123-6.806-9.3674-10.055-2.449-2.637-4.1021-5.764-5.3266-9.136-3.1225-5.457-5.38778-11.281-7.22453-17.29-.4898-1.655-.9796-3.311-1.4694-4.966-.18367-.675-.42857-1.411-.61224-2.085 0-.061-.06123-.184-.06123-.245C2.08158 107.849-.183739 98.7751.06116 89.5782c.061225-8.032 1.40817-16.0027 3.91839-23.5442 2.2041-6.0699 5.57146-11.7107 9.18375-17.045 6.1225-10.791 14.4491-20.1719 24.3063-27.5908 2.9387-2.3912 6-4.5371 9.3061-6.3765 1.1021-.5518 2.2041-1.0423 3.3062-1.5328 4.7143-2.4525 9.7347-4.53718 14.8776-6.13131C72.7351 4.23063 80.4494.919734 88.8372.306605 98.3883-.613088 107.572 2.39124 116.572 5.15032c.184.06132.367.12263.551.18394.123 0 .306.06132.429.06132 3.612.981 7.041 2.63645 10.408 4.23058 4.347 2.08464 8.571 4.47584 12.612 7.17364.123-.0613.245-.0613.368.0613.796.5518 1.53 1.1036 2.265 1.7167.184.184.428.3679.673.4906.796.5518 1.531 1.1036 2.327 1.6554.245.1226.49.3066.673.4905v.1839c3 2.2073 6 4.4146 8.511 7.1736 1.591 1.7781 3.061 3.6788 4.408 5.6408.122.1227.245.2453.367.3679 0 0 0 .0613.061.0613.123.184.307.3679.429.4905l.061.0613c.306.3679.612.7358.919 1.1037.122.1839.244.3065.428.4905l.061.0613.062.0613c.061.0613.061.1226.122.1839v.1227c.184.2452.429.4905.612.7357.368.4292.735.8584 1.102 1.2876.245.3066.49.5518.735.8584.245.3065.49.5518.735.8584.122.1226.245.3065.367.4291.306.4292.612.8584.857 1.2876.184.3066.429.6745.612.981.062.1226.123.2453.184.3066.306.4905.612.981.98 1.4715l.918 1.4715c.49.7971.919 1.6555 1.408 2.4525.123.2453.245.4292.368.6745.489.981.979 1.962 1.469 2.943.306.6744.674 1.3489.98 2.0233.061.1226.122.2453.183.3679.062.1226.123.3065.184.4292.061.1839.122.3679.245.5518.061.1226.122.2452.122.3679.123.2452.184.4292.245.6744.306.7358.613 1.4102.857 2.146 0 .0613.062.1226.062.1839.061.1839.122.3066.122.4905.061.1226.061.2453.123.3066.061.1839.122.4292.183.6131.123.3679.184.6744.306 1.0423.306.8584.613 1.6555.796 2.5138.245.9197.49 1.8394.796 2.7591.123.4292.245.8584.429 1.2263.122.4292.245.8584.367 1.2876 0 .1226.061.2452.061.3678.062.3679.184.7358.245 1.1037.061.2452.123.4905.184.7357.061.2453.184.4905.245.7358.061.1226.122.3065.183.4292.062.1226.123.2452.184.4292.061.1226.061.1839.123.3065.122.2453.183.4292.306.6745.061.4905.122 1.0423.183 1.5328 1.041 5.4568 1.592 11.0976 1.592 16.9223v1.4102z" fill="#171212"/><path d="M4.65308 73.5755c-1.28572-3.5562.9796-7.1123 1.95919-10.4232.85715-2.3912 1.7143-4.7824 2.75512-7.1123 1.59181-3.3722 3.67351-6.5605 5.69391-9.6874 3-4.0467 6.1225-8.032 9.4286-11.8947 3.245-4.3533 6.9797-8.3386 11.3879-11.5882.9796-.6131 2.1428-.981 3.3061-1.1036-.6122 1.5328-1.5918 2.8817-2.9388 3.8627-2.1429 1.8394-4.2245 3.6788-6.1837 5.7634-1.5919 1.9007-3.0612 3.924-4.6531 5.7634-4.2857 5.2116-8.5715 10.4845-11.9388 16.3092-2.8164 4.5985-4.40823 9.7488-6.18375 14.7765-.4898 1.962-1.2245 3.8627-2.63267 5.3342z" fill="#171212"/><path d="M90.0004 112.387c-.9184-.184-1.9592-.859-1.9592-1.84 0-.184.0612-.306.1224-.429-.4286-.184-.7959-.429-1.1632-.736-3.1225-3.433 2.0816-9.013 4.1632-11.8945 3.3674-4.7211 6.9797-9.2582 10.1634-14.102 5.388-7.6028 8.878-16.6771 15.857-23.0536 3.368-2.5138 6.551-6.1313 10.898-6.8057.674-.1227 1.592.0613 2.327.4292 2.143-1.0424 5.081.5518 6.857 1.962 5.694 3.6787 6 12.0173 2.755 17.4741-3.245 5.2116-8.449 8.7678-12.673 13.121-7.654 7.6028-15.062 15.9415-24.735 21.0305-2.388 1.471-4.8371 2.759-7.4697 3.679-1.347.613-2.7552 1.226-4.2246 1.226-.3061.061-.6122 0-.9183-.061z" fill="#FE8A1F"/><path d="M169.348 57.5115c-2.755-.3679-3.735-3.5561-4.592-5.7634-2.082-4.0467-3.306-12.937 3.368-12.8757.183-.184.367-.5518.612-.2453 1.653-1.2262 3.551-2.1459 5.326-3.1269 1.102-.6132 2.327-1.2876 3.674-1.0423 1.224.1839 2.143 1.3488 2.326 2.5751.123 3.0656-3.489 4.9663-5.755 6.4379 1.47.6131 3 1.1036 4.347 1.9007 1.714.9196 1.837 3.8014-.122 4.4758-3 .7971-6.062-.4292-8.878-1.4715.429 1.9007 1.102 3.7401 1.653 5.6408.735 1.5328-.061 3.5561-1.898 3.5561 0-.0613 0-.0613-.061-.0613zM153.001 37.7687c-3.796-.3679-6.551-7.2349-5.755-10.6071-.429-1.7168-.98-3.8627.122-5.4569 1.776-2.6977 5.878-1.1036 6.49 1.7168 1.531-3.0043 7.225-8.3999 9.735-3.6788.735 1.7168-.123 3.4949-.857 5.089-.857 1.7168-1.653 3.4335-2.694 5.089 2.633-.7971 5.694-1.3489 8.326-.4292 1.898.8584 2.205 3.6174.735 5.0889-1.408 1.5942-3.673 1.6555-5.633 2.0234-1.714.3678-3.428.1226-5.142-.184-1.041.8584-2.449 1.6555-3.735.9197-.429.3066-.98.4292-1.531.4292h-.061z" fill="#78BB25"/><path d="M87.4291 110.547c-2.9388-.981-.551-6.009 0-8.093 3.8572-8.8905 10.2246-16.4933 15.2449-24.7093 3.918-6.4991 7.837-12.937 12.735-18.7004 4.163-5.2116 10.531-10.7298 17.265-6.3766.919.7971 1.347 1.9621 2.327 2.6978 2.51 2.5138 3 6.1926 2.571 9.5648-.122 3.4949-1.408 6.8671-3.857 9.4422-3.367 4.2306-7.224 8.032-11.02 11.8947-6.062 5.8861-24.9801 24.4028-34.1026 24.4028-.3674 0-.7347 0-1.1633-.123zm.4286-1.717c.3673.123.7347.123 1.102.062 12.1223-2.453 35.5103-26.4875 43.7143-36.5428 1.592-1.8394 2.388-4.2306 2.572-6.6218.122-1.9007.49-3.924-.061-5.8247-.98-3.4336-4.164-6.07-7.776-6.3153-.857-.0613-1.653-.797-2.327-.3678-4.469 1.9007-7.408 5.8247-10.347 9.5648-3.796 4.7824-6.979 9.9327-10.102 15.0829-5.0814 8.9517-15.9182 20.9691-16.7753 30.9627z" fill="#161212"/><path d="M120.919 63.1523c-1.102-1.8394-3.245-3.8627-2.265-6.1313 2.143 1.1036 2.816 4.0466 4.53 5.7634 1.041 1.2263 2.327 2.4525 2.449 4.108-2.204-.1227-3.367-2.2073-4.714-3.7401zM114.797 67.8733c-1.409-.6744-2.511-2.3299-1.96-3.924 0-.0613.062-.2453.184-.1839 1.102.7357 2.204 1.5328 2.878 2.6977.306.4905.489 1.165.612 1.7168-.612.0613-1.225 0-1.714-.3066zM122.327 82.895c-2.51-.4905-4.041-2.7591-5.694-4.4758-.673-.7358-1.04-1.7781-.979-2.7591 0-.0613 0-.184.122-.184h.061c2.143.4292 3.245 2.5139 4.776 3.8627 1.163.9197 2.449 1.9007 2.816 3.4336-.245.0613-.489.0613-.734.0613-.184.0613-.245.0613-.368.0613zM115.899 87.1869c-.551-.5518-1.041-1.5328-.735-2.2073.796.2453 1.286.2453 1.959.9197.49.5519.857 1.2876.919 2.0234h-.245c-.674 0-1.409-.2453-1.898-.7358zM106.348 87.9227c-2.204 0-6.4902-5.9474-4.653-7.7868.061 0 .183-.0613.183-.0613v.1226c1.531 1.3489 2.327 3.3109 3.674 4.9051.857.8583 1.285 1.778 1.714 2.8817h-.306c-.245 0-.429 0-.612-.0613zM101.694 94.5445c-1.285-.3679-2.1425-2.0847-1.591-3.1883 1.469.4292 2.449 1.7168 2.632 3.1883-.122.0613-.306.0613-.49.0613-.183.0613-.367 0-.551-.0613zM99.7353 104.171c-1.5307-.123-2.5715-1.411-3.6123-2.392-.9796-1.042-2.1429-2.1455-2.5715-3.5557-.1224-.5518-.2449-1.2876 0-1.7781 0-.0613.1837 0 .0613.0613 1.9592 1.2876 3.0612 3.5565 4.898 5.0275.9796.736 1.6532 1.594 2.2652 2.575-.245.062-.551.123-.8571.123 0-.061-.1224-.061-.1836-.061zM134.205 55.9786c-.49-2.1459 1.592-3.6787 2.51-5.3955 1.347-2.4525 3.368-4.4145 5.265-6.4379 2.082-2.1459 4.164-4.2919 6.552-6.0699 1.469-2.8817-.123-4.9051-1.715-7.1736-1.714-3.127-5.081-7.4802-2.449-10.9137 1.47-1.2263 3.551-.2453 4.959.6131 2.266 1.1649 3.613 3.3109 4.531 5.6408 1.47-1.9007 4.163-7.2349 7.041-4.8437 1.898 2.4525 2.02 6.0699 1.224 9.013 2.633-.7358 11.939-.9197 8.45 3.8014-3.98 3.3722-9.796 4.0466-14.817 4.2305-1.408.1227-2.755.184-4.041.3066-.796 0-1.714.1839-2.265.7971-3.306 3.1883-6.735 6.4991-9.674 10.0553-1.653 2.2686-2.877 5.1503-5.326 6.6831l-.061.0613c-.062-.0613-.184-.2452-.184-.3679zm15.122-24.5864c1.103 1.5941 2.143 3.6174 1.531 5.5181 5.082-.5518 10.163-.4292 14.939-2.4525 1.286-.5518 2.694-.9197 3.429-2.1459-2.572-1.2263-5.327-.3066-7.96-.0614-2.204-.1839-.673-2.8203-.612-4.1079.184-1.9007 0-3.924-1.102-5.5182-1.959 1.0423-2.939 3.127-4.163 4.8437-.368.6745-1.102 1.2876-1.898.8584-1.531-.8584-1.653-2.8817-2.572-4.2306-.489-.7357-1.163-1.2875-1.898-1.778-.857-.5519-1.714-1.165-2.755-1.165h-.061c-2.816 1.2876 1.959 8.6451 3.122 10.2393z" fill="#161212"/><path d="M167.634 57.2663c-4.041-3.3109-5.511-9.0744-4.959-14.102-11.817-2.5138-19.531 4.1693-26.939 12.3852-.429.4292-1.041.6744-1.409 1.1036-.245-.4292-.245-.9197-.122-1.4102.49-1.9007 2.204-3.1882 3.49-4.5371 2.694-2.5752 5.388-5.1503 8.632-7.051 5.143-3.0657 11.511-3.3722 17.266-2.146.367-2.8204 5.204-6.4378 7.469-3.6174 2.082-.4905 3.674-2.0847 5.817-2.5139 1.653-.4905 4.775 0 4.224 2.3299-1.224 2.3912-3.918 4.2306-6.122 5.7634 2.326.7971 7.102 4.2306 3.796 6.5605-2.878.981-6.245.0613-8.817-1.2875.735 1.5941 1.164 8.829-1.347 8.829-.245 0-.612-.0613-.979-.3065zm-3.306-15.4509c.551.4292.367 1.1036.244 1.6554-.367 4.2919.49 9.0744 3.796 12.0787.98-2.6365.613-5.3955-.306-7.9094-.306-.6744 0-1.5941.857-1.4102.796.2453 1.47.8584 2.205 1.2263 1.53.7357 3.122 1.1036 4.775 1.1649h.367c.613 0 1.286.0613 1.654-.4292.061-.3065-.245-.5518-.368-.7357-1.102-1.2876-2.633-2.146-4.163-2.8204-1.959-.7971-.306-2.0233.796-2.6365 1.837-1.4102 3.734-2.943 5.081-4.8437-1.102-.4292-2.265-.2452-3.306.1226-1.53.7971-2.938 1.9621-4.653 2.3299-.612.2453-1.224-.1226-1.53-.6744-.307-.2453-.613-.3679-.919-.3679-1.469-.1226-3.245 2.6365-4.53 3.2496z" fill="#161212"/><path d="M162.674 43.5322c-.061-.184-.061-.4292 0-.6132-.489-.0613-.857-.6744-.551-1.1036.49-.4905 1.102-.7971 1.592-1.2876.674-.5518 1.592.3066 1.225 1.0424-.551.7357-.49 2.3912-1.653 2.4525-.245-.0613-.49-.2453-.613-.4905zM133.042 59.0443c-.796-.3066-1.409-1.1649-1.47-2.0233-.245-.4905-.245-1.3489.429-1.4102.245-.2453.734-.3066 1.041-.1226.061 0 .061.0613.122.0613.245-.2453.429-.4292.674-.6132.061-.0613.183-.0613.244-.1226.368-.3679.674-.8584 1.225-.7971.428.0614.796.5519.551.981-.674.7358-1.102 1.7781-2.02 2.2073.061.0613.183.0613.244.1226.062-.3065.429-.3678.551-.1226.062.1226.062.184.123.3066 1.286.6744.245 1.8394-.857 1.4102-.123.1226-.306.1839-.49.1839-.123 0-.245-.0613-.367-.0613z" fill="#161212"/><path d="M112.47 165.545c-.306-.184-.551-.368-.796-.613-1.224-.123-2.326-.797-3.306-1.595-2.082-.797-3.735-2.636-4.102-4.843-.367-2.698 1.959-5.334 4.714-5.089.306-.245.612-.491.919-.675 0 .062.061.123.061.184.122-.122.245-.306.367-.429 1.286-.736 2.755-1.165 4.225-1.165.551-.245 1.102-.429 1.653-.245 1.041.245 1.898.981 2.265 2.023 1.408 1.533 1.347 3.802.735 5.702-.551 1.349-1.347 2.33-1.898 3.679-.612 1.594-1.959 3.434-3.674 3.434-.306-.062-.734-.184-1.163-.368zM90.7965 159.904c-1.2245-.368-2.3266-1.226-2.6327-2.514-.1225-.674-.0612-1.349.1224-1.962-.551-.797-.9183-1.655-1.2245-2.514-1.1632-1.287-2.0816-2.943-2.1428-4.659-.1837-2.146 1.2245-4.354 3.4898-4.599 1.8367-2.33 4.5919-.981 5.6327 1.41.7959.062 1.4694.491 2.0204 1.043 1.7755-1.411 4.6532-1.288 5.9392.674 3 1.288 1.469 5.396-.062 7.296-1.836 2.575-6.1833 6.193-9.7956 6.193-.3673-.184-.8571-.245-1.3469-.368z" fill="#F02562"/><path d="M78.2454 123.545c.3061-.919.6734-1.778 1.0408-2.636-.3674.858-.7347 1.717-1.0408 2.636z" fill="#171212"/><path d="M109.899 152.669c-1.47-2.759-1.041-5.886-2.633-8.461-2.755-.061-6.49-3.25-4.898-6.131 1.837-2.576 4.959-.43 6.061 1.716 1.102-2.023-.183-4.169-.857-6.07 0-.061-.061-.061-.061-.122-.184.061-.367.122-.551.122-.367.062-1.531-.306-1.959-.429-1.408.491-3 .981-4.408.368-.6739-.368-1.2249-1.042-1.2862-1.839-.0612-.491.1225-.92.3674-1.288-.0612-.306-.1225-.613-.1225-.92v-1.042c-.9796-.184-1.8979-.49-2.8163-.797-.9796-.184-.8572-1.349-.0612-1.717.0612-.061.1836-.122.2449-.184-.1225-.122-.2449-.245-.3674-.429-.8571-.736-1.898-1.226-2.449-2.268-1.5306-3.679 3.0613-3.373 5.1429-2.208-.4286-1.716.6735-4.23 2.6944-3.433 1.653.797 2.693 2.514 3.367 4.169.061-.061.122-.123.245-.184.551-2.023 3.183-2.33 4.286-.429 1.224 1.901.734 4.414.428 6.56-.184 1.472-.98 2.637-1.775 3.802v.184c1.775.49 3 2.207 3.428 4.169.551-.858 1.163-1.594 1.776-1.962.428-.245.796-.674 1.285-.736.674 0 1.409.184 1.837.797.674-1.226.796-3.127 2.265-3.74 1.286-.429 2.633.797 2.511 2.146.734-.49 1.592-.552 2.449-.674.489-.184.979-.245 1.469-.184 1.163.184 1.898 1.471 1.531 2.575-.245.736-.857 1.288-1.347 1.839 1.347 0 2.326 1.656 1.53 2.821-.306.429-.734.552-1.224.613-1.347 0-2.633.613-3.857 1.042.551.552.061.368-.368.491-.734.245-1.53.49-2.326.245-.368.245-.796.429-1.225.368-.551-.061-.979-.307-1.347-.736-.489.797-1.285 1.656-2.326 1.533-.429 0-.857-.245-1.163-.491-.062-.061-.123-.122-.184-.184-.796 0-1.347-.183-1.776-.49-.306.674-.796 1.288-1.347 1.717 1.715 2.759 2.205 6.744.184 9.442-.122.123-.245.306-.367.429.061.061.061.123 0 0z" fill="#78BB25"/><path d="M89.9393 158.433c-2.1429-1.165-2.6939-3.924-3.5511-6.009-.6122-2.207-1.5918-4.599-.7347-6.928 1.1021-4.047 5.5715-4.476 9.0001-3.434 3.7959-.797 8.6944 3.74 7.8364 7.603-.551 2.268-2.326 3.863-4.2242 5.089-2.0816 1.287-4.4694 3.863-7.102 3.863-.4286 0-.8572-.062-1.2245-.184zm-.4898-15.145c-3.3062 1.41-2.8776 5.396-1.8368 8.155.6735 1.471 1.6531 5.825 3.5511 5.641 2.449-.675 4.4082-2.514 6.551-3.924 1.8368-1.104 4.0412-3.311 3.1222-5.641-.734-1.472-1.8365-2.882-3.3671-3.495-1.102-.368-2.3265-.368-3.3061-1.104-.6123.123-1.2857.062-1.9592.062h-.7347c-.7347.061-1.4082.061-2.0204.306z" fill="#161212"/><path d="M97.1639 147.274c-.3673-.246-.6735-.552-.9796-.92-.2449-.307-.4898-.675-.7347-.981-.7347.429-1.2857 1.962-2.3265 1.533-.9184-.675.1836-1.717.3061-2.575-.9184-.43-2.0204-.246-2.9388-.675-.6735-.368-.3673-1.287.3673-1.349.6735-.122 1.4694-.061 2.0205.123-.1225.122-.2449.245-.3674.306.8572.184 2.1429.43 2.2041 1.472 1.1633-.92 1.7755.49 2.3878 1.226 0-.368 0-.858.3061-1.103-.9184-.798-2.5102-1.349-1.1633-2.698-.2449.061-.4898.245-.6734.245.1224-.981.551-2.085 1.5918-2.453.8571-.306 2.5102-.183 2.0204 1.104-.6122.736-1.1632 1.349-1.7755 2.085.7347.613 2.8162 2.146 2.2653 3.127-.3061.429-.9184.184-1.2857-.062.0612.614-.1225 1.595-.7347 1.595-.1225.183-.3061.122-.4898 0zM88.7761 147.457c-.0612-.429.2449-.797.6735-.797s.7959.368.8571.736c.0613.429-.2449.797-.6734.797-.4286 0-.796-.306-.8572-.736zM90.4905 149.603c-.0613-.429.2449-.797.6734-.797.4286 0 .796.368.8572.797.0612.43-.2449.797-.6735.797-.4286-.061-.7959-.429-.8571-.797zM89.9394 153.466c-.0612-.429.2449-.797.6735-.797s.7959.368.8571.736c.0613.429-.2448.797-.6734.797-.4898 0-.8572-.368-.8572-.736zM95.4497 152.301c-.0612-.429.2449-.736.6735-.736.4285 0 .7959.368.8571.736.0612.429-.2449.736-.6735.736-.4285.061-.7959-.307-.8571-.736zM97.8374 149.236c-.0612-.368.2449-.736.6735-.736.4285 0 .7347.306.7959.736.0612.367-.2449.735-.6735.735-.3673 0-.7347-.306-.7959-.735zM93.4905 148.623c-.0612-.368.2449-.675.6123-.675.3673 0 .6734.307.7347.675.0612.367-.2449.674-.6123.674-.3673 0-.7347-.307-.7347-.674zM113.878 166.587c-2.265-.368-4.224-1.962-6-3.249-1.347-.981-3-1.717-3.979-3.127-1.409-2.024-.674-5.764 1.346-7.113.735-1.165 2.143-1.349 3.368-1.716.061.122.122.184.184.306.061.123.061.184.122.307.122.184.245.306.367.429 0 0 0 .061.062.061v.062c.122.183.244.306.367.429.122.122.184.306.184.49v.307c.183-.123.367-.307.551-.429h.061c.122 0 .245.061.367.061.306 0 .551-.061.857-.184.123-.061.306-.123.429-.245.245.122.551.306.735.735-.184-.613-.184-1.471.612-1.532-.245-.123-.49-.184-.735-.307 0-.061.061-.061.061-.123.184-.49.245-.919.184-1.471 0-.245-.061-.491-.184-.675 5.572-1.287 10.47 3.863 7.286 9.688-1.592 2.33-2.633 7.296-6 7.296h-.245zm-9.122-7.971c.367 1.288 1.714 1.901 2.755 2.576 2.265 1.287 4.163 3.494 6.796 3.862.979-.184 1.469-1.165 2.02-1.9 1.041-1.717 1.959-3.618 2.878-5.396 1.592-3.556-1.041-7.051-4.837-6.56.551.245 1.041.429 1.653.49.674.123.918 1.042.245 1.349-.674.245-1.469.368-2.204.429.857 3.127-.674 2.943-2.327.859-1.102.551-1.653 1.594-2.51 2.391-1.469.736-2.265-1.043-1.469-2.207-.49.122-.98.183-1.47.183-.183 0-.306 0-.489-.061-.919.981-1.225 2.637-1.041 3.985zM109.227 152.425l-.063-.062.063.062zM109.042 147.335c.061-.123.183-.307.306-.429 0 .122.061.245.061.368 0 .367 0 .674.122.981v.245c0 .061 0 .122-.061.184v.061c-.245.184-.49.491-.612.797-.122-.736-.122-1.471.184-2.207z" fill="#161212"/><path d="M113.45 151.382c-.123-.123-.184-.246-.245-.368 0-.062-.062-.123-.062-.184-.061 0-.122.061-.183.061v-.49c0-.307-.123-.614-.245-.859.061 0 .122-.061.245-.061 1.285-.307 1.408.92.796 1.778-.062.123 0 .184.061.245h-.061c-.123-.061-.245-.061-.306-.122zM106.837 158.984c-.061-.429.306-.858.735-.858.49 0 .857.368.918.858.062.43-.306.859-.734.859-.429 0-.858-.368-.919-.859zM110.45 158.616c-.062-.367.245-.735.673-.735.429 0 .735.306.796.735.061.368-.245.736-.673.736-.429 0-.735-.306-.796-.736zM112.654 162.418c-.061-.368.245-.675.612-.675s.674.307.735.675c.061.368-.245.674-.612.674-.368 0-.735-.306-.735-.674zM110.633 161.437c0-.307.184-.613.551-.613.306 0 .613.245.674.613 0 .306-.184.613-.551.613-.306 0-.612-.245-.674-.613zM116.388 154.447c-.061-.368.245-.674.613-.674.367 0 .734.306.734.674.062.368-.245.675-.612.675s-.735-.307-.735-.675zM116.082 159.781c-.061-.367.245-.674.613-.674.367 0 .734.307.734.674.061.368-.245.675-.612.675-.367.061-.673-.245-.735-.675zM113.511 158.31c-.061-.368.245-.675.612-.675s.735.307.735.675c.061.368-.245.674-.613.674-.367 0-.734-.306-.734-.674zM107.756 141.878c-1.47.858-3.429.491-4.776-.368-1.53-.858-1.224-3.249.613-3.372 1.653-.061 3.183.981 4.285 2.085 2.817-3.924 1.225-7.419-3.183-8.891-.735-.245-1.47-.674-2.143-1.042.734-.307 1.53-.368 2.326-.123 5.266 1.717 7.347 6.561 3.674 11.037 0 0 0 .061.061.061-.184.184-.306.429-.306.736 0 .245.061.429.184.613.061.061.061.122.061.184v.061c.061.123.122.307.183.429.062.123.062.184.062.307.061.368.122.797.183 1.226.062.368.123.797.184 1.165.061.429.122.858.245 1.288 0 .367 0 .674.122 1.042v.245c0 .061 0 .123-.061.184v.061c-.306.246-.551.614-.673.981-.123-2.636.306-5.456-1.041-7.909zm-4.776-2.207c-.061.122-.061.245-.061.368.306 1.042 2.082 1.287 3.061 1.287.429-.061.796-.184 1.102-.368-.612-.613-2.02-1.778-3.122-1.778-.367 0-.735.123-.98.491z" fill="#161212"/><path d="M103.592 133.601c-.673 0-1.408-.062-2.081 0-4.5309.061-4.5922-1.288-2.8166-5.028-1.2245.184-2.3878.797-3.6123.981-3.1837.061.1224-3.679 1.0408-4.598-.551-1.227-2.0816-1.656-2.6939-2.821-.3673-.613.1225-1.287.7347-1.533 1.9592-.797 4.2245 0 6.1223.859.49-1.043.674-4.231 2.388-3.372 1.653 1.348 1.776 3.801 2.755 5.64.735-.674 1.163-1.716 2.143-2.023.98-.061 1.102 1.104 1.041 1.839 0 3.005-.368 6.07-.612 9.075.244.061.551.245.673.429-.061 0-.184.061-.245.061-1.041.491-2.204.613-3.367.613-.49-.122-.98-.122-1.47-.122zm3.796-1.226c.123 0 .245.061.368.061-.98-1.042-.796-2.637-.735-3.924.184-1.656.306-3.372.245-4.967-3.245 4.538-3.551-1.716-4.959-3.862-.306.858-.49 1.717-.735 2.514-.123.367-.367.735-.796.797-.429.061-.9184-.184-1.2857-.43-1.4082-.613-3.1225-1.165-4.5919-.735.9796.981 3 2.023 2.5715 3.678-.6123.92-1.7143 1.656-2.1429 2.637 1.2857-.184 5.388-2.269 4.837.552-.3064.981-.8574 1.778-1.1023 2.698-.0612.183-.0612.367-.1224.551v.062c1.5917.368 3.1837.306 4.7757.245.551 0 1.102-.061 1.714-.061.612.061 1.286.122 1.959.184zM113.572 142.369c-.857-.552-1.776-1.227-2.143-2.269-.673.245-1.837.061-1.531-.858.551-.614 1.286-1.104 1.715-1.901 1.469-2.146 2.204-8.89 5.02-3.495 1.837-3.863 3.184-7.971 5.633-1.41 1.837-.491 3.673-1.656 5.633-1.41 1.775 1.165-1.102 3.74-2.021 4.721.857.429 1.776.674 2.633 1.042.245.123.49.245.551.491.428 1.532-5.388 2.207-6.551 2.697 3.918 4.231-4.164 1.288-5.939 1.227.122.797.735 2.575-.551 2.636-.857-.245-1.653-.92-2.449-1.471zm4.469-4.905c-1.591 1.594-3.979 1.778-6 2.513 1.409.613 2.511 1.717 3.796 2.514-.061-.92-.857-2.514.674-2.452 1.898.245 3.673.858 5.571 1.042-.367-.552-1.102-.92-.918-1.655.184-.43.735-.491 1.041-.552 1.714-.429 3.428-.797 5.143-1.349-5.082-1.594-2.021-2.391-.245-5.15-1.347.306-2.633.797-3.919 1.287-.49.184-1.102.245-1.53-.061-.98-.736-.919-2.146-1.592-3.066-.919.797-2.266 6.438-3.796 4.905-.551-.674-.735-1.594-1.286-2.268-.857 1.716-1.224 3.74-2.388 5.273 1.409-.43 2.878-1.165 4.347-1.165.245-.062.674 0 1.102.184z" fill="#161212"/><path d="M108.735 139.977c-.061-.184.306-.367.429-.429.49-.184.98.061 1.347.368-.245.184-.551.245-.796.245-.367.062-.674 0-.98-.184zM109.225 154.876c-.918-.49.061-2.023-.979-2.33.551-.429 1.347.184 1.469.798 1.286-1.779 2.327-1.104 3.674.122.244.184.367.552.122.797-.306.307-.735 0-1.041-.184-.367-.184-.735-.49-1.102-.674-.735.306-1.102 1.533-1.959 1.533-.061-.062-.123-.062-.184-.062zM112.899 151.811c-.245-.123-.551-.123-.674-.429-1.469-.675-1.408-1.595.123-2.085.367-.123.796-.429 1.163-.123.306.246.367.797-.061 1.043.061.184-.061.367 0 .551.796.368.551 1.288-.061 1.288-.123 0-.307-.123-.49-.245z" fill="#161212"/><path d="M112.225 151.075c-.183-.123-.245-.307-.306-.491.123-.061.306 0 .429.062.183.122.306.306.367.552h-.122c-.123 0-.245-.062-.368-.123zM108.001 152.546c-.061-1.042.918-1.9 1.959-1.716-.367.919-1.041 1.532-1.959 1.716z" fill="#161212"/><path d="M108.49 153.16c-1.04-.552 0-1.778.062-2.576.061-1.165 0-2.391-.062-3.494-.551-1.962-.857-3.986-1.653-5.886-.122-.368-.245-.675-.306-.981.49.183.919.429 1.286.858 0 0 0-.061.061-.061 0 .061.061.061.061.122 1.102.736 1.592 1.962 1.898 3.25.613 1.839 1.102 3.679 1.041 5.641-.122 1.103-.673 3.188-2.02 3.188-.184 0-.245-.061-.368-.061z" fill="#161212"/><path d="M107.327 141.817c-.979.061-1.959.368-2.877.184-1.102-.368-2.327-1.533-2.204-2.759.183-.859 1.224-1.227 1.959-1.227 1.714-.245 3.245.613 4.041 2.146 0-.122 0-.184.061-.306.061-.062.122-.184.183-.246 0-.674.858-.613 1.347-.735.368-.123.919-.368 1.286-.062.429-.122.857.246.796.675 0 .245-.122.368-.245.429-.918.552-1.837 1.165-2.816 1.594.122.797-.061 1.717-.123 2.514-.734-.49-1.224-1.288-1.408-2.207zm-3.49-2.146c.429.858 1.286 1.042 2.143.919h.796c-.428-.735-1.163-1.103-1.898-1.103-.367 0-.673.061-1.041.184z" fill="#161212"/><path d="M38.3879 137.893c.3062-.552 1.0409-.552 1.4694-.184-.0612.184-.1836.306-.3673.368-.1225.061-.2449.061-.3674.061-.3061.061-.551 0-.7347-.245zM35.8778 130.106c-.6122-.797-.4897-2.085.4286-2.514.8572-.368 1.8368-.122 2.3878.613.6122.797.4898 2.085-.4286 2.514-.2449.123-.551.184-.7959.184-.6122 0-1.1633-.245-1.5919-.797z" fill="#AF0C64"/><path d="M43.8982 146.967c-.1837 0-.3674-.061-.551-.061-1.1021-.307-2.2653-.675-3.3674-1.043-.2449-.122-.551-.245-.7959-.368-.1837-.122-.3061-.183-.4898-.306-.1225-.123-.2449-.184-.3674-.307.6123-1.962 1.4694-3.924 2.0205-5.211-.9184 1.165-1.898 2.636-3.4899 2.82-.1836-.429-.3673-.797-.6122-1.226-.2449-.491-.4286-.981-.6123-1.533-.0612-.245-.1224-.49-.1836-.674-.0613-.246-.1225-.552-.1837-.797-.0612-.184-.0612-.43-.1225-.614-.0612-.306-.0612-.613-.1224-.919-.0612-.307-.0612-.613-.1225-.859-.0612-.245-.0612-.49-.0612-.674v-.123c.8572-1.655 2.0204-3.188 2.8164-4.721-1.9592.736-1.9592.92-1.7756-1.349.3674-3.004 2.5103-5.089 4.2858-7.296-.4286-1.226-.1837-2.452.4898-3.679.3061-.184.6122-.306.9796-.429 1.102-.429 2.2041-.736 3.3061-1.104.1837-.061.3674-.061.551-.122.1837 0 .4286-.061.6123-.061.2449 0 .4898-.062.7347-.062h.7347-.0612c.7959.184 1.5918.368 2.3265.552 1.1021.368 2.2041.736 3.3674.981.7347.184 1.4694.245 2.2041.429.3061.123.6122.184.9183.307.1225.122.3062.184.4286.306.1837.123.3061.246.4898.43.0612.122.1837.183.2449.306.1225.184.2449.429.3674.613.3673.675.6734 1.288.9796 1.962.2449.675.4898 1.349.7347 2.024-.1225.306-.2449.613-.3674.919.1225-.245.3061-.49.4286-.735.4286 1.164.7959 2.391 1.2245 3.617.7959 2.269 1.7143 4.414 2.6326 6.56.3062.798.6123 1.595.8572 2.453-.0612-.123-.0612-.307-.1225-.429.3674 1.165.7347 2.391 1.1633 3.556.1837.49.3061.981.4898 1.471-.1224.062-.2449.123-.4286.184-.9796.491-1.8367 1.165-2.7551 1.778-.0612 0-.0612.062-.1224.062-.1837.122-.4286.184-.6123.245-.3673.123-.7959.307-1.1632.429-.4286.123-.8572.245-1.2858.368-.3673.061-.7347.123-1.0408.245-.9184.184-1.898.368-2.8163.613-.6735.184-1.2858.368-1.9592.552-.9796.184-1.9592.307-2.9388.491-.6123.122-1.2857.306-1.898.49h-.0612c-.6735 0-1.347-.061-2.0204-.061-.4898 0-.9796 0-1.4082.061-.4286 0-.9184.062-1.347.062.0613-.123 0-.123-.1224-.123z" fill="#AF0C64"/><path d="M35.6941 139.671c-.0613-.246-.1225-.491-.1837-.675-.0612-.245-.1225-.552-.1837-.797-.0612-.184-.0612-.429-.1224-.613-.0613-.306-.0613-.613-.1225-.92-.0612-.306-.0612-.613-.1224-.858-.0613-.245-.0613-.49-.0613-.736v.123c-.0612-.797-.0612-1.594-.2449-2.33-.1224-.491-.1836-.981-.2449-1.472 0-.122 0-.245-.0612-.367 0-.43-.0612-.797-.0612-1.227.3061-.429.6735-.797 1.0408-1.165l.0612-.061c.0613-.061.1225-.061.1225-.061l.0612.061c2.0817 3.556 1.8368 7.726.1225 11.22.0612 0 0-.061 0-.122z" fill="#AF0C64"/><path d="M34.8369 134.888v.184c.0612-.061.0612-.122 0-.184z" fill="#AF0C64"/><path d="M35.6941 136.176c-.3062-.245-.5511-.491-.796-.797v-.245.061c-.0612-.797-.0612-1.594-.2449-2.33-.1224-.491-.1836-.981-.2449-1.472 0-.122 0-.245-.0612-.367 0-.552-.0612-1.043-.0612-1.595.3673-.613.9796-1.164 1.7755-1.41.2449-.061.4898.184.551.429 1.5307 2.514 1.1633 5.703-.9183 7.726.0612 0 .0612 0 0 0z" fill="#AF0C64"/><path d="M34.8369 134.888v.184c.0612-.061.0612-.122 0-.184z" fill="#AF0C64"/><path d="M43.8983 146.906c-.1837 0-.3673-.062-.551-.062-1.1633-.306-2.2653-.674-3.3674-1.042-.2449-.122-.551-.245-.7959-.368-.1837-.122-.3061-.184-.4898-.306-.1837-.184-.4286-.307-.6122-.491-.1225-.122-.1837-.245-.3062-.306-.0612-.062-.0612-.123-.1224-.184-.4898-.92-.9184-1.901-1.4082-2.882-.2449-.491-.4286-.981-.6122-1.533-.0613-.245-.1225-.49-.1837-.674-.0612-.246-.1225-.552-.1837-.797-.0612-.184-.0612-.43-.1224-.613-.0613-.307-.0613-.614-.1225-.92-.0612-.307-.0612-.613-.1224-.859-.0613-.306-.0613-.613-.1225-.858v.184c-.0612-.736-.0612-1.533-.2449-2.269-.1224-.49-.1837-.981-.2449-1.471 0-.123 0-.245-.0612-.368-.0612-.674-.0612-1.41-.0612-2.146.7347-.306 1.5306-.245 2.449.245.9796.491 1.4694 1.594 1.5306 2.637.4898.981.9184 2.023.9184 3.188.6122.184 1.102.613 1.4694 1.165.2449.368.3673.797.3061 1.226 2.1428-.429 2.6939 1.717 3.3061 3.311 1.5919.307 1.7755 2.269 2.3266 3.495.2449.797.6122 1.717.8571 2.636h-.551c-.4898 0-.9184 0-1.4082.062-.4898 0-.9184.061-1.4082.061.1225 0 .0613-.061-.0612-.061zM42.7351 121.216c-.4286 2.452-1.9592 4.782-4.1633 5.824-.1837.062-.3062.123-.4898.184-.6123.246-1.2858.491-1.898.613-.6735-3.985 2.7551-6.989 6.5511-6.621zM61.7147 130.597c-1.0409-.736-.9796-2.146-1.9592-3.005-1.4082-.674-2.8776-1.778-3.2449-3.372-.3674-1.717.9796-2.636 2.3265-2.453.0612.123.1224.246.1837.368.7347 1.901 1.3469 3.863 2.0204 5.764.3673 1.042.7347 2.023 1.1633 3.004-.1837-.123-.3674-.184-.4898-.306z" fill="#AF0C64"/><path d="M42.184 152.424c-.9796-.061-1.8368-.736-2.3266-1.594-.3061.122-.6735.122-.9796.122-.4286 1.533-2.6327 1.595-3.4286.307-1.7143-3.556-3.1224-7.48-3.6122-11.404-.1225-3.556.0612-7.48 2.8775-9.933.0612-.061.4286-.429.4286-.184 1.102 2.698 1.0408 5.457.7959 8.155 2.5102.122 2.2653 3.188 2.6939 5.027.8572-.674 2.2653-.122 2.7551.859.9796-.062 1.7143.674 2.3266 1.287.8571-1.287 2.6326-1.349 3.8571-.49.796-.307 1.7756-.245 2.5103.245.3061-.858 1.0408-1.533 1.9592-1.655.6734-.062 1.2857.122 1.7755.429.2449-.368.6122-.675 1.0408-.859.7347-.245 1.5306-.061 2.1429.368.4898-.735 1.3469-1.165 2.2653-1.042.3061 0 .6122.123.9184.245.6122-.674 1.653-.735 2.449-.306.1836-.491.4898-.981.9183-1.288.4898-.368 1.0408-.429 1.5919-.368.1224-.245.3061-.49.551-.613 0 .061 0 .061.0612.123.3061.858.551 1.778.7959 2.698.1225.551.2449 1.164.3062 1.778.1224 1.226.2449 2.391.3061 3.617-.1837.123-.3674.184-.551.307-.2449.061-.4898.122-.7347.184-.3674.367-.7347.674-1.1633.858-.2449.123-.4898.184-.7347.245-.3674.062-.7347.123-1.1021.062-.7959.613-1.7755.858-2.6938.735-.1225.062-.2449.123-.3674.184-.7347.307-1.6531.552-2.5102.429-.551.675-1.2245 1.104-2.1429 1.288-.3061.061-.6122.061-.9184.061-1.2245 1.043-3.0612 1.165-4.5306.613-.551.123-1.102.123-1.6531 0-.7347.307-1.4694.43-2.2653.43-1.3469.061-2.5714-.246-3.6122-.92z" fill="#AF0C64"/><path d="M32.3266 151.749c-2.1429-2.023-2.8164-4.966-3.4286-7.725-.6123-2.575-.9184-5.212-.4286-7.725.6735-3.741 1.8368-8.278 5.9388-9.259.3674-.122.8572-.245 1.1633.062.1224 0 0 .061-.0612.122-.9796 4.292-3.1837 8.339-3.1837 12.876.551 4.108 1.1633 9.319 5.3878 11.22 2.2041.92 4.6531.92 6.9184 1.043 4.2857.245 8.2653-1.043 12.3062-2.269 2.3877-.613 4.4694-.92 6.4286-2.391 1.102-.736 2.2653-1.288 3.4286-1.901.0612.981.1836 2.023.2449 3.004.0612.43.0612.92.1224 1.349-.2449.123-.551.307-.7959.429-.9796.675-2.0204 1.349-3.1225 1.901-.1224.061-.3061.123-.4285.184-5.1429 1.533-10.4083 3.556-15.9185 3.311-1.0408.061-2.0816.123-3.1225.123-4.1633-.123-8.5102-.92-11.449-4.354z" fill="#AF0C64"/><path d="M30.4899 128.083c.3674-.552.796-1.104 1.2245-1.595-.0612.062-.0612.123-.1224.123.0612-.061.1224-.123.1224-.184.8572-.981 1.6531-2.023 2.5102-3.004.6735-.736 1.4694-1.41 2.2041-2.085.796-.674 1.5307-1.349 2.3266-2.023l.0612-.061h.0612c.2449-.184.4898-.43.796-.614.1836-.122.3673-.245.551-.367.3673-.184.7347-.368 1.102-.552.9796-.062 1.9592.122 3 .613-2.5102 2.636-5.6326 4.537-8.0816 7.296-1.1633 1.288-1.9592 2.943-3.3062 4.169-.7347.675-1.5918 1.227-2.0816 2.024-.551-1.288-.6123-2.514-.3674-3.74z" fill="#AF0C64"/><path d="M38.8165 119.315c-.0612.061-.1225.122-.1837.184.0612-.062.1225-.123.1837-.184zM31.7146 126.427c.0612-.061.1224-.122.1837-.184-.0613.062-.1225.123-.1837.184zM37.6533 121.767c1.4082-1.287 3.1225-2.207 5.0817-2.268-.1225.429-.4898 1.103-.6735 1.533-1.0408 2.759-3.1837 4.782-4.7143 7.235-1.7755 2.759-2.8163 6.008-4.7143 8.706-3.5511-5.702 1.4694-11.22 5.0204-15.206z" fill="#AF0C64"/><path d="M29.5718 144.269c-1.8368-5.15-2.1429-9.319-1.1021-13.121 1.1021-1.533 2.0817-3.188 3.2449-4.66-.0612.062-.0612.123-.1224.123.0612-.061.1224-.123.1224-.184.8572-.981 1.6531-2.023 2.5103-3.004.6734-.736 1.4694-1.41 2.204-2.085.796-.674 1.5307-1.349 2.3266-2.023h.0612c.2449-.184.4898-.429.7959-.613.1837-.123.3674-.246.5511-.368.4285-.245.9183-.491 1.4081-.675 1.1021-.429 2.2041-.735 3.3062-1.103h.1224c.8572 2.452-4.5306 5.027-6.2449 5.763-1.7755 1.043-2.6939 3.311-3.9796 4.967-1.0408 1.594-1.898 3.31-2.5102 5.089-1.347 6.315.4285 13.856 6.1837 17.535 2.6326 2.085 5.7551 2.575 8.9388 2.943.7347.123 1.4694.307 2.1429.552-.796.797-1.6531 1.594-2.6939 2.023-.0612.061-.1225.061-.2449.061-.7959.307-1.5919.43-2.449.43-5.7552-.062-12.6736-6.683-14.5715-11.65z" fill="#AF0C64"/><path d="M38.7553 119.376c-.0613.062-.0613.062-.1225.123.0612-.061.0612-.123.1225-.123zM31.7146 126.427c.0612-.061.1224-.122.1837-.184-.0613.062-.1225.123-.1837.184z" fill="#AF0C64"/><path d="M64.4084 144.576c-1.1632-4.415-2.0204-8.891-2.5714-13.428-.3061-2.943-2.5714-5.395-4.6531-7.357-2.0816-2.33-4.5919-4.231-7.4082-5.518-3.3061.613-3.9796 4.475-5.449 6.989-.6735 1.104-1.5306 2.085-2.449 3.066-.7959-2.207-1.2857-4.721-.551-6.99-.6735.429-1.4082.736-2.2041.981-.6123.245-1.1633.429-1.7143.736-.4898-3.372 2.6327-6.438 5.449-7.848 1.7143-.858 3.6735-1.594 5.6327-1.41.8571.184 1.7143.061 2.5714 0 4.1021 0 8.0817 2.452 10.7144 5.64 1.5918 1.656 2.8163 3.618 3.3673 5.887.6123 1.655.3674 3.494 1.1021 5.088 1.9592 4.844 4.5306 10.056 3 15.329-.2449.981-.4898 2.207-1.4694 2.697 0 0-.0612 0-.1224.062-.2449.061-.4898.122-.7347.122-1.6531-.184-2.2654-2.452-2.5103-4.046z" fill="#AF0C64"/><path d="M40.0411 96.0774l-.0613-.0614c-.3673.0614-.6734.1227-1.0408.0614-.7959-.1227-1.4694-.5519-2.0204-1.1037-2.9388.0613-6-7.1123-5.449-9.6874.4286-2.3299 3.4286-2.3912 4.6531-.6745 0-2.6977 3.2449-3.1269 4.7143-1.1036.7347 1.0423 1.0408 2.3299 1.2245 3.6175 1.1633.0613 2.3265 1.6554 1.2857 2.5751.4286 2.0233 1.898 5.2729.0612 6.8671-.1224.0613-.2449.1226-.3673.1839-.3061.1226-.6123.1839-.9184.1839-.7959-.0613-1.5306-.3678-2.0816-.8583zM12.6735 91.9693c-1.5918-.9197-1.9592-3.4335-.3061-4.4758-2.0204-.4905-4.40818-1.5328-5.32656-3.6175-1.16327-2.4525.85715-5.0889 3.36736-5.0889 1.6531-.184 3.1225.6744 4.7143.981.3061-2.2686.3061-5.2116 2.3878-6.5605 1.2245-.7358 2.8163-.3066 3.7959.6744.1225.5518.3062 1.1037.6735 1.6555.1225.1839.2449.3678.4286.5518.1224.7357.1837 1.5328.1837 2.2072 0 2.3913.1836 4.9051-.3062 7.235.1837.3679.2449.7357.3062 1.1036.0612.8584-.3062 1.6554-.8572 2.2073.0612.3678.0612.7357.0612 1.0423h-.0612c-.3673-.0613-.7347-.1839-1.102-.3066-1.8368.9197-3.8572 2.8204-6.0001 2.8204-.6734.1226-1.3469-.0613-1.9592-.4292z" fill="#78BB25"/><path d="M40.1635 124.465c-1.2857-.429-2.3878-1.349-3.3674-2.514.2449-.49.4286-.981.6123-1.41.0612-.184.1224-.306.1837-.49.1836.306.4285.613.6734.919.796.92 1.7143 2.146 1.898 3.495z" fill="#161212"/><path d="M35.8165 151.872c-4.4694-3.433-5.5102-9.994-5.0204-15.328.3061-4.721 2.1428-8.952 4.4081-12.937.1837-.123.3674-.184.4898-.368.8572-.675 1.2858-1.839 1.6531-2.82.0612-.246.1837-.491.2449-.736.3061-.491.6735-1.043 1.0408-1.533 4.7143-7.174 16.2858-10.791 23.7553-5.58 6.3061 3.679 7.898 11.711 9.4898 18.333.7347 4.537.3674 9.258-.9796 13.55-.4898 1.104-.7959 2.33-1.5306 3.25-1.102 1.042-2.3265 1.9-3.6123 2.514-.3061.122-.6122.245-.9183.367-4.2245 1.227-8.3878 2.576-12.796 3.189-2.0817.49-4.2858.797-6.4899.797-3.4286.184-6.7959-.613-9.7347-2.698zm10.898-37.34c-3.7347 2.208-5.6327 6.377-8.449 9.504.3061 0 .3673.368.1224.429-.8571 1.226-1.8979 2.33-2.6939 3.556-2.5102 4.354-3.1224 9.994-2.3265 15.022.4898 2.452 1.4694 5.334 3.6735 6.744 3.4898 1.595 7.2245 2.085 10.9592 2.33 3.3062.246 6.245-1.41 9.3062-2.146 2.5102-.429 4.7755-1.287 7.0409-2.391.1224-.061.3061-.122.4285-.245.2449-.123.5511-.245.796-.368 1.4694-.613 3.0612-1.288 3-3.127.3061-3.679.6735-7.419.551-11.159-.0612-8.155-3.0612-18.394-11.8776-20.356-.3674 0-.7959-.061-1.1633-.061-3.2449.184-6.6123.92-9.3674 2.268z" fill="#161212"/><path d="M33.0615 144.821c.1837-.368.551-.613.9184-.613 1.0408-.552 2.2041-.981 3.1837-1.656 4.1633-2.636 6.7347-6.805 9.4286-10.913.4286-.429.8572-.92 1.347-1.227-.0613.552-.1837 1.104-.3062 1.656-2.5102 5.334-6.4898 10.3-11.8164 12.814-.0612 0-.0612.062-.1224.062-.3674.184-1.2245.49-1.8368.49-.4898 0-.7959-.122-.7959-.613zM54.6125 121.89c1.102-3.127 1.1633-6.499 1.5306-9.749 2.3878 2.637.1837 7.971-.4898 11.037-.9796 2.575-1.1633 5.886-3.3061 7.725.1224-3.127 1.5918-6.131 2.2653-9.013zM37.7756 150.952c.2449-.49.5511-.858.9184-1.287 1.898-1.533 4.0409-2.759 5.8776-4.415 3.551-3.311 5.8776-7.664 9.0001-11.343.3673-.306.7959-.674 1.1632-.919-.1224.674-.3061 1.287-.6122 1.9-3.8572 5.764-7.9593 12.386-14.3266 15.329-.4286.184-.796.367-1.2245.49-.2449.123-.5511.245-.796.245zM44.8167 153.16c1.1632-2.208 3.1836-4.231 5.3877-5.396-.6122 2.207-2.3877 3.985-4.2857 5.089-.1837.061-.7347.368-.9796.368-.0612 0-.1224-.061-.1224-.061zM61.2248 115.023c.0612-.981.3061-1.962.7347-2.82.3674.858.6735 1.778.6735 2.697-.3674 2.882-.2449 6.561-2.449 8.645-.3061-2.881.9796-5.64 1.0408-8.522zM56.4494 144.698c.6735-1.839 2.2041-3.065 3.2449-4.659 1.5306-2.33 2.8164-4.844 3.9184-7.419.6123-1.594.9184-3.372 2.0204-4.783 1.2857 3.679-4.8367 14.961-8.449 16.677-.0612.062-.1837.062-.2449.123-.0612.061-.3061.123-.4286.123-.1224 0-.1224-.062-.0612-.062zM35.0205 129.738c1.0408-1.165 2.2653-1.962 3.3061-3.066 1.6531-1.9 2.9388-4.23 3.8572-6.56.3061-.675.6123-1.288.9184-1.901.0612.062.1224.245.1837.429.9183 3.005-3.7348 9.565-6.3674 10.791-.4286.184-.9796.368-1.5306.368-.1225-.061-.2449-.061-.3674-.061z" fill="#161212"/><path d="M39.3065 125.507c-.9796-.367-1.5918-1.287-2.0204-2.207-.1837-.368-.4286-.797-.6123-1.165.3062-.49.4898-1.103.6735-1.594.1225-.306.1837-.613.3061-.92.1837.43.3674.859.5511 1.288.6122 1.41 1.5306 2.698 1.7755 4.231h.1224c.0613-.123.0613.184 0 .306-.0612.123-.1224.184-.1836.184-.0613 0-.1225.061-.1837.061-.1225-.122-.2449-.184-.4286-.184z" fill="#161212"/><path d="M36.6124 120.357c-3.796-8.584-3.7347-18.578-1.2857-27.3453.2449-.6745.6734-1.3489 1.1632-1.8394.2449 1.1649.2449 2.3299-.0612 3.4335-2.0816 7.2352-1.8367 15.1442.3061 22.3792.796 3.066 2.8776 5.579 3.8572 8.523 0 0 0 .061-.0612.061-2.0205-.859-2.9388-3.311-3.9184-5.212z" fill="#161212"/><path d="M33.2452 96.8744c.1224-1.3489.3061-2.6978.6122-4.0467-.0612-.4292-.551-.797-.7959-1.1649-1.4082-1.8394-3.0613-3.5562-3.7347-5.7634-.9796-5.0277 3-6.6831 5.7551-2.2073 1.8367-3.0043 8.5103-3.4335 6.2449 1.5328 3.9797-.3678 6.6123 4.9051 1.7143 6.0087 4.7756 6.4992-1.4081 8.0933-5.449 3.1883-.6122-.5518-.7959-1.5942-1.7143-1.7168 1.9592-1.962 3.9184 2.5138 5.9388 2.7591 1.5307.6131 1.347-.4905.9184-1.5328-1.102-2.0847-3.1837-3.8014.3674-4.4759 2.3265-.6744-.2449-3.0656-1.7143-2.5751-.2449.0613-.6123.1839-.9184.3679-.9184.4292-1.898.9197-2.2041-.3066-.0612-.5518.4898-.981.7959-1.2876.551-.6131 1.1021-1.4715 1.0408-2.3912-1.0408-.6131-2.3877.2453-3.1224.9197-.6735.6745-1.4694 2.146-2.5715 1.2876-.9183-.9197-1.5306-2.4525-2.8163-2.8204-2.0204 2.2686.6122 5.2116 2.0816 7.051.7347 1.1036 2.2041 2.1459 1.8368 3.6788-1.0408 7.1734-1.5306 14.5924-.3674 21.8274.4286 2.882 1.7755 5.457 3.1837 7.909.4286.736.7347 1.656.7347 2.514-7.4694-6.009-6.4898-20.11-5.8163-28.7556z" fill="#161212"/><path d="M38.7555 125.446c-1.5919-.613-2.5102-2.207-3.6735-3.372-1.4694-1.594-2.7551-3.372-3.9796-5.212-5.449-7.725-9.9185-16.615-10.5307-26.1189-.3061-2.146-2.7551-.7358-4.0408-.1839-.7347.3065-1.4694.6131-2.2654.7357-1.1632.7971-2.3877 1.5941-3.8571 1.5941-4.1021-.4291-1.34698-4.5371.2449-6.1312-3.06128-.0614-4.77557-3.6175-3.00005-6.1313 1.59185-2.0847 4.71435-2.5139 7.16335-1.7168-.7347-6.1313 6-8.2159 7.7143-1.6554 1.9592 7.2962-1.0408 15.0829 1.6531 22.2565 3.1837 9.5032 9.1837 17.6582 15.1225 25.5062.2449.368.0612.552-.1837.552-.1224 0-.2449-.061-.3673-.123zM13.4696 86.5125c-1.3469 1.4102-3 2.7591-3.48981 4.7824.91841.1226 1.71431-.3679 2.44901-.8584 1.2857-.9197 2.8776-.9197 4.2245-1.7167 1.1633-.5518 2.3878-1.0423 3.7347-.4292.2449.0613.4286.1226.6123.2452 0-4.0466.7347-8.3385-.9184-12.2012-.4286-1.2876-1.7143-1.5329-2.6327-.6745-.9183 1.1037-.9796 2.6365-.8571 3.9854.2449 1.8393-1.347 1.4715-2.449.9197-.9184-.3066-1.898-.2453-2.8164-.0614-1.8367.184-3.551 2.3912-2.0816 4.0467.8571.6744 2.0204.6131 3 .6131.1225 0 .1837-.0613.3061-.0613.6735 0 1.2858.6745.9184 1.4102z" fill="#161212"/><path d="M41.2655 60.8224c-2.9388-2.5139-1.1633-7.051 1.347-9.197 2.3265-1.962 5.0204-3.4948 7.8367-4.5984 2.8776-.981 6.1838-.4292 8.9389.6744 1.3469-.4292 2.9388.184 3.4286 1.5328.7959 2.6365-1.6531 6.254-3.6735 7.8481-2.0205 1.4715-4.2858 2.6978-6.6123 3.6175-1.898.6131-3.8572.6131-5.8164.7357-.8571.1226-1.7755.2453-2.6326.2453-.9796 0-1.9592-.184-2.8164-.8584zM72.1228 44.8811c-1.5918-.1227-3.3061.0613-4.898-.3679-.9796-.4905-1.4694-1.7781-.9183-2.7591-.1837 0-.3062.0613-.4898.1226.2448-1.3489 1.1632-2.5751 2.204-3.4335 5.0205-2.943 10.9593-5.1503 16.8369-3.924 3.1224.4905 4.7143 3.8627 1.9592 6.0086-1.9592 1.3489-4.347 2.0847-6.4899 3.0657-2.0204.981-4.1633 1.3489-6.3673 1.3489-.6123 0-1.2245 0-1.8368-.0613zM66.3676 31.5148c-.0612.0614-.0612.1227-.0612.2453-.0612.0613-.0612.1839.0612.1839-.551.6745-1.2857-.9197-1.4081-1.2262-1.1021-2.8817-.7347-6.1926-.1837-9.1357.4286-2.4525 1.7143-5.3955 4.2857-5.9473.0613-.1226.1225-.2453.1837-.3066.3674-.5518.7347-1.1036 1.1633-1.5941.6122-1.6555 1.1633-3.86271 3.0612-4.35322 2.1429-.42919 3.3062 2.02332 3.3674 3.86272.1224 5.7021-.7959 18.7617-7.9592 19.6814-1.1633-.2452-1.9592-.7357-2.5103-1.4102zM53.9392 39.7307c-3.6735-.6744-7.347-2.6364-9.0001-6.1313-1.4082-3.0656-2.7551-8.2772-1.1633-11.4655 1.6531-2.943 4.8368-2.0233 7.2858-.7357 1.102.4292 2.1429.9197 3.0612 1.7167 1.4082 1.4715 2.3266 3.3109 3.6123 4.9051 1.0408 1.6554 1.7143 3.4948 2.0816 5.4568.796 3.1883-1.8979 6.3152-5.0204 6.3152-.3061.0614-.6122 0-.8571-.0613z" fill="#78BB25"/><path d="M71.7556 68.1186c-.5511-2.8817-1.8368-5.3955-3.5511-7.7254-1.5918-2.3912-3-4.9051-3.8571-7.6641-1.7756-5.3956-1.7756-11.2816-.3674-16.7385.4286-1.2262.4898-2.8817 1.7755-3.5561.1837-.0613.4286.0613.3674.2452-.1225 2.3913-1.1633 4.6598-1.347 6.9897-.7347 5.7021-.0612 11.6495 2.6327 16.7384 1.898 3.5562 4.7755 6.6831 5.5715 10.7298.3061 2.2073 1.7143 5.3342-.4286 6.9897-.6123-1.962-.2449-4.0467-.7959-6.0087z" fill="#161212"/><path d="M65.5717 33.8447c-2.2041-1.6554-1.2858-6.3152-1.4694-8.7677-.0612-3.0657.6122-6.1926 2.449-8.6452 2.1428-2.4525 4.4082-4.9663 7.2245-6.68306 2.7551-2.08464 2.2041 2.63646 2.6939 4.10796.9796 7.8481-.6735 16.6158-8.8776 19.6201-.3674.3066-.8572.4905-1.2857.4905-.3062 0-.5511-.0613-.7347-.1226zm2.3265-16.7384c-1.5918 2.0233-2.2653 4.5985-2.2653 7.1123.1837 2.6977-.4898 5.5795.4898 8.1546.1837 0 .3673.0613.551.1226 2.1429-1.3489 4.4694-2.5138 6.0001-4.5984 3.4898-4.9051 2.7551-11.3429 1.8979-16.9224-2.5714 1.6554-4.6531 3.8627-6.6735 6.1313zM71.8169 45.7394c-2.6939-.3679-6.3062-.981-7.6531-3.6175-.0612.0613-.1225.1227-.2449.1227-.3674-2.0234 1.6531-3.1883 3-4.2919 1.0408-.8584 2.0817-1.6555 3.2449-2.3299 5.1429-2.8817 12.6124-4.0467 17.2654.3065.4898.5518 1.7143 1.165 1.1021 2.0234-2.6327 2.3298-5.0817 5.0276-8.3878 6.4991-2.3266.7358-4.7756 1.3489-7.2246 1.3489-.3673 0-.7346-.0613-1.102-.0613zm2.5102-1.5941c1.9592-.3066 3.796-.5519 5.5103-1.2263 2.8163-1.3489 5.2653-3.3109 7.4694-5.5182-3.9184-3.8014-10.1633-3.3722-14.7552-1.3488-2.8776 1.2875-5.1429 3.4948-7.5307 5.5181h-.0612c2.6939 1.8394 6.0613 3.0043 9.3674 2.5752zM51.9798 35.7454c-1.7755-1.0423-3.6735-1.962-5.0204-3.6174-2.2653-2.8204-2.8776-6.5605-3-10.1167-.0612-.4905-.1225-1.1036.4285-1.4101 1.4082-1.165 3.1837-.3066 4.8368-.184 2.3878.1226 4.2858 1.7168 6.1837 2.8817 4.1633 3.0657 7.8368 7.9707 8.2654 13.2436.551.2453.9183 1.0423.4898 1.5328-.1225.1227-.3062.184-.3674.2453-1.4694.2452-3 .2452-4.5306.3065-2.6939-.0613-5.1429-1.3488-7.2858-2.8817zm-6.551-13.9793c.2449 4.0466.8571 8.8291 4.5306 11.1589 3.1225 1.5942 6 4.1693 9.6735 4.108 1.0409 0 2.0817-.1226 3.1225-.1839-.7959-1.4715-.9184-3.2496-1.7755-4.7211-1.6531-3.1883-3.9796-5.8247-6.9184-7.8481-1.2245-.5518-2.2653-1.5328-3.5511-2.0846-.7347-.2453-1.5918-.3066-2.3265-.4292-.6123-.1226-1.2245-.3679-1.8368-.3679-.3061.0613-.6122.184-.9183.3679zM48.8574 60.5158c-2.3265-.4905-9.6735-1.2876-8.9388-4.7211.9184-1.7781 2.3265-3.2496 3.3674-4.9663 2.5102-4.6598 8.1429-5.9474 13.0409-5.2116 1.5306.1226 3.1224.6131 4.4694 1.2875.9796.4292 2.0204.9197 2.6326 1.9007 0 0 0-.0613.0613-.0613 0 0 0 .0613.0612.0613 1.7755 1.962-.3061 5.2729-1.7143 6.8671-2.6939 3.2496-6.4286 5.0889-10.4695 5.0889-.8571 0-1.7143-.0613-2.5102-.2452zm-.3673-12.4465c-1.8368.797-3.1225 2.2072-4.1021 3.8627-.9184 1.5328-2.2041 2.8817-3.0612 4.4145.7959 1.1037 2.2041 1.2876 3.4286 1.6555 2.3265.6131 4.7143 1.1649 7.102 1.0423 4.1021.0613 7.7144-2.8204 9.8572-6.07.6735-1.1036.6123-2.3912 1.2245-3.5561-1.5306-.3066-2.8163-1.4102-4.2857-1.7781-1.5918-.3066-3.2449-.5518-4.898-.5518-1.8367 0-3.6123.2452-5.2653.981z" fill="#161212"/><path d="M72.6127 69.4062c-.3673-1.5328-.9796-3.0657-1.4694-4.5372-.6734-1.6554-1.653-3.2496-2.6939-4.6598-1.2857-2.1459-2.5102-4.2919-3.7347-6.4378-.9183-2.3299-1.4694-4.8437-1.7755-7.2962 0-1.4715.0612-2.9431.1225-4.4759.4285-3.0656.7347-6.3152 2.204-9.0743 0 0-.0612 0 0 0 .1837-.0613.3062.2453.3062.3679.3061.981-.1225 2.0233-.3062 3.0043-.9183 3.8014-1.5306 7.7868-.9183 11.6495.6735 2.5138 1.102 5.1503 2.6326 7.2962.9184 1.4715 1.7756 3.127 2.6939 4.5372 1.5919 2.0846 2.7552 4.4145 3.4899 6.9283.6122 2.0233 2.0816 6.1313.0612 7.6028-.4286-1.7167-.3674-3.3109-.6123-4.905z" fill="#161212"/><path d="M92.0822 65.2369c-1.7143-2.6978-1.0408-6.0087-.2449-8.9517 2.0204-7.1123 6.2449-13.7341 12.0617-18.2712-.674-6.07 5.449-12.7531 11.51-12.9984 2.265-.0613 5.082.9197 5.633 3.3722.061.2453.122.6132-.062.8584-.306-.3679-1.102-.4905-1.469-.6131-2.021-.4292-4.102-1.165-6.123-.2453-3.367 1.4716-6.489 4.5985-7.04 8.3999 3.122-.981 7.224 1.4715 6.918 4.9664-1.041 5.0276-6.796 2.3912-8.388-.9197-4.959 4.3532-8.8774 9.7487-10.6529 16.1253-.8572 2.759-.4286 5.886-2.1429 8.2772zm18.1228-22.9923h-.184c.123 0 .184-.0614.306-.1227 0 .0613-.061.0613-.122.1227.796-.3679.734-1.4102.183-1.9007-.857-.981-2.387-1.2876-3.551-.6745.674 1.165 1.898 2.5752 3.368 2.5752zM61.1024 88.965c-.0613-.7971.551-1.5328 1.3469-1.5328.8572 0 1.5919.6744 1.6531 1.5328.0612.797-.551 1.5328-1.347 1.5328-.7959 0-1.5306-.7358-1.653-1.5328zM16.8369 60.3932c-.0612-.7971.4898-1.4715 1.2857-1.4715.796 0 1.5307.6744 1.5919 1.4715.0612.797-.4898 1.4715-1.2857 1.4715-.796 0-1.4694-.6745-1.5919-1.4715zM34.5921 68.2413c-.0613-.6745.4285-1.2876 1.1632-1.2876.6735 0 1.2858.5518 1.347 1.2876.0612.6744-.4286 1.2875-1.1633 1.2875-.6735 0-1.2857-.6131-1.3469-1.2875zM144.491 123.852c-.062-.858.612-1.655 1.469-1.655.918 0 1.714.735 1.776 1.655.061.858-.613 1.656-1.47 1.656s-1.714-.736-1.775-1.656zM76.5311 166.097c-.0613-.859.551-1.656 1.4694-1.656.9183 0 1.7143.736 1.7755 1.656.0612.858-.551 1.655-1.4694 1.655-.8572 0-1.6531-.797-1.7755-1.655zM107.511 51.135c-.061-.7971.551-1.5328 1.347-1.5328.796 0 1.53.6744 1.653 1.4715.061.7971-.551 1.5328-1.347 1.5328-.857 0-1.592-.6744-1.653-1.4715zM88.3475 16.6771c-.0612-.8583.551-1.5328 1.4082-1.5328.8571 0 1.5918.6745 1.7143 1.5328.0612.8584-.5511 1.5329-1.4082 1.5329-.8572 0-1.6531-.6745-1.7143-1.5329zM57.2453 104.355c-1.8368-1.595-2.3266-3.986-2.9388-6.2544-.6735-2.3912-1.5306-5.0276-.3061-7.3575 1.7755 1.9007 2.3877 4.4758 3.0612 6.9283.6735 2.2073 1.1633 4.5376.1837 6.6836zM62.8781 105.152c-1.2245-2.943.9184-6.2543 3.6123-7.4806.3061 3.2496-1.1633 5.5796-3.6123 7.4806zM70.2861 110.67c.4286-2.453 2.8776-3.986 5.2654-3.556-.6123 2.268-2.9388 3.678-5.2654 3.556zM131.756 106.868c-.367-.49-.612-1.165-.551-1.778.061-.429.429-.797.857-.49l-.122.122c4.898 1.165 10.592-.122 13.775-4.169-14.939-7.7253 7.531-21.3981 3.98-2.0845 6.918.7971 14.449-3.8627 17.449-10.0553.429-1.3489.857-2.5751.98-3.924.551.2452 1.04.7357 1.346 1.2262 1.776 2.943-.612 6.1926-2.51 8.3999-4.469 5.089-11.571 8.6447-18.428 7.2967-1.837 3.372-5.143 5.702-8.817 6.744-2.51.613-6.122 1.165-7.959-1.288zm15.429-9.0739c.551-1.962.857-4.3532-.184-6.1313-1.347-1.0423-3.306.797-3.674 2.0846-.183 2.146 2.205 3.3722 3.858 4.0467z" fill="#0D743E"/></g><defs><clipPath id="clip0"><path fill="#fff" d="M0 0h182.021v184H0z"/></clipPath></defs></svg>