<svg width="183" height="184" viewBox="0 0 183 184" fill="none" xmlns="http://www.w3.org/2000/svg"><g clip-path="url(#clip0)"><path d="M67.3474 159.659c-.7959-2.698.3061-5.273 1.3469-7.726 1.0408-2.575 1.898-5.211 3.1225-7.664 3.7959-7.235 7.7143-14.408 11.8776-21.459 3.6123-5.948 7.2245-11.895 11.5103-17.352 3.9184-4.537 7.9593-9.0128 12.2453-13.1208 2.02-2.0233 4.163-3.924 6.367-5.7021 1.469-1.3488 3.429-2.6977 5.388-2.5138-.551 1.2263-1.163 2.4525-2.204 3.3722-2.082 1.9007-4.164 3.7401-6.245 5.7021-5.572 5.7021-11.2656 11.2814-15.8574 17.7804-7.8368 11.221-14.3267 23.361-20.694 35.378-1.2245 2.575-2.2041 5.334-3.245 7.971-.7347 2.084-1.5918 4.291-3.6122 5.334z" fill="#33AB5B"/><path d="M69.4903 159.72c-.9183-1.533-.551-3.74.1225-5.395.7347-1.962 1.6531-3.802 2.3878-5.58 3.551-9.626 8.3878-18.639 14.1429-27.1 3-4.844 7.0409-9.258 10.7756-13.489 2.5102-2.943 5.0819-5.825 7.7139-8.7065 3.858-4.3532 7.592-8.8904 11.694-13.0597.858-1.0423 2.082-1.8393 3.306-2.2685 0 0-.061 0-.061-.0613.184-.1227.368-.2453.551-.184 1.041.6745-.673 3.4335-1.347 4.0467-6.122 6.9896-12.306 14.0403-18.428 21.0303-5.2657 5.886-10.1636 11.772-14.2657 18.516-4.0409 6.5-7.7756 13.244-10.347 20.418-.7959 1.962-1.6531 3.862-2.5102 5.763-.796 2.269-1.6531 4.66-3.7348 6.07 0-.061 0-.061 0 0z" fill="#33AB5B"/><path d="M116.939 86.022c-.122-.3066-.183-.5518-.122-.8584.061-1.0423.98-1.8394 1.837-2.3299.612-.5518 1.285-1.0423 2.081-1.4102 1.286-.6131 3.307.4905 2.388 1.962-.428.5519-1.163.7358-1.775 1.0424-.674 1.8393-3.184 4.1692-4.409 1.5941zM88.5311 162.847c-.9184-.061-2.0204.061-2.5102-.797-1.7756-.92-1.2858-3.25-1.0409-4.905.3674-3.801 1.5307-7.48 2.5715-11.098 1.8367-7.173 4.1633-14.286 7.5919-20.846 2.3265-3.924 4.5306-7.909 6.9796-11.772 1.714-2.514 3.551-4.966 5.388-7.419 5.632-7.2349 11.326-14.4698 18-20.8464.612-.6744 1.347-1.2875 2.204-1.5941 1.408-1.2263 4.347-3.8627 5.878-1.5941.734 1.778-1.47 2.943-2.388 4.1692-2.082 2.4526-3.857 5.089-6.123 7.4189-4.285 5.2729-8.081 10.9755-11.571 16.7995-3.184 4.721-6.123 9.626-8.388 14.899-1.898 4.17-2.878 8.584-4.286 12.876-1.8977 5.334-3.9181 10.73-4.9589 16.309-.5511 2.269-.6735 4.783-1.898 6.806-.9184.858-2.2653 1.042-3.4286 1.288-.7347.245-1.4082.306-2.0204.306z" fill="#33AB5B"/><path d="M109.47 165.054c-1.592-1.716.184-4.843.49-6.621.551-1.962.918-3.679 1.225-5.641.795-3.495 1.285-7.113 2.204-10.607.979-3.863 2.265-7.603 3.306-11.466 4.347-15.389 7.837-31.2081 16.592-44.7583-.245-.7357-.123-1.2262-.306-1.8394-1.041-.8584-.735-2.8204.734-3.0043.796-.1226 1.653.1839 2.449.2452 1.164-.3065 2.449.4292 2.755 1.6555.429 0 .796-.0613 1.225 0 0 .3066 0 .6131-.061.9197.061 1.2262-.857 2.3299-1.347 3.3722-.919 1.4715-1.592 3.0656-2.266 4.6598-1.408 3.1882-3 6.2539-4.102 9.5036-1.469 4.414-2.387 8.952-3.918 13.366-1.286 4.599-2.633 9.136-3.612 13.795-.919 3.373-1.96 6.745-2.572 10.178-1.224 5.396-1.959 10.853-2.877 16.248-.245 1.288-.49 2.514-.674 3.802-.183.981-.122 2.146-.979 2.759-.735 1.165-2.204 1.226-3.245 1.962-1.408 1.349-3.306 3.249-5.021 1.471zm5.021-7.235c-.123.491-.245 1.043-.429 1.533.429-.061.49-.49.49-.858.061-.736.122-1.472.245-2.207-.061.49-.184.981-.306 1.532z" fill="#33AB5B"/><path d="M130.164 154.692c-.612-.858-.428-1.778-.183-2.636.367-1.533.734-3.127.979-4.66.123-10.975 1.898-21.827 3.429-32.618.796-6.009 4.041-11.343 4.837-17.3518.612-3.7401.979-7.2962.979-11.0363.123-1.4715-.306-3.1883.612-4.4146 1.225-1.4715 3.123-.3065 4.592.0614 1.408.6131 1.715 2.2072 1.347 3.5561-.367 1.962-.735 3.924-.612 5.9474 0 2.8817-.551 5.7634-.98 8.6448-.306 4.476-.245 9.013-.796 13.489-.612 8.584-.796 17.168-1.224 25.813-.061 1.839-.061 3.801-.918 5.457-.674 1.287-1.898 2.146-2.694 3.311-.184.429-.551.735-.98.858-.918.92-1.837 1.901-2.694 2.882-.796.858-1.347 1.532-2.081 2.391-.858 1.287-2.572 1.717-3.613.306zM149.94 136.36c-.919-2.943.428-6.07.367-9.074.245-2.576.306-5.151.306-7.726.061-3.556.49-7.112.857-10.668-.122-2.821-1.653-5.825-.367-8.584-.796-4.6599-1.47-9.381-2.265-14.0408-.551-1.3488-.062-3.0656 1.653-2.8817.734.184 1.347.6132 2.081.9197.919.3066 1.898.6132 2.572 1.3489.796.7971.796 1.9007.612 2.943 0 1.5329.061 3.0657.061 4.5985.245 3.4948.674 6.9894.735 10.4844.061 5.396.857 10.73 1.469 16.064.184 1.839.306 3.679.306 5.518 0 1.901.123 3.986-.857 5.702-1.347 1.962-3.122 3.679-3.979 5.948-.919 1.165-2.939.735-3.551-.552zM113.205 160.088c-.49-.491-.551-1.226-.245-1.778.245-1.042.857-2.698 2.081-2.943.858-.061 1.531.552 1.531 1.41-.122 1.533-1.347 4.966-3.367 3.311zM66.7351 161.375c-.9184-.735-.9796-2.084.0612-2.759.9184-.429 1.6531-1.042 2.2653-1.839 4.0409-4.353 5.7552-10.117 8.0817-15.451 1.4694-3.433 3.4898-6.683 4.7756-10.178.8571-1.839 2.3877-8.4 5.2653-6.56 2.2653-4.905 4.7755-9.688 7.898-14.102 2.8776-3.495 5.3878-7.296 8.2658-10.7913 3.612-4.0466 7.959-7.2349 12.122-10.6071.184-1.4715 1.959-2.146 2.939-3.0657.979-.981 1.837-2.2685 3.245-2.6977-.49-1.2263.551-2.0234 1.714-1.962 1.837 0 4.041-.3066 5.694.6131 1.408.4905 1.408 2.7591-.245 2.8204-.612 0-1.224.0613-1.775.0613-.184.6131-.858.7971-1.347 1.0423-1.102.5518-2.143 1.1036-3.184 1.7168-4.469 3.3109-8.694 6.8057-12.857 10.4845-3.123 2.6974-5.694 5.8864-8.082 9.2584-3.3061 4.353-6.6123 8.829-8.9388 13.795-4.9592 9.933-9.1837 20.233-14.3266 30.044-1.2245 2.268-2.1429 4.782-3.3062 7.051-.4285.735-.9183 1.471-1.7143 1.839-.7347.368-1.5306.429-2.3265.613-1.4694.123-2.8776 1.778-4.2245.674zM160.287 109.75c-.49-.736-.49-1.717-.49-2.575.061-1.594.123-3.188.061-4.782-.122-3.434-.551-6.8062-.857-10.1784-.184-1.4715-.306-3.0043 0-4.4759-.061-.1226-.184-.2452-.306-.3065-.98-.5518-1.286-2.2073-.122-2.7591.489-.2453 1.04-.1839 1.53.0613.674.1226 1.408.2453 2.082.4292 2.51.4292 2.694 2.5138 2.02 4.5985-.612 1.8393-.367 3.4948-.183 5.3955.183 3.0043-.245 6.0084-.49 8.9514-.123 1.472-.184 2.943-.429 4.415-.061.613-.306 1.287-.796 1.655-.612.552-1.53.246-2.02-.429z" fill="#33AB5B"/><path d="M75.3678 132.62c.3673 1.042-.1225 2.207-.4898 3.188-.5511 1.594-1.347 3.066-2.0817 4.537.1837.859-.3061 1.656-1.0408 2.023-1.4082 2.76-2.9388 5.519-3.9796 8.4-.6735 2.146-1.1633 4.66-3.2449 5.886-.0613.062-.4286.184-.3674 0-.1224-.368-.3673-.674-.4898-1.042-.7959 1.104-2.3878 1.655-3.4898.613-1.6531-1.655-.1837-4.169.9796-5.702-1.0408-.123-1.8368-1.104-1.898-2.146-1.5918-.061-2.7551-1.901-1.8367-3.311-1.8368.307-3.4898-1.717-2.2653-3.311-2.6327.307-3.3062-3.311-.5511-3.678 4.5307-1.227 8.9389-2.76 13.4083-4.047 1.102-.368 2.2653-.736 3.4286-.675.4898-.797.8571-1.9 1.8979-2.084.9184-.061 1.7143.552 2.0205 1.349zM84.429 118.64c.9795.307 1.5918 1.165 1.4694 2.208-.1225 1.165-1.347 1.655-2.0205 2.513-1.2245 1.349-2.3265 2.76-3.4898 4.17-.2449.797-.7347 1.655-1.5918 1.839-.9796.736-2.2654-.061-2.5103-1.165-.4285.184-.9795.307-1.4081.368-1.7755.491-3.4898.92-5.2654 1.349-6.1837 1.288-12.0613 3.495-18.1837 4.905-1.8368.674-3.6123 1.533-5.5103 2.146-.3673.123-.7959.061-1.1633-.123-1.5306.246-2.8163-1.778-1.7755-3.004 2.5715-2.514 6.3062-3.066 9.4287-4.598 3.551-1.84 17.8164-8.278 23.3879-8.216 1.8367-.675 3.6734-1.227 5.5102-1.778 1.102-.184 2.0816-.859 3.1225-.614zM91.4087 107.604c1.1633 1.042.9184 2.882-.3061 3.74-1.2245 1.165-2.2654 2.759-3.9184 3.311-3.4286.859-6.796 1.717-10.2246 2.453-3.4898.919-6.8572 2.146-10.2858 3.188-5.2041 1.594-10.4082 3.372-15.3062 5.763-2.8775 1.288-5.8163 2.514-8.6939 3.74-1.1021.43-2.3265.491-3.4286.246-.6122.184-1.2857.184-1.898.122-1.4694-.184-2.5714-1.716-1.9592-3.127.6123-1.287 2.0205-2.023 3.1225-2.82 6.0613-3.924 12.6123-7.112 19.3471-9.871 6.9184-2.76 14.2654-4.538 21.6123-5.703 2.5715-.49 5.1429-.981 7.7756-1.348 1.3469-.246 2.9388-.736 4.1633.306z" fill="#78BB25"/><path d="M99.7354 101.289c.3066.797.0612 1.778-.6735 2.268-1.1632.675-2.6326.184-3.9184.123-3.7959-.429-7.6531-.245-11.449.123-5.0205.735-9.8572 2.268-14.6328 3.985-8.0816 3.679-16.7143 6.193-24.796 9.749-2.449.981-4.7756 2.146-7.2246 3.127-1.102.49-2.2653.919-3.4898.858-1.8979.736-3.9796 2.453-6.0612 1.594-1.1021-.552-1.4694-1.962-.9796-3.065 1.5306-3.311 6.9184-4.967 9.9796-6.684 7.5919-3.801 15.3675-7.234 23.5716-9.38 4.6531-1.656 9.6123-2.33 14.3266-3.679 3.0613-1.2877 6.3674-1.9622 9.6123-2.3913 3.3674-.3066 6.9796-1.3489 10.347-.2453.7959.3066 1.5306.7971 2.2653 1.2263-.1224.1226-.2449.2452-.4285.3678 1.4081.184 3.0612.6132 3.551 2.0235z" fill="#78BB25"/><path d="M113.388 86.6965c0 2.0233-3.979 2.3299-5.449 2.943.123 1.1036-.734 2.0846-1.102 3.127-.306.7357-1.04 1.0423-1.653 1.4715-1.347.797-3 .3065-4.163-.5518-3.1836-.4292-6.4286-.3066-9.6122-.184-2.2041 1.7168-5.2042 1.6555-7.8368 2.146-3.245.4292-6.5511.981-9.7348 1.778-2.6939.6132-5.449 1.165-8.1429 1.7168-1.4082.1839-3.3061 1.349-4.347-.0613-7.8367 3.3113-15.6735 6.3763-23.5103 9.7483-4.5307 2.024-8.8776 4.476-13.347 6.561-1.4082.613-2.8776 1.594-4.4694 1.533-1.898-.307-1.7756-2.698-.1225-3.434 3.7959-2.391 7.9592-4.169 11.9389-6.131 13.1021-6.07 26.5715-11.4656 40.3471-15.7575 7.5919-2.3299 15.4287-3.7401 23.3879-4.6598 2.8164-.4292 5.633-.5518 8.449-.7357 2.388-.4292 4.837-.7358 7.225-1.2876 1.102-.3066 2.142.7358 2.142 1.7781z" fill="#78BB25"/><path d="M64.4086 85.8381c-.8572-1.1037-1.5918-2.2686-2.2041-3.4949-2.449-2.0233-3.1837-6.3765-3-9.8713-.2449.1226-.551.1226-.9184.0613-1.2857 3.6788-.3673 6.3152 1.8368 9.3809.9796 1.778 2.449 3.1882 4.2857 3.924zm1.0408-4.9664c0-.0613.0612-.1839.0612-.2452-.0612 0-.1224-.0613-.1836-.0613v.0613c0 .0613.0612.1839.1224.2452zm9.796-.6744c-.1837.1226-.3061.1839-.4898.3066 0 .0613-.0612.0613-.0612.1226s-.0612.1226-.0612.1839c.1836-.2452.3673-.4292.6122-.6131zm29.2656-9.994c-.061-.0613-.061-.0613-.123-.1226-.061.0613-.061.1226-.122.1839.061 0 .061.0613.122.0613 0-.0613.062-.1226.123-.1226zm7.286-7.4189c.428 1.4715.734 3.8014-.919 4.5985.674 3.4948 1.898 10.2393-1.898 12.2013-.306.6744-.857 1.2262-1.592 1.4102-.244.8583-1.224.9197-1.959.9197-1.898.0613-3.796.0613-5.6324.0613-1.0409 0-2.8776.1226-3.6123-.6745-.3061.0613-.551.1226-.7959.184-4.8368 1.1649-9.1838 2.0233-13.8368 3.4335-2.6939.6744-5.4491 1.3489-8.0205 2.5751-1.3469.6745-2.8776 1.3489-4.347 1.4715-.3061.3066-.7347.4292-1.1632.4905-1.4694.3679-2.9388.6745-4.4082.5519-1.4694 0-2.8164-.7358-3.796-1.8394-2.8775-2.2073-4.7755-5.7021-5.1429-9.3196 0-.7971 0-1.5328-.4285-2.2073-1.0409-2.943-.796-6.1926-.2449-9.2582 2.1428-10.6684 11.2653-19.2522 21.0001-23.4828 2.8163-1.165 5.7551-2.0847 8.8776-2.0234 2.0204.0614 4.2857-.1839 6.1225.7971.6122.4292.9184 1.0423.7959 1.7168-.0612.4292-.3061.7357-.6735.981 1.5307.0613 3.0613.3065 4.5919.6131 3.2449.7358 6.8571 1.5941 9.0001 4.4145 4.041.7971 6.122 4.7824 6 8.6451.735.6745 1.286 1.5329 1.714 2.3912.184.3066.368.7971.368 1.3489z" fill="#FDBE54"/><path d="M124.348 176.397c1.653-.797 3.245-1.594 4.836-2.452 1.531-.797 3.123-1.656 4.653-2.514 1.837-1.104 3.613-2.33 5.327-3.679 1.837-1.471 3.49-3.127 5.143-4.844.428-.368.857-.735 1.286-1.103.796-.736 1.591-1.472 2.449-2.146.857-.675 1.714-1.349 2.571-2.024 1.531-1.165 3-2.452 4.286-3.862.612-.675 1.286-1.288 1.898-1.962.612-.675 1.102-1.288 1.592-2.024.122-.245.306-.429.428-.674.245-.307.429-.552.674-.858.489-.552.918-1.165 1.347-1.779.061-.061.122-.122.183-.245-.061.062-.122.123-.183.245.673-.858 1.285-1.655 1.959-2.513.551-.736.979-1.533 1.469-2.33.857-1.226 1.898-2.391 2.694-3.679.98-1.655 2.021-3.25 2.449-5.15 0-.062 0-.123.061-.246.368-.613.735-1.226 1.041-1.9.857-1.778 1.592-3.556 2.265-5.334.674-1.84 1.286-3.679 1.837-5.519-.061.123-.061.184-.122.307.061-.184.122-.368.122-.491v-.061c.735-2.452 1.347-4.905 1.959-7.419v.123c.551-2.085 1.041-4.231 1.47-6.315.306-1.533.612-3.066.796-4.599.183-1.9005.306-3.7399.367-5.5793 0-2.6364-.245-5.2729-.673-7.848-.429-2.6978-.919-5.3342-1.653-7.9707-1.164-3.9853-1.96-8.032-2.817-12.0173.061.4292.184.8584.245 1.2875-.735-3.4335-1.653-6.867-2.51-10.3005.122.4292.245.9197.306 1.3489-.735-2.9431-1.531-5.8248-2.694-8.6452-1.224-2.8204-2.694-5.5794-4.347-8.1546-.551-.8584-1.102-1.6554-1.714-2.3912-.245-.6131-.49-1.2262-.796-1.7781-.612-1.2262-1.347-2.3298-2.082-3.4948-.857-1.3489-1.836-2.6364-2.816-3.924.857.8584 1.714 1.7781 2.571 2.6978.735.8583 1.47 1.7167 2.204 2.5751 5.449 6.8057 9.919 14.4085 13.225 22.5631.245.7971.49 1.6555.735 2.4526.306.8583.612 1.6554.796 2.5138.245.9197.489 1.8394.796 2.7591.306.8584.551 1.6554.796 2.5138.244.981.428 1.962.795 2.8817.184.3679.307.7358.49 1.1649 1.347 6.1313 2.021 12.5692 2.021 19.1297 0 39.9757-26.205 73.8207-62.45 85.5317 1.531-.797 3.123-1.533 4.715-2.269z" fill="#161212"/><path d="M160.654 146.66s0-.061 0 0c-.061.062-.184.184-.245.307.061-.123.123-.245.245-.307zM160.899 146.293c-.061.061-.122.122-.184.183.062-.061.123-.122.184-.183zM160.777 146.477s-.062.062 0 0c-.062.062 0 0 0 0z" fill="#161212"/><path d="M160.838 146.415s-.062 0 0 0c-.062 0-.062 0 0 0-.062 0-.062.062 0 0-.062 0-.062 0 0 0zM2.69382 99.3881l-.06123-.0613c-.36735-.4292-.73469-.797-1.04082-1.2262-.06122-1.6555-.12245-3.3109-.12245-5.0277C1.4081 47.6401 35.2654 10.1166 79.2249 4.0466c-.1225.06131-.1837.06131-.3061.06131-.3062.06132-.6123.18394-.9184.24525-1.2857.36788-2.5102.85839-3.7347 1.28758-1.2857.42919-2.5715.91969-3.796 1.47151-.7959.12262-1.653.30656-2.449.55181-3.2449.85838-6.3061 2.39124-9.3061 3.92404-1.5307.7971-3.0613 1.5328-4.5307 2.3299-1.4694.797-2.8775 1.778-4.2857 2.6364-1.4082.9197-2.8776 1.7781-4.4082 2.5752-.7347.3678-1.5306.7357-2.2041 1.2262-.7959.4905-1.5918 1.0423-2.3265 1.6555-1.347 1.1036-2.6939 2.2686-3.9797 3.4948-.7959.7358-1.5918 1.5941-2.3265 2.3912-.9796.7358-1.9592 1.4715-2.9388 2.2686-.7959.6744-1.5918 1.4102-2.3265 2.1459-.7347.5519-1.5307 1.1037-2.2041 1.7168-1.1021.981-2.1429 1.962-3.1837 3.0043-.5511.5519-1.1021 1.1037-1.6531 1.5942-.4898.4905-.9796.981-1.4694 1.5328-.9184 1.1036-1.7755 2.2073-2.6327 3.3109-.7959 1.0423-1.5918 2.0233-2.3265 3.0656-.6123.981-1.2857 1.962-1.898 2.9431-.7347 1.1036-1.4694 2.1459-2.0816 3.3108-.6123 1.165-1.2245 2.3299-1.7755 3.5562.0612-.1226.0612-.1839.1224-.3066-.55102 1.1037-1.10205 2.2686-1.4694 3.4336-.36735 1.1036-.67347 2.2072-1.04082 3.3109-.67347 2.3298-1.10205 4.6597-1.40817 7.0509v-.0613.3066-.0613c0 .2452-.06122.4292-.06122.6744-.06123.184-.12245.3066-.18368.4905-.67347 1.9007-1.16327 3.8627-1.7143 5.7634-.36734 1.5329-.73469 3.0657-1.04082 4.5985-.36735 2.0846-.55102 4.2306-.61225 6.3765-.06122 1.5329-.06122 3.0657-.06122 4.5985 0 1.8394.2449 3.6788.4898 5.5182v.2452c-.12245.5518-.30613.7971-.4898 1.1036z" fill="#161212"/><path d="M18.1836 43.5322c.0619 0 .0619 0 0 0 0 .062 0 0 0 0zM18.1226 43.6553s0-.062 0 0c.0619-.062.0619-.062 0 0zM18.1837 145.189c-1.0408-1.472-2.0204-3.004-2.9388-4.598-1.3469-2.33-2.5102-4.722-3.7959-6.99-.6735-1.226-1.347-2.453-1.89799-3.74-.55102-1.288-.97959-2.637-1.34694-3.924 0-.062 0-.123-.06123-.184 0-.062-.06122-.123-.06122-.245-.2449-.798-.4898-1.595-.7347-2.33-.30612-.981-.67347-1.901-.85715-2.882-.30612-1.594-.36735-3.25.06123-4.782.06122.061.18367.183.2449.245.12245.122.2449.184.36735.245.48979 1.165.97959 2.269 1.46939 3.372.85715 1.962 1.83676 3.863 2.81636 5.825.6122 1.349 1.1633 2.759 1.7143 4.108.7959 1.839 1.7143 3.556 2.5714 5.334.551 1.288 1.0408 2.637 1.6531 3.863.7959 1.717 1.5918 3.372 2.5102 5.028 1.4082 2.452 3.1225 4.721 4.8368 6.928.7347 1.042 1.4694 2.146 2.2653 3.127.6122.797 1.2245 1.594 1.898 2.33.7347.797 1.5306 1.471 2.3265 2.207 2.449 2.269 4.7755 4.66 7.6531 6.377 1.5306.919 3.1225 1.716 4.7756 2.391 1.4081.552 2.7551 1.042 4.1632 1.655 1.898.92 3.6735 1.901 5.5715 2.821 1.8368.919 3.6735 1.716 5.5715 2.513 2.5102 1.104 4.9592 2.33 7.5918 3.066 1.5307.429 3.0613.674 4.6531.858.9796.123 1.898.184 2.8776.307 1.7143.245 3.4286.674 5.1429.981 1.5918.307 3.1837.736 4.7755.981 2.0817.307 4.2245.613 6.3062.613h.4286c1.5306-.061 3.0612-.368 4.6531-.613 3.2449-.368 6.4897-.429 9.7347-.49 1.959-.062 3.918-.184 5.816-.614h.674c1.714 0 3.306-.061 4.959-.551 1.225-.368 2.388-.859 3.612-1.411 1.286-.613 2.633-1.165 3.98-1.778.98-.49 1.837-1.042 2.755-1.594.735-.429 1.531-.92 2.265-1.349.735-.429 1.47-.919 2.266-1.349.673-.367 1.347-.735 2.02-1.103 1.102-.613 2.143-1.288 3.245-1.901 1.041-.552 2.02-1.226 3-1.839 1.102-.736 2.143-1.472 3.184-2.208.673-.551 1.347-1.103 1.959-1.655 1.959-1.226 3.796-2.575 5.633-4.047 2.632-2.207 5.142-4.537 7.653-6.867 2.632-2.514 5.204-5.027 7.653-7.725 1.163-1.349 2.204-2.698 3.245-4.047-15.857 25.936-44.511 43.287-77.2048 43.287-30.49.123-57.3064-14.776-73.6535-37.646z" fill="#161212"/><path d="M10.1634 123.239c-.85717-.92-1.59187-1.962-2.20412-3.127-.7347-1.472-.9796-3.066-1.34695-4.599-.06122-.367-.12245-.735-.2449-1.103.61225 1.717 1.40817 3.372 2.14287 5.027.61225 1.472 1.34695 2.882 2.0816 4.292-.1224-.184-.3061-.367-.4285-.49zM3.36743 81.4848c.12245-2.8817.36735-5.8247.91837-8.6451.2449-1.4102.61225-2.8204.9796-4.2306.36735-1.4102.7347-2.8204 1.16327-4.1692.91838-2.8204 2.2041-5.5182 3.61223-8.1547 1.2858-2.4525 2.5715-4.905 3.8572-7.2962 1.4082-2.5751 3.0613-5.0277 4.8368-7.3575 1.7755-2.3299 3.6735-4.4759 5.6939-6.5605 1.9592-2.146 4.0408-4.1693 6.1837-6.1926 2.2041-2.0233 4.5919-3.924 6.9184-5.7634 2.2653-1.7781 4.5306-3.4949 6.9796-5.0277 4.8368-3.0656 9.9185-5.7634 15.0614-8.27723 1.9592-.98101 3.9796-1.9007 6.0612-2.75908 4.4082-1.34888 8.9388-2.32989 13.6532-2.94302-.1225 0-.1837.06131-.3062.06131-.3061.06132-.6122.18394-.9183.24526-1.2858.36787-2.5103.85838-3.7348 1.28757-1.2857.42919-2.5714.91969-3.7959 1.47151-.7959.12262-1.6531.30656-2.449.55181-3.2449.85838-6.3062 2.39117-9.3062 3.92407-1.5306.797-3.0612 1.5328-4.5306 2.3298-1.4694.7971-2.8776 1.7781-4.2858 2.6365-1.4081.9197-2.8775 1.7781-4.4081 2.5751-.7347.3679-1.5307.7358-2.2041 1.2263-.796.4905-1.5919 1.0423-2.3266 1.6554-1.3469 1.1037-2.6939 2.2686-3.9796 3.4949-1.1633 1.1036-2.2653 2.3299-3.3061 3.4948-.1225.1226-.1837.2453-.3062.3679-.8571.6131-1.7143 1.2876-2.5714 1.9007h-.0612c-.0613 0-.0613.0613-.1225.0613-1.1633.9197-2.449 1.7168-3.551 2.6978-1.1021.981-2.1429 1.962-3.1837 3.0043-.551.5518-1.1021 1.1036-1.6531 1.5941-.4898.4905-.9796.981-1.4694 1.5329-.9184 1.1036-1.7755 2.2072-2.6327 3.3109-.7959 1.0423-1.5918 2.0233-2.3265 3.0656-.6122.981-1.2857 1.962-1.898 2.943-.7347 1.1037-1.4694 2.146-2.0816 3.3109-.6123 1.165-1.2245 2.3299-1.7755 3.5562.0612-.1227.0612-.184.1224-.3066-.55101 1.1036-1.10203 2.2686-1.46938 3.4335-.36735 1.1037-.67347 2.2073-1.04082 3.3109-.67348 2.3299-1.10205 4.6598-1.40817 7.051v-.0613.2452c0 .2453-.06123.4292-.06123.6745-.06122.1839-.12245.3065-.18367.4905-.67348 1.9007-1.16328 3.8627-1.7143 5.7634-.36735 1.4715-.7347 2.943-.9796 4.4145v.0613z" fill="#161212"/><path d="M18.1226 43.6553s0-.062 0 0c0-.062.0619-.062 0 0zM162.552 38.9337c-.122-.1226-.245-.2452-.367-.3679-.551-.981-1.164-1.962-1.776-2.943-.918-1.3489-1.837-2.6364-2.816-3.924.857.8584 1.714 1.7781 2.571 2.6978.674.7357 1.286 1.5328 1.898 2.2685 1.592 1.962 3.061 3.9854 4.531 6.07-1.408-1.2262-2.694-2.5138-4.041-3.8014zM18.1226 43.6553c.0619-.062.0619-.062 0 0 .0619-.062 0 0 0 0z" fill="#161212"/><path d="M62.3267 177.133c-1.653-.061-3.1224-.736-4.6531-1.104-1.8367-.184-3.7347 0-5.5714-.49-3.0613-.981-4.9592-3.434-7.7756-4.721-2.3265-1.288-5.0204-1.533-7.2245-2.943-3.0613-2.208-5.3878-5.335-8.449-7.481-3.6735-2.575-6.6123-6.805-9.3674-10.055-2.449-2.636-4.1021-5.763-5.3266-9.135-3.1225-5.457-5.3878-11.282-7.22454-17.291-3.30615-11.22-7.040862-22.686-6.734738-34.4576.061225-8.032 1.408168-16.0026 3.918388-23.5441 2.75512-7.5415 7.28579-14.4086 11.81639-20.969 5.1429-6.1926 10.8368-12.0174 16.5307-17.6582 3.4898-3.3109 7.1633-7.6028 12.3062-7.6028v.0613c-.4285.2453-.9184.4906-1.3469.7358-.796.4905-1.5919 1.0423-2.3266 1.6555-1.3469 1.1036-2.6939 2.2685-3.9796 3.4948-1.1633 1.1036-2.2653 2.3299-3.3061 3.4948-.1225.1226-.1837.2453-.3061.3679-.8572.6131-1.7143 1.2876-2.5715 1.9007 0 0-.0612 0-.0612.0613 0 0-.0612 0-.0612.0613 0 0 .0612 0 .0612-.0613l-.0612.0613c-1.1633.9197-2.449 1.7168-3.5511 2.6978-1.102.981-2.1429 1.962-3.1837 3.0043-.551.5518-1.102 1.1037-1.6531 1.5942-.4898.4905-.9795.981-1.4693 1.5328-.9184 1.0423-1.7143 2.1459-2.5715 3.2496 0 .0613-.0612.0613-.0612.0613-.7959 1.0423-1.5919 2.0233-2.3266 3.0656-.6122.981-1.2857 1.962-1.8979 2.943-.7347 1.1037-1.4694 2.146-2.0817 3.3109-.6122 1.165-1.2245 2.3299-1.7755 3.5562.0612-.1226.0612-.1839.1224-.3066-.55097 1.1037-1.102 2.2686-1.46935 3.4335-.36735 1.1037-.67347 2.2073-1.04082 3.3109-.67347 2.3912-1.16327 4.8438-1.40817 7.2963v-.0613.0613c0 .1839-.06123.4292-.06123.6131-.06122.1839-.12245.3066-.18367.4905-.67347 1.9007-1.16327 3.8627-1.7143 5.7634-.36735 1.5328-.7347 3.0657-1.04082 4.5985-.36735 2.0846-.55102 4.2306-.61225 6.3765-.06122 1.5329-.06122 3.0657-.06122 4.5985 0 1.8394.2449 3.6788.4898 5.5182.24489 1.9008.30612 3.8018.48979 5.7018.30613 2.391.85715 4.66 1.59185 6.929.30612 1.042.67347 2.023.9796 3.065.67347 1.84 1.4694 3.679 2.26532 5.457.85715 1.962 1.83677 3.863 2.81637 5.825.551 1.226 1.0408 2.514 1.5918 3.74 1.1633 2.882 2.3878 5.641 3.8572 8.338.1837.43.3673.798.551 1.227.4898 1.042.9796 2.084 1.5306 3.127.4286.981.8572 1.9 1.4082 2.82.3674.613.7959 1.165 1.2245 1.717.9796 1.471 2.0816 2.882 3.1837 4.292.7347 1.042 1.4694 2.146 2.2653 3.127.6123.797 1.2245 1.594 1.898 2.33.7347.797 1.5306 1.471 2.3265 2.207 2.449 2.268 4.7756 4.66 7.6531 6.376 1.5307.92 3.1225 1.717 4.7756 2.392 1.4081.551 2.7551 1.042 4.1633 1.655 1.2857.613 2.5102 1.288 3.7959 1.901.4286.306.8572.552 1.2857.797.1837.061.3062.061.4898.122 1.8368.92 3.6735 1.717 5.5715 2.514 2.1429.92 4.2857 1.962 6.4898 2.759.0613.123.1837.246.2449.368-.6734.062-1.3469.123-2.0204.123-.3061.061-.7347.061-1.1633 0z" fill="#161212"/><path d="M75.1231 182.038c-5.5103-.49-11.143-.613-16.2246-3.127-3.9796-1.717-7.4082-4.598-10.898-7.112-2.1429-1.288-3.9184-3.066-5.694-4.844-.1224-.123-.551-.49-.4898-.736.0613 0 .0613 0 .1225.062.551.245 1.1633.49 1.7143.735 1.4082.552 2.7551 1.043 4.1633 1.656 1.8979.92 3.6735 1.901 5.5714 2.82 1.8368.92 3.6735 1.717 5.5715 2.514 2.5102 1.104 4.9592 2.33 7.5919 3.066 1.5306.429 3.0612.674 4.6531.858.9796.123 1.8979.184 2.8775.307 1.7143.245 3.4286.674 5.1429.981 1.5919.306 3.1837.735 4.7756.981 2.0816.306 4.2245.613 6.3061.613h.4286c1.5306-.062 3.0612-.368 4.6531-.613 3.2449-.368 6.4895-.43 9.7345-.491 1.959-.061 3.919-.184 5.817-.613h.612c1.714 0 3.306-.061 4.959-.552 1.225-.368 2.388-.858 3.612-1.41 1.286-.613 2.633-1.165 3.98-1.778.98-.491 1.837-1.042 2.755-1.594.735-.429 1.531-.92 2.265-1.349.735-.429 1.47-.92 2.266-1.349.673-.368 1.347-.736 2.02-1.104 1.102-.613 2.143-1.287 3.245-1.9 1.041-.552 2.02-1.227 3-1.84 1.102-.735 2.143-1.471 3.184-2.207.979-.736 1.836-1.533 2.755-2.33.796-.736 1.592-1.471 2.449-2.146.857-.674 1.714-1.349 2.571-2.023 1.531-1.165 3-2.453 4.286-3.863.612-.674 1.286-1.287 1.898-1.962.612-.674 1.102-1.287 1.592-2.023.122-.245.306-.429.428-.675.245-.306.429-.551.674-.858.49-.552.918-1.165 1.347-1.717.061-.061.122-.122.184-.245-.062.061-.123.123-.184.245.673-.858 1.286-1.655 1.959-2.514.551-.735.98-1.532 1.469-2.329.858-1.227 1.898-2.392 2.694-3.679.98-1.656 2.021-3.25 2.449-5.151 0-.061.062-.183.062-.245.367-.613.673-1.226.979-1.839.857-1.778 1.592-3.556 2.265-5.396.674-1.839 1.286-3.678 1.837-5.518-.061.123-.061.184-.122.307.061-.184.122-.368.122-.491v-.061c.674-2.391 1.286-4.783 1.898-7.174v.062c.551-2.085 1.041-4.231 1.47-6.377.306-1.533.612-3.066.796-4.598.183-1.9012.306-3.7405.367-5.5799 0-2.6365-.245-5.2729-.674-7.8481-.428-2.6977-.918-5.3342-1.653-7.9706-.551-1.8394-.979-3.6788-1.408-5.5182-.245-1.9007-.551-3.8014-1.041-5.7021-.183-.6131-.428-1.2876-.612-1.9007-.612-2.6365-1.347-5.2729-2.02-7.9094.122.4292.245.9197.306 1.3489-.735-2.943-1.531-5.8247-2.694-8.6451-1.225-2.8204-2.694-5.5795-4.347-8.1546-.551-.8584-1.102-1.6555-1.714-2.3912-.245-.6132-.49-1.2263-.796-1.7781-.613-1.2263-1.347-2.3299-2.082-3.4948-.918-1.3489-1.898-2.6365-2.878-3.9241.919.8584 1.776 1.8394 2.572 2.7591.98 1.1036 1.898 2.2073 2.816 3.3722.98 1.165 1.959 2.2686 2.878 3.4335.612.8584 1.163 1.7168 1.714 2.5752.612.981 1.286 1.962 1.898 2.943 1.531 2.6365 2.878 5.3342 4.163 8.0933.368.7971.674 1.5941.98 2.3912.306.7358.612 1.4102.857 2.146.245.8583.49 1.778.796 2.6364.306.8584.612 1.6555.796 2.5138.245.9197.49 1.8394.796 2.7591.245.8584.551 1.6555.735 2.5139.245.981.428 1.962.796 2.8817.244.6131.551 1.1649.795 1.778.49 4.6598.613 9.3809 1.103 14.102 1.224 6.9897.795 14.1016-.49 21.0306-1.47 7.664-4.286 14.592-7.409 21.705-2.693 7.234-6.673 13.856-12.244 19.252-6.307 8.216-14.633 15.512-23.756 20.478-4.041 2.33-7.592 5.518-11.816 7.542-4.225 2.084-8.572 3.924-13.225 4.66-6.367.797-12.9181.245-19.1631.735-6.0612-.552-12-.981-17.9388-2.207z" fill="#161212"/><path d="M1.40796 93.073c0-3.1883.18367-6.3765.4898-9.4422.06122-.1839.12245-.3679.2449-.5518.30612-.6744.67347-1.2876 1.10204-1.8394.06123-.1226.18368-.1839.2449-.3066-.06122.3066-.12245.5519-.18367.8584-.36735 2.0847-.55102 4.2306-.61225 6.3766-.06122 1.5328-.06122 3.0656-.06122 4.5984 0 1.8394.2449 3.6788.4898 5.5182.24489 1.9004.30612 3.8014.48979 5.7024.30613 2.391.85715 4.659 1.59185 6.928.30612 1.042.67347 2.023.9796 3.066.67347 1.839 1.46939 3.678 2.26532 5.457.79592 1.839 1.71428 3.617 2.63268 5.395.0612.307.1837.613.3061.981.3674 1.288.8572 2.514 1.2857 3.801.3674 1.227.8572 2.392 1.347 3.557.4286.858.7959 1.778 1.2245 2.636.6735 1.533 1.4082 3.066 2.2653 4.476.7347 1.287 1.4694 2.575 2.2041 3.801.6122.981 1.2857 1.962 2.0204 2.882.3674.491.7959.92 1.2245 1.349.551.736 1.1021 1.471 1.7143 2.207.7347 1.042 1.4694 2.146 2.2653 3.127.6123.797 1.2245 1.594 1.898 2.33.7347.797 1.5306 1.472 2.3265 2.207 2.449 2.269 4.7756 4.66 7.6531 6.377 1.5307.92 3.1225 1.717 4.7756 2.391.3673.123.7347.307 1.102.429 2.449 1.656 4.898 3.25 7.5307 4.66 1.4694.736 3 1.288 4.5306 1.839 1.8368.614 3.6735 1.165 5.5715 1.595 1.3469.613 2.7551 1.164 4.1633 1.532 1.5306.43 3.0612.675 4.6531.859.9796.122 1.8979.184 2.8775.306 1.7143.246 3.4286.675 5.1429.981 1.5919.307 3.1837.736 4.7756.981 2.0816.307 4.2245.613 6.3061.613h.4286c.9796 0 1.9592-.184 3-.306 1.5306.061 3.0613.061 4.5919.061 2.1433 0 4.2853-.061 6.4283-.184.857-.061 1.715-.184 2.572-.368.612-.184 1.285-.368 1.898-.551.551-.062 1.102-.184 1.653-.307h.673c1.715 0 3.306-.061 4.959-.552 1.225-.368 2.388-.858 3.613-1.41 1.285-.613 2.632-1.165 3.979-1.778.98-.491 1.837-1.042 2.755-1.594.735-.429 1.531-.92 2.266-1.349.734-.429 1.469-.92 2.265-1.349.245-.123.429-.245.674-.368 1.102-.368 2.265-.797 3.367-1.165 2.204-.858 4.408-1.839 6.49-3.004 1.041-.613 2.081-1.349 3-2.085 1.959-1.655 3.857-3.372 5.755-5.15 1.102-1.042 2.143-2.207 3.184-3.311.918-.981 1.898-2.023 2.816-3.004 3-3.495 5.694-7.235 8.204-11.037 1.531-2.452 3-4.966 4.776-7.235.489-.613.918-1.226 1.469-1.778.612-.613 1.286-1.103 2.02-1.532.184-.062.307-.184.49-.246-14.388 30.595-45.612 51.81-81.7962 51.81-49.9594 0-90.36784-40.222-90.36784-89.885z" fill="#161212"/><path d="M160.654 146.66c.061-.061.061-.122.123-.122-.123.184-.245.306-.368.49.061-.184.123-.245.245-.368zM160.899 146.293c-.061.122-.122.183-.245.306.123-.123.184-.245.245-.306zM160.777 146.477s-.062.062 0 0c-.062.062 0 0 0 0zM173.634 54.875s0 .062.062.062c-.062 0-.062 0-.062-.062zM174.674 119.315v.122c-.061-.061-.061-.061 0-.122zM30.8573 26.9163c4.898-4.4758 10.0409-8.7677 15.796-12.0173 3.3062-1.6554 6.8572-2.943 10.1634-4.5371C67.3474 6.68309 77.4494 1.0423 88.7148.245234 98.2659-.674459 107.45 2.32987 116.45 5.08895c1.592.49051 3.183 1.10363 4.714 1.83939-.184-.06131-.429-.06131-.612-.12263-2.572-.4905-5.143-.981-7.715-1.59413-1.102-.30657-2.204-.67444-3.306-1.04232-1.041-.30657-2.02-.61313-3.061-.79707s-2.143-.30656-3.184-.42919c-1.469-.18394-2.938-.24525-4.4078-.30656-3.3674-.12263-6.796-.18394-10.1634 0-3.1224.12262-6.1837.55181-9.1837 1.34888-.1837.06131-.3674.12263-.6123.18394-.3061.06131-.6122.18394-.9183.24525-1.2857.36788-2.5102.85838-3.7347 1.28757-1.2858.42919-2.5715.9197-3.796 1.47151-.7959.12263-1.6531.30657-2.449.55182-3.2449.85838-6.3061 2.39119-9.3062 3.92399-1.5306.7971-3.0612 1.5329-4.5306 2.3299-1.4694.7971-2.8776 1.7781-4.2857 2.6365-1.4082.9197-2.8776 1.7781-4.4082 2.5751-.7347.3679-1.5307.7358-2.2041 1.2263-.7959.4905-1.5919 1.0423-2.3266 1.6554-1.3469 1.1037-2.6939 2.2686-3.9796 3.4949-1.1633 1.1036-2.2653 2.3299-3.3061 3.4948-.1225.1226-.1837.2452-.3061.3679-.8572.6131-1.7143 1.2875-2.5715 1.9007h-.0612s-.0612 0-.0612.0613c0 0 .0612 0 .0612-.0613l-.0612.0613c-1.1633.9197-2.449 1.7167-3.5511 2.6978-1.102.981-2.1429 1.962-3.1837 3.0043-.551.5518-1.102 1.1036-1.653 1.5941-.4898.4905-.9796.981-1.4694 1.5328-.5511.6132-1.0409 1.2876-1.5919 1.9621 3.2449-5.5182 7.1633-10.7298 11.6327-15.267z" fill="#161212"/><path d="M162.246 40.957c-2.388-3.5561-4.898-7.0509-8.082-10.0553-5.51-5.3342-11.755-9.7487-18.49-13.4275-6.367-3.8014-13.102-7.1123-20.143-9.5035-8.143-2.32989-16.3467-4.23059-24.6733-5.51816-1.5306-.36788-3.1225-.36788-4.7143-.4905-.2449 0-.4286-.06132-.6122-.24525-.4286-1.103636 1.3469-.919698 2.7551-.67445.6734.12263 1.2857.18394 1.5306.12263-.0612 0-.1225-.06131-.1225-.12263.8572-.367873 1.7756-.367873 2.6939-.306561C96.919.797092 101.327 1.96204 105.797 2.63648c3.918.67444 7.775 1.77807 11.694 2.57514 3.612.98101 7.04 2.63645 10.408 4.23059 6.428 3.06569 12.49 6.86709 18.245 11.03629.245.1227.49.3066.673.4905.061.6132.306 1.165.796 1.6555.429.4292.857.8584 1.286 1.2262-1.225-.9197-2.51-1.8393-3.796-2.6977-2.572-1.8394-5.143-3.6175-7.837-5.2729 2.878 2.2072 6 4.8437 9.123 6.5604 2.449 1.4102 4.592 3.3723 6.612 5.3956-.551-.7358-1.163-1.3489-1.837-2.0234.857.7358 1.776 1.4716 2.633 2.2686.428.4292.796.7971 1.224 1.2263.551.4905 1.041.981 1.592 1.4715 1.225 1.1649 2.388 2.3912 3.551 3.6175.98 1.1036 1.898 2.2072 2.817 3.3722.979 1.1649 1.959 2.2685 2.877 3.4335.612.8584 1.163 1.7168 1.714 2.5751.613.981 1.286 1.962 1.898 2.943.49.7971.919 1.6555 1.409 2.4526l-.062.0613c.123.1839.245.4292.429.6131.857 1.6555 1.653 3.3109 2.449 4.9664 0 .0613.061.0613.061.1226 0-.0613-.061-.0613-.061-.1226.245.5518.49 1.1649.735 1.7167-4.102-5.1503-8.204-10.3006-12.184-15.5735zM108.858 5.15031c9.979 2.08464 19.224 6.62179 27.918 11.77209-1.836-1.4715-3.551-3.0044-5.571-4.1693-2.143-1.1036-4.408-2.0846-6.612-3.00433-5.572-2.45251-11.511-4.10796-17.511-5.02765.613.12262 1.225.24525 1.776.42919z" fill="#161212"/><path d="M175.348 61.2516c-1.959-1.7781-2.327-4.5985-3.49-6.8671-1.775-3.6174-3.796-7.0509-6.122-10.3005-.49.0613-.735-.4292-1.041-.6745-1.898-2.1459-2.939-4.7824-4.653-6.9896-3.061-3.4949-6.429-6.6831-9.857-9.8101-2.205-2.0233-4.225-4.3532-6.674-6.1926.49.3066 1.225 1.1649.306 1.4102-.428.0613-.735-.3066-1.041-.4905-1.408-1.1036-2.816-2.0846-4.285-3.0043-4.102-2.5139-8.572-4.2919-12.735-6.6831-2.51-.9197-5.021-2.02337-7.47-3.06569-3.428-.85838-6.857-1.71676-10.285-2.51383-4.837-1.47151-9.7964-2.45252-14.8168-2.69777-3.1837-.30656-6.4286-.30656-9.6123 0-.9796.24525-2.0204.30657-3 .30657 0 .06131-.0612-.06132 0-.12263.8571-.91969 2.2653-.79707 3.3674-1.10363 2.449-.12263 4.8367-.30657 7.2857-.12263 2.8164.18394 5.6939.36788 8.5103.73576 4.5307.85838 8.8777 2.26857 13.3467 3.24958-1.469-.73575-3.183-.91969-4.714-1.59414-.551-.36787-3.184-1.16494-2.02-1.90069.244-.12263.489-.00001.673.06131 1.653.67444 3.245 1.34888 4.898 2.02332 3.367.61313 6.367 2.26858 9.674 3.00434 3.367.981 6.428 2.82043 9.489 4.41453 3.184 1.2876 6.062 3.127 9.062 4.8437 0-.3679.428-.6131.734-.4292.796.5518 1.531 1.1037 2.266 1.7168 4.102 3.3109 8.694 6.07 12.245 9.994 2.081 2.4525 4.041 4.9663 5.694 7.7254 1.775 2.2686 3.979 4.4145 5.081 7.1123 2.878 4.1693 5.633 8.4612 7.47 13.2436.489 1.5941 1.714 3.0043 1.714 4.7211z" fill="#161212"/><path d="M19.102 109.873c-.0612 0-.1837 0-.3061-.062.8571-1.41 1.9592-2.697 3.4286-3.433 4.1633-2.514 8.449-4.966 12.9797-6.7445 8.8776-3.4948 17.6327-7.4802 26.8777-9.9327 6.2449-1.5941 12.4898-3.2496 18.7348-4.7211 6.1837-1.5328 12.3062-3.3722 18.6736-4.0466 9.4897-.981 18.9797-1.165 28.5307-1.165 6.367-.1226 12.735.1227 19.041 1.165 4.592.6744 9.122 1.8394 13.592 3.0043 2.388.5518 4.837 1.2263 6.551 3.0043-2.571 1.2263-5.143-.1839-7.653-.6744-2.816-.6744-5.633-1.4102-8.266-1.962-7.53-1.5328-15.122-2.0847-22.775-1.9007-7.714 0-15.429.1839-23.143.6744-10.9594.5518-21.3064 4.108-31.8983 6.4992-6.1225 1.6554-12.3062 2.943-18.3062 5.089-6.8572 2.5751-13.6532 5.2116-20.4491 8.0318-3.0001 1.226-5.8776 2.821-8.694 4.476-2.1428 1.104-4.2857 2.943-6.9184 2.698z" fill="#171212"/><path d="M66.6126 88.2906c-3.6735-.4292-6.4286-4.4145-7.8367-7.5415-1.6531-3.1883-2.1429-6.7444-2.0817-10.2392 0-2.6365.0612-5.2729.8572-7.7868 3.1837-12.8144 12.6123-19.988 25.6532-20.6624 7.1021-.0613 14.9388-.0613 20.9384 4.1693 4.409 3.1882 8.266 7.5415 9.919 12.8144 1.714 5.4568 1.408 11.3428.735 16.9836-.123 1.9007-1.164 3.6788-2.939 4.3532-.612-1.2262-.796-3.0656-.612-4.5371.367-4.1693.673-8.3386.061-12.5078-.919-6.4379-5.327-11.9561-10.837-15.1443-4.2245-2.146-9.1225-2.3912-13.7756-2.5139-8.5103-.3678-17.8164 2.7591-22.4083 10.3006-3.6123 6.3152-5.2041 13.8567-3.4286 20.969.6735 2.0847 1.5919 4.1693 3 5.8861 1.5306 1.7167 3.5511 3.1269 4.5307 5.3342-.4898.1839-1.1633.1839-1.7756.1226z" fill="#171212"/><path d="M109.654 81.1783c-.674-.6745-.306-1.5942.245-2.146.673-1.0423 1.53-1.962 2.204-3.0043.183-.4905.612.4905.673.6744 1.225.4905.98 2.0234.429 2.9431-.429.5518-.735 2.0846-1.653 1.4715-.551.5518-1.347.6744-1.898.0613zM25.8981 118.518c-.2449-2.882 3.0613-4.292 5.0817-5.641 4.5306-2.882 9.1225-5.641 14.1429-7.541 10.0409-4.476 20.5716-7.9098 31.4696-9.5039 5.3878-.8584 10.7144-2.2686 16.1634-2.2073 2.6326-.0613 5.3265-.0613 7.9593-.1226 1.959-.1226 4.041.1226 5.694 1.2262-2.204 1.5942-4.959 1.165-7.5308 1.165-2.6939 0-5.3878.0613-8.0817.1839-6.0001.3066-11.8164 1.9007-17.694 2.8817-9.0001 1.778-17.6328 4.782-26.0206 8.4-5.1429 1.962-9.9184 4.66-14.5103 7.664-1.5306.858-2.8775 1.962-4.4694 2.636-.6735.307-1.5306.368-2.2041.859zM29.3881 126.305c.551-1.84 2.1428-3.127 3.8571-3.863 2.3266-1.165 4.7143-2.207 7.0409-3.434 2.3877-1.226 4.7755-2.514 7.1633-3.678 7.2857-3.189 14.6327-6.254 22.3471-8.339 8.9388-2.269 18.0001-3.863 27.1838-4.844 1.2245-.061 2.5102.246 3.5507.797-1.2242.92-2.6323 1.411-4.163 1.594-14.5103 1.595-28.9593 4.783-42.3676 10.669-6.2449 2.452-11.9388 6.07-18.0001 8.829-2.1428 1.042-4.1633 2.33-6.6122 2.391 0 .061-.0613-.061 0-.122z" fill="#171212"/><path d="M65.7554 161.927c-.6735-2.084-.3673-4.23.4898-6.192.7959-1.962 1.5306-3.863 2.3266-5.825 2.449-5.15 4.7755-10.423 7.6531-15.389 2.2041-3.741 3.9796-7.726 6.1225-11.466 3-5.028 6.1224-10.055 9.7347-14.715 2.8163-3.25 5.3878-6.683 8.0209-10.0554 4.224-5.0277 9-9.5648 14.02-13.7341 1.531-1.2876 3.612-2.943 5.694-2.2073-.306.2453-.429.6132-.673.9197-.735 1.2876-1.837 2.146-3.001 3.0044-6.857 5.7021-13.102 12.2012-18.2445 19.5587-6.9184 7.909-12.3062 17.045-17.0205 26.365-1.2858 2.513-2.8164 4.905-4.1021 7.357-1.7755 3.74-3.551 7.419-5.3266 11.098-.8571 1.962-1.5918 3.985-2.3877 6.008-.6735 2.024-1.4694 3.986-3.3062 5.273zM39.5514 132.252c-.8572-.491.3673-1.165.6735-1.656 1.7755-1.594 4.102-2.329 6.1837-3.433 10.9592-5.58 22.4695-9.871 34.4696-12.447 1.9592-.551 4.1633-.674 5.9388.368-1.898 1.533-4.4082 1.717-6.6735 2.269-2.5715.613-5.0817 1.349-7.5919 2.023-8.3266 2.33-16.1634 5.948-24.0002 9.626-1.4693.675-2.9388 1.411-4.3469 2.085-1.347.797-3 1.594-4.6531 1.165z" fill="#171212"/><path d="M50.5717 138.199l-.0612-.061c3.1837-5.457 17.4491-8.339 23.5103-9.503 1.7756-.43 3.7348-.184 5.3266.674-.7347.613-1.5918 1.165-2.449 1.471-2.3878.675-5.0204 1.043-7.4082 1.595-3.1837.735-6.3062 1.594-9.3674 2.697-3.1837 1.043-6.0613 3.495-9.5511 3.127zM85.3473 161.866c-1.5918-4.292.7347-8.522 1.7143-12.63.9796-4.17 2.449-8.155 4.2245-12.018 1.0408-2.636 2.1429-5.211 3.4898-7.725 4.1021-9.136 9.0001-17.842 14.3271-26.242 3-4.9664 6.979-9.2583 10.653-13.6729 2.143-2.2685 3.857-5.3342 7.041-6.1926.244 2.5139-2.021 4.5985-3.552 6.3153-1.897 2.2072-3.734 4.4145-5.632 6.6218-4.347 4.9054-7.776 10.4844-11.021 16.1864-5.938 10.239-11.265 20.969-15.4896 32.005-1.102 3.618-2.1428 7.297-3.1837 10.975-.4898 2.208-.6122 4.844-2.5714 6.377zM108.491 164.748c-.98-2.575-.429-5.273.061-7.848.796-4.476 1.898-9.197 3.122-13.55 1.408-5.335 2.939-10.608 4.776-15.819 1.714-5.273 3-10.73 4.837-16.003 2.755-7.787 5.755-15.512 9.489-22.8696 1.102-1.962 1.715-4.4758 3.858-5.5181.367-.184 1.163-.3679 1.285.2452 0 0 .062.0614.123.0614-.123.0613-.184.0613-.245.0613-.368 3.0043-2.143 5.4568-3.368 8.1546-1.53 3.0656-2.938 6.1313-4.285 9.3192-3.919 8.768-6.551 17.965-9.306 27.101-2.266 6.437-3.919 13.059-5.756 19.681-.979 3.924-1.775 7.848-2.449 11.833-.183 1.962-.734 3.863-2.142 5.151 0 .061 0 .061 0 0zM129.368 155.551c-1.041-2.575-.612-5.396-.061-8.032.551-2.637.796-5.334 1.224-7.971 1.286-8.277 2.449-16.554 4.102-24.77.796-4.231 1.654-8.461 2.388-12.692.674-4.2306 1.225-8.4612 2.449-12.5692.613-2.2072 1.041-4.905 3.061-6.2539.674 2.146.368 4.2919-.367 6.3152-.551 2.0234-1.041 4.0467-1.469 6.07-1.592 9.7489-3.674 19.3749-5.327 29.0619-.979 6.684-1.898 13.428-2.877 20.111-.306 1.901-.674 3.801-.98 5.702-.061 1.84-.735 3.74-2.143 5.028zM148.715 139.364c-1.041-2.146-.612-4.476-.183-6.744.122-1.349.122-2.759.183-4.108.612-7.112.429-14.225.674-21.337.122-4.353.428-8.6452.245-12.9984.061-3.3109-1.041-7.051 1.163-9.8714 1.592 2.3299 1.469 5.1503 1.653 7.8481.428 7.3575-.429 14.7147-.49 22.0727 0 4.231 0 8.522-.306 12.753-.245 4.169.122 9.136-2.939 12.385zM160.531 110.241c-.918-1.411-1.347-3.066-1.285-4.721.061-2.821.061-5.6413-.184-8.523-.122-1.9007-.245-3.8627-.367-5.7634-.245-1.7168 0-3.4335.796-4.905 1.898 1.1649 2.204 3.6787 2.265 5.7634.184 2.3912.306 4.7211.49 7.1123.122 1.5937.122 3.1267.183 4.7207.062 2.208.062 4.905-1.898 6.316z" fill="#171212"/><path d="M153.613 71.6748c-.49.4905-1.041.9197-1.592 1.2876-1.469.8584-3.183.8584-4.836.9197-2.388.1226-4.776.1839-7.164.2452-3.979.0614-7.898.3679-11.877.4905-1.776 0-3.613.3679-5.327-.1839-.612-.1839-1.163-.4905-1.775-.6744-.123-.0613-.184-.184-.184-.3066.796-1.2876 2.449-1.7781 3.918-1.9007 7.592-.6131 15.184-.4905 22.715-1.1036 2.143-.3066 4.408-.1227 6.122 1.2262zM129.123 60.3318c-.428.6132-.918 1.2263-1.53 1.7781-.674.5518-1.47.981-2.327 1.165-1.347.4291-2.633.9197-4.041.7357-.49-.0613-.979-.1839-1.469-.1839-.429-.1227-.245-.6132-.123-.8584.551-1.0423 1.592-1.7781 2.694-2.146 2.204-.8583 4.531-1.2875 6.796-.4905zM139.287 35.071c-.429 1.4102-1.041 2.8204-2.205 3.7401-2.326 1.9007-4.469 3.924-6.612 6.0086-2.694 2.5139-5.755 4.5372-8.877 6.4379-1.347.9197-3 1.5941-4.653 1.2876 0 0-.184-.0613-.184-.1227.735-1.8393 2.082-3.1882 3.857-4.1079 1.776-1.165 3.551-2.3912 5.143-3.7401 3.184-2.6978 6.061-5.6408 9.429-8.0933 1.224-.9197 2.755-1.2263 4.102-1.4102zM116.021 37.033c-.122 3.8014-2.143 5.2729-5.327 6.7444-.734-3.2495 2.388-6.0699 5.327-6.7444zM111.368 9.74878c1.102 3.18822-.612 6.43782-1.286 9.50352-1.224 4.7824-2.755 9.4422-4.469 14.0406-.429 1.1037-.735 2.2073-1.347 3.2496-.551.981-1.469 1.6555-2.204 2.3912-.857-2.0846-.061-4.3532.612-6.3765.674-2.3299 1.47-4.5985 2.143-6.9284.796-2.5751 1.531-5.2116 2.265-7.848.796-2.9431 1.286-6.4992 4.286-8.03202zM89.5109 27.2842c1.8367 2.6978 1.8367 5.9474-.3674 8.3999-.0612.0613-.1837-.1839-.2449-.2452-1.6531-2.4526-1.1633-5.8861.6123-8.1547zM77.0207 32.6185c.551 1.7168.9796 3.4948.4898 5.2729v.0613c0 .0613 0 .1226-.0612.1226s-.1225 0-.1837-.0613c-2.8775-1.8394-3.0612-5.6408-4.0408-8.5838-.9184-3.1269-2.2041-6.07-3.1837-9.1356-.7347-1.8394-1.1021-3.8627-.4898-5.7634 1.1633.981 2.2041 2.0846 2.7551 3.5561 1.7143 4.7824 3.5511 9.5648 4.7143 14.5312zM59.8779 38.7497c1.1632 1.4102 2.3265 3.0657 2.5714 4.9051-3.3674-.9197-6.2449-4.7824-6.4898-8.216 1.5918.6745 2.9388 1.9007 3.9184 3.3109zM45.1841 89.6395c1.4082-3.6175 6.4286-4.8438 9.796-3.5562-.9184 1.5328-2.5103 2.6978-4.2858 3.127-1.7755.7357-3.6122.797-5.5102.4292zM53.2044 75.6601c.1836.1226.3673.1839.4898.2452-.5511.5519-1.1021 1.1037-1.7756 1.5329-.8571.5518-1.8367.8583-2.8163.981-3.1225.7357-6.1225 1.5941-9.1837 2.5138-3.0613.8584-6.1225 1.7168-9.1225 2.6365-1.347.4905-2.7552.797-4.2245.5518-.3674-.0613-.7347-.0613-1.1021-.2453-.0612-.0613-.0612-.1226 0-.1839.4286-.5518.8572-1.1037 1.3469-1.5328 1.898-1.4716 4.4082-1.8394 6.6123-2.6978 3.0613-1.0423 6.0613-2.0233 9.1225-2.943 3.4286-.7358 7.2858-2.6978 10.6532-.8584zM50.082 66.831c-1.7143 1.962-4.7755 1.962-6.6123.184-.0612-.0613-.0612-.1227 0-.184 1.7143-1.8394 4.7144-1.5328 6.6123 0zM55.1024 52.4225c-.9184.7357-2.3878.7358-3.5511.5518-6.7959-1.962-13.7756-3.4335-20.4491-5.8247-2.1428-.5518-4.1633-1.4715-5.5714-3.1883 3-1.3489 6.1224.184 9.0612 1.0423 1.5919.4905 3.1837.981 4.8368 1.4715 3.4286.9811 6.8572 1.7168 10.2246 2.7591.9795.3066 2.0204.6132 2.9387 1.1037.9796.5518 1.6531 1.4102 2.5103 2.0846z" fill="#FDBE54"/></g><defs><clipPath id="clip0"><path fill="#fff" d="M0 0h182.021v184H0z"/></clipPath></defs></svg>