<svg width="33" height="40" viewBox="0 0 33 40" fill="none" xmlns="http://www.w3.org/2000/svg"><path d="M16.5 2.5c1.5629 0 3.0618.65848 4.1669 1.83058 1.1051 1.17211 1.726 2.76182 1.726 4.41942V10H10.6071V8.75c0-1.6576.6209-3.24731 1.726-4.41942C13.4382 3.15848 14.9371 2.5 16.5 2.5zm8.25 7.5V8.75c0-2.32064-.8692-4.54624-2.4164-6.18718C20.7865.921872 18.688 0 16.5 0c-2.188 0-4.2865.921872-5.8336 2.56282C9.11919 4.20376 8.25 6.42936 8.25 8.75V10H0v25c0 1.3261.496682 2.5979 1.38078 3.5355C2.26488 39.4732 3.46398 40 4.71429 40H28.2857c1.2503 0 2.4494-.5268 3.3335-1.4645C32.5033 37.5979 33 36.3261 33 35V10h-8.25z" fill="#FDBE54"/></svg>