<svg width="70" height="70" viewBox="0 0 70 70" fill="none" xmlns="http://www.w3.org/2000/svg">
<path d="M35 1.00008L35.002 1.00007C53.7777 0.961832 69 16.1811 69 35C69 53.7784 53.7784 69 35 69C16.2216 69 1 53.7784 1 35C1 16.2216 16.2216 1.00007 35 1.00008Z" stroke="#E9903C" stroke-width="2"/>
<path d="M65.4098 35C65.4098 51.7955 51.7955 65.4098 34.9999 65.4098C18.2044 65.4098 4.59009 51.7955 4.59009 35C4.59009 18.2045 18.2044 4.59021 34.9999 4.59021C51.7955 4.55601 65.4098 18.1703 65.4098 35Z" fill="#E9903C"/>
<path d="M40.2738 64.8604C51.8509 64.8604 65.2567 50.3425 65.2567 36.9178L55.3491 27.298L54.5933 27.8962L43.8606 17.2779L43.3063 18.2251L35.5465 10.548L33.6821 20.6179L28.3914 19.2221L29.1472 28.7437L24.3603 25.2042L22.6975 29.2921L17.8098 28.5941L19.9261 35.5733H14.3834L25.4185 46.4907L23.1006 47.9364L40.2738 64.8604Z" fill="#D17015"/>
<path d="M56.5752 35.9099L54.0668 35.8089C53.3644 35.7584 52.2607 35.6068 51.759 35.3542C51.8594 34.4448 53.1136 31.5145 54.3176 29.14L55.1705 27.5233L53.4146 27.9275C53.3644 27.9275 50.2038 28.6853 48.7489 28.6853C48.6486 28.6853 48.5482 28.6853 48.4981 28.6853C48.2472 28.1296 47.7957 26.4624 47.5449 25.0477L47.294 23.6331L42.4277 27.6244L43.732 17.3179L42.1768 18.3789C41.1734 19.0862 39.4677 20.0966 38.665 20.1976C38.063 19.5914 36.9593 16.4085 36.2569 13.6803L35.4542 10.548L34.6515 13.6803C33.9492 16.4085 32.8455 19.5914 32.2434 20.1976C31.5411 20.0966 29.9357 19.2377 28.7316 18.3789L27.1764 17.3179L28.4808 27.6244L23.6144 23.6331L23.3636 25.0477C23.1128 26.4624 22.7114 28.1296 22.4606 28.6853C22.4104 28.6853 22.3101 28.6853 22.2097 28.6853C20.7548 28.6853 17.544 27.9275 17.544 27.9275L15.7881 27.5233L16.641 29.14C17.8451 31.5145 19.0993 34.4448 19.1996 35.3542C18.6979 35.6068 17.6945 35.7584 16.8919 35.8089L14.3834 35.9099L16.4403 37.3245C20.6545 40.2548 25.27 43.6398 26.2734 44.6502C26.0727 45.0544 25.5208 45.8122 24.969 46.4185L23.0626 48.4899L34.7017 45.5596C35.0529 51.8748 38.665 58.4932 43.6819 58.4932V56.826C39.7687 56.826 36.7586 51.117 36.4074 45.6101L47.9964 48.5404L46.09 46.469C45.5381 45.8627 44.9863 45.1049 44.7856 44.7007C45.7388 43.6903 50.3543 40.3053 54.6186 37.3751L56.5752 35.9099ZM42.9795 44.4481C42.9795 44.8018 43.0799 45.2059 43.3307 45.6101L36.8589 43.9934L43.13 38.5876L42.4778 37.8298L36.0061 43.4377V29.3421H35.0027V43.4377L28.4808 37.7792L27.8286 38.5371L34.0997 43.9429L27.6279 45.5596C27.8286 45.1554 27.9791 44.7512 27.9791 44.3976C27.9791 43.9429 27.9289 43.2861 19.0993 37.1225C19.601 36.9709 20.1026 36.7688 20.4037 36.5162C20.805 36.1625 21.5575 35.5563 18.8484 29.8978C19.9521 30.0999 21.3067 30.3525 22.2097 30.3525C22.6612 30.3525 23.2633 30.302 23.6144 29.9483C24.066 29.4431 24.4673 28.0285 24.7683 26.7655L30.6882 31.6156L29.2835 20.8039C30.2869 21.4102 31.5912 21.9659 32.4441 21.9154C32.8455 21.9154 33.899 21.8143 35.4542 16.9643C37.0095 21.8143 38.063 21.9154 38.4643 21.9154C38.5145 21.9154 38.5647 21.9154 38.5647 21.9154C39.4175 21.9154 40.6216 21.3597 41.5748 20.8039L40.1701 31.6156L46.09 26.7655C46.391 28.0285 46.7923 29.4937 47.2438 29.9483C47.595 30.3525 48.197 30.3525 48.6486 30.3525C49.5516 30.3525 50.9062 30.1504 52.0099 29.8978C49.3008 35.5058 50.1035 36.1625 50.4546 36.5162C50.8058 36.8193 51.2573 37.0214 51.759 37.1225C43.0297 43.3366 42.9795 43.9934 42.9795 44.4481Z" fill="white"/>
</svg>
