<svg width="71" height="71" viewBox="0 0 71 71" fill="none" xmlns="http://www.w3.org/2000/svg">
<path d="M35.0081 1.00832C53.7857 1.00832 69.008 16.2306 69.008 35.0083C69.008 53.786 53.7857 69.0083 35.0081 69.0083C16.2304 69.0083 1.00807 53.786 1.00807 35.0083C1.00807 16.2306 16.2304 1.00832 35.0081 1.00832Z" stroke="#9DCB64" stroke-width="2"/>
<path d="M64.9957 35.0082C64.9957 18.4464 51.5698 5.02049 35.0081 5.02049C18.4463 5.02049 5.02038 18.4464 5.02038 35.0082C5.02039 51.5699 18.4463 64.9958 35.0081 64.9958C51.5698 64.9958 64.9957 51.5699 64.9957 35.0082Z" fill="#9DCB64"/>
<path d="M63.4384 26.1845L50.8946 13.7158L34.8276 22.348L30.6906 27.9109L21.0215 26.1845L13.0842 26.9997L13.9982 31.6515L19.6265 43.0651L41.0135 64.3577C63.4384 58.0275 68.0554 37.8858 63.4384 26.1845Z" fill="#78BB25"/>
<path d="M51.136 14.4833L50.8962 13.7158L50.1287 13.9077C49.6011 14.0996 36.0743 17.9849 31.2776 25.9475C31.0378 26.3792 30.7979 26.8109 30.6061 27.2426C28.1118 26.1393 24.898 25.5637 21.0126 25.5637C16.6956 25.5637 13.146 26.2832 13.0021 26.2832L12.2346 26.4271L12.3785 27.1946C12.4745 27.6743 14.6809 39.5701 21.1086 44.3669C22.7874 45.614 24.6581 46.2376 26.7687 46.2376C30.2703 46.2376 33.4361 44.4148 34.9231 43.4075C35.9784 47.101 35.6906 51.6099 34.1077 55.1595L35.5467 55.831C37.2735 51.9937 37.5613 47.149 36.4581 43.1197C37.1776 43.2157 38.1369 43.3116 39.2402 43.3116C43.2694 43.3116 48.5938 42.2083 51.232 36.884C55.3571 28.4897 51.3279 15.0589 51.136 14.4833ZM26.7687 44.6547C25.0419 44.6547 23.4589 44.127 22.0679 43.1197C17.0313 39.3783 14.7289 30.4564 14.1053 27.7702C15.3525 27.5783 17.9907 27.1946 21.0126 27.1946C25.4256 27.1946 28.9272 27.9621 31.3256 29.4491C35.7386 32.1832 35.4028 37.6515 34.9231 40.2897C33.2922 37.4116 30.5581 33.862 21.6842 31.7995L21.4443 32.7108C30.8939 34.9173 32.9565 38.6108 34.5873 41.6327C33.7719 42.3043 30.4622 44.6547 26.7687 44.6547ZM49.793 36.1165C47.5385 40.6734 42.7897 41.6327 39.2402 41.6327C38.041 41.6327 36.9857 41.5368 36.3621 41.4409C36.6499 40.2897 36.9857 38.1311 36.7459 35.8287C37.945 31.5596 40.3434 27.8182 43.5092 25.4678L42.9336 24.7003C39.7198 27.0987 37.6093 30.4084 36.3621 33.8141C35.7865 31.6556 34.5873 29.593 32.189 28.106C32.141 28.058 32.093 28.058 32.0451 28.0101C32.2369 27.5783 32.4288 27.1946 32.6687 26.7629C36.506 20.3833 46.9149 16.6898 49.8409 15.7304C50.6084 18.7044 53.1027 29.4491 49.793 36.1165Z" fill="white"/>
</svg>
