<svg width="70" height="70" viewBox="0 0 70 70" fill="none" xmlns="http://www.w3.org/2000/svg">
<path d="M69 35C69 53.7784 53.7784 69 35 69C16.2216 69 1 53.7784 1 35C1 16.2216 16.2216 1 35 1C53.7784 1 69 16.2216 69 35Z" stroke="#FDBE54" stroke-width="2"/>
<path d="M64.6129 35C64.6129 51.1617 51.5123 64.2623 35.3506 64.2623C19.1888 64.2623 6.08826 51.1617 6.08826 35C6.08826 18.8382 19.1888 5.73767 35.3506 5.73767C51.5123 5.73767 64.6129 18.8382 64.6129 35Z" fill="#FDBE54"/>
<path d="M32.4816 64.2624C53.7111 64.2624 64.6127 49.9181 64.6127 33.8526L50.9295 19.7246L46.1272 23.2989L35.6455 12.623L34.6296 19.4895L28.8577 20.5712L24.2402 23.8633L21.0079 28.049L19.8535 34.257L12.9734 35.715L23.5475 46.4849L19.9459 51.282L32.4816 64.2624Z" fill="#E8AB13"/>
<path d="M57.7275 35.7782V34.222H51.5968C51.4082 30.3078 49.8519 26.7708 47.3996 24.0827L51.7383 19.7441L50.6065 18.6123L46.2678 22.9509C43.5797 20.4986 40.0428 18.9424 36.1286 18.7537V12.623H34.5723V18.7537C30.6581 18.9424 27.1212 20.4986 24.4331 22.9509L20.0944 18.6123L18.9626 19.7441L23.3013 24.0827C20.849 26.7708 19.2927 30.3549 19.1041 34.222H12.9734V35.7782H19.1041C19.2927 39.6924 20.849 43.2294 23.3013 45.9175L18.9626 50.2561L20.0944 51.3879L24.4331 47.0493C27.1212 49.5016 30.6581 51.0578 34.5723 51.2465V57.3771H36.1286V51.2465C40.0428 51.0578 43.5797 49.5016 46.2678 47.0493L50.6065 51.3879L51.7383 50.2561L47.3996 45.9175C49.8519 43.2294 51.4082 39.6924 51.5968 35.7782H57.7275V35.7782ZM35.374 49.6902C27.2626 49.6902 20.6604 43.0879 20.6604 34.9765C20.6604 26.8651 27.2626 20.2628 35.374 20.2628C43.4854 20.2628 50.0877 26.8651 50.0877 34.9765C50.0405 43.0879 43.4382 49.6902 35.374 49.6902Z" fill="white"/>
</svg>
