<svg width="70" height="70" viewBox="0 0 70 70" fill="none" xmlns="http://www.w3.org/2000/svg">
<path d="M65.4097 35C65.4097 51.7955 51.7954 65.4098 34.9999 65.4098C18.2044 65.4098 4.59009 51.7955 4.59009 35C4.59009 18.2044 18.2044 4.59015 34.9999 4.59015C51.7954 4.55595 65.4097 18.1702 65.4097 35Z" fill="#4AA1D2"/>
<path d="M35 1.00008L35.002 1.00007C53.7777 0.961832 69 16.1811 69 35C69 53.7784 53.7784 69 35 69C16.2216 69 1 53.7784 1 35C1 16.2216 16.2216 1.00007 35 1.00008Z" stroke="#4AA1D2" stroke-width="2"/>
<path d="M35.5738 65.3445C53.9344 65.3445 65.4098 49.3443 65.4098 35.7717L51.1826 21.5894L48.4882 23.964L45.308 20.7979L44.3363 22.161L33.6029 11.4755L32.5428 19.9624L27.5074 17.28L32.6753 22.4249L32.852 29.5486L31.7036 30.2961L21.8536 20.49L21.5444 26.2506L13.7705 22.8646L18.4525 27.5258L16.5532 29.7685L24.7247 37.9036L23.4438 38.6072L16.0232 37.6397L19.4243 41.0257L14.4772 44.4117L35.5738 65.3445Z" fill="#228AC5"/>
<path d="M53.7319 39.6394L53.1932 38.1148L46.8268 40.3279L39.0402 35.8033C39.1872 35.3607 39.2851 34.918 39.2851 34.4262C39.2851 33.9344 39.1872 33.4918 39.0402 33.0492L46.8268 28.5246L53.1932 30.7377L53.7319 29.2131L48.6878 27.4426L56.2295 23.0656L55.397 21.6394L47.8553 26.0164L48.8347 20.7541L47.2186 20.459L45.9453 27.0984L38.1587 31.623C37.5711 30.9344 36.7385 30.4426 35.8081 30.2459V21.2459L40.9012 16.8197L39.8238 15.5902L35.8081 19.082V10.3279H34.192V19.082L30.1762 15.5902L29.0989 16.8197L34.192 21.2459V30.2459C33.2615 30.4426 32.478 30.9344 31.8413 31.623L24.0547 27.0984L22.7814 20.459L21.1653 20.7541L22.1448 26.0164L14.603 21.6394L13.7705 23.0656L21.3123 27.4426L16.2681 29.2131L16.8068 30.7377L23.1732 28.5246L30.9598 33.0492C30.8129 33.4918 30.7149 33.9344 30.7149 34.4262C30.7149 34.918 30.8129 35.3607 30.9598 35.8033L23.1732 40.3279L16.8068 38.1148L16.2681 39.6394L21.3123 41.4099L13.7705 45.7869L14.603 47.2131L22.1448 42.8361L21.1653 48.0984L22.7814 48.3935L24.0547 41.7541L31.8413 37.2295C32.429 37.9181 33.2615 38.4099 34.192 38.6066V47.6066L29.0989 52.0328L30.1762 53.2623L34.192 49.7705V58.5246H35.8081V49.7705L39.8238 53.2623L40.9012 52.0328L35.8081 47.6066V38.6066C36.7385 38.4099 37.5221 37.9181 38.1587 37.2295L45.9453 41.7541L47.2186 48.3935L48.8347 48.0984L47.8553 42.8361L55.397 47.2131L56.2295 45.7869L48.6878 41.4099L53.7319 39.6394ZM35.1224 36.6885C33.8981 36.6885 32.8697 35.7049 32.8697 34.4262C32.8697 33.1967 33.8492 32.164 35.1224 32.164C36.3468 32.164 37.3752 33.1476 37.3752 34.4262C37.3262 35.7049 36.3468 36.6885 35.1224 36.6885Z" fill="white"/>
</svg>
